0
SECTION
2
HEADER
9
$INSUNITS
70
4
9
$ACADVER
1
AC1014
9
$HANDSEED
5
FFFF
0
ENDSEC
0
SECTION
2
TABLES
0
TABLE
2
VPORT
5
8
100
AcDbSymbolTable
0
ENDTAB
0
TABLE
2
LTYPE
5
5
100
AcDbSymbolTable
0
LTYPE
5
14
100
AcDbSymbolTableRecord
100
AcDbLinetypeTableRecord
2
BYBLOCK
70
0
0
LTYPE
5
15
100
AcDbSymbolTableRecord
100
AcDbLinetypeTableRecord
2
BYLAYER
70
0
0
LTYPE
5
16
100
AcDbSymbolTableRecord
100
AcDbLinetypeTableRecord
2
DASHED
70
0
3
Dashed __ __ __ __ __ __ __ __ __ __ __ __ __ _
72
65
73
2
40
0.75
49
0.5
74
0
49
-0.25
74
0
0
ENDTAB
0
TABLE
2
LAYER
5
2
100
AcDbSymbolTable
70
2
0
LAYER
5
50
100
AcDbSymbolTableRecord
100
AcDbLayerTableRecord
2
0
70
0
62
7
6
CONTINUOUS
0
ENDTAB
0
TABLE
2
STYLE
5
3
100
AcDbSymbolTable
70
1
0
STYLE
5
11
100
AcDbSymbolTableRecord
100
AcDbTextStyleTableRecord
2
STANDARD
70
0
0
ENDTAB
0
TABLE
2
VIEW
5
6
100
AcDbSymbolTable
70
0
0
ENDTAB
0
TABLE
2
UCS
5
7
100
AcDbSymbolTable
70
0
0
ENDTAB
0
TABLE
2
APPID
5
9
100
AcDbSymbolTable
70
2
0
APPID
5
12
100
AcDbSymbolTableRecord
100
AcDbRegAppTableRecord
2
ACAD
70
0
0
ENDTAB
0
TABLE
2
DIMSTYLE
5
A
100
AcDbSymbolTable
70
1
0
ENDTAB
0
TABLE
2
BLOCK_RECORD
5
1
100
AcDbSymbolTable
70
1
0
BLOCK_RECORD
5
1F
100
AcDbSymbolTableRecord
100
AcDbBlockTableRecord
2
*MODEL_SPACE
0
BLOCK_RECORD
5
1B
100
AcDbSymbolTableRecord
100
AcDbBlockTableRecord
2
*PAPER_SPACE
0
ENDTAB
0
ENDSEC
0
SECTION
2
BLOCKS
0
BLOCK
5
20
100
AcDbEntity
100
AcDbBlockBegin
2
*MODEL_SPACE
0
ENDBLK
5
21
100
AcDbEntity
100
AcDbBlockEnd
0
BLOCK
5
1C
100
AcDbEntity
100
AcDbBlockBegin
2
*PAPER_SPACE
0
ENDBLK
5
1D
100
AcDbEntity
100
AcDbBlockEnd
0
ENDSEC
0
SECTION
2
ENTITIES
0
LWPOLYLINE
5
100
100
AcDbEntity
8
0
100
AcDbPolyline
90
4
70
1
43
0.0
10
-110
20
49.99999999992837
10
-129.99999471008783
20
49.99999999992837
10
-129.99999471008778
20
30.000000447034836
10
-110
20
30.000000447034836
0
LWPOLYLINE
5
101
100
AcDbEntity
8
0
100
AcDbPolyline
90
40
70
1
43
0.0
10
-140.38851004342968
20
87.635137118040205
42
1.309250369069848
10
-147.63513715751083
20
80.38850997435614
42
-0.11405172731413583
10
-136.06208858896571
20
69.687490524877362
42
-0.36016434572145423
10
-136.66054202746622
20
63.339457972533737
10
-138.53553390593291
20
61.46446609406685
42
0.19891236737964302
10
-139.99999999999994
20
57.928932188134354
10
-139.99999999999994
20
42.071068652021765
42
0.19891244192883936
10
-138.53553289177427
20
38.535533731930968
10
-136.66054226594281
20
36.660544181771144
42
-0.36016441375337072
10
-136.06208768400327
20
30.31251080529346
42
-0.11405173895520816
10
-147.63513715751074
20
19.611490025643977
42
1.3092503562027633
10
-140.38850987533101
20
12.364862785903538
42
-0.11405176226780812
10
-129.68748646074181
20
23.937914044874226
42
-0.36016430679236461
10
-123.33945447820824
20
23.339460218752556
10
-121.46446065345323
20
21.464466394023596
42
0.19891236737785684
10
-117.92892674754505
20
20.000000299980837
10
-102.07106207411094
20
20.000000299980833
42
0.19891236738145768
10
-98.535528168153519
20
21.464466394072662
10
-96.660538790347829
20
23.339455771904333
42
-0.36016438257811767
10
-90.312505698529151
20
23.937908843422075
42
-0.11405169427154707
10
-79.611490024614397
20
12.364862843077493
42
1.3092503865873746
10
-72.364862844425829
20
19.611490022254866
42
-0.11405171632667013
10
-83.937910552744611
20
30.31250821584549
42
-0.36016428110169696
10
-83.339458197043186
20
36.660539985079154
10
-81.464465130894723
20
38.535534071007426
42
0.19891229670418123
10
-79.999999998288231
20
42.07106701547913
10
-79.999999998288231
20
57.928933648820397
42
0.19891228411851022
10
-81.464464959680782
20
61.464466422078047
10
-83.339457987253809
20
63.339460651030166
42
-0.36016427332129908
10
-83.93791011302045
20
69.687492335361455
42
-0.11405171115927221
10
-72.364862812801718
20
80.388509922403045
42
1.3092503767780475
10
-79.611489962766498
20
87.635137121580925
42
-0.11405168523451759
10
-90.312504625773201
20
76.06209180254173
42
-0.36016439265457612
10
-96.660537865029141
20
76.660544774293925
10
-98.535528170971389
20
78.53553508060368
42
0.19891236740512969
10
-102.07106207725076
20
80.000001175017488
10
-117.92893200886361
20
80.000001175017488
42
0.19891238284612983
10
-121.46446612520045
20
78.535534870546144
10
-123.3394582802014
20
76.660542492378852
42
-0.3601643679469535
10
-129.68749112224998
20
76.062088897425184
42
-0.11405172247218086
0
LWPOLYLINE
5
102
100
AcDbEntity
8
0
100
AcDbPolyline
90
4
70
1
43
0.0
10
-89.999994113283037
20
49.99999999992837
10
-89.999994113283037
20
30.000000446276577
10
-110
20
30.000000446276577
10
-110
20
49.99999999992837
0
LINE
5
103
100
AcDbEntity
8
0
100
AcDbLine
10
-75
20
86.5
30
0
11
-75
21
86.5
31
0
0
LINE
5
104
100
AcDbEntity
8
0
100
AcDbLine
10
-75.358983848622429
20
100
30
0
11
-75
21
100
31
0
0
LINE
5
105
100
AcDbEntity
8
0
100
AcDbLine
10
-60
20
85
30
0
11
-60
21
84.641016151377528
31
0
0
LINE
5
106
100
AcDbEntity
8
0
100
AcDbLine
10
-89.999994113331852
20
40.000000000113843
30
0
11
-89.99999411333178
21
60.000000522347314
31
0
0
LWPOLYLINE
5
107
100
AcDbEntity
8
0
100
AcDbPolyline
90
4
70
1
43
0.0
10
-89.99999411333178
20
49.99999999992837
10
-89.99999411333178
20
70.00000104476625
10
-110
20
70.00000104476625
10
-110
20
49.99999999992837
0
LWPOLYLINE
5
108
100
AcDbEntity
8
0
100
AcDbPolyline
90
4
70
1
43
0.0
10
-110
20
70.000000000071594
10
-110
20
49.99999999992837
10
-130
20
49.99999999992837
10
-130
20
70.000000000071594
0
LINE
5
109
100
AcDbEntity
8
0
100
AcDbLine
10
-74.999999985446664
20
78.722813170858984
30
0
11
-74.999999985439132
21
79.68871125850724
31
0
6
DASHED
0
LINE
5
110
100
AcDbEntity
8
0
100
AcDbLine
10
-75
20
88.5
30
0
11
-75
21
88.5
31
0
0
ARC
5
111
100
AcDbEntity
8
0
100
AcDbCircle
10
-54.999999999769287
20
49.99999998326814
30
0
40
35.000000001364057
210
0
220
0
230
1
100
AcDbArc
50
179.96676618510628
51
180.03323381498146
0
LINE
5
112
100
AcDbEntity
8
0
100
AcDbLine
10
-130
20
40
30
0
11
-130
21
59.999999999999986
31
0
0
LINE
5
113
100
AcDbEntity
8
0
100
AcDbLine
10
-60
20
15.358983848622456
30
0
11
-60
21
15
31
0
0
LINE
5
114
100
AcDbEntity
8
0
100
AcDbLine
10
-120
20
70.000000000071594
30
0
11
-99.99999426305294
21
70.000000000071594
31
0
0
LINE
5
115
100
AcDbEntity
8
0
100
AcDbLine
10
-119.99999456107616
20
30.000000447034836
30
0
11
-99.99999426305294
21
30.000000447034836
31
0
0
LWPOLYLINE
5
116
100
AcDbEntity
8
0
100
AcDbPolyline
90
8
70
1
43
0.0
10
-74.453562675888321
20
16.66249999866524
42
3.3626912310967785
10
-75.54643732528416
20
16.662499998682637
42
0.23828089163203492
10
-76.662500000655328
20
15.546437323350021
42
3.3626912309077195
10
-76.662500000658966
20
14.453562673902729
42
0.23828089163203117
10
-75.546437325295216
20
13.337499998562709
42
3.3626912310967181
10
-74.453562675899377
20
13.337499998572834
42
0.23828089162950217
10
-73.337500000561391
20
14.453562673917563
42
3.3626912310971502
10
-73.337500000557753
20
15.546437323313118
42
0.23828089162949723
0
LWPOLYLINE
5
117
100
AcDbEntity
8
0
100
AcDbPolyline
90
8
70
1
43
0.0
10
-144.45356264603765
20
16.662500077674434
42
3.3626913451869567
10
-145.54643726437956
20
16.662500022599215
42
0.23828078620515059
10
-146.66249967585679
20
15.54643796484978
42
3.3626917044473257
10
-146.66250010945112
20
14.453563444293462
42
0.23828079294028318
10
-145.54643854117987
20
13.337500487025835
42
3.3626917044531299
10
-144.4535640206266
20
13.337499560481236
42
0.23828103963678879
10
-143.33750004970187
20
14.453562177731925
42
3.3626909674796539
10
-143.33749971663019
20
15.54643689887963
42
0.23828098223074182
0
LWPOLYLINE
5
118
100
AcDbEntity
8
0
100
AcDbPolyline
90
8
70
1
43
0.0
10
-144.45356414835203
20
86.662500412006779
42
3.3627031104134626
10
-145.54643556435482
20
86.662500492819689
42
0.23828105796272178
10
-146.66249975157405
20
85.546437938640707
42
3.3626862621898219
10
-146.66249976256915
20
84.45356193676902
42
0.23828060850991489
10
-145.54643842608439
20
83.337500289743616
42
3.3626791355112751
10
-144.45356048441266
20
83.337500634231532
42
0.23828040654103222
10
-143.33750026925554
20
84.45356171391559
42
3.3626816774309889
10
-143.33750054392536
20
85.54643896370527
42
0.23828085599361967
0
ARC
5
119
100
AcDbEntity
8
0
100
AcDbCircle
10
-75
20
87.5
30
0
40
1.0000000000000073
210
0
220
0
230
1
100
AcDbArc
50
-56.877059792256098
51
236.87705979225609
0
ARC
5
120
100
AcDbEntity
8
0
100
AcDbCircle
10
-75
20
87.5
30
0
40
1.0000000000000073
210
0
220
0
230
1
100
AcDbArc
50
-56.877059792256098
51
236.87705979225609
6
DASHED
0
ARC
5
121
100
AcDbEntity
8
0
100
AcDbCircle
10
-72.500001229347419
20
85.000001256766296
30
0
40
1.0000000000000087
210
0
220
0
230
1
100
AcDbArc
50
-146.87694527009202
51
146.87700287604406
0
ARC
5
122
100
AcDbEntity
8
0
100
AcDbCircle
10
-75
20
85
30
0
40
1.7500000000001332
210
0
220
-0
230
1
100
AcDbArc
50
18.194944323572283
51
71.805127661232973
0
ARC
5
123
100
AcDbEntity
8
0
100
AcDbCircle
10
-74.999997988345939
20
82.500001229346353
30
0
40
0.99999999999999589
210
0
220
0
230
1
100
AcDbArc
50
-236.87692796944481
51
56.877020176920091
6
DASHED
0
ARC
5
124
100
AcDbEntity
8
0
100
AcDbCircle
10
-74.999997988345939
20
82.500001229346353
30
0
40
0.99999999999999589
210
0
220
0
230
1
100
AcDbArc
50
-236.87692796944481
51
56.877020176920091
0
ARC
5
125
100
AcDbEntity
8
0
100
AcDbCircle
10
-75
20
85
30
0
40
1.7500000000000653
210
0
220
0
230
1
100
AcDbArc
50
288.1949616242768
51
341.80511328237941
0
ARC
5
126
100
AcDbEntity
8
0
100
AcDbCircle
10
-77.500002048909835
20
84.999999119639654
30
0
40
1.0000000000000027
210
0
220
-0
230
1
100
AcDbArc
50
33.12281751852327
51
326.87722283418952
0
ARC
5
127
100
AcDbEntity
8
0
100
AcDbCircle
10
-75
20
85
30
0
40
1.7500000000000009
210
0
220
0
230
1
100
AcDbArc
50
108.19487233876703
51
161.80521980750785
0
ARC
5
128
100
AcDbEntity
8
0
100
AcDbCircle
10
-75
20
85
30
0
40
1.7499999999997429
210
0
220
0
230
1
100
AcDbArc
50
198.19482054520515
51
251.80513058319852
0
ENDSEC
0
SECTION
2
OBJECTS
0
DICTIONARY
5
C
100
AcDbDictionary
3
ACAD_GROUP
350
D
3
ACAD_MLINESTYLE
350
17
0
DICTIONARY
5
D
100
AcDbDictionary
0
DICTIONARY
5
1A
330
C
100
AcDbDictionary
0
DICTIONARY
5
17
100
AcDbDictionary
0
ENDSEC
0
EOF
