0
SECTION
2
HEADER
9
$INSUNITS
70
4
9
$ACADVER
1
AC1014
9
$HANDSEED
5
FFFF
0
ENDSEC
0
SECTION
2
TABLES
0
TABLE
2
VPORT
5
8
100
AcDbSymbolTable
0
ENDTAB
0
TABLE
2
LTYPE
5
5
100
AcDbSymbolTable
0
LTYPE
5
14
100
AcDbSymbolTableRecord
100
AcDbLinetypeTableRecord
2
BYBLOCK
70
0
0
LTYPE
5
15
100
AcDbSymbolTableRecord
100
AcDbLinetypeTableRecord
2
BYLAYER
70
0
0
LTYPE
5
16
100
AcDbSymbolTableRecord
100
AcDbLinetypeTableRecord
2
DASHED
70
0
3
Dashed __ __ __ __ __ __ __ __ __ __ __ __ __ _
72
65
73
2
40
0.75
49
0.5
74
0
49
-0.25
74
0
0
ENDTAB
0
TABLE
2
LAYER
5
2
100
AcDbSymbolTable
70
2
0
LAYER
5
50
100
AcDbSymbolTableRecord
100
AcDbLayerTableRecord
2
0
70
0
62
7
6
CONTINUOUS
0
ENDTAB
0
TABLE
2
STYLE
5
3
100
AcDbSymbolTable
70
1
0
STYLE
5
11
100
AcDbSymbolTableRecord
100
AcDbTextStyleTableRecord
2
STANDARD
70
0
0
ENDTAB
0
TABLE
2
VIEW
5
6
100
AcDbSymbolTable
70
0
0
ENDTAB
0
TABLE
2
UCS
5
7
100
AcDbSymbolTable
70
0
0
ENDTAB
0
TABLE
2
APPID
5
9
100
AcDbSymbolTable
70
2
0
APPID
5
12
100
AcDbSymbolTableRecord
100
AcDbRegAppTableRecord
2
ACAD
70
0
0
ENDTAB
0
TABLE
2
DIMSTYLE
5
A
100
AcDbSymbolTable
70
1
0
ENDTAB
0
TABLE
2
BLOCK_RECORD
5
1
100
AcDbSymbolTable
70
1
0
BLOCK_RECORD
5
1F
100
AcDbSymbolTableRecord
100
AcDbBlockTableRecord
2
*MODEL_SPACE
0
BLOCK_RECORD
5
1B
100
AcDbSymbolTableRecord
100
AcDbBlockTableRecord
2
*PAPER_SPACE
0
ENDTAB
0
ENDSEC
0
SECTION
2
BLOCKS
0
BLOCK
5
20
100
AcDbEntity
100
AcDbBlockBegin
2
*MODEL_SPACE
0
ENDBLK
5
21
100
AcDbEntity
100
AcDbBlockEnd
0
BLOCK
5
1C
100
AcDbEntity
100
AcDbBlockBegin
2
*PAPER_SPACE
0
ENDBLK
5
1D
100
AcDbEntity
100
AcDbBlockEnd
0
ENDSEC
0
SECTION
2
ENTITIES
0
LWPOLYLINE
5
100
100
AcDbEntity
8
0
100
AcDbPolyline
90
4
70
1
43
0.0
10
50
20
100
10
150
20
100
10
150
20
0
10
50
20
0
0
LWPOLYLINE
5
101
100
AcDbEntity
8
0
100
AcDbPolyline
90
4
70
1
43
0.0
10
80.000001452863472
20
70
10
120
20
70
10
120
20
30
10
80.000001452863472
20
30
0
LWPOLYLINE
5
102
100
AcDbEntity
8
0
100
AcDbPolyline
90
4
70
1
43
0.0
10
55
20
95
10
145
20
95
10
145
20
5
10
55
20
5
0
LINE
5
103
100
AcDbEntity
8
0
100
AcDbLine
10
100
20
50
30
0
11
135
21
50
31
0
6
DASHED
0
LINE
5
104
100
AcDbEntity
8
0
100
AcDbLine
10
135
20
50
30
0
11
135
21
85
31
0
6
DASHED
0
LINE
5
105
100
AcDbEntity
8
0
100
AcDbLine
10
135
20
85
30
0
11
65
21
85
31
0
0
LINE
5
106
100
AcDbEntity
8
0
100
AcDbLine
10
65
20
85
30
0
11
65
21
15
31
0
6
DASHED
0
LINE
5
107
100
AcDbEntity
8
0
100
AcDbLine
10
65
20
15
30
0
11
135
21
15
31
0
6
DASHED
0
LINE
5
108
100
AcDbEntity
8
0
100
AcDbLine
10
135
20
15
30
0
11
135
21
50
31
0
6
DASHED
0
CIRCLE
5
109
100
AcDbEntity
8
0
100
AcDbCircle
10
135
20
85
30
0
40
2.4999994731387964
210
0
220
0
230
1
6
DASHED
0
CIRCLE
5
110
100
AcDbEntity
8
0
100
AcDbCircle
10
135
20
87.49999947313718
30
0
40
0.99999999999999756
210
0
220
0
230
1
6
DASHED
0
CIRCLE
5
111
100
AcDbEntity
8
0
100
AcDbCircle
10
134.99999999999997
20
82.5000005268612
30
0
40
0.99999999999999623
210
0
220
0
230
1
6
DASHED
0
LWPOLYLINE
5
112
100
AcDbEntity
8
0
100
AcDbPolyline
90
4
70
1
43
0.0
10
65
20
85
10
135
20
85
10
135
20
15
10
65
20
15
0
CIRCLE
5
113
100
AcDbEntity
8
0
100
AcDbCircle
10
135
20
85
30
0
40
2.5000020489099848
210
0
220
0
230
1
0
CIRCLE
5
114
100
AcDbEntity
8
0
100
AcDbCircle
10
135
20
87.49999947313718
30
0
40
1.0000020265587724
210
0
220
0
230
1
0
CIRCLE
5
115
100
AcDbEntity
8
0
100
AcDbCircle
10
134.99999999999997
20
82.5000005268612
30
0
40
0.99999999999999356
210
0
220
0
230
1
0
CIRCLE
5
116
100
AcDbEntity
8
0
100
AcDbCircle
10
65
20
85
30
0
40
2.5000002905727312
210
0
220
0
230
1
0
CIRCLE
5
117
100
AcDbEntity
8
0
100
AcDbCircle
10
65.00000096857508
20
87.50000029057253
30
0
40
1.0000000000000033
210
0
220
0
230
1
0
CIRCLE
5
118
100
AcDbEntity
8
0
100
AcDbCircle
10
65
20
82.499999709427357
30
0
40
1.0000000000000022
210
0
220
0
230
1
0
CIRCLE
5
119
100
AcDbEntity
8
0
100
AcDbCircle
10
65.000001452863458
20
15.000000000000032
30
0
40
2.4999999999999973
210
0
220
0
230
1
0
CIRCLE
5
120
100
AcDbEntity
8
0
100
AcDbCircle
10
65
20
17.499999999999581
30
0
40
0.99999999999999822
210
0
220
0
230
1
0
CIRCLE
5
121
100
AcDbEntity
8
0
100
AcDbCircle
10
65.000000000000156
20
12.50000000000043
30
0
40
0.99999999999999756
210
0
220
0
230
1
0
CIRCLE
5
122
100
AcDbEntity
8
0
100
AcDbCircle
10
135
20
15
30
0
40
2.4999999999999982
210
0
220
0
230
1
0
CIRCLE
5
123
100
AcDbEntity
8
0
100
AcDbCircle
10
135
20
17.499999999999996
30
0
40
0.99999999999999978
210
0
220
0
230
1
0
CIRCLE
5
124
100
AcDbEntity
8
0
100
AcDbCircle
10
135
20
12.500000000000002
30
0
40
1.0000000000000049
210
0
220
0
230
1
0
LINE
5
125
100
AcDbEntity
8
0
100
AcDbLine
10
65
20
85
30
0
11
70.000000000000014
21
85
31
0
6
DASHED
0
LINE
5
126
100
AcDbEntity
8
0
100
AcDbLine
10
65
20
85
30
0
11
135
21
85
31
0
0
LINE
5
127
100
AcDbEntity
8
0
100
AcDbLine
10
65
20
15
30
0
11
65
21
85
31
0
0
LINE
5
128
100
AcDbEntity
8
0
100
AcDbLine
10
65
20
85
30
0
11
135
21
85
31
0
0
LINE
5
129
100
AcDbEntity
8
0
100
AcDbLine
10
80.000001452863472
20
50
30
0
11
120
21
50
31
0
0
LINE
5
130
100
AcDbEntity
8
0
100
AcDbLine
10
100.00000072643178
20
70
30
0
11
100.00000072643178
21
30
31
0
0
LWPOLYLINE
5
131
100
AcDbEntity
8
0
100
AcDbPolyline
90
4
70
1
43
0.0
10
135
20
85
10
195.78485668699929
20
85
10
195.78485668699929
20
15
10
135
20
15
0
CIRCLE
5
132
100
AcDbEntity
8
0
100
AcDbCircle
10
65
20
85
30
0
40
5.3112887414927465
210
0
220
0
230
1
0
CIRCLE
5
133
100
AcDbEntity
8
0
100
AcDbCircle
10
135
20
85
30
0
40
5.3112887414927545
210
0
220
0
230
1
0
CIRCLE
5
134
100
AcDbEntity
8
0
100
AcDbCircle
10
135
20
15
30
0
40
5.3112887414927465
210
0
220
0
230
1
0
CIRCLE
5
135
100
AcDbEntity
8
0
100
AcDbCircle
10
65.000001452863458
20
15.000000000000032
30
0
40
5.3112887414927465
210
0
220
0
230
1
0
CIRCLE
5
136
100
AcDbEntity
8
0
100
AcDbCircle
10
409.99999999942708
20
17.49999999877965
30
0
40
0.99999999999999978
210
0
220
0
230
1
0
CIRCLE
5
137
100
AcDbEntity
8
0
100
AcDbCircle
10
339.99999800905988
20
12.499999981616261
30
0
40
0.99999999999999756
210
0
220
0
230
1
0
CIRCLE
5
138
100
AcDbEntity
8
0
100
AcDbCircle
10
340.00000000258558
20
17.500000060373214
30
0
40
0.99999999999999822
210
0
220
0
230
1
0
CIRCLE
5
139
100
AcDbEntity
8
0
100
AcDbCircle
10
409.99999999941053
20
12.499999998462135
30
0
40
1.0000000000000049
210
0
220
0
230
1
0
LINE
5
140
100
AcDbEntity
8
0
100
AcDbLine
10
410.00000001455334
20
78.722813170858984
30
0
11
410.0000000145609
21
79.68871125850724
31
0
6
DASHED
0
CIRCLE
5
141
100
AcDbEntity
8
0
100
AcDbCircle
10
340.00000080874082
20
82.500001535927225
30
0
40
1.0000000000000022
210
0
220
0
230
1
0
CIRCLE
5
142
100
AcDbEntity
8
0
100
AcDbCircle
10
340.00000020557593
20
87.500001507350447
30
0
40
1.0000000000000033
210
0
220
0
230
1
0
CIRCLE
5
143
100
AcDbEntity
8
0
100
AcDbCircle
10
410
20
87.5
30
0
40
0.99999999999999756
210
0
220
0
230
1
6
DASHED
0
CIRCLE
5
144
100
AcDbEntity
8
0
100
AcDbCircle
10
410.00000201165676
20
82.500001229345798
30
0
40
0.99999999999999356
210
0
220
0
230
1
0
CIRCLE
5
145
100
AcDbEntity
8
0
100
AcDbCircle
10
410
20
87.5
30
0
40
1.0000020265587724
210
0
220
0
230
1
0
CIRCLE
5
146
100
AcDbEntity
8
0
100
AcDbCircle
10
410.00000201165676
20
82.500001229345798
30
0
40
0.99999999999999623
210
0
220
0
230
1
6
DASHED
0
LINE
5
147
100
AcDbEntity
8
0
100
AcDbLine
10
375
20
49.999999999928512
30
0
11
410
21
49.999999999655607
31
0
6
DASHED
0
LINE
5
148
100
AcDbEntity
8
0
100
AcDbLine
10
409.64101615137758
20
100
30
0
11
410
21
100
31
0
0
LINE
5
149
100
AcDbEntity
8
0
100
AcDbLine
10
340
20
95
30
0
11
341.45898033750314
21
95
31
0
0
LINE
5
150
100
AcDbEntity
8
0
100
AcDbLine
10
425
20
85
30
0
11
425
21
84.641016151377528
31
0
0
LINE
5
151
100
AcDbEntity
8
0
100
AcDbLine
10
425
20
15.358983848622456
30
0
11
425
21
15
31
0
0
LWPOLYLINE
5
152
100
AcDbEntity
8
0
100
AcDbPolyline
90
40
70
1
43
0.0
10
405.38850997538566
20
12.364862843077542
42
1.3092503865873661
10
412.63513715557417
20
19.611490022254848
42
-0.11405171632667013
10
401.0620894472554
20
30.312508215845458
42
-0.36016428110169907
10
401.6605418029568
20
36.660539985079183
10
403.53553486910516
20
38.535534071007291
42
0.19891229670418642
10
405.00000000171167
20
42.071067015479059
10
405.00000000171167
20
57.928933648820333
42
0.19891228411850695
10
403.53553504031925
20
61.464466422077962
10
401.66054201274608
20
63.339460651030215
42
-0.36016427332129403
10
401.06208988697949
20
69.687492335361426
42
-0.11405171115927244
10
412.63513718719827
20
80.388509922403017
42
1.309250376778049
10
405.38851003723352
20
87.635137121580897
42
-0.11405168523451803
10
394.68749537422673
20
76.062091802541659
42
-0.3601643926545714
10
388.33946213497086
20
76.660544774293868
10
386.46447182902847
20
78.535535080603779
42
0.19891236740512538
10
382.92893792274918
20
80.000001175017559
10
367.07106799113632
20
80.000001175017559
42
0.19891238284612892
10
363.53553387479957
20
78.535534870546172
10
361.66054171979857
20
76.660542492378909
42
-0.36016436794696044
10
355.31250887775002
20
76.062088897425213
42
-0.11405172247218064
10
344.61148995657032
20
87.635137118040205
42
1.3092503690698476
10
337.36486284248929
20
80.388509974356083
42
-0.11405172731413572
10
348.93791141103429
20
69.687490524877319
42
-0.36016434572146944
10
348.33945797253358
20
63.339457972533538
10
346.46446609406735
20
61.464466094067134
42
0.19891236737966392
10
345.00000000000006
20
57.928932188134354
10
345.00000000000006
20
42.071068652021701
42
0.1989124419288445
10
346.46446710822579
20
38.535533731930812
10
348.33945773405725
20
36.660544181771016
42
-0.36016441375335861
10
348.9379123159967
20
30.312510805293471
42
-0.11405173895520872
10
337.36486284248917
20
19.611490025643924
42
1.3092503562027689
10
344.61149012466905
20
12.364862785903403
42
-0.11405176226780914
10
355.3125135392583
20
23.93791404487424
42
-0.36016430679235595
10
361.66054552179185
20
23.33946021875251
10
363.53553934654684
20
21.464466394023486
42
0.19891236737785573
10
367.07107325245499
20
20.000000299980734
10
382.92893792588916
20
20.00000029998073
42
0.19891236738145882
10
386.46447183184654
20
21.464466394072591
10
388.33946120965237
20
23.339455771904415
42
-0.36016438257812128
10
394.68749430147108
20
23.937908843422051
42
-0.11405169427154606
0
ARC
5
153
100
AcDbEntity
8
0
100
AcDbCircle
10
409.99999999938728
20
14.999999998620904
30
0
40
2.5000000001587526
210
0
220
0
230
1
100
AcDbArc
50
-66.926081935321648
51
66.926081934943383
0
ARC
5
154
100
AcDbEntity
8
0
100
AcDbCircle
10
409.99999999938728
20
14.999999998620904
30
0
40
2.5000000001333218
210
0
220
0
230
1
100
AcDbArc
50
113.07391806335218
51
246.92608193626728
0
ARC
5
155
100
AcDbEntity
8
0
100
AcDbCircle
10
340.00000012857271
20
15.000000044980188
30
0
40
2.5000000633647543
210
0
220
0
230
1
100
AcDbArc
50
113.07392058460127
51
246.92603395157897
0
ARC
5
156
100
AcDbEntity
8
0
100
AcDbCircle
10
340.00000012857265
20
15.000000044980233
30
0
40
2.499999964957718
210
0
220
0
230
1
100
AcDbArc
50
-66.926119653536816
51
66.926084729856512
0
ARC
5
157
100
AcDbEntity
8
0
100
AcDbCircle
10
340.00000002071209
20
84.999999920978695
30
0
40
2.4999987244722193
210
0
220
0
230
1
100
AcDbArc
50
-66.926050351891334
51
66.926079151881297
0
ARC
5
158
100
AcDbEntity
8
0
100
AcDbCircle
10
340.00000002071215
20
84.999999920978965
30
0
40
2.4999993366692177
210
0
220
0
230
1
100
AcDbArc
50
113.07390951066104
51
246.92608933647264
0
LINE
5
159
100
AcDbEntity
8
0
100
AcDbLine
10
410
20
86.5
30
0
11
410
21
86.5
31
0
0
LINE
5
160
100
AcDbEntity
8
0
100
AcDbLine
10
410
20
88.5
30
0
11
410
21
88.5
31
0
0
ARC
5
161
100
AcDbEntity
8
0
100
AcDbCircle
10
410
20
85
30
0
40
2.5000020489099879
210
0
220
0
230
1
100
AcDbArc
50
113.07390848041641
51
246.92613187229733
0
ARC
5
162
100
AcDbEntity
8
0
100
AcDbCircle
10
410
20
85
30
0
40
2.4999987706550129
210
0
220
0
230
1
100
AcDbArc
50
-66.926024328302418
51
66.926081934369307
0
ARC
5
163
100
AcDbEntity
8
0
100
AcDbCircle
10
410
20
85
30
0
40
2.5000020489099879
210
0
220
0
230
1
100
AcDbArc
50
113.07390848041641
51
246.92613187229733
6
DASHED
0
ARC
5
164
100
AcDbEntity
8
0
100
AcDbCircle
10
410
20
85
30
0
40
2.4999987706550129
210
0
220
0
230
1
100
AcDbArc
50
-66.926024328302418
51
66.926081934369307
6
DASHED
0
LWPOLYLINE
5
165
100
AcDbEntity
8
0
100
AcDbPolyline
90
4
70
1
43
0.0
10
375
20
49.999999999928512
10
355
20
49.999999999928512
10
355
20
70.000000000071594
10
375
20
70.000000000071594
0
LWPOLYLINE
5
166
100
AcDbEntity
8
0
100
AcDbPolyline
90
4
70
1
43
0.0
10
375
20
49.999999999928512
10
395.00000588671696
20
49.999999999928512
10
395.00000588671696
20
30.000000446276577
10
375
20
30.000000446276577
0
LINE
5
167
100
AcDbEntity
8
0
100
AcDbLine
10
365
20
70.000000000071594
30
0
11
385.00000573694706
21
70.000000000071594
31
0
0
LINE
5
168
100
AcDbEntity
8
0
100
AcDbLine
10
385.00000573490172
20
79.550899780509226
30
0
11
385.00000573490161
21
80.000001175017545
31
0
0
LWPOLYLINE
5
169
100
AcDbEntity
8
0
100
AcDbPolyline
90
4
70
1
43
0.0
10
375
20
49.999999999928512
10
395.00000588666819
20
49.999999999928512
10
395.00000588666819
20
70.000001044766108
10
375
20
70.000001044766108
0
LINE
5
170
100
AcDbEntity
8
0
100
AcDbLine
10
365.00000543892384
20
30.000000447034836
30
0
11
385.00000573694706
21
30.000000447034836
31
0
0
LINE
5
171
100
AcDbEntity
8
0
100
AcDbLine
10
365.00000544060981
20
20.000000299980698
30
0
11
365.00000544060981
21
20.449101694349242
31
0
0
LWPOLYLINE
5
172
100
AcDbEntity
8
0
100
AcDbPolyline
90
4
70
1
43
0.0
10
375
20
49.999999999928512
10
355.00000528991217
20
49.999999999928512
10
355.00000528991222
20
30.000000447034836
10
375
20
30.000000447034836
0
LINE
5
173
100
AcDbEntity
8
0
100
AcDbLine
10
365.00000000496641
20
80.000001175017587
30
0
11
365.00000000496647
21
79.550899701315686
31
0
0
LINE
5
174
100
AcDbEntity
8
0
100
AcDbLine
10
355
20
40
30
0
11
355
21
59.999999999999986
31
0
0
LINE
5
175
100
AcDbEntity
8
0
100
AcDbLine
10
395.00000588666819
20
40.000000000113843
30
0
11
395.0000058866683
21
60.000000522347314
31
0
0
ARC
5
176
100
AcDbEntity
8
0
100
AcDbCircle
10
430.00000000023073
20
49.99999998326814
30
0
40
35.000000001364057
210
0
220
0
230
1
100
AcDbArc
50
179.96676618510628
51
180.03323381498146
0
CIRCLE
5
177
100
AcDbEntity
8
0
100
AcDbCircle
10
340.00000012857265
20
15.000000044980233
30
0
40
1.3999995884725318
210
0
220
0
230
1
0
CIRCLE
5
178
100
AcDbEntity
8
0
100
AcDbCircle
10
409.99999999938728
20
14.999999998620904
30
0
40
1.3999999999999959
210
0
220
0
230
1
0
CIRCLE
5
179
100
AcDbEntity
8
0
100
AcDbCircle
10
410
20
85
30
0
40
1.4000000000000001
210
0
220
0
230
1
0
CIRCLE
5
180
100
AcDbEntity
8
0
100
AcDbCircle
10
340.00000002071215
20
84.999999920978965
30
0
40
1.3999999999999964
210
0
220
0
230
1
0
CIRCLE
5
181
100
AcDbEntity
8
0
100
AcDbCircle
10
410.00000002071209
20
84.999999923777409
30
0
40
25.400000000000034
210
0
220
0
230
1
0
CIRCLE
5
182
100
AcDbEntity
8
0
100
AcDbCircle
10
340.00000002071209
20
84.999999920978695
30
0
40
25.399999999999999
210
0
220
0
230
1
0
CIRCLE
5
183
100
AcDbEntity
8
0
100
AcDbCircle
10
340.00000012857265
20
15.000000044980233
30
0
40
25.400000000000013
210
0
220
0
230
1
0
CIRCLE
5
184
100
AcDbEntity
8
0
100
AcDbCircle
10
409.99999999938728
20
14.999999998620904
30
0
40
25.400000000000009
210
0
220
0
230
1
0
LWPOLYLINE
5
185
100
AcDbEntity
8
0
100
AcDbPolyline
90
8
70
1
43
0.0
10
129.68871125850725
20
85
10
100
20
85
10
100
20
100
10
100
20
85
10
70.311288741492746
20
85
10
70.311288741492746
20
100
10
100
20
100
10
129.68871125850725
20
100
0
CIRCLE
5
186
100
AcDbEntity
8
0
100
AcDbCircle
10
100
20
99.688711258507254
30
0
40
29.688711258507254
210
-0
220
0
230
1
0
LWPOLYLINE
5
187
100
AcDbEntity
8
0
100
AcDbPolyline
90
8
70
1
43
0.0
10
65
20
20.311288741492575
10
50
20
20.311288741492575
10
50
20
50
10
65
20
50
10
65
20
79.688711258507254
10
50
20
79.688711258507254
10
50
20
50
10
65
20
50
0
CIRCLE
5
188
100
AcDbEntity
8
0
100
AcDbCircle
10
50.311290194356118
20
49.999999999999915
30
0
40
29.68871125850734
210
0
220
0
230
1
0
CIRCLE
5
189
100
AcDbEntity
8
0
100
AcDbCircle
10
65
20
85
30
0
40
8.2686100173124863
210
0
220
0
230
1
0
LWPOLYLINE
5
190
100
AcDbEntity
8
0
100
AcDbPolyline
90
8
70
1
43
0.0
10
135
20
79.68871125850724
10
150
20
79.68871125850724
10
150
20
50
10
135
20
50
10
135
20
20.311288741492746
10
150
20
20.311288741492746
10
150
20
50
10
135
20
50
0
CIRCLE
5
191
100
AcDbEntity
8
0
100
AcDbCircle
10
149.68871125850725
20
50
30
0
40
29.688711258507251
210
0
220
0
230
1
0
LWPOLYLINE
5
192
100
AcDbEntity
8
0
100
AcDbPolyline
90
8
70
1
43
0.0
10
70.311290194356204
20
15
10
100
20
15
10
100
20
0
10
100
20
15
10
129.68871125850725
20
15
10
129.68871125850725
20
0
10
100
20
0
10
70.311290194356204
20
0
0
CIRCLE
5
193
100
AcDbEntity
8
0
100
AcDbCircle
10
100.00000072643174
20
0.31128946792446932
30
0
40
29.688710532075525
210
0
220
-0
230
1
0
CIRCLE
5
194
100
AcDbEntity
8
0
100
AcDbCircle
10
65.000001452863458
20
15.000000000000032
30
0
40
8.26860979279577
210
0
220
0
230
1
0
CIRCLE
5
195
100
AcDbEntity
8
0
100
AcDbCircle
10
135
20
15
30
0
40
8.2686100173124899
210
0
220
0
230
1
0
CIRCLE
5
196
100
AcDbEntity
8
0
100
AcDbCircle
10
135
20
85
30
0
40
8.2686100173124935
210
0
220
0
230
1
0
LWPOLYLINE
5
197
100
AcDbEntity
8
0
100
AcDbPolyline
90
4
70
1
43
0.0
10
-139.99999854713653
20
70
10
-100
20
70
10
-100
20
30
10
-139.99999854713653
20
30
0
LINE
5
198
100
AcDbEntity
8
0
100
AcDbLine
10
-146.73138875434077
20
15
30
0
11
-145.80041237030503
21
15
31
0
0
LWPOLYLINE
5
199
100
AcDbEntity
8
0
100
AcDbPolyline
90
2
70
1
43
0.0
10
-149.6870792687734
20
100
10
-149.68871125850725
20
100
0
LWPOLYLINE
5
200
100
AcDbEntity
8
0
100
AcDbPolyline
90
2
70
1
43
0.0
10
-70
20
20.311288741492746
10
-70
20
20.312920731226612
0
LWPOLYLINE
5
201
100
AcDbEntity
8
0
100
AcDbPolyline
90
2
70
1
43
0.0
10
-149.68707780825289
20
0
10
-149.68870980564378
20
0
0
LWPOLYLINE
5
202
100
AcDbEntity
8
0
100
AcDbPolyline
90
2
70
1
43
0.0
10
-70
20
79.68871125850724
10
-70
20
79.687079268773402
0
LINE
5
203
100
AcDbEntity
8
0
100
AcDbLine
10
-139.99999854713653
20
50
30
0
11
-100
21
50
31
0
0
CIRCLE
5
204
100
AcDbEntity
8
0
100
AcDbCircle
10
-155
20
82.499999709427357
30
0
40
1.0000000000000022
210
0
220
0
230
1
0
LWPOLYLINE
5
205
100
AcDbEntity
8
0
100
AcDbPolyline
90
2
70
1
43
0.0
10
-170
20
79.688711258507254
10
-170
20
79.687079253539125
0
LWPOLYLINE
5
206
100
AcDbEntity
8
0
100
AcDbPolyline
90
2
70
1
43
0.0
10
-170
20
20.311288741492575
10
-170
20
20.312920746460705
0
LINE
5
207
100
AcDbEntity
8
0
100
AcDbLine
10
-119.99999927356822
20
70
30
0
11
-119.99999927356822
21
30
31
0
0
LWPOLYLINE
5
208
100
AcDbEntity
8
0
100
AcDbPolyline
90
2
70
1
43
0.0
10
-90.312920731226598
20
100
10
-90.311288741492746
20
100
0
CIRCLE
5
209
100
AcDbEntity
8
0
100
AcDbCircle
10
-155
20
85
30
0
40
2.5000002905727312
210
0
220
0
230
1
0
LINE
5
210
100
AcDbEntity
8
0
100
AcDbLine
10
-120
20
50
30
0
11
-100
21
50
31
0
6
DASHED
0
CIRCLE
5
211
100
AcDbEntity
8
0
100
AcDbCircle
10
-85.000000000000028
20
82.5000005268612
30
0
40
0.99999999999999623
210
0
220
0
230
1
6
DASHED
0
CIRCLE
5
212
100
AcDbEntity
8
0
100
AcDbCircle
10
-154.99999999999983
20
12.50000000000043
30
0
40
0.99999999999999756
210
0
220
0
230
1
0
LWPOLYLINE
5
213
100
AcDbEntity
8
0
100
AcDbPolyline
90
2
70
1
43
0.0
10
-85
20
24.199586480925987
10
-85
20
23.26861001731249
0
CIRCLE
5
214
100
AcDbEntity
8
0
100
AcDbCircle
10
-85.000000000000028
20
82.5000005268612
30
0
40
0.99999999999999356
210
0
220
0
230
1
0
CIRCLE
5
215
100
AcDbEntity
8
0
100
AcDbCircle
10
-85
20
87.49999947313718
30
0
40
1.0000020265587724
210
0
220
0
230
1
0
LINE
5
216
100
AcDbEntity
8
0
100
AcDbLine
10
-152.49999970942727
20
85
30
0
11
-150
21
85
31
0
6
DASHED
0
LINE
5
217
100
AcDbEntity
8
0
100
AcDbLine
10
-154.99999999999997
20
75.800414346219256
30
0
11
-154.99999999999997
21
76.731389982687517
31
0
0
LWPOLYLINE
5
218
100
AcDbEntity
8
0
100
AcDbPolyline
90
2
70
1
43
0.0
10
-170
20
50
10
-165
20
50
0
CIRCLE
5
219
100
AcDbEntity
8
0
100
AcDbCircle
10
-154.99999903142492
20
87.50000029057253
30
0
40
1.0000000000000033
210
0
220
0
230
1
0
CIRCLE
5
220
100
AcDbEntity
8
0
100
AcDbCircle
10
-85
20
12.500000000000002
30
0
40
1.0000000000000049
210
0
220
0
230
1
0
CIRCLE
5
221
100
AcDbEntity
8
0
100
AcDbCircle
10
-155
20
17.499999999999581
30
0
40
0.99999999999999822
210
0
220
0
230
1
0
CIRCLE
5
222
100
AcDbEntity
8
0
100
AcDbCircle
10
-85
20
87.49999947313718
30
0
40
0.99999999999999756
210
0
220
0
230
1
6
DASHED
0
LWPOLYLINE
5
223
100
AcDbEntity
8
0
100
AcDbPolyline
90
2
70
1
43
0.0
10
-90.312920738883648
20
0
10
-90.311288741492746
20
0
0
CIRCLE
5
224
100
AcDbEntity
8
0
100
AcDbCircle
10
-85
20
17.499999999999996
30
0
40
0.99999999999999978
210
0
220
0
230
1
0
LINE
5
225
100
AcDbEntity
8
0
100
AcDbLine
10
-70.311288741492746
20
79.688711258507254
30
0
11
-70
21
79.68871125850724
31
0
0
ARC
5
226
100
AcDbEntity
8
0
100
AcDbCircle
10
-70.311288741492746
20
50
30
0
40
29.68871125850724
210
0
220
0
230
1
100
AcDbArc
50
112.7666950461674
51
247.23330495383263
0
LINE
5
227
100
AcDbEntity
8
0
100
AcDbLine
10
-149.68870980564378
20
0
30
0
11
-149.68870980564381
21
0.31128946792447154
31
0
0
LINE
5
228
100
AcDbEntity
8
0
100
AcDbLine
10
-90.311288741492746
20
5
30
0
11
-90.68386844762577
21
5
31
0
0
ARC
5
229
100
AcDbEntity
8
0
100
AcDbCircle
10
-119.99999927356826
20
0.31128946792446932
30
0
40
29.688710532075536
210
0
220
-0
230
1
100
AcDbArc
50
22.76669445940291
51
157.23330554059706
0
LINE
5
230
100
AcDbEntity
8
0
100
AcDbLine
10
-169.6887098056439
20
20.311288741492572
30
0
11
-170
21
20.311288741492575
31
0
0
ARC
5
231
100
AcDbEntity
8
0
100
AcDbCircle
10
-169.6887098056439
20
49.999999999999915
30
0
40
29.68871125850734
210
0
220
0
230
1
100
AcDbArc
50
269.39923491445921
51
270
0
ARC
5
232
100
AcDbEntity
8
0
100
AcDbCircle
10
-169.6887098056439
20
49.999999999999915
30
0
40
29.68871125850734
210
0
220
0
230
1
100
AcDbArc
50
-67.233304953832345
51
67.233306976033759
0
ARC
5
233
100
AcDbEntity
8
0
100
AcDbCircle
10
-120
20
99.688711258507254
30
0
40
29.688711258507258
210
0
220
0
230
1
100
AcDbArc
50
202.76669504616737
51
337.23330495383266
0
ARC
5
234
100
AcDbEntity
8
0
100
AcDbCircle
10
-119.99999927356826
20
0.31128946792446932
30
0
40
29.68871053207554
210
0
220
0
230
1
100
AcDbArc
50
180
51
180.60076369823483
0
ARC
5
235
100
AcDbEntity
8
0
100
AcDbCircle
10
-70.311288741492746
20
50
30
0
40
29.688711258507251
210
0
220
-0
230
1
100
AcDbArc
50
89.399237718471682
51
90
0
LINE
5
236
100
AcDbEntity
8
0
100
AcDbLine
10
-250
20
49.999523220832685
30
0
11
-249.99666298905845
21
49.999523220832685
31
0
6
DASHED
0
CIRCLE
5
237
100
AcDbEntity
8
0
100
AcDbCircle
10
-214.99978880453716
20
17.500197645396014
30
0
40
0.99999999999999978
210
0
220
0
230
1
0
LWPOLYLINE
5
238
100
AcDbEntity
8
0
100
AcDbPolyline
90
2
70
1
43
0.0
10
-220.31128874149275
20
4.1766481442283466e-06
10
-220.31530735556348
20
4.1766481442283441e-06
0
LWPOLYLINE
5
239
100
AcDbEntity
8
0
100
AcDbPolyline
90
2
70
1
43
0.0
10
-279.688709842945
20
14.999799522216605
10
-279.68870984294517
20
15.000197645411282
42
-1.87394817996187e-05
0
LINE
5
240
100
AcDbEntity
8
0
100
AcDbLine
10
-220.31128874149275
20
5
30
0
11
-220.68386844762574
21
5
31
0
0
LWPOLYLINE
5
241
100
AcDbEntity
8
0
100
AcDbPolyline
90
3
70
1
43
0.0
10
-200.31128600559339
20
79.688711055982651
10
-200.00000011065768
20
79.688711055982651
10
-200.00000011065768
20
79.687147254538971
42
0.002621361569406077
0
LWPOLYLINE
5
242
100
AcDbEntity
8
0
100
AcDbPolyline
90
2
70
1
43
0.0
10
-200.00000011065768
20
20.313050188331903
10
-200.00000011065768
20
20.311288741492746
0
LWPOLYLINE
5
243
100
AcDbEntity
8
0
100
AcDbPolyline
90
2
70
1
43
0.0
10
-220.31292073122657
20
100
10
-220.31128874149275
20
100
0
LWPOLYLINE
5
244
100
AcDbEntity
8
0
100
AcDbPolyline
90
2
70
1
43
0.0
10
-279.68871125850728
20
100
10
-279.68707926877335
20
100
0
CIRCLE
5
245
100
AcDbEntity
8
0
100
AcDbCircle
10
-284.99999828049943
20
87.500000083876301
30
0
40
1.0000000000000033
210
0
220
0
230
1
0
LWPOLYLINE
5
246
100
AcDbEntity
8
0
100
AcDbPolyline
90
3
70
1
43
0.0
10
-279.688709842945
20
0.31152786259102977
42
0.0026234098847213319
10
-279.68707532306178
20
4.1766481442283466e-06
10
-279.68870984294495
20
4.1766481442283475e-06
0
CIRCLE
5
247
100
AcDbEntity
8
0
100
AcDbCircle
10
-214.99978880453716
20
82.500000320166862
30
0
40
0.99999999999999623
210
0
220
0
230
1
6
DASHED
0
LWPOLYLINE
5
248
100
AcDbEntity
8
0
100
AcDbPolyline
90
2
70
1
43
0.0
10
-300.00000000212071
20
20.311287323127477
10
-300.00000000212071
20
20.312919330706208
0
LINE
5
249
100
AcDbEntity
8
0
100
AcDbLine
10
-214.99978880453716
20
75.796775565906273
30
0
11
-214.99978880453716
21
76.72891980594747
31
0
0
CIRCLE
5
250
100
AcDbEntity
8
0
100
AcDbCircle
10
-285.00000002116315
20
12.499998581635296
30
0
40
0.99999999999999756
210
0
220
0
230
1
0
CIRCLE
5
251
100
AcDbEntity
8
0
100
AcDbCircle
10
-214.99979125683018
20
12.500197645397215
30
0
40
1.0000000000000049
210
0
220
0
230
1
0
CIRCLE
5
252
100
AcDbEntity
8
0
100
AcDbCircle
10
-284.99999924921565
20
17.499998581634792
30
0
40
0.99999999999999822
210
0
220
0
230
1
0
LINE
5
253
100
AcDbEntity
8
0
100
AcDbLine
10
-200.00000011065768
20
79.688711055982651
30
0
11
-200.00000011065768
21
79.687147254538971
31
0
0
LINE
5
254
100
AcDbEntity
8
0
100
AcDbLine
10
-299.68870953308385
20
20.311287323127583
30
0
11
-300.00000000212071
21
20.311287323127477
31
0
0
LINE
5
255
100
AcDbEntity
8
0
100
AcDbLine
10
-279.68707532306178
20
4.1766481442283466e-06
30
0
11
-279.68870984294495
21
4.1766481442283475e-06
31
0
0
LWPOLYLINE
5
256
100
AcDbEntity
8
0
100
AcDbPolyline
90
2
70
1
43
0.0
10
-300.00000000212071
20
50
10
-295
20
50
0
CIRCLE
5
257
100
AcDbEntity
8
0
100
AcDbCircle
10
-214.99978796853475
20
87.49999926644432
30
0
40
1.0000020265587724
210
0
220
0
230
1
0
LWPOLYLINE
5
258
100
AcDbEntity
8
0
100
AcDbPolyline
90
2
70
1
43
0.0
10
-300.00000000212071
20
79.688711258507254
10
-300.00000000212071
20
79.687079253539125
0
LWPOLYLINE
5
259
100
AcDbEntity
8
0
100
AcDbPolyline
90
2
70
1
43
0.0
10
-275.80056824154394
20
84.999999793303814
10
-275.80041351907403
20
84.999999793303814
0
CIRCLE
5
260
100
AcDbEntity
8
0
100
AcDbCircle
10
-214.99978796853475
20
87.49999926644432
30
0
40
0.99999999999999756
210
0
220
0
230
1
6
DASHED
0
CIRCLE
5
261
100
AcDbEntity
8
0
100
AcDbCircle
10
-284.9999992492132
20
82.49999950273093
30
0
40
1.0000000000000022
210
0
220
0
230
1
0
CIRCLE
5
262
100
AcDbEntity
8
0
100
AcDbCircle
10
-214.99978880453716
20
82.500000320166862
30
0
40
0.99999999999999356
210
0
220
0
230
1
0
ARC
5
263
100
AcDbEntity
8
0
100
AcDbCircle
10
-299.68870955562517
20
49.999999187469193
30
0
40
29.688711864341673
210
0
220
0
230
1
100
AcDbArc
50
269.39923444009236
51
270.00000004350215
0
LINE
5
264
100
AcDbEntity
8
0
100
AcDbLine
10
-234.99666298905848
20
79.572287671752562
30
0
11
-234.99666298905848
21
80.000000075440241
31
0
0
LINE
5
265
100
AcDbEntity
8
0
100
AcDbLine
10
-236.23275024911834
20
80.000000075440241
30
0
11
-249.99666298905848
21
80.000000075440227
31
0
0
LINE
5
266
100
AcDbEntity
8
0
100
AcDbLine
10
-249.99666298905848
20
80.000000075440227
30
0
11
-263.76059211311593
21
80.000000075440227
31
0
0
LINE
5
267
100
AcDbEntity
8
0
100
AcDbLine
10
-264.99666298905845
20
80.000000075440227
30
0
11
-264.99666298905845
21
79.572300552336003
31
0
0
LINE
5
268
100
AcDbEntity
8
0
100
AcDbLine
10
-219.99333099477809
20
49.999523220832685
30
0
11
-219.99333099477806
21
63.764027476735166
31
0
0
LINE
5
269
100
AcDbEntity
8
0
100
AcDbLine
10
-219.99333099477815
20
65.000083511978062
30
0
11
-220.42101885091486
21
65.000083511978062
31
0
0
LINE
5
270
100
AcDbEntity
8
0
100
AcDbLine
10
-220.42103564140493
20
35.000633166733863
30
0
11
-219.99333099477826
21
35.000633166733863
31
0
0
LINE
5
271
100
AcDbEntity
8
0
100
AcDbLine
10
-219.9933309947782
20
36.236710559845278
30
0
11
-219.99333099477809
21
49.999523220832685
31
0
0
LINE
5
272
100
AcDbEntity
8
0
100
AcDbLine
10
-266.14717766654951
20
77.698958655354204
30
0
11
-265.54944837102221
21
78.894423514617557
31
0
0
LINE
5
273
100
AcDbEntity
8
0
100
AcDbLine
10
-234.4438833874114
20
78.894402306590592
30
0
11
-233.85041489810388
21
77.707423923694449
31
0
0
LINE
5
274
100
AcDbEntity
8
0
100
AcDbLine
10
-221.09888834538819
20
65.552874129456498
30
0
11
-222.2915443799825
21
66.149215029762701
31
0
0
LINE
5
275
100
AcDbEntity
8
0
100
AcDbLine
10
-221.09891599159693
20
34.447850083988044
30
0
11
-222.29185319791895
21
33.851391640421589
31
0
0
LINE
5
276
100
AcDbEntity
8
0
100
AcDbLine
10
-266.14957558518233
20
22.297529115674717
30
0
11
-265.55308614328504
21
21.104559802235372
31
0
0
LINE
5
277
100
AcDbEntity
8
0
100
AcDbLine
10
-249.99666298905845
20
19.999046366225173
30
0
11
-263.76422684026664
21
19.998992733525686
31
0
0
LINE
5
278
100
AcDbEntity
8
0
100
AcDbLine
10
-236.23809380456632
20
19.999113532353384
30
0
11
-249.99666298905845
21
19.999046366225173
31
0
0
LINE
5
279
100
AcDbEntity
8
0
100
AcDbLine
10
-234.44924539062066
20
21.104693932329404
30
0
11
-233.85283272656517
21
22.297531914913865
31
0
0
LINE
5
280
100
AcDbEntity
8
0
100
AcDbLine
10
-279.99999498333909
20
36.236066196183998
30
0
11
-279.99999498333892
21
49.999523220832565
31
0
0
LINE
5
281
100
AcDbEntity
8
0
100
AcDbLine
10
-279.99999498333892
20
49.999523220832565
30
0
11
-279.99999498333887
21
63.76393276824929
31
0
0
LINE
5
282
100
AcDbEntity
8
0
100
AcDbLine
10
-278.89442228433808
20
65.552787095249542
30
0
11
-277.70177073688171
21
66.149112960649973
31
0
0
LINE
5
283
100
AcDbEntity
8
0
100
AcDbLine
10
-278.89442248377088
20
34.447211968900142
30
0
11
-277.70176990203259
21
33.850885420153098
31
0
0
ARC
5
284
100
AcDbEntity
8
0
100
AcDbCircle
10
-249.99527513908501
20
99.689782808416041
30
0
40
29.693482064838634
210
0
220
0
230
1
100
AcDbArc
50
202.765074414194
51
229.62156248126718
0
ARC
5
285
100
AcDbEntity
8
0
100
AcDbCircle
10
-249.99527513908504
20
99.689782808416027
30
0
40
29.682494172609978
210
0
220
0
230
1
100
AcDbArc
50
310.37867291667038
51
337.22786831963759
0
ARC
5
286
100
AcDbEntity
8
0
100
AcDbCircle
10
-200.30471595228704
20
50.00009872143589
30
0
40
29.688612334545756
210
0
220
0
230
1
100
AcDbArc
50
112.77560680681488
51
139.62058743224844
0
ARC
5
287
100
AcDbEntity
8
0
100
AcDbCircle
10
-200.3047159522871
20
50.000098721435116
30
0
40
29.688612486986287
210
0
220
0
230
1
100
AcDbArc
50
220.37833822422425
51
247.22168293003764
0
ARC
5
288
100
AcDbEntity
8
0
100
AcDbCircle
10
-250.0011913393127
20
0.31152786259273851
30
0
40
29.687518503632447
210
0
220
-0
230
1
100
AcDbArc
50
22.765379926072686
51
49.62068940135368
0
ARC
5
289
100
AcDbEntity
8
0
100
AcDbCircle
10
-250.0011913393127
20
0.31152786259265897
30
0
40
29.687518503858264
210
0
220
0
230
1
100
AcDbArc
50
130.37936212390531
51
157.23283868412494
0
ARC
5
290
100
AcDbEntity
8
0
100
AcDbCircle
10
-299.68870955562528
20
49.999999187469292
30
0
40
29.68871186434173
210
0
220
0
230
1
100
AcDbArc
50
292.76669819717614
51
319.62074891300296
0
ARC
5
291
100
AcDbEntity
8
0
100
AcDbCircle
10
-299.68870955562517
20
49.999999187469193
30
0
40
29.688711448698552
210
0
220
-0
230
1
100
AcDbArc
50
40.379252105248916
51
67.233306509474218
0
ARC
5
292
100
AcDbEntity
8
0
100
AcDbCircle
10
-267.93603392445573
20
78.593382094531577
30
0
40
2.0000000000000027
210
0
220
0
230
1
100
AcDbArc
50
229.62156248126573
51
333.43506899116346
0
ARC
5
293
100
AcDbEntity
8
0
100
AcDbCircle
10
-263.76059211311593
20
78.000000075440212
30
0
40
2.0000000000000107
210
0
220
-0
230
1
100
AcDbArc
50
90
51
153.43506899116488
0
ARC
5
294
100
AcDbEntity
8
0
100
AcDbCircle
10
-236.23275024911834
20
78.000000075440241
30
0
40
1.999999999999976
210
0
220
-0
230
1
100
AcDbArc
50
26.564251732996393
51
90
0
ARC
5
295
100
AcDbEntity
8
0
100
AcDbCircle
10
-232.06154803639694
20
78.601826154844829
30
0
40
1.999999999999988
210
0
220
0
230
1
100
AcDbArc
50
206.56425173299709
51
310.37867291666907
0
ARC
5
296
100
AcDbEntity
8
0
100
AcDbCircle
10
-221.39710173059282
20
67.938061682483578
30
0
40
1.9999999999995586
210
0
220
0
230
1
100
AcDbArc
50
139.62058743223639
51
243.43445370021834
0
ARC
5
297
100
AcDbEntity
8
0
100
AcDbCircle
10
-221.99333099477809
20
63.764027476735166
30
0
40
2.0000000000000284
210
0
220
-0
230
1
100
AcDbArc
50
0
51
63.434453700218349
0
ARC
5
298
100
AcDbEntity
8
0
100
AcDbCircle
10
-221.99333099477809
20
36.236710559845385
30
0
40
2.0000000000000275
210
-0
220
0
230
1
100
AcDbArc
50
296.56466081026321
51
360
0
ARC
5
299
100
AcDbEntity
8
0
100
AcDbCircle
10
-221.3974381947379
20
32.062531164564099
30
0
40
2.000000000000119
210
0
220
0
230
1
100
AcDbArc
50
116.56466081025842
51
220.37833822422283
0
ARC
5
300
100
AcDbEntity
8
0
100
AcDbCircle
10
-267.93842709703301
20
21.403096184399594
30
0
40
1.9999999999999616
210
0
220
-0
230
1
100
AcDbArc
50
26.56523503430558
51
130.37936212390687
0
ARC
5
301
100
AcDbEntity
8
0
100
AcDbCircle
10
-263.76423463143436
20
21.998992733510519
30
0
40
2.0000000000000053
210
0
220
0
230
1
100
AcDbArc
50
206.5652350343062
51
270.00022320051386
0
ARC
5
302
100
AcDbEntity
8
0
100
AcDbCircle
10
-236.2381035681002
20
21.999113532329556
30
0
40
2.0000000000000013
210
0
220
0
230
1
100
AcDbArc
50
270.00027970464231
51
333.43519195718204
0
ARC
5
303
100
AcDbEntity
8
0
100
AcDbCircle
10
-232.06397454908557
20
21.403112314913745
30
0
40
1.999999999999905
210
0
220
-0
230
1
100
AcDbArc
50
49.62068940135466
51
153.43519195718358
0
ARC
5
304
100
AcDbEntity
8
0
100
AcDbCircle
10
-278.59619740246438
20
32.062031192869242
30
0
40
2.0000000000000369
210
-0
220
0
230
1
100
AcDbArc
50
-40.379251086996817
51
63.434938912030752
0
ARC
5
305
100
AcDbEntity
8
0
100
AcDbCircle
10
-277.99999498333909
20
36.236066196183998
30
0
40
1.9999999999999929
210
0
220
0
230
1
100
AcDbArc
50
180
51
243.43493891203073
0
ARC
5
306
100
AcDbEntity
8
0
100
AcDbCircle
10
-277.99999498333892
20
63.763932768249283
30
0
40
2.0000000000000453
210
0
220
0
230
1
100
AcDbArc
50
116.56505470027763
51
180
0
ARC
5
307
100
AcDbEntity
8
0
100
AcDbCircle
10
-278.59619803788081
20
67.937967287650196
30
0
40
1.9999999999999976
210
0
220
0
230
1
100
AcDbArc
50
-63.434945299723424
51
40.379252105249165
0
ARC
5
308
100
AcDbEntity
8
0
100
AcDbCircle
10
-284.99999858070737
20
14.999998581634877
30
0
40
8.2686098603678033
210
0
220
0
230
1
100
AcDbArc
50
112.76668029584509
51
337.23331756925353
0
ARC
5
309
100
AcDbEntity
8
0
100
AcDbCircle
10
-284.99999858070743
20
14.999998581634884
30
0
40
2.5
210
0
220
0
230
1
100
AcDbArc
50
113.07393338678753
51
246.92604892148211
0
ARC
5
310
100
AcDbEntity
8
0
100
AcDbCircle
10
-284.99999858070743
20
14.999998581634884
30
0
40
2.4999999999999951
210
0
220
0
230
1
100
AcDbArc
50
-66.926114947108033
51
66.926097255372753
0
ARC
5
311
100
AcDbEntity
8
0
100
AcDbCircle
10
-214.99978880453745
20
15.000197645396012
30
0
40
8.2710799912019048
210
0
220
0
230
1
100
AcDbArc
50
-157.23418192662703
51
67.23412155335734
0
LINE
5
312
100
AcDbEntity
8
0
100
AcDbLine
10
-214.99978880453739
20
14.999999793305662
30
0
11
-214.99978880453742
21
15.000197645396
31
0
0
ARC
5
313
100
AcDbEntity
8
0
100
AcDbCircle
10
-214.99978880453742
20
15.000197645396
30
0
40
2.5000000000000142
210
0
220
0
230
1
100
AcDbArc
50
113.0739180655676
51
246.92602573202561
0
ARC
5
314
100
AcDbEntity
8
0
100
AcDbCircle
10
-214.99978880453742
20
15.000197645396
30
0
40
2.5000000000000195
210
0
220
0
230
1
100
AcDbArc
50
-66.926138136845992
51
66.926081934420893
0
ARC
5
315
100
AcDbEntity
8
0
100
AcDbCircle
10
-214.99978880453716
20
84.999999793304951
30
0
40
8.2710799873574814
210
0
220
0
230
1
100
AcDbArc
50
-90
51
157.23386977962275
0
LWPOLYLINE
5
316
100
AcDbEntity
8
0
100
AcDbPolyline
90
2
70
1
43
0.0
10
-214.99978880453716
20
75.796775565906273
10
-214.99978880453716
20
76.72891980594747
0
LINE
5
317
100
AcDbEntity
8
0
100
AcDbLine
10
-214.99978880453716
20
75.796775565906273
30
0
11
-214.99978880453716
21
76.72891980594747
31
0
6
DASHED
0
ARC
5
318
100
AcDbEntity
8
0
100
AcDbCircle
10
-214.99978880453716
20
84.999999793305662
30
0
40
2.5000020489099732
210
0
220
0
230
1
100
AcDbArc
50
113.07389178524718
51
246.92608905494131
6
DASHED
0
ARC
5
319
100
AcDbEntity
8
0
100
AcDbCircle
10
-214.99978880453716
20
84.999999793305662
30
0
40
2.4999994731387938
210
0
220
0
230
1
100
AcDbArc
50
-66.926077004945171
51
66.926069895217054
6
DASHED
0
ARC
5
320
100
AcDbEntity
8
0
100
AcDbCircle
10
-214.99978880453716
20
84.999999793305662
30
0
40
2.5000020489099732
210
0
220
0
230
1
100
AcDbArc
50
113.07389178524718
51
246.92608905494131
0
ARC
5
321
100
AcDbEntity
8
0
100
AcDbCircle
10
-214.99978880453716
20
84.999999793305662
30
0
40
2.4999994731387938
210
0
220
0
230
1
100
AcDbArc
50
-66.926077004945171
51
66.926069895217054
0
ARC
5
322
100
AcDbEntity
8
0
100
AcDbCircle
10
-284.99999924921548
20
84.999999793304596
30
0
40
8.2686100173124899
210
0
220
0
230
1
100
AcDbArc
50
0
51
247.23330707616816
0
LWPOLYLINE
5
323
100
AcDbEntity
8
0
100
AcDbPolyline
90
2
70
1
43
0.0
10
-275.80056824154394
20
84.999999793303814
10
-275.80041351907403
20
84.999999793303814
0
LINE
5
324
100
AcDbEntity
8
0
100
AcDbLine
10
-275.80056824154394
20
84.999999793303814
30
0
11
-275.80041351907403
21
84.999999793303814
31
0
0
ARC
5
325
100
AcDbEntity
8
0
100
AcDbCircle
10
-284.99999924921548
20
84.999999793304596
30
0
40
2.5000002905736625
210
0
220
0
230
1
100
AcDbArc
50
-66.926084653103487
51
66.926062451897394
0
ARC
5
326
100
AcDbEntity
8
0
100
AcDbCircle
10
-284.99999924921548
20
84.999999793304596
30
0
40
2.5000002905736638
210
0
220
0
230
1
100
AcDbArc
50
113.07389314543649
51
246.92608465320365
0
ARC
5
327
100
AcDbEntity
8
0
100
AcDbCircle
10
-155
20
85
30
0
40
8.2686100173124775
210
0
220
-0
230
1
100
AcDbArc
50
22.766695046167428
51
270.00000000000023
0
LWPOLYLINE
5
328
100
AcDbEntity
8
0
100
AcDbPolyline
90
2
70
1
43
0.0
10
-149.68871125850725
20
85
10
-152.49999970942727
20
85
0
LWPOLYLINE
5
329
100
AcDbEntity
8
0
100
AcDbPolyline
90
2
70
1
43
0.0
10
-152.49999970942727
20
85
10
-149.68871125850725
20
85
0
LWPOLYLINE
5
330
100
AcDbEntity
8
0
100
AcDbPolyline
90
2
70
1
43
0.0
10
-154.99999999999997
20
75.800414346219256
10
-154.99999999999997
20
76.731389982687517
0
LWPOLYLINE
5
331
100
AcDbEntity
8
0
100
AcDbPolyline
90
2
70
1
43
0.0
10
-155
20
81.499999709427357
10
-155
20
83.499999709427343
0
LINE
5
332
100
AcDbEntity
8
0
100
AcDbLine
10
-155
20
83.499999709427343
30
0
11
-155
21
81.499999709427357
31
0
6
DASHED
0
LINE
5
333
100
AcDbEntity
8
0
100
AcDbLine
10
-154.99999999999997
20
76.731389982687517
30
0
11
-154.99999999999997
21
75.800414346219256
31
0
6
DASHED
0
ARC
5
334
100
AcDbEntity
8
0
100
AcDbCircle
10
-85
20
85
30
0
40
8.2686100173124935
210
0
220
0
230
1
100
AcDbArc
50
-67.233304953832601
51
157.23330495383257
0
LWPOLYLINE
5
335
100
AcDbEntity
8
0
100
AcDbPolyline
90
2
70
1
43
0.0
10
-85.000000000000028
20
82.5000005268612
10
-84.999999000000045
20
82.5000005268612
0
LINE
5
336
100
AcDbEntity
8
0
100
AcDbLine
10
-85.000000000000028
20
82.5000005268612
30
0
11
-85.000000000000028
21
82.5000005268612
31
0
6
DASHED
0
ARC
5
337
100
AcDbEntity
8
0
100
AcDbCircle
10
-85
20
85
30
0
40
2.5000020489099879
210
0
220
0
230
1
100
AcDbArc
50
113.07391094512931
51
246.92608905485167
6
DASHED
0
ARC
5
338
100
AcDbEntity
8
0
100
AcDbCircle
10
-85
20
85
30
0
40
2.5000020489099883
210
0
220
0
230
1
100
AcDbArc
50
-66.926089054853009
51
66.926089054870687
6
DASHED
0
ARC
5
339
100
AcDbEntity
8
0
100
AcDbCircle
10
-85
20
85
30
0
40
2.5000020489099879
210
0
220
0
230
1
100
AcDbArc
50
113.07391094512931
51
246.92608905485167
0
ARC
5
340
100
AcDbEntity
8
0
100
AcDbCircle
10
-85
20
85
30
0
40
2.5000020489099883
210
0
220
0
230
1
100
AcDbArc
50
-66.926089054853009
51
66.926089054870687
0
ARC
5
341
100
AcDbEntity
8
0
100
AcDbCircle
10
-85
20
15
30
0
40
8.2686097927957398
210
0
220
0
230
1
100
AcDbArc
50
-157.23330554059709
51
67.233304953832587
0
LINE
5
342
100
AcDbEntity
8
0
100
AcDbLine
10
-85
20
23.26861001731249
30
0
11
-85
21
24.199586480925987
31
0
6
DASHED
0
LINE
5
343
100
AcDbEntity
8
0
100
AcDbLine
10
-85
20
24.199586480925987
30
0
11
-85
21
23.26861001731249
31
0
0
ARC
5
344
100
AcDbEntity
8
0
100
AcDbCircle
10
-85
20
15
30
0
40
2.4999999999999991
210
0
220
0
230
1
100
AcDbArc
50
113.07391806563011
51
246.92608193436851
0
ARC
5
345
100
AcDbEntity
8
0
100
AcDbCircle
10
-85
20
15
30
0
40
2.5000000000000022
210
0
220
0
230
1
100
AcDbArc
50
-66.926081934368199
51
66.926081934369918
0
ARC
5
346
100
AcDbEntity
8
0
100
AcDbCircle
10
-154.99999854713653
20
15.000000000000032
30
0
40
8.26861001731233
210
0
220
0
230
1
100
AcDbArc
50
112.76669504616756
51
337.23330554059697
0
ARC
5
347
100
AcDbEntity
8
0
100
AcDbCircle
10
-154.99999854713653
20
15.000000000000032
30
0
40
2.4999999999999982
210
0
220
0
230
1
100
AcDbArc
50
-246.92604863719336
51
66.926115231549602
0
LWPOLYLINE
5
348
100
AcDbEntity
8
0
100
AcDbPolyline
90
3
70
1
43
0.0
10
70.31292073122664
20
275
10
70.311288741492746
20
275
10
70.311288741492774
20
274.68871125850728
42
-0.0026213259626064896
0
LWPOLYLINE
5
349
100
AcDbEntity
8
0
100
AcDbPolyline
90
3
70
1
43
0.0
10
150
20
195.31128874149275
10
149.99999999999997
20
195.31292073122657
42
-0.0026213259626064896
10
149.68871125850725
20
195.31128874149272
0
LWPOLYLINE
5
350
100
AcDbEntity
8
0
100
AcDbPolyline
90
3
70
1
43
0.0
10
150
20
254.68871125850725
10
150
20
254.6870792687734
42
0.0026213259626065321
10
149.68871125850725
20
254.68871125850725
0
LWPOLYLINE
5
351
100
AcDbEntity
8
0
100
AcDbPolyline
90
3
70
1
43
0.0
10
70.31292218409007
20
175
10
70.311290186699566
20
175
10
70.311290186699566
20
175.32055225347662
42
0.0026993319835903716
0
CIRCLE
5
352
100
AcDbEntity
8
0
100
AcDbCircle
10
65
20
192.49999999999957
30
0
40
0.99999999999999822
210
0
220
0
230
1
0
LWPOLYLINE
5
353
100
AcDbEntity
8
0
100
AcDbPolyline
90
5
70
1
43
0.0
10
100
20
190
10
100
20
175
10
100
20
190
10
113.55848311728991
20
189.99999999999997
10
86.441519232772549
20
190
0
CIRCLE
5
354
100
AcDbEntity
8
0
100
AcDbCircle
10
65.000000000000156
20
187.50000000000043
30
0
40
0.99999999999999756
210
0
220
0
230
1
0
CIRCLE
5
355
100
AcDbEntity
8
0
100
AcDbCircle
10
135
20
262.49999947313717
30
0
40
1.0000020265587724
210
0
220
0
230
1
0
CIRCLE
5
356
100
AcDbEntity
8
0
100
AcDbCircle
10
135
20
262.49999947313717
30
0
40
0.99999999999999756
210
0
220
0
230
1
6
DASHED
0
LWPOLYLINE
5
357
100
AcDbEntity
8
0
100
AcDbPolyline
90
2
70
1
43
0.0
10
129.68707926877335
20
275
10
129.68871125850725
20
275
0
CIRCLE
5
358
100
AcDbEntity
8
0
100
AcDbCircle
10
134.99999999999997
20
257.50000052686119
30
0
40
0.99999999999999356
210
0
220
0
230
1
0
LINE
5
359
100
AcDbEntity
8
0
100
AcDbLine
10
67.500000290572729
20
260
30
0
11
70.000000000000014
21
260
31
0
6
DASHED
0
CIRCLE
5
360
100
AcDbEntity
8
0
100
AcDbCircle
10
65
20
257.49999970942736
30
0
40
1.0000000000000022
210
0
220
0
230
1
0
CIRCLE
5
361
100
AcDbEntity
8
0
100
AcDbCircle
10
65.00000096857508
20
262.50000029057253
30
0
40
1.0000000000000033
210
0
220
0
230
1
0
CIRCLE
5
362
100
AcDbEntity
8
0
100
AcDbCircle
10
134.99999999999997
20
257.50000052686119
30
0
40
0.99999999999999623
210
0
220
0
230
1
6
DASHED
0
LWPOLYLINE
5
363
100
AcDbEntity
8
0
100
AcDbPolyline
90
4
70
1
43
0.0
10
129.6870792687734
20
175
10
129.68871126616389
20
175
10
129.6870792687734
20
175
42
0.0026213321435224275
10
129.68871125850725
20
175.31128946792467
42
-0.0026213320797205935
0
LWPOLYLINE
5
364
100
AcDbEntity
8
0
100
AcDbPolyline
90
3
70
1
43
0.0
10
50
20
254.68871125850725
10
50.000000000000277
20
254.68707925353911
42
-0.0026213381975007245
10
50.311290194356118
20
254.68871125850725
0
LWPOLYLINE
5
365
100
AcDbEntity
8
0
100
AcDbPolyline
90
2
70
1
43
0.0
10
50
20
195.31128874149258
10
50
20
195.31292074646075
0
CIRCLE
5
366
100
AcDbEntity
8
0
100
AcDbCircle
10
135
20
192.5
30
0
40
0.99999999999999978
210
0
220
0
230
1
0
CIRCLE
5
367
100
AcDbEntity
8
0
100
AcDbCircle
10
135
20
187.5
30
0
40
1.0000000000000049
210
0
220
0
230
1
0
LINE
5
368
100
AcDbEntity
8
0
100
AcDbLine
10
86.441519232772549
20
260
30
0
11
100.00000072643178
21
260
31
0
0
LWPOLYLINE
5
369
100
AcDbEntity
8
0
100
AcDbPolyline
90
6
70
1
43
0.0
10
100
20
260
10
113.55848311728991
20
260.00000000000006
10
86.441519232772549
20
260
10
113.55848311728991
20
260.00000000000006
10
86.441519232772549
20
260
10
113.55848311728991
20
260.00000000000006
0
LINE
5
370
100
AcDbEntity
8
0
100
AcDbLine
10
82.953965417763527
20
253.86189318221213
30
0
11
84.544152609105367
21
258.63245544933523
31
0
0
LINE
5
371
100
AcDbEntity
8
0
100
AcDbLine
10
115.45584977841871
20
258.63245533695022
30
0
11
117.04603609586741
21
253.86189474960577
31
0
0
ARC
5
372
100
AcDbEntity
8
0
100
AcDbCircle
10
81.056598794096345
20
254.49434863154735
30
0
40
1.9999999999999862
210
0
220
0
230
1
100
AcDbArc
50
226.83072330131327
51
341.56505367436677
0
ARC
5
373
100
AcDbEntity
8
0
100
AcDbCircle
10
86.441519232772549
20
258
30
0
40
1.9999999999999929
210
0
220
-0
230
1
100
AcDbArc
50
90
51
161.56505367436674
0
ARC
5
374
100
AcDbEntity
8
0
100
AcDbCircle
10
113.55848311728985
20
258.00000000000006
30
0
40
2.0000000000000053
210
0
220
-0
230
1
100
AcDbArc
50
18.434942931882283
51
89.99999999999838
0
ARC
5
375
100
AcDbEntity
8
0
100
AcDbCircle
10
118.94340275699622
20
254.49435008655598
30
0
40
1.9999999999999829
210
0
220
0
230
1
100
AcDbArc
50
198.43494293188419
51
313.16928109947213
0
ARC
5
376
100
AcDbEntity
8
0
100
AcDbCircle
10
81.056598794096345
20
195.50565136845265
30
0
40
2.0000000000000022
210
0
220
-0
230
1
100
AcDbArc
50
18.434946325633252
51
133.16927669868673
0
LINE
5
377
100
AcDbEntity
8
0
100
AcDbLine
10
82.953965417763527
20
196.13810681778787
30
0
11
84.544152609105367
21
191.36754455066477
31
0
0
ARC
5
378
100
AcDbEntity
8
0
100
AcDbCircle
10
86.441519232772549
20
192
30
0
40
2.0000000000000022
210
0
220
0
230
1
100
AcDbArc
50
198.43494632563323
51
270
0
ARC
5
379
100
AcDbEntity
8
0
100
AcDbCircle
10
113.55848311728985
20
191.99999999999994
30
0
40
1.9999999999999929
210
-0
220
0
230
1
100
AcDbArc
50
270.00000000000159
51
341.56505706811771
0
LINE
5
380
100
AcDbEntity
8
0
100
AcDbLine
10
115.45584977841871
20
191.36754466304978
30
0
11
117.04603609586741
21
196.13810525039423
31
0
0
ARC
5
381
100
AcDbEntity
8
0
100
AcDbCircle
10
118.94340275699622
20
195.50564991344402
30
0
40
1.9999999999999853
210
0
220
-0
230
1
100
AcDbArc
50
46.830718900527863
51
161.56505706811581
0
LINE
5
382
100
AcDbEntity
8
0
100
AcDbLine
10
70.68386855457625
20
179.99999999999997
30
0
11
70.311290186699566
21
179.99999999999997
31
0
0
LWPOLYLINE
5
383
100
AcDbEntity
8
0
100
AcDbPolyline
90
2
70
1
43
0.0
10
79.688286558178646
20
196.96432255314022
42
0.10538670026455263
10
72.624388790744774
20
186.80021654528616
42
-0.1053866996186907
0
ARC
5
384
100
AcDbEntity
8
0
100
AcDbCircle
10
100.00000072643174
20
175.31128946792447
30
0
40
29.68871053973217
210
0
220
0
230
1
100
AcDbArc
50
180
51
180.6007636980795
0
LINE
5
385
100
AcDbEntity
8
0
100
AcDbLine
10
70.31292218409007
20
175
30
0
11
70.311290186699566
21
175
31
0
0
LINE
5
386
100
AcDbEntity
8
0
100
AcDbLine
10
113.55848311728991
20
189.99999999999997
30
0
11
86.441519232772549
21
190
31
0
0
LINE
5
387
100
AcDbEntity
8
0
100
AcDbLine
10
86.441519232772549
20
190
30
0
11
113.55848311728991
21
189.99999999999997
31
0
6
DASHED
0
LWPOLYLINE
5
388
100
AcDbEntity
8
0
100
AcDbPolyline
90
2
70
1
43
0.0
10
127.37561184829192
20
186.8002161119079
42
0.10538668635715694
10
120.31171515684971
20
196.96432104835907
42
-0.10538668994624299
0
LINE
5
389
100
AcDbEntity
8
0
100
AcDbLine
10
129.68871126616389
20
175
30
0
11
129.68871126616401
21
175.3112894679245
31
0
0
LINE
5
390
100
AcDbEntity
8
0
100
AcDbLine
10
145
20
254.68871125850725
30
0
11
145
21
254.31613144542371
31
0
0
LINE
5
391
100
AcDbEntity
8
0
100
AcDbLine
10
145
20
195.68386855457624
30
0
11
145
21
195.31128874149275
31
0
0
LINE
5
392
100
AcDbEntity
8
0
100
AcDbLine
10
150
20
254.68871125850725
30
0
11
150
21
254.6870792687734
31
0
0
LINE
5
393
100
AcDbEntity
8
0
100
AcDbLine
10
150
20
195.3129207312266
30
0
11
150
21
195.31128874149275
31
0
0
LINE
5
394
100
AcDbEntity
8
0
100
AcDbLine
10
70.311288741492746
20
275
30
0
11
70.31292073122664
21
275
31
0
0
LINE
5
395
100
AcDbEntity
8
0
100
AcDbLine
10
129.31613144542371
20
270
30
0
11
129.68871125850725
21
270
31
0
0
LINE
5
396
100
AcDbEntity
8
0
100
AcDbLine
10
86.441519232772549
20
260
30
0
11
100
21
260
31
0
0
ARC
5
397
100
AcDbEntity
8
0
100
AcDbCircle
10
100
20
274.68871125850728
30
0
40
29.688711258507215
210
0
220
0
230
1
100
AcDbArc
50
202.76669504616737
51
226.83072330131407
0
LINE
5
398
100
AcDbEntity
8
0
100
AcDbLine
10
50
20
254.68707925353911
30
0
11
50
21
254.68871125850725
31
0
0
ARC
5
399
100
AcDbEntity
8
0
100
AcDbCircle
10
100
20
274.68871125850728
30
0
40
29.688711258507222
210
-0
220
0
230
1
100
AcDbArc
50
313.16928109947162
51
337.23330495383254
0
ARC
5
400
100
AcDbEntity
8
0
100
AcDbCircle
10
65.000001452863458
20
190.00000000000003
30
0
40
8.2686100173123336
210
0
220
0
230
1
100
AcDbArc
50
112.76669504616761
51
337.23330554059697
0
CIRCLE
5
401
100
AcDbEntity
8
0
100
AcDbCircle
10
65.000001452863458
20
190.00000000000003
30
0
40
5.3112887338361148
210
0
220
0
230
1
0
ARC
5
402
100
AcDbEntity
8
0
100
AcDbCircle
10
65.000001452863458
20
190.00000000000003
30
0
40
2.5000000000000115
210
0
220
0
230
1
100
AcDbArc
50
113.07395136280113
51
246.92604863722343
0
ARC
5
403
100
AcDbEntity
8
0
100
AcDbCircle
10
65.000001452863458
20
190.00000000000003
30
0
40
2.5000000000000093
210
0
220
0
230
1
100
AcDbArc
50
-66.926115231571544
51
66.926115231553453
0
ARC
5
404
100
AcDbEntity
8
0
100
AcDbCircle
10
135
20
190
30
0
40
8.2686100173124775
210
0
220
0
230
1
100
AcDbArc
50
-157.23330495383266
51
67.233304953832643
0
ARC
5
405
100
AcDbEntity
8
0
100
AcDbCircle
10
135
20
190
30
0
40
2.4999999999999978
210
0
220
0
230
1
100
AcDbArc
50
113.07391806563071
51
246.92608193436931
0
ARC
5
406
100
AcDbEntity
8
0
100
AcDbCircle
10
135
20
190
30
0
40
2.4999999999999978
210
0
220
0
230
1
100
AcDbArc
50
-66.926081934369321
51
66.926081934369307
0
ARC
5
407
100
AcDbEntity
8
0
100
AcDbCircle
10
135
20
260
30
0
40
8.2686100173124775
210
0
220
0
230
1
100
AcDbArc
50
-67.233304953832643
51
157.23330495383277
0
LWPOLYLINE
5
408
100
AcDbEntity
8
0
100
AcDbPolyline
90
2
70
1
43
0.0
10
132.49999795109002
20
260
10
132.49999895109002
20
260
0
LINE
5
409
100
AcDbEntity
8
0
100
AcDbLine
10
132.49999795109002
20
260
30
0
11
132.49999795109002
21
260
31
0
0
LINE
5
410
100
AcDbEntity
8
0
100
AcDbLine
10
135
20
260
30
0
11
134.99999999999997
21
258.50000052686119
31
0
0
LINE
5
411
100
AcDbEntity
8
0
100
AcDbLine
10
134.99999999999997
20
258.50000052686119
30
0
11
135
21
260
31
0
6
DASHED
0
LINE
5
412
100
AcDbEntity
8
0
100
AcDbLine
10
134.99999999999997
20
258.50000052686119
30
0
11
135
21
260
31
0
0
ARC
5
413
100
AcDbEntity
8
0
100
AcDbCircle
10
135
20
260
30
0
40
2.4999994731388004
210
0
220
0
230
1
100
AcDbArc
50
-66.926077004842739
51
66.926029601859852
6
DASHED
0
ARC
5
414
100
AcDbEntity
8
0
100
AcDbCircle
10
135
20
260
30
0
40
2.4999994731388027
210
0
220
0
230
1
100
AcDbArc
50
113.07397039814076
51
246.92608905483709
6
DASHED
0
ARC
5
415
100
AcDbEntity
8
0
100
AcDbCircle
10
135
20
260
30
0
40
2.4999994731388004
210
0
220
0
230
1
100
AcDbArc
50
-66.926077004842739
51
66.926029601859852
0
ARC
5
416
100
AcDbEntity
8
0
100
AcDbCircle
10
135
20
260
30
0
40
2.4999994731388027
210
0
220
0
230
1
100
AcDbArc
50
113.07397039814076
51
246.92608905483709
0
ARC
5
417
100
AcDbEntity
8
0
100
AcDbCircle
10
65
20
260
30
0
40
8.2686100173125237
210
0
220
-0
230
1
100
AcDbArc
50
22.766695046167627
51
247.23330697603379
0
ARC
5
418
100
AcDbEntity
8
0
100
AcDbCircle
10
65
20
260
30
0
40
2.5000002905727299
210
0
220
0
230
1
100
AcDbArc
50
-66.926084653060641
51
66.926062454967294
0
ARC
5
419
100
AcDbEntity
8
0
100
AcDbCircle
10
65
20
260
30
0
40
2.5000002905727237
210
0
220
0
230
1
100
AcDbArc
50
113.07389314882641
51
246.92608465306066
0
LWPOLYLINE
5
420
100
AcDbEntity
8
0
100
AcDbPolyline
90
8
70
1
43
0.0
10
80.000001452863472
20
225.00000052391769
10
120.00000145286347
20
225.00000052391769
10
80.000001452863472
20
225.00000052391769
10
80.000001452863472
20
205.00000052391769
10
120.00000145286347
20
205.00000052391769
10
120.00000145286347
20
225.00000052391769
10
120.00000145286347
20
245.00000052391769
10
80.000001452863472
20
245.00000052391769
0
LINE
5
421
100
AcDbEntity
8
0
100
AcDbLine
10
120.00000145286347
20
245.00000052391769
30
0
11
122.00000181794167
21
245.00000052391769
31
0
0
LINE
5
422
100
AcDbEntity
8
0
100
AcDbLine
10
122.00000181794167
20
234.73421427376306
30
0
11
122.00000181794167
21
215.26578572623694
31
0
0
LINE
5
423
100
AcDbEntity
8
0
100
AcDbLine
10
122.00000181794167
20
205.00000305473804
30
0
11
120.00000145286347
21
205.00000305473804
31
0
0
LINE
5
424
100
AcDbEntity
8
0
100
AcDbLine
10
120.00000145286347
20
205.00000305473804
30
0
11
120.00000145286347
21
245.00000052391769
31
0
0
LINE
5
425
100
AcDbEntity
8
0
100
AcDbLine
10
80.000001452863472
20
245.00000052391769
30
0
11
78.000001162290573
21
245.00000052391769
31
0
0
LINE
5
426
100
AcDbEntity
8
0
100
AcDbLine
10
78.000001162290573
20
234.73421071373929
30
0
11
78.000001162290573
21
215.2657892862606
31
0
0
LINE
5
427
100
AcDbEntity
8
0
100
AcDbLine
10
78.000001162290573
20
205.00000305473804
30
0
11
80.000001452863472
21
205.00000305473804
31
0
0
LINE
5
428
100
AcDbEntity
8
0
100
AcDbLine
10
80.000001452863472
20
205.00000305473804
30
0
11
80.000001452863472
21
245.00000052391769
31
0
0
ARC
5
429
100
AcDbEntity
8
0
100
AcDbCircle
10
50.311290194356118
20
224.99999999999994
30
0
40
29.68871125850734
210
0
220
0
230
1
100
AcDbArc
50
292.76669504616757
51
336.77906020710611
0
ARC
5
430
100
AcDbEntity
8
0
100
AcDbCircle
10
50.311290194356118
20
224.99999999999994
30
0
40
29.688711258507347
210
0
220
-0
230
1
100
AcDbArc
50
23.220939792893844
51
67.233306976033745
0
ARC
5
431
100
AcDbEntity
8
0
100
AcDbCircle
10
149.68871125850725
20
225
30
0
40
29.688711258507258
210
0
220
0
230
1
100
AcDbArc
50
112.76669504616741
51
156.77905121698149
0
ARC
5
432
100
AcDbEntity
8
0
100
AcDbCircle
10
149.68871125850725
20
225
30
0
40
29.688711258507258
210
0
220
0
230
1
100
AcDbArc
50
179.98207519824567
51
180.01792480175436
0
ARC
5
433
100
AcDbEntity
8
0
100
AcDbCircle
10
149.68871125850725
20
225
30
0
40
29.688711258507258
210
0
220
0
230
1
100
AcDbArc
50
203.22094878301851
51
247.23330495383263
0
ARC
5
434
100
AcDbEntity
8
0
100
AcDbCircle
10
73.000001162290573
20
234.73421071373929
30
0
40
5
210
0
220
0
230
1
100
AcDbArc
50
0
51
23.220939792894036
0
ARC
5
435
100
AcDbEntity
8
0
100
AcDbCircle
10
73.00000116229036
20
215.2657892862606
30
0
40
5.0000000000002149
210
-0
220
0
230
1
100
AcDbArc
50
-23.220939792892995
51
0
0
ARC
5
436
100
AcDbEntity
8
0
100
AcDbCircle
10
127.00000181794167
20
234.73421427376306
30
0
40
4.999999999999984
210
0
220
0
230
1
100
AcDbArc
50
156.77905121698183
51
180
0
ARC
5
437
100
AcDbEntity
8
0
100
AcDbCircle
10
127.00000181794258
20
215.26578572623708
30
0
40
5.0000000000009059
210
0
220
0
230
1
100
AcDbArc
50
180
51
203.22094878301576
0
ENDSEC
0
SECTION
2
OBJECTS
0
DICTIONARY
5
C
100
AcDbDictionary
3
ACAD_GROUP
350
D
3
ACAD_MLINESTYLE
350
17
0
DICTIONARY
5
D
100
AcDbDictionary
0
DICTIONARY
5
1A
330
C
100
AcDbDictionary
0
DICTIONARY
5
17
100
AcDbDictionary
0
ENDSEC
0
EOF
