0
SECTION
2
HEADER
9
$INSUNITS
70
4
9
$ACADVER
1
AC1014
9
$HANDSEED
5
FFFF
0
ENDSEC
0
SECTION
2
TABLES
0
TABLE
2
VPORT
5
8
100
AcDbSymbolTable
0
ENDTAB
0
TABLE
2
LTYPE
5
5
100
AcDbSymbolTable
0
LTYPE
5
14
100
AcDbSymbolTableRecord
100
AcDbLinetypeTableRecord
2
BYBLOCK
70
0
0
LTYPE
5
15
100
AcDbSymbolTableRecord
100
AcDbLinetypeTableRecord
2
BYLAYER
70
0
0
LTYPE
5
16
100
AcDbSymbolTableRecord
100
AcDbLinetypeTableRecord
2
DASHED
70
0
3
Dashed __ __ __ __ __ __ __ __ __ __ __ __ __ _
72
65
73
2
40
0.75
49
0.5
74
0
49
-0.25
74
0
0
ENDTAB
0
TABLE
2
LAYER
5
2
100
AcDbSymbolTable
70
2
0
LAYER
5
50
100
AcDbSymbolTableRecord
100
AcDbLayerTableRecord
2
0
70
0
62
7
6
CONTINUOUS
0
ENDTAB
0
TABLE
2
STYLE
5
3
100
AcDbSymbolTable
70
1
0
STYLE
5
11
100
AcDbSymbolTableRecord
100
AcDbTextStyleTableRecord
2
STANDARD
70
0
0
ENDTAB
0
TABLE
2
VIEW
5
6
100
AcDbSymbolTable
70
0
0
ENDTAB
0
TABLE
2
UCS
5
7
100
AcDbSymbolTable
70
0
0
ENDTAB
0
TABLE
2
APPID
5
9
100
AcDbSymbolTable
70
2
0
APPID
5
12
100
AcDbSymbolTableRecord
100
AcDbRegAppTableRecord
2
ACAD
70
0
0
ENDTAB
0
TABLE
2
DIMSTYLE
5
A
100
AcDbSymbolTable
70
1
0
ENDTAB
0
TABLE
2
BLOCK_RECORD
5
1
100
AcDbSymbolTable
70
1
0
BLOCK_RECORD
5
1F
100
AcDbSymbolTableRecord
100
AcDbBlockTableRecord
2
*MODEL_SPACE
0
BLOCK_RECORD
5
1B
100
AcDbSymbolTableRecord
100
AcDbBlockTableRecord
2
*PAPER_SPACE
0
ENDTAB
0
ENDSEC
0
SECTION
2
BLOCKS
0
BLOCK
5
20
100
AcDbEntity
100
AcDbBlockBegin
2
*MODEL_SPACE
0
ENDBLK
5
21
100
AcDbEntity
100
AcDbBlockEnd
0
BLOCK
5
1C
100
AcDbEntity
100
AcDbBlockBegin
2
*PAPER_SPACE
0
ENDBLK
5
1D
100
AcDbEntity
100
AcDbBlockEnd
0
ENDSEC
0
SECTION
2
ENTITIES
0
LWPOLYLINE
5
100
100
AcDbEntity
8
0
100
AcDbPolyline
90
41
70
1
43
0.0
10
-118.06812875265686
20
147.68001332024511
42
1.5032551898647146
10
-107.37347596248524
20
136.80530413743938
42
-0.10533972316540563
10
-100.31171344182138
20
146.96432255314025
42
-0.5471116422777571
10
-97.046034582236473
20
146.13810681778787
10
-95.455847390894633
20
141.36754455066477
42
0.32282281808716001
10
-93.558480767227451
20
140
10
-66.44151688271009
20
139.99999999999997
10
-80
20
140
10
-80
20
125
10
-80
20
140
10
-93.558480767227451
20
140
10
-66.44151688271009
20
139.99999999999997
42
0.32282283443839593
10
-64.54415022158129
20
141.36754466304978
10
-62.953963904132593
20
146.13810525039423
42
-0.54711168646810293
10
-59.68828489504817
20
146.96432099303405
42
-0.10538668635715696
10
-52.624388151708068
20
136.8002161119079
42
1.4890916952176267
10
-41.800216111907879
20
147.62438815170808
42
-0.19443626075940706
10
-57.594954395649196
20
163.29439601459114
42
-0.10166864609139196
10
-57.999998182058334
20
165.26578572623694
10
-57.99999818205832
20
184.73421427376306
42
-0.10166864609140935
10
-57.594954395649196
20
186.70560398540883
42
-0.19443626075940731
10
-41.800216111907886
20
202.37561184829192
42
1.4890916952176283
10
-52.624388151708104
20
213.19978388809216
42
-0.10538668635715685
10
-59.688284895048199
20
203.03567900696601
42
-0.54711168646810293
10
-62.953963904132593
20
203.86189474960577
10
-64.54415022158129
20
208.63245533695022
42
0.32282283443839593
10
-66.44151688271009
20
210.00000000000003
10
-80
20
210
10
-66.44151688271009
20
210.00000000000003
10
-93.558480767227451
20
210
10
-66.44151688271009
20
210.00000000000003
10
-93.558480767227451
20
210
42
0.32282281808716001
10
-95.455847390894633
20
208.63245544933523
10
-97.046034582236501
20
203.86189318221213
42
-0.5471116422777571
10
-100.31171344182134
20
203.03567744685981
42
-0.1053867057724716
10
-107.3756118482919
20
213.19978388809216
42
1.4890917236063583
10
-118.19978340142542
20
202.37561225378289
42
-0.19443631062630873
10
-102.40504231479326
20
186.70559970440303
42
-0.10166860645912419
10
-101.99999883770943
20
184.73421071373929
10
-101.99999883770943
20
165.2657892862606
42
-0.10166860645912003
10
-102.40504231479322
20
163.29440029559686
42
-0.19318758353357654
0
LINE
5
101
100
AcDbEntity
8
0
100
AcDbLine
10
-99.999998547136528
20
195.00000052391769
30
0
11
-99.999998547136528
21
175.00000052391769
31
0
0
LWPOLYLINE
5
102
100
AcDbEntity
8
0
100
AcDbPolyline
90
4
70
1
43
0.0
10
-50.311288733836093
20
125
10
-50.312920731226605
20
125
42
0.0026213320797205857
10
-50.311288733836108
20
125.31128946792462
42
-0.0026213321435224401
10
-50.312920731226605
20
125
0
LWPOLYLINE
5
103
100
AcDbEntity
8
0
100
AcDbPolyline
90
8
70
1
43
0.0
10
-114.24006421852195
20
211.85000099815898
42
2.1712384865128453
10
-115.75993359249807
20
211.8500007037369
42
0.20044021492649025
10
-116.84999917173604
20
210.75993373498224
42
2.1712454439497164
10
-116.84999882912949
20
209.24006752663837
42
0.2004401833921384
10
-115.75993298279045
20
208.15000114147747
42
2.1712443170755118
10
-114.2400662617198
20
208.15000025821439
42
0.20044007679845458
10
-113.14999945991073
20
209.24006461807556
42
2.1712366733455801
10
-113.14999882288049
20
210.75993592679856
42
0.20044000758434216
0
ARC
5
104
100
AcDbEntity
8
0
100
AcDbCircle
10
-30.311288741492746
20
175
30
0
40
29.688711258507258
210
0
220
0
230
1
100
AcDbArc
50
179.98207519824567
51
180.01792480175436
0
LWPOLYLINE
5
105
100
AcDbEntity
8
0
100
AcDbPolyline
90
8
70
1
43
0.0
10
-44.240065792321474
20
141.84999999999999
42
2.1712405933672718
10
-45.759934207678526
20
141.84999999999999
42
0.20044019224093948
10
-46.850000214204371
20
140.75993368621812
42
2.1712462938481898
10
-46.850000851231513
20
139.24006786457741
42
0.20044041022741377
10
-45.759934207679436
20
138.14999999999895
42
2.171240593363275
10
-44.240065792320564
20
138.14999999999895
42
0.20044028863266047
10
-43.14999950410602
20
139.24006699952972
42
2.17123912753026
10
-43.150000769858003
20
140.75993608184228
42
0.20043985550162036
0
LWPOLYLINE
5
106
100
AcDbEntity
8
0
100
AcDbPolyline
90
4
70
1
43
0.0
10
-99.999998547136528
20
175.00000052391769
10
-99.999998547136528
20
155.00000052391769
10
-59.999998547136535
20
155.00000052391769
10
-59.999998547136535
20
175.00000052391769
0
LWPOLYLINE
5
107
100
AcDbEntity
8
0
100
AcDbPolyline
90
2
70
1
43
0.0
10
132.49999795109002
20
260
10
132.49999795109002
20
260
0
LINE
5
108
100
AcDbEntity
8
0
100
AcDbLine
10
-112.49999970942727
20
210
30
0
11
-110
21
210
31
0
6
DASHED
0
LWPOLYLINE
5
109
100
AcDbEntity
8
0
100
AcDbPolyline
90
8
70
1
43
0.0
10
-115.75993382993406
20
141.84999955836761
42
0.20044006431385075
10
-116.8499988291268
20
140.75993352119474
42
2.171245443959763
10
-116.84999917173336
20
139.24006731285542
42
0.20044018155173943
10
-115.75993382993255
20
138.15000044163202
42
2.1712405933684442
10
-114.24006541457821
20
138.1499995583676
42
0.20044017570726808
10
-113.14999882288276
20
139.24006512103875
42
2.1712366733541448
10
-113.149999459913
20
140.75993642975786
42
0.20043995772031561
10
-114.24006541457695
20
141.85000044163212
42
2.1712405933665666
0
CIRCLE
5
110
100
AcDbEntity
8
0
100
AcDbCircle
10
-114.99999854713653
20
140.00000000000003
30
0
40
5.3112887338361148
210
0
220
0
230
1
0
LINE
5
111
100
AcDbEntity
8
0
100
AcDbLine
10
-50.683868554576286
20
220
30
0
11
-50.311288741492746
21
220
31
0
0
LINE
5
112
100
AcDbEntity
8
0
100
AcDbLine
10
-99.999998547136528
20
155.00000305473804
30
0
11
-99.999998547136528
21
195.00000052391769
31
0
0
LWPOLYLINE
5
113
100
AcDbEntity
8
0
100
AcDbPolyline
90
2
70
1
43
0.0
10
-130
20
145.31128874149258
10
-130
20
145.31292074646075
0
LINE
5
114
100
AcDbEntity
8
0
100
AcDbLine
10
-59.999998547136535
20
175.00000052391769
30
0
11
-59.999998547136535
21
195.00000052391769
31
0
0
LWPOLYLINE
5
115
100
AcDbEntity
8
0
100
AcDbPolyline
90
2
70
1
43
0.0
10
-50.31292073122664
20
225
10
-50.311288741492746
20
225
0
LWPOLYLINE
5
116
100
AcDbEntity
8
0
100
AcDbPolyline
90
3
70
1
43
0.0
10
-130
20
204.68707925353911
10
-130
20
204.68871125850725
10
-129.68870980564387
20
204.68871125850725
42
0.0026213381975006833
0
LWPOLYLINE
5
117
100
AcDbEntity
8
0
100
AcDbPolyline
90
3
70
1
43
0.0
10
-30.311288741492746
20
145.31128874149272
10
-30
20
145.31128874149275
10
-30.000000000000018
20
145.31292073122657
42
-0.0026213259626064896
0
LWPOLYLINE
5
118
100
AcDbEntity
8
0
100
AcDbPolyline
90
3
70
1
43
0.0
10
-30
20
204.68871125850725
10
-30
20
204.6870792687734
42
0.0026213259626065321
10
-30.311288741492746
20
204.68871125850725
0
LINE
5
119
100
AcDbEntity
8
0
100
AcDbLine
10
-30
20
145.3129207312266
30
0
11
-30
21
145.31128874149275
31
0
0
LINE
5
120
100
AcDbEntity
8
0
100
AcDbLine
10
-30
20
204.68871125850725
30
0
11
-30
21
204.6870792687734
31
0
0
LINE
5
121
100
AcDbEntity
8
0
100
AcDbLine
10
-35
20
204.68871125850725
30
0
11
-35
21
204.31613144542371
31
0
0
ARC
5
122
100
AcDbEntity
8
0
100
AcDbCircle
10
-79.999999273568264
20
125.31128946792447
30
0
40
29.68871053973217
210
0
220
0
230
1
100
AcDbArc
50
180
51
180.6007636980795
0
LWPOLYLINE
5
123
100
AcDbEntity
8
0
100
AcDbPolyline
90
3
70
1
43
0.0
10
-109.68870981330043
20
125.32055225347662
42
0.0026993319835903716
10
-109.68707781590993
20
125
10
-109.68870981330042
20
125
0
LINE
5
124
100
AcDbEntity
8
0
100
AcDbLine
10
-109.68707781590993
20
125
30
0
11
-109.68870981330042
21
125
31
0
0
LINE
5
125
100
AcDbEntity
8
0
100
AcDbLine
10
-79.999998547136528
20
195.00000052391769
30
0
11
-79.999998547136528
21
155.00000052391769
31
0
0
ARC
5
126
100
AcDbEntity
8
0
100
AcDbCircle
10
-79.999999273568264
20
125.31128946792447
30
0
40
29.688711225687477
210
0
220
0
230
1
100
AcDbArc
50
133.16927868030132
51
157.22265739210391
0
ARC
5
127
100
AcDbEntity
8
0
100
AcDbCircle
10
-79.999999273568264
20
125.31128946792447
30
0
40
29.6887103075588
210
-0
220
0
230
1
100
AcDbArc
50
22.766694295983022
51
46.83071896386668
0
LWPOLYLINE
5
128
100
AcDbEntity
8
0
100
AcDbPolyline
90
3
70
1
43
0.0
10
-109.68871125850725
20
225
10
-109.68871125850723
20
224.68871125850725
42
-0.0026213259626064896
10
-109.68707926877336
20
225
0
LINE
5
129
100
AcDbEntity
8
0
100
AcDbLine
10
-35
20
145.68386855457624
30
0
11
-35
21
145.31128874149275
31
0
0
LINE
5
130
100
AcDbEntity
8
0
100
AcDbLine
10
-59.999998547136535
20
155.00000305473804
30
0
11
-59.999998547136535
21
195.00000052391769
31
0
0
LINE
5
131
100
AcDbEntity
8
0
100
AcDbLine
10
-109.31613144542375
20
129.99999999999997
30
0
11
-109.68870981330042
21
129.99999999999997
31
0
0
LINE
5
132
100
AcDbEntity
8
0
100
AcDbLine
10
-50.311288733836093
20
125
30
0
11
-50.311288733835994
21
125.3112894679245
31
0
0
LINE
5
133
100
AcDbEntity
8
0
100
AcDbLine
10
-47.500002048909984
20
210
30
0
11
-47.500002048909984
21
210
31
0
0
LINE
5
134
100
AcDbEntity
8
0
100
AcDbLine
10
-109.68707926877336
20
225
30
0
11
-109.68871125850725
21
225
31
0
0
LINE
5
135
100
AcDbEntity
8
0
100
AcDbLine
10
-130
20
204.68871125850725
30
0
11
-130
21
204.68707925353911
31
0
0
LINE
5
136
100
AcDbEntity
8
0
100
AcDbLine
10
-93.558480767227451
20
210
30
0
11
-80
21
210
31
0
0
LINE
5
137
100
AcDbEntity
8
0
100
AcDbLine
10
-59.999998547136535
20
195.00000052391769
30
0
11
-99.999998547136528
21
195.00000052391769
31
0
0
LINE
5
138
100
AcDbEntity
8
0
100
AcDbLine
10
-93.558480767227451
20
140
30
0
11
-66.44151688271009
21
139.99999999999997
31
0
6
DASHED
0
LINE
5
139
100
AcDbEntity
8
0
100
AcDbLine
10
-93.558480767227451
20
210
30
0
11
-79.999999273568221
21
210
31
0
0
LINE
5
140
100
AcDbEntity
8
0
100
AcDbLine
10
-93.558480767227451
20
210
30
0
11
-66.44151688271009
21
210.00000000000003
31
0
0
LINE
5
141
100
AcDbEntity
8
0
100
AcDbLine
10
-99.999998547136528
20
175.00000052391769
30
0
11
-59.999998547136535
21
175.00000052391769
31
0
0
ARC
5
142
100
AcDbEntity
8
0
100
AcDbCircle
10
-45
20
212.49999947313717
30
0
40
0.99999999999999756
210
0
220
0
230
1
100
AcDbArc
50
-40.541514016653181
51
220.5415140166532
6
DASHED
0
LWPOLYLINE
5
143
100
AcDbEntity
8
0
100
AcDbPolyline
90
8
70
1
43
0.0
10
-44.240064795618004
20
211.85000063841446
42
2.1712362122564719
10
-45.759935204381996
20
211.85000063841446
42
0.2004402701265153
10
-46.850000851230973
20
210.75993318325749
42
2.1712462938502339
10
-46.850000214203824
20
209.24006736161772
42
0.2004402385923417
10
-45.759933877926812
20
208.15000091238088
42
2.1712420428180383
10
-44.240066122070999
20
208.15000091238088
42
0.20043990185280991
10
-43.15000076985956
20
209.24006496599446
42
2.1712391275361096
10
-43.149999504107576
20
210.75993404830433
42
0.20044014853182107
0
ARC
5
144
100
AcDbEntity
8
0
100
AcDbCircle
10
-45.000000000000036
20
207.50000052686119
30
0
40
0.99999999999828115
210
0
220
0
230
1
100
AcDbArc
50
-220.54163094012569
51
40.541630940041507
6
DASHED
0
ENDSEC
0
SECTION
2
OBJECTS
0
DICTIONARY
5
C
100
AcDbDictionary
3
ACAD_GROUP
350
D
3
ACAD_MLINESTYLE
350
17
0
DICTIONARY
5
D
100
AcDbDictionary
0
DICTIONARY
5
1A
330
C
100
AcDbDictionary
0
DICTIONARY
5
17
100
AcDbDictionary
0
ENDSEC
0
EOF
