G04*
G04 #@! TF.GenerationSoftware,Altium Limited,Altium Designer,25.8.1 (18)*
G04*
G04 Layer_Physical_Order=1*
G04 Layer_Color=255*
%FSLAX44Y44*%
%MOMM*%
G71*
G04*
G04 #@! TF.SameCoordinates,A8D3B3E1-CBBC-48C7-8EAF-3341E4FBDCCF*
G04*
G04*
G04 #@! TF.FilePolarity,Positive*
G04*
G01*
G75*
%ADD11C,0.2000*%
%ADD12C,0.2540*%
%ADD21R,0.6500X1.5000*%
%ADD22R,0.9061X0.1925*%
%ADD23R,1.0000X0.8000*%
%ADD24R,1.5000X0.6500*%
%ADD25R,0.1925X0.9061*%
%ADD26R,0.8000X1.0000*%
%ADD27R,2.6700X1.0700*%
%ADD28R,1.0700X2.6700*%
%ADD29R,0.3048X1.1938*%
%ADD30R,0.7600X2.4000*%
%ADD31R,2.5000X3.5000*%
%ADD32R,1.1938X0.3048*%
G04:AMPARAMS|DCode=33|XSize=0.9mm|YSize=0.61mm|CornerRadius=0.1525mm|HoleSize=0mm|Usage=FLASHONLY|Rotation=0.000|XOffset=0mm|YOffset=0mm|HoleType=Round|Shape=RoundedRectangle|*
%AMROUNDEDRECTD33*
21,1,0.9000,0.3050,0,0,0.0*
21,1,0.5950,0.6100,0,0,0.0*
1,1,0.3050,0.2975,-0.1525*
1,1,0.3050,-0.2975,-0.1525*
1,1,0.3050,-0.2975,0.1525*
1,1,0.3050,0.2975,0.1525*
%
%ADD33ROUNDEDRECTD33*%
G04:AMPARAMS|DCode=34|XSize=0.9mm|YSize=0.53mm|CornerRadius=0.1325mm|HoleSize=0mm|Usage=FLASHONLY|Rotation=0.000|XOffset=0mm|YOffset=0mm|HoleType=Round|Shape=RoundedRectangle|*
%AMROUNDEDRECTD34*
21,1,0.9000,0.2650,0,0,0.0*
21,1,0.6350,0.5300,0,0,0.0*
1,1,0.2650,0.3175,-0.1325*
1,1,0.2650,-0.3175,-0.1325*
1,1,0.2650,-0.3175,0.1325*
1,1,0.2650,0.3175,0.1325*
%
%ADD34ROUNDEDRECTD34*%
G04:AMPARAMS|DCode=35|XSize=1.524mm|YSize=3mm|CornerRadius=0mm|HoleSize=0mm|Usage=FLASHONLY|Rotation=315.000|XOffset=0mm|YOffset=0mm|HoleType=Round|Shape=Round|*
%AMOVALD35*
21,1,1.4760,1.5240,0.0000,0.0000,45.0*
1,1,1.5240,-0.5219,-0.5219*
1,1,1.5240,0.5219,0.5219*
%
%ADD35OVALD35*%

G04:AMPARAMS|DCode=36|XSize=1.016mm|YSize=0.4572mm|CornerRadius=0mm|HoleSize=0mm|Usage=FLASHONLY|Rotation=225.000|XOffset=0mm|YOffset=0mm|HoleType=Round|Shape=Rectangle|*
%AMROTATEDRECTD36*
4,1,4,0.1976,0.5209,0.5209,0.1976,-0.1976,-0.5209,-0.5209,-0.1976,0.1976,0.5209,0.0*
%
%ADD36ROTATEDRECTD36*%

%ADD37R,0.8000X0.8000*%
G04:AMPARAMS|DCode=38|XSize=1.016mm|YSize=0.4572mm|CornerRadius=0mm|HoleSize=0mm|Usage=FLASHONLY|Rotation=135.000|XOffset=0mm|YOffset=0mm|HoleType=Round|Shape=Rectangle|*
%AMROTATEDRECTD38*
4,1,4,0.5209,-0.1976,0.1976,-0.5209,-0.5209,0.1976,-0.1976,0.5209,0.5209,-0.1976,0.0*
%
%ADD38ROTATEDRECTD38*%

G04:AMPARAMS|DCode=39|XSize=1.524mm|YSize=3mm|CornerRadius=0mm|HoleSize=0mm|Usage=FLASHONLY|Rotation=45.000|XOffset=0mm|YOffset=0mm|HoleType=Round|Shape=Round|*
%AMOVALD39*
21,1,1.4760,1.5240,0.0000,0.0000,135.0*
1,1,1.5240,0.5219,-0.5219*
1,1,1.5240,-0.5219,0.5219*
%
%ADD39OVALD39*%

%ADD40R,1.8500X3.4000*%
G04:AMPARAMS|DCode=41|XSize=0.9mm|YSize=0.61mm|CornerRadius=0.1525mm|HoleSize=0mm|Usage=FLASHONLY|Rotation=90.000|XOffset=0mm|YOffset=0mm|HoleType=Round|Shape=RoundedRectangle|*
%AMROUNDEDRECTD41*
21,1,0.9000,0.3050,0,0,90.0*
21,1,0.5950,0.6100,0,0,90.0*
1,1,0.3050,0.1525,0.2975*
1,1,0.3050,0.1525,-0.2975*
1,1,0.3050,-0.1525,-0.2975*
1,1,0.3050,-0.1525,0.2975*
%
%ADD41ROUNDEDRECTD41*%
G04:AMPARAMS|DCode=42|XSize=0.9mm|YSize=0.53mm|CornerRadius=0.1325mm|HoleSize=0mm|Usage=FLASHONLY|Rotation=90.000|XOffset=0mm|YOffset=0mm|HoleType=Round|Shape=RoundedRectangle|*
%AMROUNDEDRECTD42*
21,1,0.9000,0.2650,0,0,90.0*
21,1,0.6350,0.5300,0,0,90.0*
1,1,0.2650,0.1325,0.3175*
1,1,0.2650,0.1325,-0.3175*
1,1,0.2650,-0.1325,-0.3175*
1,1,0.2650,-0.1325,0.3175*
%
%ADD42ROUNDEDRECTD42*%
%ADD43R,0.8000X0.8000*%
%ADD49R,3.8000X2.8000*%
%ADD51R,2.8000X3.8000*%
%ADD69P,0.1796X4X270.0*%
%ADD70P,0.1796X4X180.0*%
%ADD71C,0.1000*%
%ADD72C,2.5500*%
%ADD73C,1.3370*%
%ADD74R,1.3370X1.3370*%
%ADD75R,2.5500X2.5500*%
%ADD76C,1.5080*%
%ADD77C,0.4500*%
G36*
X-180774Y-173609D02*
X-209690Y-202525D01*
X-238068Y-174148D01*
X-209151Y-145231D01*
X-180774Y-173609D01*
D02*
G37*
G36*
X-141519Y-212863D02*
X-170436Y-241779D01*
X-198813Y-213402D01*
X-169897Y-184485D01*
X-141519Y-212863D01*
D02*
G37*
G36*
X-223768Y-256098D02*
X-252684Y-285014D01*
X-281062Y-256637D01*
X-252146Y-227720D01*
X-223768Y-256098D01*
D02*
G37*
G36*
X236658Y-175584D02*
X208280Y-203962D01*
X179363Y-175046D01*
X207741Y-146668D01*
X236658Y-175584D01*
D02*
G37*
G36*
X197403Y-214839D02*
X169026Y-243216D01*
X140109Y-214300D01*
X168487Y-185922D01*
X197403Y-214839D01*
D02*
G37*
G36*
X279892Y-257833D02*
X251515Y-286210D01*
X222598Y-257294D01*
X250976Y-228916D01*
X279892Y-257833D01*
D02*
G37*
G36*
X-222619Y258504D02*
X-250996Y230126D01*
X-279913Y259043D01*
X-251535Y287421D01*
X-222619Y258504D01*
D02*
G37*
G36*
X-140130Y215510D02*
X-168507Y187132D01*
X-197424Y216049D01*
X-169046Y244426D01*
X-140130Y215510D01*
D02*
G37*
G36*
X-179384Y176256D02*
X-207762Y147878D01*
X-236678Y176795D01*
X-208301Y205172D01*
X-179384Y176256D01*
D02*
G37*
G36*
X136245Y134642D02*
X136674Y134213D01*
X136906Y133653D01*
Y133350D01*
Y123444D01*
Y122535D01*
X136210Y120854D01*
X134924Y119568D01*
X133243Y118872D01*
X120396D01*
X119653Y118799D01*
X118279Y118230D01*
X117228Y117179D01*
X116659Y115805D01*
X116586Y115062D01*
Y104140D01*
Y103887D01*
X116393Y103421D01*
X116035Y103063D01*
X115569Y102870D01*
X109475D01*
X109009Y103063D01*
X108687Y103385D01*
Y107406D01*
X108610Y107793D01*
Y110470D01*
X108703Y110937D01*
Y111219D01*
X109435Y111951D01*
X109930Y113146D01*
Y114438D01*
X109435Y115633D01*
X108521Y116547D01*
X108458Y116573D01*
Y132842D01*
Y133246D01*
X108767Y133993D01*
X109339Y134565D01*
X110086Y134874D01*
X135685D01*
X136245Y134642D01*
D02*
G37*
G36*
X281893Y257357D02*
X252976Y228440D01*
X224598Y256818D01*
X253515Y285734D01*
X281893Y257357D01*
D02*
G37*
G36*
X199644Y214122D02*
X170728Y185206D01*
X142350Y213583D01*
X171266Y242499D01*
X199644Y214122D01*
D02*
G37*
G36*
X238898Y174868D02*
X209982Y145951D01*
X181604Y174329D01*
X210521Y203245D01*
X238898Y174868D01*
D02*
G37*
D11*
X106664Y113776D02*
X106680Y113792D01*
X106664Y110937D02*
Y113776D01*
X99648Y93376D02*
X106648Y100376D01*
Y107406D01*
X98648Y93376D02*
X104648Y87376D01*
X98648Y93376D02*
Y107406D01*
Y81376D02*
X104648Y87376D01*
X98648Y93376D02*
X99648D01*
X98648Y67346D02*
Y81376D01*
X85360Y27940D02*
X85614Y28194D01*
X74660Y38100D02*
Y48498D01*
X73882Y49276D02*
X74660Y48498D01*
X75692Y27940D02*
X85360D01*
X67648Y253576D02*
X81022D01*
X67564Y253492D02*
X67648Y253576D01*
X11430Y253825D02*
X11762Y253492D01*
X12938D01*
X27022Y253576D02*
X27022Y253576D01*
X13022D02*
X27022D01*
X12938Y253492D02*
X13022Y253576D01*
D12*
X67862Y-178336D02*
Y-169716D01*
Y-178336D02*
X68596Y-179070D01*
X65132Y-166986D02*
Y-156895D01*
Y-166986D02*
X67862Y-169716D01*
X45434Y-176340D02*
Y-169281D01*
X42704Y-179070D02*
X45434Y-176340D01*
X49132Y-165583D02*
Y-156895D01*
X45434Y-169281D02*
X49132Y-165583D01*
X-191878Y-67258D02*
X-172298D01*
X-191480Y-40764D02*
X-180986Y-51258D01*
X-172298D01*
X129710Y85344D02*
X148320D01*
X148558Y85582D01*
X149860D01*
X129678Y97376D02*
X149258D01*
X149860Y96774D01*
X138762Y101376D02*
X148860Y111474D01*
X129678Y81376D02*
X138366D01*
X148860Y70882D01*
X129678Y85376D02*
X129710Y85344D01*
X129678Y101376D02*
X138762D01*
X148860Y70882D02*
X149860D01*
X148860Y111474D02*
X149860D01*
D21*
X195326Y-39192D02*
D03*
X182626D02*
D03*
X144526D02*
D03*
X131826D02*
D03*
X119126D02*
D03*
Y14808D02*
D03*
X131826D02*
D03*
X144526D02*
D03*
X169926D02*
D03*
X182626D02*
D03*
X195326D02*
D03*
X157226D02*
D03*
X169926Y-39192D02*
D03*
X157226D02*
D03*
D22*
X35102Y-117865D02*
D03*
X75162Y-125865D02*
D03*
Y-133865D02*
D03*
X35102Y-125865D02*
D03*
X-122238Y-43258D02*
D03*
Y-47258D02*
D03*
Y-51258D02*
D03*
Y-55258D02*
D03*
Y-59258D02*
D03*
Y-63258D02*
D03*
Y-67258D02*
D03*
Y-71258D02*
D03*
X-172298D02*
D03*
Y-67258D02*
D03*
Y-63258D02*
D03*
Y-59258D02*
D03*
Y-55258D02*
D03*
Y-51258D02*
D03*
Y-47258D02*
D03*
Y-43258D02*
D03*
X35102Y-129865D02*
D03*
Y-113865D02*
D03*
X79618Y73376D02*
D03*
Y77376D02*
D03*
Y81376D02*
D03*
Y85376D02*
D03*
Y89376D02*
D03*
Y93376D02*
D03*
Y97376D02*
D03*
Y101376D02*
D03*
X129678Y97376D02*
D03*
Y81376D02*
D03*
Y77376D02*
D03*
Y89376D02*
D03*
Y73376D02*
D03*
Y101376D02*
D03*
Y85376D02*
D03*
Y93376D02*
D03*
X75162Y-113865D02*
D03*
Y-117865D02*
D03*
Y-121865D02*
D03*
Y-129865D02*
D03*
Y-137865D02*
D03*
Y-141865D02*
D03*
Y-145865D02*
D03*
Y-149865D02*
D03*
X35102D02*
D03*
Y-145865D02*
D03*
Y-141865D02*
D03*
Y-137865D02*
D03*
Y-133865D02*
D03*
Y-121865D02*
D03*
D23*
X1003363Y436702D02*
D03*
X882205Y743534D02*
D03*
X152146Y48244D02*
D03*
X136144Y64246D02*
D03*
X-175423Y-26494D02*
D03*
X576642Y-296850D02*
D03*
X229362Y-380778D02*
D03*
X576642Y-427152D02*
D03*
X11430Y239125D02*
D03*
X-26860Y151050D02*
D03*
Y162258D02*
D03*
X-37500Y90170D02*
D03*
X-54292Y186134D02*
D03*
X-68008D02*
D03*
X-40576Y120856D02*
D03*
X-68008Y135556D02*
D03*
X-54292D02*
D03*
X-369003Y1206322D02*
D03*
X-92952Y-85916D02*
D03*
Y-71216D02*
D03*
X-72136Y-33814D02*
D03*
Y-48514D02*
D03*
X-106668Y-85900D02*
D03*
Y-71200D02*
D03*
X-76454Y-136160D02*
D03*
Y-150860D02*
D03*
X-192480Y-81356D02*
D03*
Y-66656D02*
D03*
Y-55464D02*
D03*
Y-40764D02*
D03*
X-175423Y-11794D02*
D03*
X-141680Y-11570D02*
D03*
Y-26270D02*
D03*
X-106668Y-136478D02*
D03*
Y-151178D02*
D03*
X-92952Y-136494D02*
D03*
Y-151194D02*
D03*
X-117511Y-12556D02*
D03*
Y-27256D02*
D03*
X1003363Y451402D02*
D03*
X576642Y-282150D02*
D03*
Y-412452D02*
D03*
X-369003Y1221022D02*
D03*
X-57594Y108140D02*
D03*
Y93440D02*
D03*
X-68008Y120856D02*
D03*
X-54292D02*
D03*
X-40576Y135556D02*
D03*
X-26860Y176958D02*
D03*
Y136350D02*
D03*
X-68008Y200834D02*
D03*
X-54292D02*
D03*
X-45998Y276658D02*
D03*
Y291358D02*
D03*
X-95440Y39338D02*
D03*
Y54038D02*
D03*
X882205Y758234D02*
D03*
X152146Y33544D02*
D03*
X11430Y253825D02*
D03*
X-37500Y75470D02*
D03*
X208280Y-7620D02*
D03*
Y7080D02*
D03*
X137158Y-126261D02*
D03*
Y-111561D02*
D03*
X8128Y-151876D02*
D03*
Y-137176D02*
D03*
X109218Y-126261D02*
D03*
Y-111561D02*
D03*
X95248Y-126261D02*
D03*
Y-111561D02*
D03*
X123188Y-126245D02*
D03*
Y-111545D02*
D03*
X195326Y-69580D02*
D03*
Y-54880D02*
D03*
X229362Y-395478D02*
D03*
X149860Y85582D02*
D03*
Y111474D02*
D03*
Y96774D02*
D03*
X136144Y49546D02*
D03*
X149860Y70882D02*
D03*
X99060Y56388D02*
D03*
Y41688D02*
D03*
X30464Y123848D02*
D03*
Y138548D02*
D03*
Y164472D02*
D03*
Y149772D02*
D03*
X71628Y188436D02*
D03*
Y173736D02*
D03*
X57912Y188452D02*
D03*
Y173752D02*
D03*
Y108474D02*
D03*
Y123174D02*
D03*
X71628Y108458D02*
D03*
Y123158D02*
D03*
D24*
X-64247Y-141826D02*
D03*
X81022Y253576D02*
D03*
X-64247Y-179926D02*
D03*
Y-167226D02*
D03*
Y-129126D02*
D03*
Y-116426D02*
D03*
Y-103726D02*
D03*
X-10247D02*
D03*
Y-116426D02*
D03*
Y-129126D02*
D03*
Y-154526D02*
D03*
Y-167226D02*
D03*
Y-179926D02*
D03*
X-64247Y-154526D02*
D03*
X-10247Y-141826D02*
D03*
X27022Y253576D02*
D03*
Y291676D02*
D03*
Y278976D02*
D03*
X27022Y266276D02*
D03*
X27022Y240876D02*
D03*
X27022Y228176D02*
D03*
Y215476D02*
D03*
X81022D02*
D03*
Y228176D02*
D03*
X81022Y240876D02*
D03*
X81022Y278976D02*
D03*
Y291676D02*
D03*
Y266276D02*
D03*
D25*
X-141268Y-77288D02*
D03*
X-149268D02*
D03*
X-141268Y-37228D02*
D03*
X106648Y107406D02*
D03*
X98648Y107406D02*
D03*
Y67346D02*
D03*
X-129268Y-77288D02*
D03*
X-133268D02*
D03*
X-137268D02*
D03*
X-145268D02*
D03*
X-153268D02*
D03*
X-157268D02*
D03*
X-161268D02*
D03*
X-165268D02*
D03*
Y-37228D02*
D03*
X-161268D02*
D03*
X-157268D02*
D03*
X-153268D02*
D03*
X-149268D02*
D03*
X-137268D02*
D03*
X-133268D02*
D03*
X-129268D02*
D03*
X-145268D02*
D03*
X102648Y67346D02*
D03*
X86648Y67346D02*
D03*
Y107406D02*
D03*
X90648D02*
D03*
X94648D02*
D03*
X102648Y107406D02*
D03*
X118648Y67346D02*
D03*
X114648D02*
D03*
X110648D02*
D03*
X106648Y67346D02*
D03*
X94648Y67346D02*
D03*
X90648D02*
D03*
X122648D02*
D03*
Y107406D02*
D03*
X118648D02*
D03*
X114648D02*
D03*
X110648D02*
D03*
X41132Y-106835D02*
D03*
X45132D02*
D03*
X49132D02*
D03*
X53132D02*
D03*
X57132D02*
D03*
X61132D02*
D03*
X65132D02*
D03*
X69132D02*
D03*
Y-156895D02*
D03*
X65132D02*
D03*
X61132D02*
D03*
X57132D02*
D03*
X53132D02*
D03*
X49132D02*
D03*
X45132D02*
D03*
X41132D02*
D03*
D26*
X-142895Y922D02*
D03*
X85614Y28194D02*
D03*
X158766Y-439674D02*
D03*
X-113712Y117808D02*
D03*
X73882Y49276D02*
D03*
X33512Y-165354D02*
D03*
X-79232Y47752D02*
D03*
X31734Y-87884D02*
D03*
X-86090Y-20320D02*
D03*
X-395908Y-155642D02*
D03*
X-134084Y-90234D02*
D03*
X-119384D02*
D03*
X-134084Y-104204D02*
D03*
X-119384D02*
D03*
X-134068Y-118174D02*
D03*
X-119368D02*
D03*
X-134084Y-132144D02*
D03*
X-119384D02*
D03*
X-128195Y922D02*
D03*
X-168803D02*
D03*
X-154103D02*
D03*
X-78962Y-192278D02*
D03*
X-32675Y-192880D02*
D03*
X-17975D02*
D03*
X-64262Y-192278D02*
D03*
X-381208Y-155642D02*
D03*
X-110156Y167830D02*
D03*
X-110156Y139890D02*
D03*
X-122602Y48466D02*
D03*
X-110156Y153860D02*
D03*
X-64532Y47752D02*
D03*
X-99012Y117808D02*
D03*
X-95456Y139890D02*
D03*
X-95456Y167830D02*
D03*
Y153860D02*
D03*
Y181800D02*
D03*
X-110156D02*
D03*
X-107902Y48466D02*
D03*
X59182Y49276D02*
D03*
X-71390Y-20320D02*
D03*
X10430Y-102108D02*
D03*
X25130D02*
D03*
X141508Y-85129D02*
D03*
X156208D02*
D03*
X141492Y-98845D02*
D03*
X156192D02*
D03*
X117528Y-57681D02*
D03*
X132228D02*
D03*
X57404Y-179070D02*
D03*
X42704D02*
D03*
X17034Y-87884D02*
D03*
X18812Y-165354D02*
D03*
X90930Y-85129D02*
D03*
X76230D02*
D03*
X90914Y-98845D02*
D03*
X76214D02*
D03*
X83296Y-179070D02*
D03*
X68596D02*
D03*
X9668Y-124714D02*
D03*
X24368D02*
D03*
X106304Y-57681D02*
D03*
X91604D02*
D03*
X173466Y-439674D02*
D03*
X111522Y36068D02*
D03*
X126222D02*
D03*
X95774Y291676D02*
D03*
X110474D02*
D03*
X100314Y28194D02*
D03*
X99044Y169402D02*
D03*
X84344D02*
D03*
X99028Y155432D02*
D03*
X84328Y155432D02*
D03*
X84344Y141462D02*
D03*
X99044D02*
D03*
X84344Y127492D02*
D03*
X99044Y127492D02*
D03*
D27*
X122936Y176378D02*
D03*
X-157976Y-139120D02*
D03*
Y-91520D02*
D03*
X122936Y128778D02*
D03*
D28*
X144134Y-150153D02*
D03*
X96534D02*
D03*
D29*
X-32500Y57500D02*
D03*
Y-57500D02*
D03*
X-37500Y57500D02*
D03*
X37500Y-57500D02*
D03*
X-27500D02*
D03*
X27500D02*
D03*
X22500D02*
D03*
X17500D02*
D03*
X-17500Y57500D02*
D03*
X-27500D02*
D03*
X-22500D02*
D03*
X-12500D02*
D03*
X-7500D02*
D03*
X-2500D02*
D03*
X2500D02*
D03*
X7500D02*
D03*
X12500D02*
D03*
X17500D02*
D03*
X22500D02*
D03*
X27500D02*
D03*
X32500D02*
D03*
X37500D02*
D03*
X32500Y-57500D02*
D03*
X12500D02*
D03*
X7500D02*
D03*
X2500D02*
D03*
X-2500D02*
D03*
X-7500D02*
D03*
X-12500D02*
D03*
X-17500D02*
D03*
X-22500D02*
D03*
X-37500D02*
D03*
D30*
X25400Y-315156D02*
D03*
X0D02*
D03*
X-12700D02*
D03*
X-25400Y-315156D02*
D03*
X25400Y-276156D02*
D03*
X12700Y-276156D02*
D03*
Y-315156D02*
D03*
X0Y-276156D02*
D03*
X-12700D02*
D03*
X-25400Y-276156D02*
D03*
D31*
X-168402Y36334D02*
D03*
Y101334D02*
D03*
D32*
X-57500Y-17500D02*
D03*
X57500Y37500D02*
D03*
X-57500D02*
D03*
Y-22500D02*
D03*
X57500Y-32500D02*
D03*
Y-27500D02*
D03*
Y-12500D02*
D03*
Y-17500D02*
D03*
Y-22500D02*
D03*
Y-37500D02*
D03*
Y32500D02*
D03*
Y27500D02*
D03*
Y22500D02*
D03*
Y17500D02*
D03*
Y12500D02*
D03*
Y7500D02*
D03*
Y2500D02*
D03*
Y-2500D02*
D03*
Y-7500D02*
D03*
X-57500Y-37500D02*
D03*
Y-32500D02*
D03*
Y-27500D02*
D03*
Y-12500D02*
D03*
Y-7500D02*
D03*
Y-2500D02*
D03*
Y2500D02*
D03*
Y7500D02*
D03*
Y12500D02*
D03*
Y17500D02*
D03*
Y22500D02*
D03*
Y27500D02*
D03*
Y32500D02*
D03*
D33*
X-103072Y-98660D02*
D03*
Y-123460D02*
D03*
X-85372D02*
D03*
Y-98660D02*
D03*
X-46712Y148318D02*
D03*
Y173118D02*
D03*
X-64412D02*
D03*
Y148318D02*
D03*
X50332Y135918D02*
D03*
X50332Y160718D02*
D03*
X68032Y160718D02*
D03*
X68032Y135918D02*
D03*
D34*
X-103072Y-107060D02*
D03*
Y-115060D02*
D03*
X-85372D02*
D03*
Y-107060D02*
D03*
X-46712Y156718D02*
D03*
Y164718D02*
D03*
X-64412D02*
D03*
Y156718D02*
D03*
X50332Y144318D02*
D03*
X50332Y152318D02*
D03*
X68032Y152318D02*
D03*
X68032Y144318D02*
D03*
D35*
X-253423Y-197908D02*
D03*
X-280691Y286452D02*
D03*
X280670Y-285242D02*
D03*
X-193479Y-256836D02*
D03*
X194310Y257556D02*
D03*
X254254Y198628D02*
D03*
X167640Y449834D02*
D03*
D36*
X-211845Y-203244D02*
D03*
X-220826Y-194263D02*
D03*
X-229806Y-185283D02*
D03*
X-238786Y-176303D02*
D03*
X-132360Y-202266D02*
D03*
X-141340Y-193286D02*
D03*
X-150320Y-184306D02*
D03*
X-214608Y-245501D02*
D03*
X-223588Y-236521D02*
D03*
X-171614Y-163012D02*
D03*
X-232569Y-227541D02*
D03*
X-180594Y-154032D02*
D03*
X-189574Y-145052D02*
D03*
X215439Y246221D02*
D03*
X224419Y237241D02*
D03*
X233399Y228261D02*
D03*
X181425Y154752D02*
D03*
X190405Y145772D02*
D03*
X172444Y163732D02*
D03*
X142170Y194006D02*
D03*
X151151Y185026D02*
D03*
X133190Y202986D02*
D03*
X199385Y136791D02*
D03*
X242379Y219280D02*
D03*
X160131Y176046D02*
D03*
X-172591Y-242498D02*
D03*
X-181571Y-233518D02*
D03*
X-190552Y-224538D02*
D03*
X-199532Y-215557D02*
D03*
X-159300Y-175326D02*
D03*
X-254840Y-285733D02*
D03*
X-263820Y-276752D02*
D03*
X-272800Y-267772D02*
D03*
X-281780Y-258792D02*
D03*
X-241549Y-218560D02*
D03*
X-198555Y-136071D02*
D03*
X255670Y286453D02*
D03*
X264650Y277472D02*
D03*
X273631Y268492D02*
D03*
X282611Y259512D02*
D03*
X239617Y177023D02*
D03*
X230636Y186003D02*
D03*
X221656Y194984D02*
D03*
X212676Y203964D02*
D03*
X173422Y243218D02*
D03*
X182402Y234238D02*
D03*
X191382Y225257D02*
D03*
X200362Y216277D02*
D03*
D37*
X-304610Y3616D02*
D03*
X-288610D02*
D03*
X158116Y-425196D02*
D03*
X174116D02*
D03*
D38*
X-237397Y178950D02*
D03*
X-228416Y187930D02*
D03*
X-219436Y196910D02*
D03*
X-210456Y205891D02*
D03*
X-170224Y165659D02*
D03*
X-197165Y138718D02*
D03*
X-188185Y147698D02*
D03*
X-179205Y156679D02*
D03*
X-280631Y261198D02*
D03*
X-271651Y270179D02*
D03*
X-262671Y279159D02*
D03*
X-253691Y288139D02*
D03*
X-213459Y247907D02*
D03*
X-240400Y220967D02*
D03*
X-231420Y229947D02*
D03*
X-222439Y238927D02*
D03*
X-198142Y218204D02*
D03*
X-189162Y227184D02*
D03*
X-180182Y236164D02*
D03*
X-171202Y245145D02*
D03*
X-130970Y204913D02*
D03*
X-157911Y177972D02*
D03*
X-148931Y186953D02*
D03*
X-139950Y195933D02*
D03*
X240379Y-219757D02*
D03*
X197144Y-137508D02*
D03*
X231399Y-228737D02*
D03*
X222419Y-237717D02*
D03*
X188164Y-146488D02*
D03*
X179184Y-155469D02*
D03*
X157890Y-176762D02*
D03*
X148910Y-185743D02*
D03*
X139930Y-194723D02*
D03*
X198122Y-216994D02*
D03*
X189141Y-225974D02*
D03*
X180161Y-234954D02*
D03*
X171181Y-243935D02*
D03*
X237376Y-177740D02*
D03*
X228396Y-186720D02*
D03*
X219415Y-195700D02*
D03*
X210435Y-204681D02*
D03*
X280611Y-259988D02*
D03*
X271630Y-268968D02*
D03*
X262650Y-277949D02*
D03*
X253670Y-286929D02*
D03*
X213438Y-246697D02*
D03*
X130949Y-203703D02*
D03*
X170204Y-164449D02*
D03*
D39*
X-251735Y199838D02*
D03*
X-373655Y102810D02*
D03*
X192786Y-258572D02*
D03*
X251714Y-198628D02*
D03*
X-280093Y-285792D02*
D03*
X280924Y286512D02*
D03*
D40*
X51752Y-242570D02*
D03*
X107252D02*
D03*
D41*
X103674Y-95249D02*
D03*
X128474D02*
D03*
Y-77549D02*
D03*
X103674D02*
D03*
D42*
X112074Y-95249D02*
D03*
X120074D02*
D03*
Y-77549D02*
D03*
X112074D02*
D03*
D43*
X216662Y-395604D02*
D03*
Y-379604D02*
D03*
D49*
X104648Y87376D02*
D03*
X-147268Y-57258D02*
D03*
D51*
X55132Y-131865D02*
D03*
D69*
X-205200Y-187618D02*
D03*
X-165946Y-226872D02*
D03*
X-248194Y-270107D02*
D03*
X249025Y270827D02*
D03*
X206031Y188338D02*
D03*
X166776Y227592D02*
D03*
D70*
X-221771Y172304D02*
D03*
X-265006Y254553D02*
D03*
X-182517Y211559D02*
D03*
X182496Y-210348D02*
D03*
X221750Y-171094D02*
D03*
X264985Y-253343D02*
D03*
D71*
X110744Y25654D02*
X110744Y25654D01*
X102854Y25654D02*
X110744D01*
X144526Y-53848D02*
Y-39192D01*
X169672Y14554D02*
X169926Y14808D01*
X195326Y-54880D02*
Y-39192D01*
X132228Y-56681D02*
Y-39594D01*
X131826Y-39192D02*
X132228Y-39594D01*
X113868Y14808D02*
X119126D01*
X88392Y-10668D02*
X113868Y14808D01*
X182626Y-54610D02*
Y-39192D01*
X203780Y10580D02*
X207280Y7080D01*
X208280D01*
X195326Y14808D02*
X200076D01*
X203780Y10580D02*
Y11104D01*
X200076Y14808D02*
X203780Y11104D01*
X144062Y14344D02*
X144526Y14808D01*
X182626D02*
X195326D01*
X119126Y-39192D02*
X131826D01*
X123876Y14808D02*
X131826D01*
X119126D02*
X123876D01*
X144062Y6394D02*
Y14344D01*
X140462Y2794D02*
X144062Y6394D01*
X108966Y2794D02*
X140462D01*
X99314Y-6858D02*
X108966Y2794D01*
X88392Y-54469D02*
Y-10668D01*
Y-54469D02*
X91604Y-57681D01*
X169672Y-762D02*
Y14554D01*
X144272Y-54102D02*
X144526Y-53848D01*
X-24384Y-152908D02*
X-11865D01*
X-10501Y-154272D01*
X-122123Y-171008D02*
Y-93538D01*
X-64262Y-192278D02*
Y-179941D01*
X-64247Y-179926D01*
X-33659Y-191896D02*
Y-96392D01*
X-22261Y-125062D02*
Y-93566D01*
X-45211Y-84840D02*
X-33659Y-96392D01*
X-22261Y-125062D02*
X-18661Y-128662D01*
X-31913Y-83914D02*
X-22261Y-93566D01*
X-18661Y-128662D02*
X-10711D01*
X9652Y-138700D02*
X17764D01*
X8128Y-137176D02*
X9652Y-138700D01*
X22599Y-133865D02*
X35102D01*
X17764Y-138700D02*
X22599Y-133865D01*
X12628Y-148376D02*
Y-147900D01*
X9128Y-151876D02*
X12628Y-148376D01*
X8128Y-151876D02*
X9128D01*
X22663Y-137865D02*
X35102D01*
X12628Y-147900D02*
X22663Y-137865D01*
X9978Y-118800D02*
X14224Y-114554D01*
X21082D01*
X9668Y-124714D02*
X9978Y-124404D01*
Y-118800D01*
X24368Y-124714D02*
X27217Y-121865D01*
X35102D01*
X25130Y-110506D02*
Y-102108D01*
X21082Y-114554D02*
X25130Y-110506D01*
X16526Y-163068D02*
Y-149082D01*
Y-163068D02*
X18812Y-165354D01*
X23743Y-141865D02*
X35102D01*
X16526Y-149082D02*
X23743Y-141865D01*
X10430Y-102108D02*
X11626Y-100912D01*
Y-94292D01*
X13534Y-92384D01*
X13534D01*
X17034Y-88884D01*
Y-87884D01*
X-35723Y-72992D02*
X-10247Y-98468D01*
Y-103726D02*
Y-98468D01*
X-14475Y-188380D02*
X-13951D01*
X-10247Y-184676D01*
Y-179926D01*
Y-167226D01*
X-64247Y-116426D02*
Y-103726D01*
X-10247Y-116426D02*
Y-108476D01*
Y-103726D01*
X-64501Y-128872D02*
X-64247Y-129126D01*
X-131943Y-11570D02*
X-129957Y-13556D01*
X-141680Y-11570D02*
X-131943D01*
X-129957Y-23208D02*
Y-13556D01*
X-154103Y-19890D02*
X-149268Y-24725D01*
X-128195Y-78D02*
X-122011Y-6262D01*
Y-9056D02*
Y-6262D01*
X-154103Y-19890D02*
Y922D01*
X-168819Y-14572D02*
X-157268Y-26123D01*
X-171645Y-14572D02*
X-168819D01*
X-168803Y-9254D02*
X-153268Y-24789D01*
X-168803Y-9254D02*
Y922D01*
X-165268Y-23467D02*
X-165263Y-23462D01*
X-161253Y-37213D02*
Y-28571D01*
X-165268Y-37228D02*
Y-23467D01*
X-161253Y-28571D02*
X-161238Y-28556D01*
X-113900Y-47258D02*
X-113740Y-47098D01*
X-122376Y-43120D02*
Y-36684D01*
X-122238Y-47258D02*
X-113900D01*
X-125909Y-27256D02*
X-117511D01*
X-137268Y-37228D02*
Y-29770D01*
X-129957Y-23208D02*
X-125909Y-27256D01*
X-153268Y-37228D02*
Y-24789D01*
X-149268Y-37228D02*
Y-24725D01*
X-157268Y-37228D02*
Y-26123D01*
X26430Y-145835D02*
X26445Y-145850D01*
X35087D01*
X100240Y-65461D02*
Y-20156D01*
Y-65461D02*
X103674Y-68895D01*
X112076Y-67921D02*
Y-67162D01*
X112075Y-67922D02*
X112076Y-67921D01*
X44972Y-98337D02*
X45132Y-98497D01*
X104179Y-85129D02*
X110433Y-91383D01*
X90930Y-85129D02*
X104179D01*
X103674Y-77549D02*
Y-68895D01*
X93615Y-96144D02*
X102779D01*
X90914Y-98845D02*
X93615Y-96144D01*
X21336Y-149860D02*
X21341Y-149865D01*
X-122872Y48736D02*
Y126174D01*
X-110156Y138890D01*
X-7366Y98552D02*
X254Y106172D01*
Y274082D01*
X-10190Y284526D02*
X254Y274082D01*
X-96932Y37846D02*
X-95440Y39338D01*
X-110490Y37846D02*
X-96932D01*
X-114998Y71072D02*
X-105600Y61674D01*
Y50768D02*
Y61674D01*
X-66230Y89868D02*
X-66158Y89940D01*
X-61094D01*
X-53182Y284526D02*
X-10190D01*
X-59118Y278590D02*
X-53182Y284526D01*
X-99012Y125158D02*
X-94678Y129492D01*
X-99012Y117808D02*
Y125158D01*
X-93496Y222036D02*
Y291374D01*
X-45760Y291120D02*
X-35584Y291120D01*
X-93496Y222036D02*
X-75120Y203660D01*
X-30924Y221186D02*
X-10858Y201120D01*
X-40832Y231094D02*
X-30924Y221186D01*
X-54800Y235156D02*
X-26860Y207216D01*
X-40832Y231094D02*
Y239980D01*
X-45998Y276658D02*
X-45998Y265466D01*
X-41172Y240320D02*
X-40832Y239980D01*
X-10350Y278844D02*
X-5016Y273510D01*
X-46712Y156718D02*
X-37084D01*
X-37212Y164718D02*
X-37084Y164846D01*
X-51244Y178498D02*
X-28400D01*
X-46712Y164718D02*
X-37212D01*
X-54038Y168084D02*
Y175704D01*
X-50364Y143192D02*
X-34702D01*
X-54038Y175704D02*
X-51244Y178498D01*
X-25860Y136350D02*
X-10858Y151352D01*
X-39576Y135556D02*
X-33512Y129492D01*
X-57404Y164718D02*
X-54038Y168084D01*
X-33512Y129492D02*
X-18224D01*
X-5016Y142700D02*
Y273510D01*
X-10858Y151352D02*
Y201120D01*
X-34702Y143192D02*
X-27860Y136350D01*
X-46958Y141192D02*
X-41322Y135556D01*
X-56102Y141192D02*
X-46958D01*
X-26860Y176958D02*
Y207216D01*
X-75120Y182125D02*
Y203660D01*
Y182125D02*
X-66113Y173118D01*
X-53276Y146104D02*
Y151828D01*
X-58166Y156718D02*
X-53276Y151828D01*
X-64412Y164718D02*
X-57404D01*
X-63228Y148318D02*
X-56102Y141192D01*
X-64412Y156718D02*
X-58166D01*
X-53276Y146104D02*
X-50364Y143192D01*
X-18224Y129492D02*
X-5016Y142700D01*
X5334Y129794D02*
Y214376D01*
X13970Y266446D02*
X26852Y266446D01*
X18646Y123848D02*
X30464D01*
X24638Y131572D02*
X37332D01*
X16570Y139640D02*
X24638Y131572D01*
X16570Y186565D02*
X49618Y219613D01*
X16570Y139640D02*
Y186565D01*
X5334Y129794D02*
X20320Y114808D01*
X11430Y131064D02*
Y193756D01*
X-41656Y1778D02*
Y2612D01*
X-46544Y7500D02*
X-41656Y2612D01*
X-57500Y7500D02*
X-46544D01*
X21341Y-149865D02*
X35102D01*
X111792Y-8604D02*
X207296D01*
X100240Y-20156D02*
X111792Y-8604D01*
X122648Y54967D02*
X125545Y52070D01*
X122648Y54967D02*
Y67346D01*
X135398Y49546D02*
X136144D01*
X133096Y47244D02*
X135398Y49546D01*
X114648Y56548D02*
Y67346D01*
Y56548D02*
X123952Y47244D01*
X133096D01*
X164084Y-133096D02*
X195326Y-101854D01*
Y-69580D01*
X86614Y-133096D02*
X164084D01*
X83312Y-129794D02*
X86614Y-133096D01*
X207296Y-8604D02*
X208280Y-7620D01*
X61816Y97376D02*
X79618D01*
X86186Y107869D02*
Y109568D01*
X85893D02*
X86186D01*
X84896Y110565D02*
X85893Y109568D01*
X106648Y55912D02*
Y67346D01*
X61498Y101376D02*
X79618D01*
X90648Y58136D02*
Y67346D01*
X110648Y55976D02*
Y67346D01*
X62642Y93376D02*
X79618D01*
X65500Y89376D02*
X79618D01*
X90663Y107421D02*
Y115301D01*
X90678Y115316D01*
X69850Y77470D02*
X79524D01*
X94648Y59888D02*
Y67346D01*
X79756Y66802D02*
Y73238D01*
X79618Y73376D02*
X79756Y73238D01*
X118633Y67331D02*
X118648Y67346D01*
X86186Y107869D02*
X86648Y107406D01*
X90648D02*
X90663Y107421D01*
X79524Y77470D02*
X79618Y77376D01*
X118633Y58689D02*
Y67331D01*
X118618Y58674D02*
X118633Y58689D01*
X125545Y52070D02*
X126492D01*
X94648Y59888D02*
X98148Y56388D01*
X99060D01*
X51816Y75692D02*
X65500Y89376D01*
X51816Y62230D02*
Y75692D01*
X47244Y77978D02*
X62642Y93376D01*
X47244Y27940D02*
Y77978D01*
Y27940D02*
X51660Y23524D01*
X56476D01*
X57500Y22500D01*
X110648Y55976D02*
X124642Y41982D01*
Y37648D02*
Y41982D01*
Y37648D02*
X126222Y36068D01*
X58166Y65786D02*
Y70866D01*
Y65786D02*
X67056Y56896D01*
X89408D01*
X90648Y58136D01*
X41720Y81598D02*
X61498Y101376D01*
X41720Y10350D02*
Y81598D01*
Y10350D02*
X49570Y2500D01*
X57500D01*
X106648Y55912D02*
X113538Y49022D01*
Y38084D02*
Y49022D01*
X111522Y36068D02*
X113538Y38084D01*
X44450Y80010D02*
X61816Y97376D01*
X44450Y21590D02*
Y80010D01*
Y21590D02*
X48540Y17500D01*
X57500D01*
X37332Y131572D02*
X41678Y135918D01*
X11430Y193756D02*
X27022Y209348D01*
X11430Y131064D02*
X18646Y123848D01*
X30464Y164472D02*
X31044D01*
X34544Y167972D01*
Y179832D01*
X55880Y201168D01*
X20320Y114808D02*
X74399D01*
X78657Y119066D01*
X27022Y209348D02*
Y215476D01*
X74302Y201168D02*
X81022Y207888D01*
X55880Y201168D02*
X74302D01*
X26852Y266446D02*
X27022Y266276D01*
X27022Y278976D02*
X27276Y278722D01*
X39204D01*
X80938Y266192D02*
X81022Y266276D01*
X62738Y266192D02*
X80938D01*
X137160Y-126259D02*
Y-118811D01*
X123190Y-126259D02*
Y-118811D01*
X109220Y-126259D02*
Y-118811D01*
X95248Y-126261D02*
X95250Y-126259D01*
Y-118811D01*
X110433Y-93608D02*
Y-91383D01*
X112074Y-108705D02*
Y-95249D01*
X110433Y-93608D02*
X112074Y-95249D01*
X138753Y-87884D02*
X141508Y-85129D01*
X120074Y-93399D02*
X125589Y-87884D01*
X138753D01*
X102779Y-96144D02*
X103674Y-95249D01*
X112075Y-77548D02*
Y-67922D01*
X120139Y-77484D02*
Y-67986D01*
X120204Y-67921D01*
X117528Y-65245D02*
X120204Y-67921D01*
X109218Y-111561D02*
X112074Y-108705D01*
X128474Y-95249D02*
X137992D01*
X120074Y-108431D02*
Y-95249D01*
Y-108431D02*
X123188Y-111545D01*
X120074Y-95249D02*
Y-93399D01*
X141492Y-98845D02*
Y-98749D01*
X137992Y-95249D02*
X141492Y-98749D01*
Y-108061D02*
Y-98845D01*
X137992Y-111561D02*
X141492Y-108061D01*
X137158Y-111561D02*
X137992D01*
X94414Y-111561D02*
X95248D01*
X90914Y-108061D02*
X94414Y-111561D01*
X90914Y-108061D02*
Y-98845D01*
X57554Y12446D02*
X70612D01*
X57500Y12500D02*
X57554Y12446D01*
X100314Y28194D02*
X102854Y25654D01*
X45132Y-106835D02*
Y-98497D01*
X109804Y-64890D02*
Y-61181D01*
X117528Y-65245D02*
Y-57681D01*
X109804Y-64890D02*
X112076Y-67162D01*
X34558Y-106973D02*
X40994D01*
X57620Y7620D02*
X75946D01*
X5334Y284988D02*
X5334Y214376D01*
X5334Y284988D02*
X23368Y303022D01*
X78657Y119066D02*
X95962D01*
X97934Y117094D02*
X98298D01*
X95962Y119066D02*
X97934Y117094D01*
X23368Y303022D02*
X99128D01*
X105974Y296176D01*
X106974D01*
X110474Y292676D01*
Y291676D02*
Y292676D01*
X-58034Y18034D02*
X-57500Y17500D01*
X-58161Y11839D02*
X-57500Y12500D01*
X32500Y57500D02*
X32512Y57488D01*
X57512Y32512D02*
X68834D01*
X57500Y7500D02*
X57620Y7620D01*
X57500Y32500D02*
X57512Y32512D01*
X32512Y47244D02*
Y57488D01*
X-67052Y11839D02*
X-58161D01*
X-67310Y18034D02*
X-58034D01*
X50267Y152383D02*
X50332Y152318D01*
X40769Y152383D02*
X50267D01*
X40704Y152448D02*
X40769Y152383D01*
X50331Y144319D02*
X50332Y144318D01*
X40705Y144319D02*
X50331D01*
X40704Y144320D02*
X40705Y144319D01*
X95774Y291676D02*
X95774Y291676D01*
X81022Y291676D02*
X95774D01*
X27022D02*
X27022Y278976D01*
X81022Y207888D02*
Y215476D01*
X27022Y228176D02*
X27022Y215476D01*
X73986Y238090D02*
X76772Y240876D01*
X58420Y222758D02*
X73752Y238090D01*
X73986D01*
X91610Y127492D02*
X99044D01*
X91610Y169402D02*
X99044D01*
X91610Y155432D02*
X99044D01*
X99028Y141478D02*
X99044Y141462D01*
X91594Y141478D02*
X99028D01*
X31272Y240876D02*
X44226Y227922D01*
X27022Y240876D02*
X31272D01*
X81022Y278976D02*
X97116Y278976D01*
X81022Y215476D02*
Y228176D01*
X76772Y240876D02*
X81022D01*
X44226Y227922D02*
X44792D01*
X49618Y219613D02*
Y253068D01*
X41678Y135918D02*
X50332D01*
X39945Y144320D02*
X40704D01*
X37673Y142048D02*
X39945Y144320D01*
X33964Y142048D02*
X37673D01*
X30464Y138548D02*
X33964Y142048D01*
X38028Y149772D02*
X40704Y152448D01*
X30464Y149772D02*
X38028D01*
X84344Y169402D02*
Y169458D01*
X80844Y172958D02*
X84344Y169458D01*
X71628Y173736D02*
X72406Y172958D01*
X80844D01*
X68927Y160720D02*
X70720Y162513D01*
X68032Y160720D02*
X68927D01*
X70720Y172828D02*
X71628Y173736D01*
X70720Y162513D02*
Y172828D01*
X64318Y153852D02*
X66500D01*
X68032Y152320D01*
X59436Y158734D02*
Y172228D01*
Y158734D02*
X64318Y153852D01*
X57912Y173752D02*
X59436Y172228D01*
X81216Y152320D02*
X84328Y155432D01*
X68032Y152320D02*
X81216D01*
X57912Y123174D02*
X58532Y123794D01*
Y136670D01*
X66182Y144320D01*
X81486D02*
X84344Y141462D01*
X66182Y144320D02*
X81486D01*
X84344Y127420D02*
Y127492D01*
X80844Y123920D02*
X84344Y127420D01*
X71628Y123158D02*
X72390Y123920D01*
X80844D01*
X70214Y124572D02*
X71628Y123158D01*
X70214Y124572D02*
Y133738D01*
X68032Y135920D02*
X70214Y133738D01*
D72*
X25000Y-236550D02*
D03*
D73*
X-96012Y-295730D02*
D03*
Y-332730D02*
D03*
Y-252730D02*
D03*
D74*
Y-215730D02*
D03*
D75*
X-25000Y-236550D02*
D03*
D76*
X55000Y-336550D02*
D03*
X-55000D02*
D03*
D77*
X110744Y25654D02*
D03*
X-24384Y-152908D02*
D03*
X-135280Y-85438D02*
D03*
X-31913Y-83914D02*
D03*
X106680Y113792D02*
D03*
X77216Y134874D02*
D03*
X75692Y27940D02*
D03*
X74660Y38100D02*
D03*
X147066Y-108966D02*
D03*
X84328Y-110998D02*
D03*
X67564Y253492D02*
D03*
X46990Y173736D02*
D03*
X44196Y99060D02*
D03*
X20320Y150114D02*
D03*
X-113740Y-47098D02*
D03*
X-122376Y-36684D02*
D03*
X-165263Y-23462D02*
D03*
X-161238Y-28556D02*
D03*
X26430Y-145835D02*
D03*
X112076Y-67921D02*
D03*
X44972Y-98337D02*
D03*
X21336Y-149860D02*
D03*
X-122872Y64468D02*
D03*
X-7366Y98552D02*
D03*
X-110490Y37846D02*
D03*
X-114998Y71072D02*
D03*
X-66230Y89868D02*
D03*
X-59118Y278590D02*
D03*
X-94678Y129492D02*
D03*
X-54800Y235156D02*
D03*
X-37084Y156718D02*
D03*
Y164846D02*
D03*
X-45998Y265466D02*
D03*
X-10350Y278844D02*
D03*
X-35584Y291120D02*
D03*
X-93496Y291374D02*
D03*
X-41172Y240320D02*
D03*
X13970Y266446D02*
D03*
X-41656Y1778D02*
D03*
X99314Y-6858D02*
D03*
X169672Y-762D02*
D03*
X182626Y-54610D02*
D03*
X144272Y-54102D02*
D03*
X39204Y278722D02*
D03*
X62738Y266192D02*
D03*
X58166Y70866D02*
D03*
X69850Y77470D02*
D03*
X84896Y110565D02*
D03*
X83312Y-129794D02*
D03*
X137160Y-118811D02*
D03*
X123190D02*
D03*
X109220D02*
D03*
X95250Y-118811D02*
D03*
X70612Y12446D02*
D03*
X120204Y-67921D02*
D03*
X34558Y-106973D02*
D03*
X75946Y7620D02*
D03*
X118618Y58674D02*
D03*
X126492Y52070D02*
D03*
X90678Y115316D02*
D03*
X98298Y117094D02*
D03*
X79756Y66802D02*
D03*
X68834Y32512D02*
D03*
X51816Y62230D02*
D03*
X58420Y222758D02*
D03*
X91610Y127492D02*
D03*
X91610Y169402D02*
D03*
X91610Y155432D02*
D03*
X91594Y141478D02*
D03*
X32512Y47244D02*
D03*
X49618Y253068D02*
D03*
X40704Y144320D02*
D03*
Y152448D02*
D03*
X44792Y227922D02*
D03*
X97116Y278976D02*
D03*
X-67310Y18034D02*
D03*
X-67052Y11839D02*
D03*
M02*
