G04*
G04 #@! TF.GenerationSoftware,Altium Limited,Altium Designer,25.8.1 (18)*
G04*
G04 Layer_Color=16711935*
%FSLAX44Y44*%
%MOMM*%
G71*
G04*
G04 #@! TF.SameCoordinates,A8D3B3E1-CBBC-48C7-8EAF-3341E4FBDCCF*
G04*
G04*
G04 #@! TF.FilePolarity,Negative*
G04*
G01*
G75*
%ADD22R,0.9061X0.1925*%
%ADD25R,0.1925X0.9061*%
%ADD31R,2.5000X3.5000*%
%ADD45R,1.2032X1.0032*%
%ADD46R,1.7032X0.8532*%
%ADD47R,1.0032X1.2032*%
%ADD48R,2.8732X1.2732*%
%ADD49R,3.8000X2.8000*%
%ADD52R,0.9632X2.6032*%
G04:AMPARAMS|DCode=53|XSize=1.1032mm|YSize=0.8132mm|CornerRadius=0.2541mm|HoleSize=0mm|Usage=FLASHONLY|Rotation=0.000|XOffset=0mm|YOffset=0mm|HoleType=Round|Shape=RoundedRectangle|*
%AMROUNDEDRECTD53*
21,1,1.1032,0.3050,0,0,0.0*
21,1,0.5950,0.8132,0,0,0.0*
1,1,0.5082,0.2975,-0.1525*
1,1,0.5082,-0.2975,-0.1525*
1,1,0.5082,-0.2975,0.1525*
1,1,0.5082,0.2975,0.1525*
%
%ADD53ROUNDEDRECTD53*%
G04:AMPARAMS|DCode=54|XSize=1.1032mm|YSize=0.7332mm|CornerRadius=0.2341mm|HoleSize=0mm|Usage=FLASHONLY|Rotation=0.000|XOffset=0mm|YOffset=0mm|HoleType=Round|Shape=RoundedRectangle|*
%AMROUNDEDRECTD54*
21,1,1.1032,0.2650,0,0,0.0*
21,1,0.6350,0.7332,0,0,0.0*
1,1,0.4682,0.3175,-0.1325*
1,1,0.4682,-0.3175,-0.1325*
1,1,0.4682,-0.3175,0.1325*
1,1,0.4682,0.3175,0.1325*
%
%ADD54ROUNDEDRECTD54*%
G04:AMPARAMS|DCode=56|XSize=1.2192mm|YSize=0.6604mm|CornerRadius=0mm|HoleSize=0mm|Usage=FLASHONLY|Rotation=225.000|XOffset=0mm|YOffset=0mm|HoleType=Round|Shape=Rectangle|*
%AMROTATEDRECTD56*
4,1,4,0.1976,0.6645,0.6645,0.1976,-0.1976,-0.6645,-0.6645,-0.1976,0.1976,0.6645,0.0*
%
%ADD56ROTATEDRECTD56*%

G04:AMPARAMS|DCode=58|XSize=1.2192mm|YSize=0.6604mm|CornerRadius=0mm|HoleSize=0mm|Usage=FLASHONLY|Rotation=135.000|XOffset=0mm|YOffset=0mm|HoleType=Round|Shape=Rectangle|*
%AMROTATEDRECTD58*
4,1,4,0.6645,-0.1976,0.1976,-0.6645,-0.6645,0.1976,-0.1976,0.6645,0.6645,-0.1976,0.0*
%
%ADD58ROTATEDRECTD58*%

G04:AMPARAMS|DCode=60|XSize=1.1032mm|YSize=0.8132mm|CornerRadius=0.2541mm|HoleSize=0mm|Usage=FLASHONLY|Rotation=90.000|XOffset=0mm|YOffset=0mm|HoleType=Round|Shape=RoundedRectangle|*
%AMROUNDEDRECTD60*
21,1,1.1032,0.3050,0,0,90.0*
21,1,0.5950,0.8132,0,0,90.0*
1,1,0.5082,0.1525,0.2975*
1,1,0.5082,0.1525,-0.2975*
1,1,0.5082,-0.1525,-0.2975*
1,1,0.5082,-0.1525,0.2975*
%
%ADD60ROUNDEDRECTD60*%
G04:AMPARAMS|DCode=61|XSize=1.1032mm|YSize=0.7332mm|CornerRadius=0.2341mm|HoleSize=0mm|Usage=FLASHONLY|Rotation=90.000|XOffset=0mm|YOffset=0mm|HoleType=Round|Shape=RoundedRectangle|*
%AMROUNDEDRECTD61*
21,1,1.1032,0.2650,0,0,90.0*
21,1,0.6350,0.7332,0,0,90.0*
1,1,0.4682,0.1325,0.3175*
1,1,0.4682,0.1325,-0.3175*
1,1,0.4682,-0.1325,-0.3175*
1,1,0.4682,-0.1325,0.3175*
%
%ADD61ROUNDEDRECTD61*%
%ADD63C,2.7532*%
%ADD64C,1.5402*%
%ADD65R,1.5402X1.5402*%
%ADD66R,2.7532X2.7532*%
%ADD67C,1.7112*%
%ADD68C,0.6532*%
%ADD79R,1.0000X1.5500*%
%ADD80R,1.2000X1.4000*%
%ADD81R,1.6764X0.6604*%
G36*
X-262009Y299037D02*
X-261878Y299011D01*
X-261752Y298968D01*
X-261633Y298909D01*
X-261522Y298835D01*
X-261422Y298747D01*
X-232505Y269831D01*
X-232418Y269730D01*
X-232344Y269620D01*
X-232285Y269500D01*
X-232242Y269374D01*
X-232216Y269244D01*
X-232207Y269111D01*
X-232216Y268978D01*
X-232242Y268847D01*
X-232285Y268721D01*
X-232344Y268601D01*
X-232418Y268491D01*
X-232505Y268391D01*
X-260883Y240013D01*
X-260983Y239925D01*
X-261094Y239851D01*
X-261174Y239812D01*
X-261213Y239792D01*
X-261339Y239750D01*
X-261470Y239724D01*
X-261603Y239715D01*
X-261736Y239724D01*
X-261866Y239750D01*
X-261993Y239792D01*
X-262112Y239851D01*
X-262223Y239925D01*
X-262323Y240013D01*
X-291239Y268930D01*
X-291327Y269030D01*
X-291401Y269140D01*
X-291460Y269260D01*
X-291503Y269386D01*
X-291529Y269517D01*
X-291538Y269650D01*
X-291529Y269782D01*
X-291503Y269913D01*
X-291460Y270039D01*
X-291401Y270159D01*
X-291327Y270269D01*
X-291239Y270369D01*
X-262862Y298747D01*
X-262762Y298835D01*
X-262651Y298909D01*
X-262532Y298968D01*
X-262405Y299011D01*
X-262275Y299037D01*
X-262142Y299045D01*
X-262009Y299037D01*
D02*
G37*
G36*
X264254Y297350D02*
X264385Y297324D01*
X264511Y297281D01*
X264631Y297223D01*
X264741Y297149D01*
X264841Y297061D01*
X293219Y268683D01*
X293307Y268583D01*
X293381Y268472D01*
X293440Y268353D01*
X293483Y268227D01*
X293509Y268096D01*
X293517Y267963D01*
X293509Y267830D01*
X293483Y267700D01*
X293440Y267574D01*
X293381Y267454D01*
X293307Y267343D01*
X293219Y267243D01*
X264303Y238327D01*
X264203Y238239D01*
X264092Y238165D01*
X263972Y238106D01*
X263846Y238063D01*
X263716Y238037D01*
X263583Y238029D01*
X263450Y238037D01*
X263319Y238063D01*
X263193Y238106D01*
X263074Y238165D01*
X262963Y238239D01*
X262863Y238327D01*
X234485Y266704D01*
X234397Y266805D01*
X234323Y266915D01*
X234265Y267035D01*
X234222Y267161D01*
X234196Y267292D01*
X234187Y267424D01*
X234196Y267557D01*
X234222Y267688D01*
X234265Y267814D01*
X234323Y267933D01*
X234397Y268044D01*
X234485Y268144D01*
X263402Y297061D01*
X263502Y297149D01*
X263612Y297223D01*
X263732Y297281D01*
X263858Y297324D01*
X263989Y297350D01*
X264121Y297359D01*
X264254Y297350D01*
D02*
G37*
G36*
X-179520Y256042D02*
X-179389Y256016D01*
X-179263Y255974D01*
X-179144Y255915D01*
X-179033Y255841D01*
X-178933Y255753D01*
X-150017Y226836D01*
X-149929Y226736D01*
X-149855Y226626D01*
X-149796Y226506D01*
X-149753Y226380D01*
X-149727Y226249D01*
X-149718Y226117D01*
X-149727Y225984D01*
X-149753Y225853D01*
X-149796Y225727D01*
X-149855Y225607D01*
X-149929Y225497D01*
X-150017Y225397D01*
X-178394Y197019D01*
X-178494Y196931D01*
X-178605Y196857D01*
X-178685Y196818D01*
X-178724Y196798D01*
X-178851Y196755D01*
X-178981Y196729D01*
X-179114Y196721D01*
X-179247Y196729D01*
X-179378Y196755D01*
X-179504Y196798D01*
X-179623Y196857D01*
X-179734Y196931D01*
X-179834Y197019D01*
X-208750Y225935D01*
X-208838Y226035D01*
X-208912Y226146D01*
X-208971Y226266D01*
X-209014Y226392D01*
X-209040Y226523D01*
X-209049Y226655D01*
X-209040Y226788D01*
X-209014Y226919D01*
X-208971Y227045D01*
X-208912Y227164D01*
X-208838Y227275D01*
X-208750Y227375D01*
X-180373Y255753D01*
X-180273Y255841D01*
X-180162Y255915D01*
X-180043Y255974D01*
X-179916Y256016D01*
X-179786Y256042D01*
X-179653Y256051D01*
X-179520Y256042D01*
D02*
G37*
G36*
X182006Y254116D02*
X182137Y254090D01*
X182263Y254047D01*
X182382Y253988D01*
X182493Y253914D01*
X182593Y253826D01*
X210971Y225448D01*
X211059Y225348D01*
X211133Y225238D01*
X211191Y225118D01*
X211234Y224992D01*
X211260Y224861D01*
X211269Y224729D01*
X211260Y224596D01*
X211234Y224465D01*
X211191Y224339D01*
X211133Y224219D01*
X211059Y224109D01*
X210971Y224009D01*
X182054Y195092D01*
X181954Y195004D01*
X181843Y194930D01*
X181724Y194871D01*
X181598Y194829D01*
X181467Y194803D01*
X181334Y194794D01*
X181201Y194803D01*
X181071Y194829D01*
X180945Y194871D01*
X180825Y194930D01*
X180714Y195004D01*
X180614Y195092D01*
X152237Y223470D01*
X152149Y223570D01*
X152075Y223681D01*
X152016Y223800D01*
X151973Y223926D01*
X151947Y224057D01*
X151938Y224190D01*
X151947Y224322D01*
X151973Y224453D01*
X152016Y224579D01*
X152075Y224699D01*
X152149Y224809D01*
X152237Y224910D01*
X181153Y253826D01*
X181253Y253914D01*
X181364Y253988D01*
X181483Y254047D01*
X181609Y254090D01*
X181740Y254116D01*
X181873Y254124D01*
X182006Y254116D01*
D02*
G37*
G36*
X-218774Y216788D02*
X-218644Y216762D01*
X-218517Y216720D01*
X-218398Y216661D01*
X-218287Y216587D01*
X-218187Y216499D01*
X-189271Y187582D01*
X-189183Y187482D01*
X-189109Y187372D01*
X-189050Y187252D01*
X-189007Y187126D01*
X-188981Y186995D01*
X-188972Y186863D01*
X-188981Y186730D01*
X-189007Y186599D01*
X-189050Y186473D01*
X-189109Y186353D01*
X-189183Y186243D01*
X-189271Y186143D01*
X-217648Y157765D01*
X-217749Y157677D01*
X-217859Y157603D01*
X-217939Y157564D01*
X-217979Y157544D01*
X-218105Y157501D01*
X-218235Y157475D01*
X-218368Y157467D01*
X-218501Y157475D01*
X-218632Y157501D01*
X-218758Y157544D01*
X-218877Y157603D01*
X-218988Y157677D01*
X-219088Y157765D01*
X-248005Y186681D01*
X-248092Y186781D01*
X-248167Y186892D01*
X-248206Y186972D01*
X-248225Y187012D01*
X-248268Y187138D01*
X-248294Y187268D01*
X-248303Y187401D01*
X-248294Y187534D01*
X-248268Y187665D01*
X-248225Y187791D01*
X-248167Y187910D01*
X-248092Y188021D01*
X-248005Y188121D01*
X-219627Y216499D01*
X-219527Y216587D01*
X-219416Y216661D01*
X-219297Y216720D01*
X-219171Y216762D01*
X-219040Y216788D01*
X-218907Y216797D01*
X-218774Y216788D01*
D02*
G37*
G36*
X221260Y214861D02*
X221391Y214835D01*
X221517Y214793D01*
X221636Y214734D01*
X221747Y214660D01*
X221847Y214572D01*
X250225Y186194D01*
X250313Y186094D01*
X250387Y185983D01*
X250445Y185864D01*
X250488Y185738D01*
X250514Y185607D01*
X250523Y185474D01*
X250514Y185341D01*
X250488Y185211D01*
X250445Y185085D01*
X250387Y184965D01*
X250313Y184855D01*
X250225Y184754D01*
X221308Y155838D01*
X221208Y155750D01*
X221098Y155676D01*
X220978Y155617D01*
X220852Y155575D01*
X220721Y155548D01*
X220588Y155540D01*
X220455Y155548D01*
X220325Y155575D01*
X220199Y155617D01*
X220079Y155676D01*
X219969Y155750D01*
X219868Y155838D01*
X191491Y184216D01*
X191403Y184316D01*
X191329Y184426D01*
X191270Y184546D01*
X191227Y184672D01*
X191201Y184803D01*
X191193Y184935D01*
X191201Y185068D01*
X191227Y185199D01*
X191270Y185325D01*
X191329Y185445D01*
X191403Y185555D01*
X191491Y185655D01*
X220407Y214572D01*
X220507Y214660D01*
X220618Y214734D01*
X220738Y214793D01*
X220864Y214835D01*
X220994Y214861D01*
X221127Y214870D01*
X221260Y214861D01*
D02*
G37*
G36*
X-219625Y-154829D02*
X-219494Y-154854D01*
X-219368Y-154897D01*
X-219249Y-154956D01*
X-219138Y-155030D01*
X-219038Y-155118D01*
X-190660Y-183496D01*
X-190572Y-183596D01*
X-190499Y-183706D01*
X-190459Y-183786D01*
X-190440Y-183826D01*
X-190397Y-183952D01*
X-190371Y-184083D01*
X-190362Y-184216D01*
X-190371Y-184348D01*
X-190397Y-184479D01*
X-190440Y-184605D01*
X-190499Y-184725D01*
X-190572Y-184835D01*
X-190660Y-184935D01*
X-219577Y-213852D01*
X-219677Y-213940D01*
X-219788Y-214014D01*
X-219907Y-214073D01*
X-220033Y-214115D01*
X-220164Y-214141D01*
X-220297Y-214150D01*
X-220430Y-214141D01*
X-220560Y-214115D01*
X-220686Y-214073D01*
X-220806Y-214014D01*
X-220917Y-213940D01*
X-221017Y-213852D01*
X-249394Y-185474D01*
X-249482Y-185374D01*
X-249556Y-185264D01*
X-249615Y-185144D01*
X-249658Y-185018D01*
X-249684Y-184887D01*
X-249692Y-184754D01*
X-249684Y-184622D01*
X-249658Y-184491D01*
X-249615Y-184365D01*
X-249556Y-184245D01*
X-249482Y-184135D01*
X-249394Y-184034D01*
X-220478Y-155118D01*
X-220378Y-155030D01*
X-220267Y-154956D01*
X-220147Y-154897D01*
X-220021Y-154854D01*
X-219891Y-154829D01*
X-219758Y-154820D01*
X-219625Y-154829D01*
D02*
G37*
G36*
X218481Y-156265D02*
X218611Y-156291D01*
X218737Y-156334D01*
X218857Y-156393D01*
X218967Y-156467D01*
X219068Y-156555D01*
X247984Y-185471D01*
X248072Y-185571D01*
X248146Y-185682D01*
X248205Y-185801D01*
X248248Y-185928D01*
X248274Y-186058D01*
X248282Y-186191D01*
X248274Y-186324D01*
X248248Y-186455D01*
X248205Y-186581D01*
X248146Y-186700D01*
X248072Y-186811D01*
X247984Y-186911D01*
X219606Y-215289D01*
X219506Y-215376D01*
X219396Y-215450D01*
X219276Y-215509D01*
X219150Y-215552D01*
X219019Y-215578D01*
X218887Y-215587D01*
X218754Y-215578D01*
X218623Y-215552D01*
X218497Y-215509D01*
X218377Y-215450D01*
X218267Y-215376D01*
X218167Y-215289D01*
X189250Y-186372D01*
X189162Y-186272D01*
X189088Y-186161D01*
X189029Y-186042D01*
X188987Y-185916D01*
X188961Y-185785D01*
X188952Y-185652D01*
X188961Y-185519D01*
X188987Y-185389D01*
X189029Y-185263D01*
X189088Y-185143D01*
X189162Y-185032D01*
X189250Y-184932D01*
X217628Y-156555D01*
X217728Y-156467D01*
X217839Y-156393D01*
X217958Y-156334D01*
X218084Y-156291D01*
X218215Y-156265D01*
X218348Y-156257D01*
X218481Y-156265D01*
D02*
G37*
G36*
X-180371Y-194083D02*
X-180240Y-194109D01*
X-180114Y-194151D01*
X-179995Y-194210D01*
X-179884Y-194284D01*
X-179784Y-194372D01*
X-151406Y-222750D01*
X-151318Y-222850D01*
X-151244Y-222961D01*
X-151185Y-223080D01*
X-151143Y-223206D01*
X-151117Y-223337D01*
X-151108Y-223470D01*
X-151117Y-223603D01*
X-151143Y-223733D01*
X-151185Y-223859D01*
X-151244Y-223979D01*
X-151318Y-224090D01*
X-151406Y-224190D01*
X-180323Y-253106D01*
X-180423Y-253194D01*
X-180533Y-253268D01*
X-180653Y-253327D01*
X-180779Y-253370D01*
X-180910Y-253396D01*
X-181042Y-253404D01*
X-181175Y-253396D01*
X-181306Y-253370D01*
X-181432Y-253327D01*
X-181552Y-253268D01*
X-181662Y-253194D01*
X-181763Y-253106D01*
X-210140Y-224729D01*
X-210228Y-224628D01*
X-210302Y-224518D01*
X-210361Y-224398D01*
X-210404Y-224272D01*
X-210430Y-224141D01*
X-210438Y-224009D01*
X-210430Y-223876D01*
X-210404Y-223745D01*
X-210361Y-223619D01*
X-210302Y-223500D01*
X-210228Y-223389D01*
X-210140Y-223289D01*
X-181224Y-194372D01*
X-181124Y-194284D01*
X-181013Y-194210D01*
X-180893Y-194151D01*
X-180767Y-194109D01*
X-180637Y-194083D01*
X-180504Y-194074D01*
X-180371Y-194083D01*
D02*
G37*
G36*
X179226Y-195519D02*
X179357Y-195545D01*
X179483Y-195588D01*
X179603Y-195647D01*
X179713Y-195721D01*
X179813Y-195809D01*
X208730Y-224725D01*
X208818Y-224825D01*
X208892Y-224936D01*
X208951Y-225056D01*
X208993Y-225182D01*
X209019Y-225312D01*
X209028Y-225445D01*
X209019Y-225578D01*
X208993Y-225709D01*
X208951Y-225835D01*
X208892Y-225954D01*
X208818Y-226065D01*
X208730Y-226165D01*
X180352Y-254543D01*
X180252Y-254631D01*
X180141Y-254705D01*
X180022Y-254764D01*
X179896Y-254806D01*
X179765Y-254832D01*
X179632Y-254841D01*
X179499Y-254832D01*
X179369Y-254806D01*
X179243Y-254764D01*
X179123Y-254705D01*
X179013Y-254631D01*
X178912Y-254543D01*
X149996Y-225626D01*
X149908Y-225526D01*
X149834Y-225415D01*
X149775Y-225296D01*
X149732Y-225170D01*
X149706Y-225039D01*
X149698Y-224906D01*
X149706Y-224774D01*
X149732Y-224643D01*
X149775Y-224517D01*
X149834Y-224397D01*
X149908Y-224287D01*
X149996Y-224186D01*
X178374Y-195809D01*
X178474Y-195721D01*
X178584Y-195647D01*
X178704Y-195588D01*
X178830Y-195545D01*
X178961Y-195519D01*
X179093Y-195511D01*
X179226Y-195519D01*
D02*
G37*
G36*
X-262619Y-237317D02*
X-262489Y-237343D01*
X-262362Y-237386D01*
X-262243Y-237445D01*
X-262132Y-237519D01*
X-262032Y-237607D01*
X-233655Y-265984D01*
X-233567Y-266085D01*
X-233493Y-266195D01*
X-233434Y-266315D01*
X-233391Y-266441D01*
X-233365Y-266572D01*
X-233356Y-266704D01*
X-233365Y-266837D01*
X-233391Y-266968D01*
X-233434Y-267094D01*
X-233493Y-267213D01*
X-233567Y-267324D01*
X-233655Y-267424D01*
X-262571Y-296341D01*
X-262671Y-296429D01*
X-262782Y-296503D01*
X-262901Y-296562D01*
X-263027Y-296604D01*
X-263158Y-296630D01*
X-263291Y-296639D01*
X-263424Y-296630D01*
X-263554Y-296604D01*
X-263681Y-296562D01*
X-263800Y-296503D01*
X-263911Y-296429D01*
X-264011Y-296341D01*
X-292388Y-267963D01*
X-292476Y-267863D01*
X-292550Y-267752D01*
X-292609Y-267633D01*
X-292652Y-267507D01*
X-292678Y-267376D01*
X-292687Y-267243D01*
X-292678Y-267110D01*
X-292652Y-266980D01*
X-292609Y-266854D01*
X-292550Y-266734D01*
X-292476Y-266623D01*
X-292388Y-266523D01*
X-263472Y-237607D01*
X-263372Y-237519D01*
X-263261Y-237445D01*
X-263142Y-237386D01*
X-263016Y-237343D01*
X-262885Y-237317D01*
X-262752Y-237309D01*
X-262619Y-237317D01*
D02*
G37*
G36*
X261715Y-238514D02*
X261846Y-238540D01*
X261972Y-238582D01*
X262092Y-238641D01*
X262202Y-238715D01*
X262302Y-238803D01*
X291219Y-267720D01*
X291307Y-267820D01*
X291381Y-267930D01*
X291439Y-268050D01*
X291482Y-268176D01*
X291508Y-268307D01*
X291517Y-268440D01*
X291508Y-268572D01*
X291482Y-268703D01*
X291439Y-268829D01*
X291381Y-268949D01*
X291307Y-269059D01*
X291219Y-269160D01*
X262841Y-297537D01*
X262741Y-297625D01*
X262630Y-297699D01*
X262511Y-297758D01*
X262385Y-297801D01*
X262254Y-297827D01*
X262121Y-297835D01*
X261988Y-297827D01*
X261858Y-297801D01*
X261732Y-297758D01*
X261612Y-297699D01*
X261501Y-297625D01*
X261401Y-297537D01*
X232485Y-268621D01*
X232397Y-268521D01*
X232323Y-268410D01*
X232264Y-268290D01*
X232221Y-268164D01*
X232195Y-268034D01*
X232187Y-267901D01*
X232195Y-267768D01*
X232221Y-267637D01*
X232264Y-267511D01*
X232323Y-267392D01*
X232397Y-267281D01*
X232485Y-267181D01*
X260862Y-238803D01*
X260963Y-238715D01*
X261073Y-238641D01*
X261193Y-238582D01*
X261319Y-238540D01*
X261450Y-238514D01*
X261582Y-238505D01*
X261715Y-238514D01*
D02*
G37*
D22*
X-126058Y89774D02*
D03*
Y101774D02*
D03*
Y85774D02*
D03*
Y105774D02*
D03*
Y113774D02*
D03*
Y97774D02*
D03*
X-75998Y85774D02*
D03*
Y89774D02*
D03*
Y93774D02*
D03*
Y97774D02*
D03*
Y101774D02*
D03*
Y105774D02*
D03*
Y109774D02*
D03*
Y113774D02*
D03*
X-126058Y109774D02*
D03*
Y93774D02*
D03*
D25*
X-95028Y119804D02*
D03*
Y79744D02*
D03*
X-103028Y119804D02*
D03*
X-119028D02*
D03*
X-115028D02*
D03*
X-99028Y79744D02*
D03*
X-119028D02*
D03*
X-107028Y119804D02*
D03*
X-111028D02*
D03*
X-83028D02*
D03*
X-87028D02*
D03*
X-91028D02*
D03*
X-99028D02*
D03*
X-115028Y79744D02*
D03*
X-111028D02*
D03*
X-107028D02*
D03*
X-103028D02*
D03*
X-91028D02*
D03*
X-87028D02*
D03*
X-83028D02*
D03*
D31*
X-170688Y-62980D02*
D03*
Y2020D02*
D03*
X172466Y39890D02*
D03*
X171450Y-23646D02*
D03*
X172466Y104890D02*
D03*
X171450Y-88646D02*
D03*
D45*
X-72136Y-48514D02*
D03*
Y-33814D02*
D03*
X-92952Y-136478D02*
D03*
X-85344Y-49292D02*
D03*
X-92952Y-85900D02*
D03*
X-103326Y-19174D02*
D03*
X-106668Y-136478D02*
D03*
Y-85900D02*
D03*
X188976Y-386064D02*
D03*
X163576Y-386064D02*
D03*
X121570Y-342630D02*
D03*
X137160D02*
D03*
X105918Y-342630D02*
D03*
X91186Y-331540D02*
D03*
X83312Y-257286D02*
D03*
X57912Y173736D02*
D03*
X71628D02*
D03*
X30480Y149860D02*
D03*
X-8048Y250800D02*
D03*
X57912Y123158D02*
D03*
X71628D02*
D03*
X44196Y108458D02*
D03*
X30480Y138652D02*
D03*
X-132524Y76644D02*
D03*
X-148526Y60642D02*
D03*
X69850Y49800D02*
D03*
X41132Y-25162D02*
D03*
X28956Y18050D02*
D03*
X28178Y-25162D02*
D03*
X73166Y-144549D02*
D03*
X76454Y-304598D02*
D03*
X69342Y-257286D02*
D03*
X-74930Y54626D02*
D03*
X-78000Y35274D02*
D03*
X-42926Y27702D02*
D03*
X-124206Y21098D02*
D03*
X-27500Y-25162D02*
D03*
X-78000Y-5556D02*
D03*
X-103326Y-59766D02*
D03*
Y-45066D02*
D03*
X-106668Y-71200D02*
D03*
X-85344Y-63992D02*
D03*
X-117765Y-12556D02*
D03*
Y-27256D02*
D03*
X-103326Y-33874D02*
D03*
X-106668Y-151178D02*
D03*
X-92952D02*
D03*
Y-71200D02*
D03*
X-146240Y123872D02*
D03*
X137160Y-327930D02*
D03*
X121570Y-327930D02*
D03*
X105918Y-327930D02*
D03*
X-146240Y97980D02*
D03*
Y109172D02*
D03*
Y83280D02*
D03*
X-8048Y265500D02*
D03*
X-68008Y186134D02*
D03*
Y200834D02*
D03*
X-54292Y135572D02*
D03*
Y120872D02*
D03*
Y186150D02*
D03*
Y200850D02*
D03*
X-68008Y135556D02*
D03*
Y120856D02*
D03*
X-26844Y162170D02*
D03*
Y176870D02*
D03*
Y150946D02*
D03*
Y136246D02*
D03*
X-124206Y35798D02*
D03*
X-95440Y54086D02*
D03*
Y68786D02*
D03*
X-132524Y61944D02*
D03*
X-74930Y69326D02*
D03*
X-148526Y45942D02*
D03*
X61214Y95742D02*
D03*
X137158Y-140993D02*
D03*
X83312Y-242586D02*
D03*
X91186Y-289932D02*
D03*
X69342Y-242586D02*
D03*
X76454Y-289898D02*
D03*
X41132Y-39862D02*
D03*
X-27500Y-39862D02*
D03*
X-41910Y-24876D02*
D03*
X137158Y-126293D02*
D03*
X123188Y-140993D02*
D03*
Y-126293D02*
D03*
X95248Y-140993D02*
D03*
Y-126293D02*
D03*
X109218Y-140993D02*
D03*
Y-126293D02*
D03*
X73166Y-129849D02*
D03*
X28178Y-39862D02*
D03*
X188976Y-371364D02*
D03*
X163576D02*
D03*
X30480Y123952D02*
D03*
X61214Y81042D02*
D03*
X69850Y64500D02*
D03*
X99060Y41640D02*
D03*
Y26940D02*
D03*
X28956Y32750D02*
D03*
X-78000Y20574D02*
D03*
X-42926Y42402D02*
D03*
X-78000Y9144D02*
D03*
X91186Y-304632D02*
D03*
Y-316840D02*
D03*
X-41910Y-10176D02*
D03*
X49618Y278960D02*
D03*
X49618Y264260D02*
D03*
X30480Y164560D02*
D03*
X44196Y123158D02*
D03*
X71628Y188436D02*
D03*
X57912D02*
D03*
Y108458D02*
D03*
X71628Y108458D02*
D03*
D46*
X-77402Y265974D02*
D03*
Y304074D02*
D03*
Y291374D02*
D03*
Y253274D02*
D03*
Y240574D02*
D03*
Y227874D02*
D03*
X-23402D02*
D03*
Y240574D02*
D03*
Y253274D02*
D03*
Y278674D02*
D03*
Y291374D02*
D03*
Y304074D02*
D03*
Y265974D02*
D03*
X-77402Y278674D02*
D03*
D47*
X-108188Y-163830D02*
D03*
X117332Y105410D02*
D03*
X-159952Y-75292D02*
D03*
X141492Y-85129D02*
D03*
X117616Y-57697D02*
D03*
X106408D02*
D03*
X141492Y-98845D02*
D03*
X90914Y-85129D02*
D03*
X76214Y-71413D02*
D03*
X90914Y-98845D02*
D03*
X-44212Y80772D02*
D03*
X17048Y-87923D02*
D03*
X-148816Y-118174D02*
D03*
X-134116D02*
D03*
X-148816Y-90234D02*
D03*
X-134116D02*
D03*
X-148816Y-104204D02*
D03*
X-134116D02*
D03*
X-145252Y-75292D02*
D03*
X-134116Y-132144D02*
D03*
X-148816D02*
D03*
X-93488Y-163830D02*
D03*
X-58912Y80772D02*
D03*
X-95424Y153860D02*
D03*
X-80724D02*
D03*
X-95408Y167830D02*
D03*
X-80708D02*
D03*
X-95424Y181800D02*
D03*
X-80724D02*
D03*
X-95424Y139890D02*
D03*
X-80724D02*
D03*
X-92154Y304074D02*
D03*
X-106854D02*
D03*
X-122602Y48466D02*
D03*
X-107902D02*
D03*
X113776Y169402D02*
D03*
X57640Y-87923D02*
D03*
X10430Y-102362D02*
D03*
X25130D02*
D03*
X156192Y-85129D02*
D03*
X90914Y-71413D02*
D03*
X76214Y-85129D02*
D03*
X132316Y-57697D02*
D03*
X91708D02*
D03*
X76214Y-98845D02*
D03*
X156192D02*
D03*
X42940Y-87923D02*
D03*
X31748D02*
D03*
X113776Y141462D02*
D03*
X113776Y155432D02*
D03*
X113776Y127492D02*
D03*
X126222Y36068D02*
D03*
X111522D02*
D03*
X102632Y105410D02*
D03*
X99076Y155432D02*
D03*
Y127492D02*
D03*
X99076Y141462D02*
D03*
X123936Y-282194D02*
D03*
X109236D02*
D03*
X99076Y169402D02*
D03*
D48*
X-119316Y188776D02*
D03*
Y141176D02*
D03*
D49*
X-101028Y99774D02*
D03*
D52*
X7657Y-206488D02*
D03*
X-5043Y-206488D02*
D03*
X-30443Y-206488D02*
D03*
X20357Y-206488D02*
D03*
Y-167488D02*
D03*
X7657Y-167488D02*
D03*
X-5043D02*
D03*
X-17743Y-206488D02*
D03*
Y-167488D02*
D03*
X-30443D02*
D03*
D53*
X-85372Y-98662D02*
D03*
Y-123462D02*
D03*
X-103072D02*
D03*
Y-98662D02*
D03*
X-64412Y148316D02*
D03*
Y173116D02*
D03*
X-46712D02*
D03*
Y148316D02*
D03*
X68032Y135920D02*
D03*
Y160720D02*
D03*
X50332D02*
D03*
Y135920D02*
D03*
D54*
X-85372Y-107062D02*
D03*
Y-115062D02*
D03*
X-103072D02*
D03*
Y-107062D02*
D03*
X-64412Y156716D02*
D03*
Y164716D02*
D03*
X-46712D02*
D03*
Y156716D02*
D03*
X68032Y144320D02*
D03*
X68032Y152320D02*
D03*
X50332D02*
D03*
Y144320D02*
D03*
D56*
X-210138Y-226164D02*
D03*
X-201158Y-235144D02*
D03*
X-192178Y-244124D02*
D03*
X-183198Y-253105D02*
D03*
X-292387Y-269398D02*
D03*
X-283407Y-278379D02*
D03*
X-274426Y-287359D02*
D03*
X-265446Y-296339D02*
D03*
X-249393Y-186910D02*
D03*
X-240412Y-195890D02*
D03*
X-231432Y-204870D02*
D03*
X-222452Y-213850D02*
D03*
X-191201Y-164639D02*
D03*
X-200181Y-155658D02*
D03*
X-209161Y-146678D02*
D03*
X226045Y256828D02*
D03*
X183051Y174339D02*
D03*
X223283Y214570D02*
D03*
X232263Y205590D02*
D03*
X241243Y196610D02*
D03*
X250223Y187630D02*
D03*
X184028Y253825D02*
D03*
X193009Y244844D02*
D03*
X201989Y235864D02*
D03*
X210969Y226884D02*
D03*
X266277Y297059D02*
D03*
X275257Y288079D02*
D03*
X284237Y279099D02*
D03*
X293218Y270118D02*
D03*
X143797Y213593D02*
D03*
X-182220Y-173619D02*
D03*
X-225215Y-256108D02*
D03*
X-234195Y-247127D02*
D03*
X-243175Y-238147D02*
D03*
X-252155Y-229167D02*
D03*
X-142966Y-212873D02*
D03*
X-151946Y-203893D02*
D03*
X-160927Y-194912D02*
D03*
X-169907Y-185932D02*
D03*
X235026Y247847D02*
D03*
X244006Y238867D02*
D03*
X252986Y229887D02*
D03*
X152777Y204613D02*
D03*
X161757Y195632D02*
D03*
X170737Y186652D02*
D03*
X192031Y165359D02*
D03*
X201011Y156378D02*
D03*
X209992Y147398D02*
D03*
D58*
X-221062Y216497D02*
D03*
X-230043Y207517D02*
D03*
X-239023Y198537D02*
D03*
X-248003Y189556D02*
D03*
X-207772Y149325D02*
D03*
X-198791Y158305D02*
D03*
X-189811Y167285D02*
D03*
X-180831Y176266D02*
D03*
X-264297Y298746D02*
D03*
X-273277Y289765D02*
D03*
X-282258Y280785D02*
D03*
X-291238Y271805D02*
D03*
X-251006Y231573D02*
D03*
X-242026Y240553D02*
D03*
X-233046Y249534D02*
D03*
X-224065Y258514D02*
D03*
X-181808Y255751D02*
D03*
X-190788Y246771D02*
D03*
X-199769Y237791D02*
D03*
X-208749Y228811D02*
D03*
X-168517Y188579D02*
D03*
X-159537Y197559D02*
D03*
X-150557Y206539D02*
D03*
X-141577Y215520D02*
D03*
X159516Y-196349D02*
D03*
X150536Y-205329D02*
D03*
X141556Y-214310D02*
D03*
X198771Y-157095D02*
D03*
X189790Y-166075D02*
D03*
X180810Y-175056D02*
D03*
X242005Y-239343D02*
D03*
X233025Y-248324D02*
D03*
X224045Y-257304D02*
D03*
X181788Y-254541D02*
D03*
X190768Y-245561D02*
D03*
X199748Y-236581D02*
D03*
X208728Y-227600D02*
D03*
X168497Y-187369D02*
D03*
X264277Y-297535D02*
D03*
X273257Y-288555D02*
D03*
X282237Y-279575D02*
D03*
X291217Y-270595D02*
D03*
X250986Y-230363D02*
D03*
X221042Y-215287D02*
D03*
X230022Y-206307D02*
D03*
X239002Y-197327D02*
D03*
X247983Y-188346D02*
D03*
X207751Y-148115D02*
D03*
D60*
X103676Y-77549D02*
D03*
X128476D02*
D03*
Y-95249D02*
D03*
X103676D02*
D03*
D61*
X112076Y-77549D02*
D03*
X120076D02*
D03*
Y-95249D02*
D03*
X112076D02*
D03*
D63*
X25000Y-236550D02*
D03*
D64*
X-96012Y-295730D02*
D03*
Y-332730D02*
D03*
Y-252730D02*
D03*
D65*
Y-215730D02*
D03*
D66*
X-25000Y-236550D02*
D03*
D67*
X55000Y-336550D02*
D03*
X-55000D02*
D03*
D68*
X110744Y25654D02*
D03*
X-24384Y-152908D02*
D03*
X-135280Y-85438D02*
D03*
X-31913Y-83914D02*
D03*
X106680Y113792D02*
D03*
X77216Y134874D02*
D03*
X75692Y27940D02*
D03*
X74660Y38100D02*
D03*
X147066Y-108966D02*
D03*
X84328Y-110998D02*
D03*
X67564Y253492D02*
D03*
X46990Y173736D02*
D03*
X44196Y99060D02*
D03*
X20320Y150114D02*
D03*
X-113740Y-47098D02*
D03*
X-122376Y-36684D02*
D03*
X-165263Y-23462D02*
D03*
X-161238Y-28556D02*
D03*
X26430Y-145835D02*
D03*
X112076Y-67921D02*
D03*
X44972Y-98337D02*
D03*
X21336Y-149860D02*
D03*
X-122872Y64468D02*
D03*
X-7366Y98552D02*
D03*
X-110490Y37846D02*
D03*
X-114998Y71072D02*
D03*
X-66230Y89868D02*
D03*
X-59118Y278590D02*
D03*
X-94678Y129492D02*
D03*
X-54800Y235156D02*
D03*
X-37084Y156718D02*
D03*
Y164846D02*
D03*
X-45998Y265466D02*
D03*
X-10350Y278844D02*
D03*
X-35584Y291120D02*
D03*
X-93496Y291374D02*
D03*
X-41172Y240320D02*
D03*
X13970Y266446D02*
D03*
X-41656Y1778D02*
D03*
X99314Y-6858D02*
D03*
X169672Y-762D02*
D03*
X182626Y-54610D02*
D03*
X144272Y-54102D02*
D03*
X39204Y278722D02*
D03*
X62738Y266192D02*
D03*
X58166Y70866D02*
D03*
X69850Y77470D02*
D03*
X84896Y110565D02*
D03*
X83312Y-129794D02*
D03*
X137160Y-118811D02*
D03*
X123190D02*
D03*
X109220D02*
D03*
X95250Y-118811D02*
D03*
X70612Y12446D02*
D03*
X120204Y-67921D02*
D03*
X34558Y-106973D02*
D03*
X75946Y7620D02*
D03*
X118618Y58674D02*
D03*
X126492Y52070D02*
D03*
X90678Y115316D02*
D03*
X98298Y117094D02*
D03*
X79756Y66802D02*
D03*
X68834Y32512D02*
D03*
X51816Y62230D02*
D03*
X58420Y222758D02*
D03*
X91610Y127492D02*
D03*
X91610Y169402D02*
D03*
X91610Y155432D02*
D03*
X91594Y141478D02*
D03*
X32512Y47244D02*
D03*
X49618Y253068D02*
D03*
X40704Y144320D02*
D03*
Y152448D02*
D03*
X44792Y227922D02*
D03*
X97116Y278976D02*
D03*
X-67310Y18034D02*
D03*
X-67052Y11839D02*
D03*
D79*
X4062Y42506D02*
D03*
Y-9994D02*
D03*
X-27938D02*
D03*
Y42506D02*
D03*
D80*
X-109964Y24794D02*
D03*
X-92964Y2794D02*
D03*
Y24794D02*
D03*
X-109964Y2794D02*
D03*
D81*
X135382Y-296164D02*
D03*
Y-315164D02*
D03*
X112014Y-305664D02*
D03*
X112014Y-296164D02*
D03*
X135382Y-305664D02*
D03*
X112014Y-315164D02*
D03*
M02*
