G04*
G04 #@! TF.GenerationSoftware,Altium Limited,Altium Designer,25.8.1 (18)*
G04*
G04 Layer_Color=8388736*
%FSLAX44Y44*%
%MOMM*%
G71*
G04*
G04 #@! TF.SameCoordinates,A8D3B3E1-CBBC-48C7-8EAF-3341E4FBDCCF*
G04*
G04*
G04 #@! TF.FilePolarity,Negative*
G04*
G01*
G75*
%ADD22R,0.9061X0.1925*%
%ADD25R,0.1925X0.9061*%
%ADD29R,0.3048X1.1938*%
%ADD31R,2.5000X3.5000*%
%ADD32R,1.1938X0.3048*%
%ADD40R,1.8500X3.4000*%
%ADD44R,0.8532X1.7032*%
%ADD45R,1.2032X1.0032*%
%ADD46R,1.7032X0.8532*%
%ADD47R,1.0032X1.2032*%
%ADD48R,2.8732X1.2732*%
%ADD49R,3.8000X2.8000*%
%ADD50R,1.2732X2.8732*%
%ADD51R,2.8000X3.8000*%
%ADD52R,0.9632X2.6032*%
G04:AMPARAMS|DCode=53|XSize=1.1032mm|YSize=0.8132mm|CornerRadius=0.2541mm|HoleSize=0mm|Usage=FLASHONLY|Rotation=0.000|XOffset=0mm|YOffset=0mm|HoleType=Round|Shape=RoundedRectangle|*
%AMROUNDEDRECTD53*
21,1,1.1032,0.3050,0,0,0.0*
21,1,0.5950,0.8132,0,0,0.0*
1,1,0.5082,0.2975,-0.1525*
1,1,0.5082,-0.2975,-0.1525*
1,1,0.5082,-0.2975,0.1525*
1,1,0.5082,0.2975,0.1525*
%
%ADD53ROUNDEDRECTD53*%
G04:AMPARAMS|DCode=54|XSize=1.1032mm|YSize=0.7332mm|CornerRadius=0.2341mm|HoleSize=0mm|Usage=FLASHONLY|Rotation=0.000|XOffset=0mm|YOffset=0mm|HoleType=Round|Shape=RoundedRectangle|*
%AMROUNDEDRECTD54*
21,1,1.1032,0.2650,0,0,0.0*
21,1,0.6350,0.7332,0,0,0.0*
1,1,0.4682,0.3175,-0.1325*
1,1,0.4682,-0.3175,-0.1325*
1,1,0.4682,-0.3175,0.1325*
1,1,0.4682,0.3175,0.1325*
%
%ADD54ROUNDEDRECTD54*%
G04:AMPARAMS|DCode=55|XSize=1.7272mm|YSize=3.2032mm|CornerRadius=0mm|HoleSize=0mm|Usage=FLASHONLY|Rotation=315.000|XOffset=0mm|YOffset=0mm|HoleType=Round|Shape=Round|*
%AMOVALD55*
21,1,1.4760,1.7272,0.0000,0.0000,45.0*
1,1,1.7272,-0.5219,-0.5219*
1,1,1.7272,0.5219,0.5219*
%
%ADD55OVALD55*%

G04:AMPARAMS|DCode=56|XSize=1.2192mm|YSize=0.6604mm|CornerRadius=0mm|HoleSize=0mm|Usage=FLASHONLY|Rotation=225.000|XOffset=0mm|YOffset=0mm|HoleType=Round|Shape=Rectangle|*
%AMROTATEDRECTD56*
4,1,4,0.1976,0.6645,0.6645,0.1976,-0.1976,-0.6645,-0.6645,-0.1976,0.1976,0.6645,0.0*
%
%ADD56ROTATEDRECTD56*%

%ADD57R,1.0032X1.0032*%
G04:AMPARAMS|DCode=58|XSize=1.2192mm|YSize=0.6604mm|CornerRadius=0mm|HoleSize=0mm|Usage=FLASHONLY|Rotation=135.000|XOffset=0mm|YOffset=0mm|HoleType=Round|Shape=Rectangle|*
%AMROTATEDRECTD58*
4,1,4,0.6645,-0.1976,0.1976,-0.6645,-0.6645,0.1976,-0.1976,0.6645,0.6645,-0.1976,0.0*
%
%ADD58ROTATEDRECTD58*%

G04:AMPARAMS|DCode=59|XSize=1.7272mm|YSize=3.2032mm|CornerRadius=0mm|HoleSize=0mm|Usage=FLASHONLY|Rotation=45.000|XOffset=0mm|YOffset=0mm|HoleType=Round|Shape=Round|*
%AMOVALD59*
21,1,1.4760,1.7272,0.0000,0.0000,135.0*
1,1,1.7272,0.5219,-0.5219*
1,1,1.7272,-0.5219,0.5219*
%
%ADD59OVALD59*%

G04:AMPARAMS|DCode=60|XSize=1.1032mm|YSize=0.8132mm|CornerRadius=0.2541mm|HoleSize=0mm|Usage=FLASHONLY|Rotation=90.000|XOffset=0mm|YOffset=0mm|HoleType=Round|Shape=RoundedRectangle|*
%AMROUNDEDRECTD60*
21,1,1.1032,0.3050,0,0,90.0*
21,1,0.5950,0.8132,0,0,90.0*
1,1,0.5082,0.1525,0.2975*
1,1,0.5082,0.1525,-0.2975*
1,1,0.5082,-0.1525,-0.2975*
1,1,0.5082,-0.1525,0.2975*
%
%ADD60ROUNDEDRECTD60*%
G04:AMPARAMS|DCode=61|XSize=1.1032mm|YSize=0.7332mm|CornerRadius=0.2341mm|HoleSize=0mm|Usage=FLASHONLY|Rotation=90.000|XOffset=0mm|YOffset=0mm|HoleType=Round|Shape=RoundedRectangle|*
%AMROUNDEDRECTD61*
21,1,1.1032,0.2650,0,0,90.0*
21,1,0.6350,0.7332,0,0,90.0*
1,1,0.4682,0.1325,0.3175*
1,1,0.4682,0.1325,-0.3175*
1,1,0.4682,-0.1325,-0.3175*
1,1,0.4682,-0.1325,0.3175*
%
%ADD61ROUNDEDRECTD61*%
%ADD62R,1.0032X1.0032*%
%ADD63C,2.7532*%
%ADD64C,1.5402*%
%ADD65R,1.5402X1.5402*%
%ADD66R,2.7532X2.7532*%
%ADD67C,1.7112*%
%ADD68C,0.6532*%
G36*
X-251402Y288430D02*
X-251272Y288404D01*
X-251145Y288361D01*
X-251026Y288302D01*
X-250915Y288228D01*
X-250815Y288140D01*
X-221899Y259224D01*
X-221811Y259124D01*
X-221737Y259013D01*
X-221678Y258894D01*
X-221635Y258768D01*
X-221609Y258637D01*
X-221601Y258504D01*
X-221609Y258371D01*
X-221635Y258241D01*
X-221678Y258114D01*
X-221737Y257995D01*
X-221811Y257884D01*
X-221899Y257784D01*
X-250277Y229407D01*
X-250377Y229319D01*
X-250487Y229245D01*
X-250607Y229186D01*
X-250733Y229143D01*
X-250864Y229117D01*
X-250996Y229108D01*
X-251129Y229117D01*
X-251260Y229143D01*
X-251386Y229186D01*
X-251426Y229205D01*
X-251506Y229245D01*
X-251616Y229319D01*
X-251716Y229407D01*
X-280633Y258323D01*
X-280721Y258423D01*
X-280795Y258534D01*
X-280854Y258653D01*
X-280896Y258780D01*
X-280922Y258910D01*
X-280931Y259043D01*
X-280922Y259176D01*
X-280896Y259307D01*
X-280854Y259433D01*
X-280795Y259552D01*
X-280721Y259663D01*
X-280633Y259763D01*
X-252255Y288140D01*
X-252155Y288228D01*
X-252044Y288302D01*
X-251925Y288361D01*
X-251799Y288404D01*
X-251668Y288430D01*
X-251535Y288439D01*
X-251402Y288430D01*
D02*
G37*
G36*
X253648Y286744D02*
X253778Y286718D01*
X253905Y286675D01*
X254024Y286616D01*
X254135Y286542D01*
X254235Y286454D01*
X282612Y258077D01*
X282700Y257976D01*
X282774Y257866D01*
X282833Y257746D01*
X282876Y257620D01*
X282902Y257490D01*
X282911Y257357D01*
X282902Y257224D01*
X282876Y257093D01*
X282833Y256967D01*
X282774Y256848D01*
X282700Y256737D01*
X282612Y256637D01*
X253696Y227720D01*
X253596Y227633D01*
X253485Y227558D01*
X253366Y227500D01*
X253240Y227457D01*
X253109Y227431D01*
X252976Y227422D01*
X252843Y227431D01*
X252712Y227457D01*
X252586Y227500D01*
X252467Y227558D01*
X252356Y227633D01*
X252256Y227720D01*
X223878Y256098D01*
X223791Y256198D01*
X223717Y256309D01*
X223658Y256428D01*
X223615Y256554D01*
X223589Y256685D01*
X223580Y256818D01*
X223589Y256951D01*
X223615Y257081D01*
X223658Y257207D01*
X223717Y257327D01*
X223791Y257438D01*
X223878Y257538D01*
X252795Y286454D01*
X252895Y286542D01*
X253006Y286616D01*
X253125Y286675D01*
X253251Y286718D01*
X253382Y286744D01*
X253515Y286752D01*
X253648Y286744D01*
D02*
G37*
G36*
X-168913Y245436D02*
X-168783Y245410D01*
X-168657Y245367D01*
X-168537Y245308D01*
X-168426Y245234D01*
X-168326Y245146D01*
X-139410Y216230D01*
X-139322Y216130D01*
X-139248Y216019D01*
X-139189Y215900D01*
X-139146Y215773D01*
X-139120Y215643D01*
X-139112Y215510D01*
X-139120Y215377D01*
X-139146Y215246D01*
X-139189Y215120D01*
X-139248Y215001D01*
X-139322Y214890D01*
X-139410Y214790D01*
X-167787Y186412D01*
X-167888Y186325D01*
X-167998Y186250D01*
X-168118Y186192D01*
X-168244Y186149D01*
X-168375Y186123D01*
X-168507Y186114D01*
X-168640Y186123D01*
X-168771Y186149D01*
X-168897Y186192D01*
X-169017Y186250D01*
X-169127Y186325D01*
X-169227Y186412D01*
X-198144Y215329D01*
X-198232Y215429D01*
X-198306Y215540D01*
X-198365Y215659D01*
X-198407Y215785D01*
X-198433Y215916D01*
X-198442Y216049D01*
X-198433Y216182D01*
X-198407Y216312D01*
X-198365Y216438D01*
X-198306Y216558D01*
X-198232Y216668D01*
X-198144Y216769D01*
X-169766Y245146D01*
X-169666Y245234D01*
X-169555Y245308D01*
X-169436Y245367D01*
X-169310Y245410D01*
X-169179Y245436D01*
X-169046Y245445D01*
X-168913Y245436D01*
D02*
G37*
G36*
X171399Y243509D02*
X171530Y243483D01*
X171656Y243440D01*
X171776Y243381D01*
X171886Y243307D01*
X171987Y243219D01*
X200364Y214842D01*
X200452Y214742D01*
X200526Y214631D01*
X200585Y214512D01*
X200627Y214386D01*
X200653Y214255D01*
X200662Y214122D01*
X200653Y213989D01*
X200627Y213859D01*
X200585Y213732D01*
X200526Y213613D01*
X200452Y213502D01*
X200364Y213402D01*
X171448Y184486D01*
X171347Y184398D01*
X171237Y184324D01*
X171117Y184265D01*
X170991Y184222D01*
X170861Y184196D01*
X170728Y184187D01*
X170595Y184196D01*
X170464Y184222D01*
X170338Y184265D01*
X170219Y184324D01*
X170108Y184398D01*
X170008Y184486D01*
X141630Y212863D01*
X141542Y212963D01*
X141468Y213074D01*
X141409Y213193D01*
X141367Y213319D01*
X141341Y213450D01*
X141332Y213583D01*
X141341Y213716D01*
X141367Y213846D01*
X141409Y213973D01*
X141468Y214092D01*
X141542Y214203D01*
X141630Y214303D01*
X170546Y243219D01*
X170647Y243307D01*
X170757Y243381D01*
X170877Y243440D01*
X171003Y243483D01*
X171134Y243509D01*
X171266Y243518D01*
X171399Y243509D01*
D02*
G37*
G36*
X-208168Y206182D02*
X-208037Y206155D01*
X-207911Y206113D01*
X-207792Y206054D01*
X-207681Y205980D01*
X-207581Y205892D01*
X-178664Y176976D01*
X-178664Y176976D01*
X-178576Y176875D01*
X-178502Y176765D01*
X-178443Y176645D01*
X-178400Y176519D01*
X-178375Y176388D01*
X-178366Y176256D01*
X-178375Y176123D01*
X-178400Y175992D01*
X-178443Y175866D01*
X-178463Y175826D01*
X-178502Y175746D01*
X-178576Y175636D01*
X-178664Y175536D01*
X-207042Y147158D01*
X-207142Y147070D01*
X-207253Y146996D01*
X-207372Y146937D01*
X-207498Y146895D01*
X-207629Y146869D01*
X-207762Y146860D01*
X-207895Y146869D01*
X-208025Y146895D01*
X-208151Y146937D01*
X-208271Y146996D01*
X-208382Y147070D01*
X-208482Y147158D01*
X-237398Y176075D01*
X-237486Y176175D01*
X-237560Y176285D01*
X-237619Y176405D01*
X-237662Y176531D01*
X-237688Y176662D01*
X-237696Y176795D01*
X-237688Y176928D01*
X-237662Y177058D01*
X-237619Y177184D01*
X-237560Y177304D01*
X-237486Y177414D01*
X-237398Y177514D01*
X-209021Y205892D01*
X-208920Y205980D01*
X-208810Y206054D01*
X-208690Y206113D01*
X-208564Y206155D01*
X-208433Y206182D01*
X-208301Y206190D01*
X-208168Y206182D01*
D02*
G37*
G36*
X210654Y204255D02*
X210784Y204229D01*
X210910Y204186D01*
X211030Y204127D01*
X211140Y204053D01*
X211241Y203965D01*
X239618Y175588D01*
X239706Y175487D01*
X239780Y175377D01*
X239839Y175257D01*
X239882Y175131D01*
X239908Y175001D01*
X239916Y174868D01*
X239908Y174735D01*
X239882Y174604D01*
X239839Y174478D01*
X239780Y174359D01*
X239706Y174248D01*
X239618Y174148D01*
X210702Y145231D01*
X210602Y145143D01*
X210491Y145070D01*
X210371Y145011D01*
X210245Y144968D01*
X210115Y144942D01*
X209982Y144933D01*
X209849Y144942D01*
X209718Y144968D01*
X209592Y145011D01*
X209473Y145070D01*
X209362Y145143D01*
X209262Y145231D01*
X180884Y173609D01*
X180797Y173709D01*
X180722Y173820D01*
X180664Y173939D01*
X180621Y174065D01*
X180595Y174196D01*
X180586Y174329D01*
X180595Y174462D01*
X180621Y174592D01*
X180664Y174718D01*
X180722Y174838D01*
X180797Y174949D01*
X180884Y175049D01*
X209801Y203965D01*
X209901Y204053D01*
X210012Y204127D01*
X210131Y204186D01*
X210257Y204229D01*
X210388Y204255D01*
X210521Y204263D01*
X210654Y204255D01*
D02*
G37*
G36*
X-209018Y-144222D02*
X-208888Y-144248D01*
X-208762Y-144291D01*
X-208642Y-144349D01*
X-208531Y-144424D01*
X-208431Y-144511D01*
X-180054Y-172889D01*
X-179966Y-172989D01*
X-179892Y-173100D01*
X-179833Y-173219D01*
X-179790Y-173345D01*
X-179764Y-173476D01*
X-179755Y-173609D01*
X-179764Y-173742D01*
X-179790Y-173872D01*
X-179833Y-173999D01*
X-179852Y-174038D01*
X-179892Y-174118D01*
X-179966Y-174229D01*
X-180054Y-174329D01*
X-208970Y-203245D01*
X-209070Y-203333D01*
X-209181Y-203407D01*
X-209300Y-203466D01*
X-209427Y-203509D01*
X-209557Y-203535D01*
X-209690Y-203543D01*
X-209823Y-203535D01*
X-209954Y-203509D01*
X-210080Y-203466D01*
X-210199Y-203407D01*
X-210310Y-203333D01*
X-210410Y-203245D01*
X-238788Y-174868D01*
X-238876Y-174768D01*
X-238950Y-174657D01*
X-239008Y-174537D01*
X-239051Y-174411D01*
X-239077Y-174281D01*
X-239086Y-174148D01*
X-239077Y-174015D01*
X-239051Y-173884D01*
X-239008Y-173758D01*
X-238989Y-173719D01*
X-238950Y-173639D01*
X-238876Y-173528D01*
X-238788Y-173428D01*
X-209871Y-144511D01*
X-209771Y-144424D01*
X-209660Y-144349D01*
X-209541Y-144291D01*
X-209415Y-144248D01*
X-209284Y-144222D01*
X-209151Y-144213D01*
X-209018Y-144222D01*
D02*
G37*
G36*
X207874Y-145659D02*
X208005Y-145684D01*
X208131Y-145727D01*
X208250Y-145786D01*
X208361Y-145860D01*
X208461Y-145948D01*
X237377Y-174865D01*
X237465Y-174965D01*
X237539Y-175075D01*
X237598Y-175195D01*
X237641Y-175321D01*
X237667Y-175452D01*
X237676Y-175584D01*
X237667Y-175717D01*
X237641Y-175848D01*
X237598Y-175974D01*
X237539Y-176094D01*
X237465Y-176204D01*
X237377Y-176304D01*
X209000Y-204682D01*
X208900Y-204770D01*
X208789Y-204844D01*
X208670Y-204903D01*
X208543Y-204946D01*
X208413Y-204972D01*
X208280Y-204980D01*
X208147Y-204972D01*
X208016Y-204946D01*
X207890Y-204903D01*
X207771Y-204844D01*
X207660Y-204770D01*
X207560Y-204682D01*
X178643Y-175766D01*
X178556Y-175665D01*
X178482Y-175555D01*
X178423Y-175435D01*
X178380Y-175309D01*
X178354Y-175179D01*
X178345Y-175046D01*
X178354Y-174913D01*
X178380Y-174782D01*
X178423Y-174656D01*
X178482Y-174536D01*
X178556Y-174426D01*
X178643Y-174326D01*
X207021Y-145948D01*
X207121Y-145860D01*
X207232Y-145786D01*
X207351Y-145727D01*
X207478Y-145684D01*
X207608Y-145659D01*
X207741Y-145650D01*
X207874Y-145659D01*
D02*
G37*
G36*
X-169764Y-183476D02*
X-169634Y-183502D01*
X-169507Y-183545D01*
X-169388Y-183604D01*
X-169277Y-183678D01*
X-169177Y-183766D01*
X-140800Y-212143D01*
X-140712Y-212243D01*
X-140638Y-212354D01*
X-140579Y-212474D01*
X-140536Y-212600D01*
X-140510Y-212730D01*
X-140501Y-212863D01*
X-140510Y-212996D01*
X-140536Y-213127D01*
X-140579Y-213253D01*
X-140638Y-213372D01*
X-140712Y-213483D01*
X-140800Y-213583D01*
X-169716Y-242500D01*
X-169816Y-242587D01*
X-169927Y-242661D01*
X-170046Y-242720D01*
X-170172Y-242763D01*
X-170303Y-242789D01*
X-170436Y-242798D01*
X-170569Y-242789D01*
X-170699Y-242763D01*
X-170826Y-242720D01*
X-170945Y-242661D01*
X-171056Y-242587D01*
X-171156Y-242500D01*
X-199533Y-214122D01*
X-199621Y-214022D01*
X-199695Y-213911D01*
X-199754Y-213792D01*
X-199797Y-213666D01*
X-199823Y-213535D01*
X-199832Y-213402D01*
X-199823Y-213269D01*
X-199797Y-213138D01*
X-199754Y-213012D01*
X-199695Y-212893D01*
X-199621Y-212782D01*
X-199533Y-212682D01*
X-170617Y-183766D01*
X-170517Y-183678D01*
X-170406Y-183604D01*
X-170287Y-183545D01*
X-170161Y-183502D01*
X-170030Y-183476D01*
X-169897Y-183467D01*
X-169764Y-183476D01*
D02*
G37*
G36*
X168620Y-184913D02*
X168750Y-184939D01*
X168876Y-184981D01*
X168996Y-185040D01*
X169107Y-185114D01*
X169207Y-185202D01*
X198123Y-214119D01*
X198211Y-214219D01*
X198285Y-214330D01*
X198344Y-214449D01*
X198387Y-214575D01*
X198413Y-214706D01*
X198421Y-214839D01*
X198413Y-214972D01*
X198387Y-215102D01*
X198344Y-215228D01*
X198285Y-215348D01*
X198211Y-215459D01*
X198123Y-215559D01*
X169746Y-243936D01*
X169646Y-244024D01*
X169535Y-244098D01*
X169415Y-244157D01*
X169289Y-244200D01*
X169159Y-244226D01*
X169026Y-244234D01*
X168893Y-244226D01*
X168762Y-244200D01*
X168636Y-244157D01*
X168517Y-244098D01*
X168406Y-244024D01*
X168306Y-243936D01*
X139389Y-215020D01*
X139302Y-214920D01*
X139228Y-214809D01*
X139169Y-214690D01*
X139126Y-214563D01*
X139100Y-214433D01*
X139091Y-214300D01*
X139100Y-214167D01*
X139126Y-214036D01*
X139169Y-213910D01*
X139228Y-213791D01*
X139302Y-213680D01*
X139389Y-213580D01*
X167767Y-185202D01*
X167867Y-185114D01*
X167978Y-185040D01*
X168097Y-184981D01*
X168223Y-184939D01*
X168354Y-184913D01*
X168487Y-184904D01*
X168620Y-184913D01*
D02*
G37*
G36*
X-252013Y-226711D02*
X-251882Y-226737D01*
X-251756Y-226780D01*
X-251637Y-226838D01*
X-251526Y-226912D01*
X-251426Y-227000D01*
X-223048Y-255378D01*
X-222960Y-255478D01*
X-222886Y-255589D01*
X-222827Y-255708D01*
X-222784Y-255834D01*
X-222759Y-255965D01*
X-222750Y-256098D01*
X-222759Y-256231D01*
X-222784Y-256361D01*
X-222827Y-256488D01*
X-222886Y-256607D01*
X-222960Y-256718D01*
X-223048Y-256818D01*
X-251964Y-285734D01*
X-252064Y-285822D01*
X-252175Y-285896D01*
X-252295Y-285955D01*
X-252421Y-285998D01*
X-252551Y-286024D01*
X-252684Y-286032D01*
X-252817Y-286024D01*
X-252948Y-285998D01*
X-253074Y-285955D01*
X-253193Y-285896D01*
X-253304Y-285822D01*
X-253404Y-285734D01*
X-281782Y-257357D01*
X-281870Y-257257D01*
X-281944Y-257146D01*
X-282003Y-257026D01*
X-282045Y-256900D01*
X-282071Y-256770D01*
X-282080Y-256637D01*
X-282071Y-256504D01*
X-282045Y-256373D01*
X-282003Y-256247D01*
X-281983Y-256208D01*
X-281944Y-256128D01*
X-281870Y-256017D01*
X-281782Y-255917D01*
X-252866Y-227000D01*
X-252765Y-226912D01*
X-252655Y-226838D01*
X-252535Y-226780D01*
X-252409Y-226737D01*
X-252278Y-226711D01*
X-252146Y-226702D01*
X-252013Y-226711D01*
D02*
G37*
G36*
X251109Y-227907D02*
X251239Y-227933D01*
X251366Y-227976D01*
X251485Y-228035D01*
X251596Y-228109D01*
X251696Y-228197D01*
X280612Y-257113D01*
X280700Y-257213D01*
X280774Y-257324D01*
X280833Y-257443D01*
X280876Y-257569D01*
X280902Y-257700D01*
X280910Y-257833D01*
X280902Y-257966D01*
X280876Y-258096D01*
X280833Y-258223D01*
X280774Y-258342D01*
X280700Y-258453D01*
X280612Y-258553D01*
X252235Y-286931D01*
X252134Y-287018D01*
X252024Y-287092D01*
X251904Y-287151D01*
X251778Y-287194D01*
X251647Y-287220D01*
X251515Y-287229D01*
X251382Y-287220D01*
X251251Y-287194D01*
X251125Y-287151D01*
X251005Y-287092D01*
X250895Y-287018D01*
X250795Y-286931D01*
X221878Y-258014D01*
X221790Y-257914D01*
X221716Y-257803D01*
X221658Y-257684D01*
X221615Y-257558D01*
X221589Y-257427D01*
X221580Y-257294D01*
X221589Y-257161D01*
X221615Y-257031D01*
X221658Y-256904D01*
X221716Y-256785D01*
X221790Y-256674D01*
X221878Y-256574D01*
X250256Y-228197D01*
X250356Y-228109D01*
X250467Y-228035D01*
X250586Y-227976D01*
X250712Y-227933D01*
X250843Y-227907D01*
X250976Y-227898D01*
X251109Y-227907D01*
D02*
G37*
D22*
X35102Y-117865D02*
D03*
X75162Y-125865D02*
D03*
Y-133865D02*
D03*
X35102Y-125865D02*
D03*
X-122238Y-43258D02*
D03*
Y-47258D02*
D03*
Y-51258D02*
D03*
Y-55258D02*
D03*
Y-59258D02*
D03*
Y-63258D02*
D03*
Y-67258D02*
D03*
Y-71258D02*
D03*
X-172298D02*
D03*
Y-67258D02*
D03*
Y-63258D02*
D03*
Y-59258D02*
D03*
Y-55258D02*
D03*
Y-51258D02*
D03*
Y-47258D02*
D03*
Y-43258D02*
D03*
X35102Y-129865D02*
D03*
Y-113865D02*
D03*
X79618Y73376D02*
D03*
Y77376D02*
D03*
Y81376D02*
D03*
Y85376D02*
D03*
Y89376D02*
D03*
Y93376D02*
D03*
Y97376D02*
D03*
Y101376D02*
D03*
X129678Y97376D02*
D03*
Y81376D02*
D03*
Y77376D02*
D03*
Y89376D02*
D03*
Y73376D02*
D03*
Y101376D02*
D03*
Y85376D02*
D03*
Y93376D02*
D03*
X75162Y-113865D02*
D03*
Y-117865D02*
D03*
Y-121865D02*
D03*
Y-129865D02*
D03*
Y-137865D02*
D03*
Y-141865D02*
D03*
Y-145865D02*
D03*
Y-149865D02*
D03*
X35102D02*
D03*
Y-145865D02*
D03*
Y-141865D02*
D03*
Y-137865D02*
D03*
Y-133865D02*
D03*
Y-121865D02*
D03*
D25*
X-141268Y-77288D02*
D03*
X-149268D02*
D03*
X-141268Y-37228D02*
D03*
X106648Y107406D02*
D03*
X98648Y107406D02*
D03*
Y67346D02*
D03*
X-129268Y-77288D02*
D03*
X-133268D02*
D03*
X-137268D02*
D03*
X-145268D02*
D03*
X-153268D02*
D03*
X-157268D02*
D03*
X-161268D02*
D03*
X-165268D02*
D03*
Y-37228D02*
D03*
X-161268D02*
D03*
X-157268D02*
D03*
X-153268D02*
D03*
X-149268D02*
D03*
X-137268D02*
D03*
X-133268D02*
D03*
X-129268D02*
D03*
X-145268D02*
D03*
X102648Y67346D02*
D03*
X86648Y67346D02*
D03*
Y107406D02*
D03*
X90648D02*
D03*
X94648D02*
D03*
X102648Y107406D02*
D03*
X118648Y67346D02*
D03*
X114648D02*
D03*
X110648D02*
D03*
X106648Y67346D02*
D03*
X94648Y67346D02*
D03*
X90648D02*
D03*
X122648D02*
D03*
Y107406D02*
D03*
X118648D02*
D03*
X114648D02*
D03*
X110648D02*
D03*
X41132Y-106835D02*
D03*
X45132D02*
D03*
X49132D02*
D03*
X53132D02*
D03*
X57132D02*
D03*
X61132D02*
D03*
X65132D02*
D03*
X69132D02*
D03*
Y-156895D02*
D03*
X65132D02*
D03*
X61132D02*
D03*
X57132D02*
D03*
X53132D02*
D03*
X49132D02*
D03*
X45132D02*
D03*
X41132D02*
D03*
D29*
X-32500Y57500D02*
D03*
Y-57500D02*
D03*
X-37500Y57500D02*
D03*
X37500Y-57500D02*
D03*
X-27500D02*
D03*
X27500D02*
D03*
X22500D02*
D03*
X17500D02*
D03*
X-17500Y57500D02*
D03*
X-27500D02*
D03*
X-22500D02*
D03*
X-12500D02*
D03*
X-7500D02*
D03*
X-2500D02*
D03*
X2500D02*
D03*
X7500D02*
D03*
X12500D02*
D03*
X17500D02*
D03*
X22500D02*
D03*
X27500D02*
D03*
X32500D02*
D03*
X37500D02*
D03*
X32500Y-57500D02*
D03*
X12500D02*
D03*
X7500D02*
D03*
X2500D02*
D03*
X-2500D02*
D03*
X-7500D02*
D03*
X-12500D02*
D03*
X-17500D02*
D03*
X-22500D02*
D03*
X-37500D02*
D03*
D31*
X-168402Y36334D02*
D03*
Y101334D02*
D03*
D32*
X-57500Y-17500D02*
D03*
X57500Y37500D02*
D03*
X-57500D02*
D03*
Y-22500D02*
D03*
X57500Y-32500D02*
D03*
Y-27500D02*
D03*
Y-12500D02*
D03*
Y-17500D02*
D03*
Y-22500D02*
D03*
Y-37500D02*
D03*
Y32500D02*
D03*
Y27500D02*
D03*
Y22500D02*
D03*
Y17500D02*
D03*
Y12500D02*
D03*
Y7500D02*
D03*
Y2500D02*
D03*
Y-2500D02*
D03*
Y-7500D02*
D03*
X-57500Y-37500D02*
D03*
Y-32500D02*
D03*
Y-27500D02*
D03*
Y-12500D02*
D03*
Y-7500D02*
D03*
Y-2500D02*
D03*
Y2500D02*
D03*
Y7500D02*
D03*
Y12500D02*
D03*
Y17500D02*
D03*
Y22500D02*
D03*
Y27500D02*
D03*
Y32500D02*
D03*
D40*
X51752Y-242570D02*
D03*
X107252D02*
D03*
D44*
X195326Y-39192D02*
D03*
X182626D02*
D03*
X144526D02*
D03*
X131826D02*
D03*
X119126D02*
D03*
Y14808D02*
D03*
X131826D02*
D03*
X144526D02*
D03*
X169926D02*
D03*
X182626D02*
D03*
X195326D02*
D03*
X157226D02*
D03*
X169926Y-39192D02*
D03*
X157226D02*
D03*
D45*
X1003363Y436702D02*
D03*
X882205Y743534D02*
D03*
X152146Y48244D02*
D03*
X136144Y64246D02*
D03*
X-175423Y-26494D02*
D03*
X576642Y-296850D02*
D03*
X229362Y-380778D02*
D03*
X576642Y-427152D02*
D03*
X11430Y239125D02*
D03*
X-26860Y151050D02*
D03*
Y162258D02*
D03*
X-37500Y90170D02*
D03*
X-54292Y186134D02*
D03*
X-68008D02*
D03*
X-40576Y120856D02*
D03*
X-68008Y135556D02*
D03*
X-54292D02*
D03*
X-369003Y1206322D02*
D03*
X-92952Y-85916D02*
D03*
Y-71216D02*
D03*
X-72136Y-33814D02*
D03*
Y-48514D02*
D03*
X-106668Y-85900D02*
D03*
Y-71200D02*
D03*
X-76454Y-136160D02*
D03*
Y-150860D02*
D03*
X-192480Y-81356D02*
D03*
Y-66656D02*
D03*
Y-55464D02*
D03*
Y-40764D02*
D03*
X-175423Y-11794D02*
D03*
X-141680Y-11570D02*
D03*
Y-26270D02*
D03*
X-106668Y-136478D02*
D03*
Y-151178D02*
D03*
X-92952Y-136494D02*
D03*
Y-151194D02*
D03*
X-117511Y-12556D02*
D03*
Y-27256D02*
D03*
X1003363Y451402D02*
D03*
X576642Y-282150D02*
D03*
Y-412452D02*
D03*
X-369003Y1221022D02*
D03*
X-57594Y108140D02*
D03*
Y93440D02*
D03*
X-68008Y120856D02*
D03*
X-54292D02*
D03*
X-40576Y135556D02*
D03*
X-26860Y176958D02*
D03*
Y136350D02*
D03*
X-68008Y200834D02*
D03*
X-54292D02*
D03*
X-45998Y276658D02*
D03*
Y291358D02*
D03*
X-95440Y39338D02*
D03*
Y54038D02*
D03*
X882205Y758234D02*
D03*
X152146Y33544D02*
D03*
X11430Y253825D02*
D03*
X-37500Y75470D02*
D03*
X208280Y-7620D02*
D03*
Y7080D02*
D03*
X137158Y-126261D02*
D03*
Y-111561D02*
D03*
X8128Y-151876D02*
D03*
Y-137176D02*
D03*
X109218Y-126261D02*
D03*
Y-111561D02*
D03*
X95248Y-126261D02*
D03*
Y-111561D02*
D03*
X123188Y-126245D02*
D03*
Y-111545D02*
D03*
X195326Y-69580D02*
D03*
Y-54880D02*
D03*
X229362Y-395478D02*
D03*
X149860Y85582D02*
D03*
Y111474D02*
D03*
Y96774D02*
D03*
X136144Y49546D02*
D03*
X149860Y70882D02*
D03*
X99060Y56388D02*
D03*
Y41688D02*
D03*
X30464Y123848D02*
D03*
Y138548D02*
D03*
Y164472D02*
D03*
Y149772D02*
D03*
X71628Y188436D02*
D03*
Y173736D02*
D03*
X57912Y188452D02*
D03*
Y173752D02*
D03*
Y108474D02*
D03*
Y123174D02*
D03*
X71628Y108458D02*
D03*
Y123158D02*
D03*
D46*
X-64247Y-141826D02*
D03*
X81022Y253576D02*
D03*
X-64247Y-179926D02*
D03*
Y-167226D02*
D03*
Y-129126D02*
D03*
Y-116426D02*
D03*
Y-103726D02*
D03*
X-10247D02*
D03*
Y-116426D02*
D03*
Y-129126D02*
D03*
Y-154526D02*
D03*
Y-167226D02*
D03*
Y-179926D02*
D03*
X-64247Y-154526D02*
D03*
X-10247Y-141826D02*
D03*
X27022Y253576D02*
D03*
Y291676D02*
D03*
Y278976D02*
D03*
X27022Y266276D02*
D03*
X27022Y240876D02*
D03*
X27022Y228176D02*
D03*
Y215476D02*
D03*
X81022D02*
D03*
Y228176D02*
D03*
X81022Y240876D02*
D03*
X81022Y278976D02*
D03*
Y291676D02*
D03*
Y266276D02*
D03*
D47*
X-142895Y922D02*
D03*
X85614Y28194D02*
D03*
X158766Y-439674D02*
D03*
X-113712Y117808D02*
D03*
X73882Y49276D02*
D03*
X33512Y-165354D02*
D03*
X-79232Y47752D02*
D03*
X31734Y-87884D02*
D03*
X-86090Y-20320D02*
D03*
X-395908Y-155642D02*
D03*
X-134084Y-90234D02*
D03*
X-119384D02*
D03*
X-134084Y-104204D02*
D03*
X-119384D02*
D03*
X-134068Y-118174D02*
D03*
X-119368D02*
D03*
X-134084Y-132144D02*
D03*
X-119384D02*
D03*
X-128195Y922D02*
D03*
X-168803D02*
D03*
X-154103D02*
D03*
X-78962Y-192278D02*
D03*
X-32675Y-192880D02*
D03*
X-17975D02*
D03*
X-64262Y-192278D02*
D03*
X-381208Y-155642D02*
D03*
X-110156Y167830D02*
D03*
X-110156Y139890D02*
D03*
X-122602Y48466D02*
D03*
X-110156Y153860D02*
D03*
X-64532Y47752D02*
D03*
X-99012Y117808D02*
D03*
X-95456Y139890D02*
D03*
X-95456Y167830D02*
D03*
Y153860D02*
D03*
Y181800D02*
D03*
X-110156D02*
D03*
X-107902Y48466D02*
D03*
X59182Y49276D02*
D03*
X-71390Y-20320D02*
D03*
X10430Y-102108D02*
D03*
X25130D02*
D03*
X141508Y-85129D02*
D03*
X156208D02*
D03*
X141492Y-98845D02*
D03*
X156192D02*
D03*
X117528Y-57681D02*
D03*
X132228D02*
D03*
X57404Y-179070D02*
D03*
X42704D02*
D03*
X17034Y-87884D02*
D03*
X18812Y-165354D02*
D03*
X90930Y-85129D02*
D03*
X76230D02*
D03*
X90914Y-98845D02*
D03*
X76214D02*
D03*
X83296Y-179070D02*
D03*
X68596D02*
D03*
X9668Y-124714D02*
D03*
X24368D02*
D03*
X106304Y-57681D02*
D03*
X91604D02*
D03*
X173466Y-439674D02*
D03*
X111522Y36068D02*
D03*
X126222D02*
D03*
X95774Y291676D02*
D03*
X110474D02*
D03*
X100314Y28194D02*
D03*
X99044Y169402D02*
D03*
X84344D02*
D03*
X99028Y155432D02*
D03*
X84328Y155432D02*
D03*
X84344Y141462D02*
D03*
X99044D02*
D03*
X84344Y127492D02*
D03*
X99044Y127492D02*
D03*
D48*
X122936Y176378D02*
D03*
X-157976Y-139120D02*
D03*
Y-91520D02*
D03*
X122936Y128778D02*
D03*
D49*
X104648Y87376D02*
D03*
X-147268Y-57258D02*
D03*
D50*
X144134Y-150153D02*
D03*
X96534D02*
D03*
D51*
X55132Y-131865D02*
D03*
D52*
X25400Y-315156D02*
D03*
X0D02*
D03*
X-12700D02*
D03*
X-25400Y-315156D02*
D03*
X25400Y-276156D02*
D03*
X12700Y-276156D02*
D03*
Y-315156D02*
D03*
X0Y-276156D02*
D03*
X-12700D02*
D03*
X-25400Y-276156D02*
D03*
D53*
X-103072Y-98660D02*
D03*
Y-123460D02*
D03*
X-85372D02*
D03*
Y-98660D02*
D03*
X-46712Y148318D02*
D03*
Y173118D02*
D03*
X-64412D02*
D03*
Y148318D02*
D03*
X50332Y135918D02*
D03*
X50332Y160718D02*
D03*
X68032Y160718D02*
D03*
X68032Y135918D02*
D03*
D54*
X-103072Y-107060D02*
D03*
Y-115060D02*
D03*
X-85372D02*
D03*
Y-107060D02*
D03*
X-46712Y156718D02*
D03*
Y164718D02*
D03*
X-64412D02*
D03*
Y156718D02*
D03*
X50332Y144318D02*
D03*
X50332Y152318D02*
D03*
X68032Y152318D02*
D03*
X68032Y144318D02*
D03*
D55*
X-253423Y-197908D02*
D03*
X-280691Y286452D02*
D03*
X280670Y-285242D02*
D03*
X-193479Y-256836D02*
D03*
X194310Y257556D02*
D03*
X254254Y198628D02*
D03*
X167640Y449834D02*
D03*
D56*
X-211845Y-203244D02*
D03*
X-220826Y-194263D02*
D03*
X-229806Y-185283D02*
D03*
X-238786Y-176303D02*
D03*
X-132360Y-202266D02*
D03*
X-141340Y-193286D02*
D03*
X-150320Y-184306D02*
D03*
X-214608Y-245501D02*
D03*
X-223588Y-236521D02*
D03*
X-171614Y-163012D02*
D03*
X-232569Y-227541D02*
D03*
X-180594Y-154032D02*
D03*
X-189574Y-145052D02*
D03*
X215439Y246221D02*
D03*
X224419Y237241D02*
D03*
X233399Y228261D02*
D03*
X181425Y154752D02*
D03*
X190405Y145772D02*
D03*
X172444Y163732D02*
D03*
X142170Y194006D02*
D03*
X151151Y185026D02*
D03*
X133190Y202986D02*
D03*
X199385Y136791D02*
D03*
X242379Y219280D02*
D03*
X160131Y176046D02*
D03*
X-172591Y-242498D02*
D03*
X-181571Y-233518D02*
D03*
X-190552Y-224538D02*
D03*
X-199532Y-215557D02*
D03*
X-159300Y-175326D02*
D03*
X-254840Y-285733D02*
D03*
X-263820Y-276752D02*
D03*
X-272800Y-267772D02*
D03*
X-281780Y-258792D02*
D03*
X-241549Y-218560D02*
D03*
X-198555Y-136071D02*
D03*
X255670Y286453D02*
D03*
X264650Y277472D02*
D03*
X273631Y268492D02*
D03*
X282611Y259512D02*
D03*
X239617Y177023D02*
D03*
X230636Y186003D02*
D03*
X221656Y194984D02*
D03*
X212676Y203964D02*
D03*
X173422Y243218D02*
D03*
X182402Y234238D02*
D03*
X191382Y225257D02*
D03*
X200362Y216277D02*
D03*
D57*
X-304610Y3616D02*
D03*
X-288610D02*
D03*
X158116Y-425196D02*
D03*
X174116D02*
D03*
D58*
X-237397Y178950D02*
D03*
X-228416Y187930D02*
D03*
X-219436Y196910D02*
D03*
X-210456Y205891D02*
D03*
X-170224Y165659D02*
D03*
X-197165Y138718D02*
D03*
X-188185Y147698D02*
D03*
X-179205Y156679D02*
D03*
X-280631Y261198D02*
D03*
X-271651Y270179D02*
D03*
X-262671Y279159D02*
D03*
X-253691Y288139D02*
D03*
X-213459Y247907D02*
D03*
X-240400Y220967D02*
D03*
X-231420Y229947D02*
D03*
X-222439Y238927D02*
D03*
X-198142Y218204D02*
D03*
X-189162Y227184D02*
D03*
X-180182Y236164D02*
D03*
X-171202Y245145D02*
D03*
X-130970Y204913D02*
D03*
X-157911Y177972D02*
D03*
X-148931Y186953D02*
D03*
X-139950Y195933D02*
D03*
X240379Y-219757D02*
D03*
X197144Y-137508D02*
D03*
X231399Y-228737D02*
D03*
X222419Y-237717D02*
D03*
X188164Y-146488D02*
D03*
X179184Y-155469D02*
D03*
X157890Y-176762D02*
D03*
X148910Y-185743D02*
D03*
X139930Y-194723D02*
D03*
X198122Y-216994D02*
D03*
X189141Y-225974D02*
D03*
X180161Y-234954D02*
D03*
X171181Y-243935D02*
D03*
X237376Y-177740D02*
D03*
X228396Y-186720D02*
D03*
X219415Y-195700D02*
D03*
X210435Y-204681D02*
D03*
X280611Y-259988D02*
D03*
X271630Y-268968D02*
D03*
X262650Y-277949D02*
D03*
X253670Y-286929D02*
D03*
X213438Y-246697D02*
D03*
X130949Y-203703D02*
D03*
X170204Y-164449D02*
D03*
D59*
X-251735Y199838D02*
D03*
X-373655Y102810D02*
D03*
X192786Y-258572D02*
D03*
X251714Y-198628D02*
D03*
X-280093Y-285792D02*
D03*
X280924Y286512D02*
D03*
D60*
X103674Y-95249D02*
D03*
X128474D02*
D03*
Y-77549D02*
D03*
X103674D02*
D03*
D61*
X112074Y-95249D02*
D03*
X120074D02*
D03*
Y-77549D02*
D03*
X112074D02*
D03*
D62*
X216662Y-395604D02*
D03*
Y-379604D02*
D03*
D63*
X25000Y-236550D02*
D03*
D64*
X-96012Y-295730D02*
D03*
Y-332730D02*
D03*
Y-252730D02*
D03*
D65*
Y-215730D02*
D03*
D66*
X-25000Y-236550D02*
D03*
D67*
X55000Y-336550D02*
D03*
X-55000D02*
D03*
D68*
X110744Y25654D02*
D03*
X-24384Y-152908D02*
D03*
X-135280Y-85438D02*
D03*
X-31913Y-83914D02*
D03*
X106680Y113792D02*
D03*
X77216Y134874D02*
D03*
X75692Y27940D02*
D03*
X74660Y38100D02*
D03*
X147066Y-108966D02*
D03*
X84328Y-110998D02*
D03*
X67564Y253492D02*
D03*
X46990Y173736D02*
D03*
X44196Y99060D02*
D03*
X20320Y150114D02*
D03*
X-113740Y-47098D02*
D03*
X-122376Y-36684D02*
D03*
X-165263Y-23462D02*
D03*
X-161238Y-28556D02*
D03*
X26430Y-145835D02*
D03*
X112076Y-67921D02*
D03*
X44972Y-98337D02*
D03*
X21336Y-149860D02*
D03*
X-122872Y64468D02*
D03*
X-7366Y98552D02*
D03*
X-110490Y37846D02*
D03*
X-114998Y71072D02*
D03*
X-66230Y89868D02*
D03*
X-59118Y278590D02*
D03*
X-94678Y129492D02*
D03*
X-54800Y235156D02*
D03*
X-37084Y156718D02*
D03*
Y164846D02*
D03*
X-45998Y265466D02*
D03*
X-10350Y278844D02*
D03*
X-35584Y291120D02*
D03*
X-93496Y291374D02*
D03*
X-41172Y240320D02*
D03*
X13970Y266446D02*
D03*
X-41656Y1778D02*
D03*
X99314Y-6858D02*
D03*
X169672Y-762D02*
D03*
X182626Y-54610D02*
D03*
X144272Y-54102D02*
D03*
X39204Y278722D02*
D03*
X62738Y266192D02*
D03*
X58166Y70866D02*
D03*
X69850Y77470D02*
D03*
X84896Y110565D02*
D03*
X83312Y-129794D02*
D03*
X137160Y-118811D02*
D03*
X123190D02*
D03*
X109220D02*
D03*
X95250Y-118811D02*
D03*
X70612Y12446D02*
D03*
X120204Y-67921D02*
D03*
X34558Y-106973D02*
D03*
X75946Y7620D02*
D03*
X118618Y58674D02*
D03*
X126492Y52070D02*
D03*
X90678Y115316D02*
D03*
X98298Y117094D02*
D03*
X79756Y66802D02*
D03*
X68834Y32512D02*
D03*
X51816Y62230D02*
D03*
X58420Y222758D02*
D03*
X91610Y127492D02*
D03*
X91610Y169402D02*
D03*
X91610Y155432D02*
D03*
X91594Y141478D02*
D03*
X32512Y47244D02*
D03*
X49618Y253068D02*
D03*
X40704Y144320D02*
D03*
Y152448D02*
D03*
X44792Y227922D02*
D03*
X97116Y278976D02*
D03*
X-67310Y18034D02*
D03*
X-67052Y11839D02*
D03*
M02*
