M48
;Layer_Color=9474304
;FILE_FORMAT=4:4
METRIC,LZ
;TYPE=PLATED
T01F00S00C0.3000
T02F00S00C0.7800
T03F00S00C1.0000
T04F00S00C1.7000
%
T01
X-0013528Y-00085438
X-0011374Y-00047098
X-00122376Y-00036684
X-00161238Y-00028556
X-00165263Y-00023462
X-0011049Y00037846
X-00114998Y00071072
X-00122872Y00064468
X-0006623Y00089868
X-00007366Y00098552
X00044196Y0009906
X00058166Y00070866
X00051816Y0006223
X00079756Y00066802
X0006985Y0007747
X0007466Y000381
X00075692Y0002794
X00068834Y00032512
X00070612Y00012446
X00075946Y0000762
X00099314Y-00006858
X00110744Y00025654
X00118618Y00058674
X00126492Y0005207
X0010668Y00113792
X00098298Y00117094
X00090678Y00115316
X00084896Y00110565
X0009161Y00127492
X00091594Y00141478
X0009161Y00155432
X0009161Y00169402
X00077216Y00134874
X00040704Y0014432
Y00152448
X0002032Y00150114
X0004699Y00173736
X00044792Y00227922
X0005842Y00222758
X-00037084Y00164846
Y00156718
X-00094678Y00129492
X-0006731Y00018034
X-00067052Y00011839
X-00041656Y00001778
X-00031913Y-00083914
X-00024384Y-00152908
X00021336Y-0014986
X0002643Y-00145835
X00034558Y-00106973
X00044972Y-00098337
X00084328Y-00110998
X0009525Y-00118811
X0010922Y-00118811
X0012319
X0013716
X00147066Y-00108966
X00144272Y-00054102
X00120204Y-00067921
X00112076
X00182626Y-0005461
X00169672Y-00000762
X00032512Y00047244
X00083312Y-00129794
X00067564Y00253492
X00062738Y00266192
X00049618Y00253068
X00039204Y00278722
X0001397Y00266446
X-0001035Y00278844
X-00035584Y0029112
X-00059118Y0027859
X-00045998Y00265466
X-00041172Y0024032
X-000548Y00235156
X-00093496Y00291374
X00097116Y00278976
T02
X-00096012Y-0033273
Y-0029573
Y-0025273
Y-0021573
T03
X-00055Y-0033655
X00055
T04
X-00025Y-0023655
X00025
M30
