G04*
G04 #@! TF.GenerationSoftware,Altium Limited,Altium Designer,25.5.2 (35)*
G04*
G04 Layer_Color=32896*
%FSLAX25Y25*%
%MOIN*%
G70*
G04*
G04 #@! TF.SameCoordinates,3D69C69A-2BEB-43E9-B881-948C697E0A66*
G04*
G04*
G04 #@! TF.FilePolarity,Positive*
G04*
G01*
G75*
%ADD11C,0.00600*%
%ADD14C,0.02000*%
%ADD15C,0.00630*%
%ADD16C,0.00500*%
%ADD18C,0.00900*%
D11*
X254600Y211710D02*
Y212350D01*
X278400Y191650D02*
Y192290D01*
Y211710D02*
Y212350D01*
X254600D02*
X278400D01*
X254600Y191650D02*
Y192290D01*
Y191650D02*
X278400D01*
X254600Y155710D02*
Y156350D01*
X278400Y135650D02*
Y136290D01*
Y155710D02*
Y156350D01*
X254600D02*
X278400D01*
X254600Y135650D02*
Y136290D01*
Y135650D02*
X278400D01*
X254100Y183210D02*
Y183850D01*
X277900Y163150D02*
Y163790D01*
Y183210D02*
Y183850D01*
X254100D02*
X277900D01*
X254100Y163150D02*
Y163790D01*
Y163150D02*
X277900D01*
D14*
X109000Y178000D02*
G03*
X109000Y178000I-1500J0D01*
G01*
X109500Y261500D02*
G03*
X109500Y261500I-1500J0D01*
G01*
D15*
X237706Y104600D02*
X238256Y104050D01*
X237706Y104600D02*
X238606Y105500D01*
X238106Y106000D02*
X238606Y105500D01*
X237956Y107950D02*
X238506Y107400D01*
X237606Y106500D02*
X238506Y107400D01*
X237606Y106500D02*
X238106Y106000D01*
X237956Y125950D02*
X238506Y125400D01*
X237606Y124500D02*
X238506Y125400D01*
X237606Y124500D02*
X238106Y124000D01*
X237706Y122600D02*
X238256Y122050D01*
X237706Y122600D02*
X238606Y123500D01*
X238106Y124000D02*
X238606Y123500D01*
X237956Y113450D02*
X238506Y112900D01*
X237606Y112000D02*
X238506Y112900D01*
X237606Y112000D02*
X238106Y111500D01*
X237706Y110100D02*
X238256Y109550D01*
X237706Y110100D02*
X238606Y111000D01*
X238106Y111500D02*
X238606Y111000D01*
X237706Y117100D02*
X238256Y116550D01*
X237706Y117100D02*
X238606Y118000D01*
X238106Y118500D02*
X238606Y118000D01*
X237956Y120450D02*
X238506Y119900D01*
X237606Y119000D02*
X238506Y119900D01*
X237606Y119000D02*
X238106Y118500D01*
D16*
X211303Y210646D02*
Y222614D01*
X221697Y210646D02*
Y222614D01*
D18*
X214251Y211511D02*
X218749D01*
Y213761D01*
X218000Y214511D01*
X216500D01*
X215750Y213761D01*
Y211511D01*
Y213011D02*
X214251Y214511D01*
Y219009D02*
Y216010D01*
X217250Y219009D01*
X218000D01*
X218749Y218259D01*
Y216760D01*
X218000Y216010D01*
X214251Y220509D02*
Y222008D01*
Y221258D01*
X218749D01*
X218000Y220509D01*
X255229Y103751D02*
Y108249D01*
X252980D01*
X252231Y107500D01*
Y106000D01*
X252980Y105250D01*
X255229D01*
X253730D02*
X252231Y103751D01*
X250731D02*
X249231D01*
X249981D01*
Y108249D01*
X250731Y107500D01*
X246982D02*
X246232Y108249D01*
X244733D01*
X243983Y107500D01*
Y106750D01*
X244733Y106000D01*
X243983Y105250D01*
Y104500D01*
X244733Y103751D01*
X246232D01*
X246982Y104500D01*
Y105250D01*
X246232Y106000D01*
X246982Y106750D01*
Y107500D01*
X246232Y106000D02*
X244733D01*
X255229Y109751D02*
Y114249D01*
X252980D01*
X252231Y113499D01*
Y112000D01*
X252980Y111250D01*
X255229D01*
X253730D02*
X252231Y109751D01*
X250731D02*
X249231D01*
X249981D01*
Y114249D01*
X250731Y113499D01*
X244733Y109751D02*
Y114249D01*
X246982Y112000D01*
X243983D01*
X251355Y115751D02*
Y120249D01*
X249106D01*
X248356Y119500D01*
Y118000D01*
X249106Y117250D01*
X251355D01*
X249856D02*
X248356Y115751D01*
X246856Y120249D02*
X243858D01*
Y119500D01*
X246856Y116500D01*
Y115751D01*
X251355Y122251D02*
Y126749D01*
X249106D01*
X248356Y125999D01*
Y124500D01*
X249106Y123750D01*
X251355D01*
X249856D02*
X248356Y122251D01*
X246856Y125999D02*
X246107Y126749D01*
X244607D01*
X243858Y125999D01*
Y125250D01*
X244607Y124500D01*
X245357D01*
X244607D01*
X243858Y123750D01*
Y123001D01*
X244607Y122251D01*
X246107D01*
X246856Y123001D01*
M02*
