G04*
G04 #@! TF.GenerationSoftware,Altium Limited,Altium Designer,25.5.2 (35)*
G04*
G04 Layer_Color=8388736*
%FSLAX25Y25*%
%MOIN*%
G70*
G04*
G04 #@! TF.SameCoordinates,3D69C69A-2BEB-43E9-B881-948C697E0A66*
G04*
G04*
G04 #@! TF.FilePolarity,Negative*
G04*
G01*
G75*
%ADD27R,0.04700X0.01200*%
%ADD28R,0.01200X0.04700*%
%ADD29R,0.03567X0.00758*%
%ADD31R,0.04724X0.05512*%
%ADD35R,0.00758X0.03567*%
%ADD36R,0.03937X0.06102*%
%ADD39R,0.05900X0.15400*%
%ADD41R,0.07284X0.13386*%
%ADD45R,0.04737X0.03950*%
G04:AMPARAMS|DCode=46|XSize=39.43mil|YSize=28.02mil|CornerRadius=8mil|HoleSize=0mil|Usage=FLASHONLY|Rotation=180.000|XOffset=0mil|YOffset=0mil|HoleType=Round|Shape=RoundedRectangle|*
%AMROUNDEDRECTD46*
21,1,0.03943,0.01201,0,0,180.0*
21,1,0.02343,0.02802,0,0,180.0*
1,1,0.01601,-0.01171,0.00600*
1,1,0.01601,0.01171,0.00600*
1,1,0.01601,0.01171,-0.00600*
1,1,0.01601,-0.01171,-0.00600*
%
%ADD46ROUNDEDRECTD46*%
G04:AMPARAMS|DCode=47|XSize=39.43mil|YSize=24.87mil|CornerRadius=7.22mil|HoleSize=0mil|Usage=FLASHONLY|Rotation=180.000|XOffset=0mil|YOffset=0mil|HoleType=Round|Shape=RoundedRectangle|*
%AMROUNDEDRECTD47*
21,1,0.03943,0.01043,0,0,180.0*
21,1,0.02500,0.02487,0,0,180.0*
1,1,0.01443,-0.01250,0.00522*
1,1,0.01443,0.01250,0.00522*
1,1,0.01443,0.01250,-0.00522*
1,1,0.01443,-0.01250,-0.00522*
%
%ADD47ROUNDEDRECTD47*%
%ADD48R,0.06706X0.03359*%
%ADD49R,0.01587X0.01587*%
%ADD50R,0.03950X0.03950*%
%ADD51R,0.03950X0.04737*%
%ADD52R,0.03800X0.04737*%
%ADD53R,0.01587X0.01587*%
%ADD54R,0.02600X0.06600*%
%ADD55R,0.14961X0.11024*%
%ADD56R,0.04800X0.02600*%
%ADD57O,0.12611X0.06800*%
%ADD58R,0.04737X0.03800*%
%ADD59R,0.10839X0.10839*%
%ADD60C,0.06737*%
%ADD61C,0.10839*%
%ADD62C,0.04600*%
%ADD63R,0.06064X0.06064*%
%ADD64C,0.06064*%
%ADD65C,0.02800*%
%ADD66C,0.03800*%
%ADD67C,0.24800*%
G36*
X163551Y228655D02*
X163602Y228645D01*
X163651Y228628D01*
X163697Y228606D01*
X163740Y228577D01*
X163779Y228543D01*
X163813Y228504D01*
X163842Y228461D01*
X163865Y228415D01*
X163881Y228366D01*
X163891Y228315D01*
X163894Y228264D01*
Y223336D01*
X163894Y223331D01*
X163894Y223327D01*
X163893Y223306D01*
X163891Y223285D01*
X163890Y223280D01*
X163890Y223275D01*
X163885Y223255D01*
X163881Y223234D01*
X163880Y223230D01*
X163879Y223225D01*
X163871Y223205D01*
X163865Y223185D01*
X163863Y223181D01*
X163861Y223177D01*
X163851Y223158D01*
X163842Y223139D01*
X163839Y223135D01*
X163837Y223131D01*
X163825Y223113D01*
X163813Y223096D01*
X163810Y223092D01*
X163807Y223089D01*
X163793Y223073D01*
X163779Y223057D01*
X163776Y223054D01*
X163772Y223051D01*
X163756Y223037D01*
X163740Y223023D01*
X163736Y223020D01*
X163733Y223018D01*
X163715Y223006D01*
X163697Y222994D01*
X163693Y222992D01*
X163689Y222990D01*
X163670Y222981D01*
X163651Y222972D01*
X163647Y222970D01*
X163643Y222968D01*
X163622Y222962D01*
X163602Y222955D01*
X163598Y222954D01*
X163593Y222953D01*
X163572Y222949D01*
X163551Y222945D01*
X163547Y222944D01*
X163542Y222944D01*
X163521Y222943D01*
X163500Y222941D01*
X163495Y222942D01*
X163491Y222942D01*
X163470Y222943D01*
X163449Y222945D01*
X163444Y222946D01*
X163439Y222946D01*
X163419Y222951D01*
X163398Y222955D01*
X163394Y222956D01*
X163389Y222957D01*
X163369Y222965D01*
X163349Y222972D01*
X163345Y222973D01*
X163341Y222975D01*
X163322Y222985D01*
X163303Y222994D01*
X163299Y222997D01*
X163295Y222999D01*
X163277Y223011D01*
X163260Y223023D01*
X163256Y223026D01*
X163253Y223029D01*
X161473Y224462D01*
X159741Y223124D01*
X159741Y223123D01*
X159740Y223123D01*
X159719Y223109D01*
X159698Y223095D01*
X159698Y223095D01*
X159697Y223094D01*
X159675Y223083D01*
X159652Y223072D01*
X159652Y223072D01*
X159651Y223072D01*
X159627Y223063D01*
X159603Y223055D01*
X159603Y223055D01*
X159602Y223055D01*
X159577Y223050D01*
X159553Y223045D01*
X159552Y223045D01*
X159552Y223045D01*
X159527Y223043D01*
X159501Y223042D01*
X159501Y223042D01*
X159500Y223042D01*
X159475Y223043D01*
X159450Y223045D01*
X159449Y223045D01*
X159449Y223045D01*
X159424Y223050D01*
X159399Y223055D01*
X159398Y223055D01*
X159398Y223055D01*
X159374Y223063D01*
X159350Y223071D01*
X159350Y223071D01*
X159349Y223072D01*
X159327Y223082D01*
X159304Y223094D01*
X159303Y223094D01*
X159303Y223094D01*
X159283Y223108D01*
X159261Y223122D01*
X159260Y223123D01*
X159260Y223123D01*
X159241Y223140D01*
X159222Y223156D01*
X159222Y223157D01*
X159221Y223157D01*
X159205Y223176D01*
X159188Y223195D01*
X159187Y223195D01*
X159187Y223196D01*
X159174Y223216D01*
X159159Y223238D01*
X159159Y223238D01*
X159158Y223239D01*
X159147Y223261D01*
X159136Y223284D01*
X159136Y223284D01*
X159135Y223285D01*
X159127Y223309D01*
X159119Y223333D01*
X159119Y223333D01*
X159119Y223334D01*
X159114Y223359D01*
X159109Y223383D01*
X159109Y223384D01*
X159109Y223384D01*
X159107Y223409D01*
X159106Y223435D01*
X159106Y223435D01*
X159106Y223436D01*
Y228264D01*
X159109Y228315D01*
X159119Y228366D01*
X159135Y228415D01*
X159158Y228461D01*
X159187Y228504D01*
X159221Y228543D01*
X159260Y228577D01*
X159303Y228606D01*
X159349Y228628D01*
X159398Y228645D01*
X159449Y228655D01*
X159500Y228659D01*
X163500D01*
X163551Y228655D01*
D02*
G37*
G36*
X161506Y223994D02*
X161520Y223994D01*
X161532Y223993D01*
X161544Y223992D01*
X161557Y223990D01*
X161571Y223988D01*
X161583Y223985D01*
X161594Y223983D01*
X161608Y223979D01*
X161621Y223975D01*
X161632Y223971D01*
X161644Y223968D01*
X161656Y223962D01*
X161669Y223956D01*
X161679Y223951D01*
X161690Y223946D01*
X161702Y223938D01*
X161714Y223931D01*
X161724Y223924D01*
X161734Y223918D01*
X161744Y223909D01*
X161756Y223901D01*
X163756Y222201D01*
X163767Y222189D01*
X163779Y222179D01*
X163786Y222171D01*
X163793Y222165D01*
X163802Y222152D01*
X163813Y222140D01*
X163819Y222132D01*
X163825Y222124D01*
X163833Y222111D01*
X163842Y222097D01*
X163846Y222088D01*
X163851Y222080D01*
X163857Y222065D01*
X163865Y222051D01*
X163868Y222042D01*
X163872Y222033D01*
X163876Y222017D01*
X163881Y222002D01*
X163883Y221992D01*
X163886Y221983D01*
X163888Y221967D01*
X163891Y221952D01*
X163892Y221942D01*
X163893Y221932D01*
X163893Y221916D01*
X163894Y221900D01*
Y219500D01*
X163891Y219448D01*
X163881Y219398D01*
X163865Y219349D01*
X163842Y219303D01*
X163813Y219260D01*
X163779Y219221D01*
X163740Y219187D01*
X163697Y219158D01*
X163651Y219135D01*
X163602Y219119D01*
X163551Y219109D01*
X163500Y219106D01*
X159500D01*
X159449Y219109D01*
X159398Y219119D01*
X159349Y219135D01*
X159303Y219158D01*
X159260Y219187D01*
X159221Y219221D01*
X159187Y219260D01*
X159158Y219303D01*
X159135Y219349D01*
X159119Y219398D01*
X159109Y219448D01*
X159106Y219500D01*
Y222000D01*
X159107Y222022D01*
X159108Y222044D01*
X159109Y222047D01*
X159109Y222052D01*
X159113Y222073D01*
X159117Y222094D01*
X159118Y222098D01*
X159119Y222102D01*
X159126Y222123D01*
X159133Y222144D01*
X159134Y222147D01*
X159135Y222151D01*
X159145Y222171D01*
X159154Y222190D01*
X159157Y222194D01*
X159158Y222197D01*
X159170Y222215D01*
X159182Y222234D01*
X159185Y222237D01*
X159187Y222240D01*
X159201Y222257D01*
X159215Y222273D01*
X159218Y222276D01*
X159221Y222279D01*
X159238Y222293D01*
X159254Y222308D01*
X161253Y223908D01*
X161265Y223916D01*
X161276Y223925D01*
X161286Y223931D01*
X161296Y223938D01*
X161308Y223944D01*
X161320Y223951D01*
X161331Y223956D01*
X161342Y223961D01*
X161355Y223966D01*
X161367Y223972D01*
X161379Y223975D01*
X161390Y223979D01*
X161404Y223982D01*
X161417Y223986D01*
X161429Y223988D01*
X161441Y223990D01*
X161454Y223991D01*
X161468Y223993D01*
X161480Y223993D01*
X161492Y223994D01*
X161506Y223994D01*
D02*
G37*
G36*
X111551Y210891D02*
X111602Y210881D01*
X111651Y210864D01*
X111697Y210842D01*
X111740Y210813D01*
X111779Y210779D01*
X111813Y210740D01*
X111842Y210697D01*
X111864Y210651D01*
X111881Y210602D01*
X111891Y210552D01*
X111895Y210500D01*
Y206500D01*
X111891Y206449D01*
X111881Y206398D01*
X111864Y206349D01*
X111842Y206303D01*
X111813Y206260D01*
X111779Y206221D01*
X111740Y206187D01*
X111697Y206158D01*
X111651Y206136D01*
X111602Y206119D01*
X111551Y206109D01*
X111500Y206105D01*
X109000D01*
X108978Y206107D01*
X108956Y206108D01*
X108952Y206109D01*
X108949Y206109D01*
X108927Y206113D01*
X108906Y206117D01*
X108902Y206118D01*
X108898Y206119D01*
X108877Y206126D01*
X108856Y206133D01*
X108853Y206134D01*
X108849Y206136D01*
X108829Y206145D01*
X108810Y206154D01*
X108806Y206157D01*
X108803Y206158D01*
X108785Y206170D01*
X108766Y206182D01*
X108763Y206185D01*
X108760Y206187D01*
X108743Y206201D01*
X108727Y206215D01*
X108724Y206218D01*
X108721Y206221D01*
X108707Y206238D01*
X108692Y206254D01*
X107092Y208254D01*
X107084Y208265D01*
X107075Y208276D01*
X107069Y208286D01*
X107062Y208296D01*
X107056Y208308D01*
X107049Y208320D01*
X107044Y208331D01*
X107039Y208342D01*
X107034Y208355D01*
X107028Y208367D01*
X107025Y208379D01*
X107021Y208390D01*
X107018Y208404D01*
X107014Y208417D01*
X107012Y208429D01*
X107010Y208441D01*
X107009Y208454D01*
X107007Y208468D01*
X107007Y208480D01*
X107006Y208492D01*
X107006Y208506D01*
X107006Y208520D01*
X107007Y208532D01*
X107008Y208544D01*
X107010Y208557D01*
X107012Y208571D01*
X107015Y208582D01*
X107017Y208594D01*
X107021Y208608D01*
X107025Y208621D01*
X107029Y208632D01*
X107033Y208644D01*
X107038Y208656D01*
X107044Y208669D01*
X107049Y208680D01*
X107054Y208690D01*
X107062Y208702D01*
X107069Y208714D01*
X107076Y208724D01*
X107082Y208734D01*
X107091Y208744D01*
X107099Y208755D01*
X108799Y210755D01*
X108810Y210767D01*
X108821Y210779D01*
X108828Y210786D01*
X108835Y210793D01*
X108848Y210802D01*
X108860Y210813D01*
X108868Y210819D01*
X108876Y210825D01*
X108889Y210833D01*
X108903Y210842D01*
X108912Y210846D01*
X108920Y210851D01*
X108935Y210857D01*
X108949Y210864D01*
X108958Y210868D01*
X108967Y210872D01*
X108983Y210876D01*
X108998Y210881D01*
X109008Y210883D01*
X109017Y210886D01*
X109033Y210888D01*
X109048Y210891D01*
X109058Y210892D01*
X109068Y210893D01*
X109084Y210894D01*
X109100Y210894D01*
X111500D01*
X111551Y210891D01*
D02*
G37*
G36*
X107669Y210894D02*
X107673Y210894D01*
X107694Y210893D01*
X107715Y210891D01*
X107720Y210890D01*
X107725Y210890D01*
X107745Y210885D01*
X107766Y210881D01*
X107771Y210880D01*
X107775Y210879D01*
X107795Y210871D01*
X107815Y210864D01*
X107819Y210862D01*
X107823Y210861D01*
X107842Y210851D01*
X107861Y210842D01*
X107865Y210839D01*
X107869Y210837D01*
X107887Y210825D01*
X107904Y210813D01*
X107908Y210810D01*
X107911Y210807D01*
X107927Y210793D01*
X107943Y210779D01*
X107946Y210775D01*
X107949Y210772D01*
X107963Y210756D01*
X107977Y210740D01*
X107980Y210736D01*
X107983Y210733D01*
X107994Y210715D01*
X108006Y210697D01*
X108008Y210693D01*
X108010Y210689D01*
X108019Y210670D01*
X108028Y210651D01*
X108030Y210647D01*
X108032Y210643D01*
X108038Y210622D01*
X108045Y210602D01*
X108046Y210598D01*
X108047Y210593D01*
X108051Y210572D01*
X108055Y210552D01*
X108055Y210547D01*
X108056Y210542D01*
X108057Y210521D01*
X108059Y210500D01*
X108058Y210495D01*
X108058Y210491D01*
X108056Y210470D01*
X108055Y210449D01*
X108054Y210444D01*
X108054Y210439D01*
X108049Y210419D01*
X108045Y210398D01*
X108044Y210394D01*
X108043Y210389D01*
X108035Y210369D01*
X108028Y210349D01*
X108027Y210345D01*
X108025Y210341D01*
X108015Y210322D01*
X108006Y210303D01*
X108003Y210299D01*
X108001Y210295D01*
X107989Y210278D01*
X107977Y210260D01*
X107974Y210256D01*
X107971Y210253D01*
X106538Y208473D01*
X107876Y206741D01*
X107877Y206741D01*
X107877Y206740D01*
X107891Y206719D01*
X107905Y206698D01*
X107905Y206698D01*
X107906Y206697D01*
X107917Y206675D01*
X107928Y206652D01*
X107928Y206652D01*
X107929Y206651D01*
X107937Y206627D01*
X107945Y206603D01*
X107945Y206603D01*
X107945Y206602D01*
X107950Y206577D01*
X107955Y206553D01*
X107955Y206552D01*
X107955Y206552D01*
X107957Y206527D01*
X107958Y206501D01*
X107958Y206501D01*
X107958Y206500D01*
X107957Y206475D01*
X107955Y206450D01*
X107955Y206449D01*
X107955Y206449D01*
X107950Y206424D01*
X107945Y206399D01*
X107945Y206399D01*
X107945Y206398D01*
X107937Y206374D01*
X107929Y206350D01*
X107929Y206350D01*
X107929Y206349D01*
X107918Y206327D01*
X107906Y206304D01*
X107906Y206303D01*
X107906Y206303D01*
X107892Y206283D01*
X107878Y206261D01*
X107877Y206260D01*
X107877Y206260D01*
X107860Y206241D01*
X107844Y206222D01*
X107843Y206222D01*
X107843Y206221D01*
X107824Y206205D01*
X107805Y206188D01*
X107805Y206187D01*
X107804Y206187D01*
X107784Y206174D01*
X107762Y206159D01*
X107762Y206159D01*
X107761Y206158D01*
X107739Y206147D01*
X107716Y206136D01*
X107716Y206136D01*
X107715Y206136D01*
X107691Y206127D01*
X107667Y206119D01*
X107667Y206119D01*
X107666Y206119D01*
X107641Y206114D01*
X107617Y206109D01*
X107616Y206109D01*
X107615Y206109D01*
X107591Y206107D01*
X107565Y206105D01*
X107565Y206105D01*
X107564Y206105D01*
X102736D01*
X102684Y206109D01*
X102634Y206119D01*
X102585Y206136D01*
X102539Y206158D01*
X102496Y206187D01*
X102457Y206221D01*
X102423Y206260D01*
X102394Y206303D01*
X102372Y206349D01*
X102355Y206398D01*
X102345Y206449D01*
X102341Y206500D01*
Y210500D01*
X102345Y210552D01*
X102355Y210602D01*
X102372Y210651D01*
X102394Y210697D01*
X102423Y210740D01*
X102457Y210779D01*
X102496Y210813D01*
X102539Y210842D01*
X102585Y210864D01*
X102634Y210881D01*
X102684Y210891D01*
X102736Y210894D01*
X107664D01*
X107669Y210894D01*
D02*
G37*
G36*
X276952Y210297D02*
X277004Y210287D01*
X277053Y210270D01*
X277100Y210247D01*
X277144Y210218D01*
X277183Y210183D01*
X277218Y210144D01*
X277247Y210100D01*
X277270Y210053D01*
X277287Y210004D01*
X277297Y209952D01*
X277301Y209900D01*
Y194100D01*
X277297Y194048D01*
X277287Y193996D01*
X277270Y193947D01*
X277247Y193900D01*
X277218Y193856D01*
X277183Y193817D01*
X277144Y193782D01*
X277100Y193753D01*
X277053Y193730D01*
X277004Y193713D01*
X276952Y193703D01*
X276900Y193699D01*
X260800D01*
X260748Y193703D01*
X260696Y193713D01*
X260647Y193730D01*
X260600Y193753D01*
X260556Y193782D01*
X260517Y193817D01*
X260482Y193856D01*
X260453Y193900D01*
X260430Y193947D01*
X260413Y193996D01*
X260403Y194048D01*
X260399Y194100D01*
Y209900D01*
X260403Y209952D01*
X260413Y210004D01*
X260430Y210053D01*
X260453Y210100D01*
X260482Y210144D01*
X260517Y210183D01*
X260556Y210218D01*
X260600Y210247D01*
X260647Y210270D01*
X260696Y210287D01*
X260748Y210297D01*
X260800Y210301D01*
X276900D01*
X276952Y210297D01*
D02*
G37*
G36*
X276452Y181797D02*
X276504Y181787D01*
X276553Y181770D01*
X276600Y181747D01*
X276644Y181718D01*
X276683Y181683D01*
X276718Y181644D01*
X276747Y181600D01*
X276770Y181553D01*
X276787Y181504D01*
X276797Y181452D01*
X276801Y181400D01*
Y165600D01*
X276797Y165548D01*
X276787Y165496D01*
X276770Y165447D01*
X276747Y165400D01*
X276718Y165356D01*
X276683Y165317D01*
X276644Y165282D01*
X276600Y165253D01*
X276553Y165230D01*
X276504Y165213D01*
X276452Y165203D01*
X276400Y165199D01*
X260300D01*
X260248Y165203D01*
X260196Y165213D01*
X260147Y165230D01*
X260100Y165253D01*
X260056Y165282D01*
X260017Y165317D01*
X259982Y165356D01*
X259953Y165400D01*
X259930Y165447D01*
X259913Y165496D01*
X259903Y165548D01*
X259899Y165600D01*
Y181400D01*
X259903Y181452D01*
X259913Y181504D01*
X259930Y181553D01*
X259953Y181600D01*
X259982Y181644D01*
X260017Y181683D01*
X260056Y181718D01*
X260100Y181747D01*
X260147Y181770D01*
X260196Y181787D01*
X260248Y181797D01*
X260300Y181801D01*
X276400D01*
X276452Y181797D01*
D02*
G37*
G36*
X178051Y161891D02*
X178102Y161881D01*
X178151Y161864D01*
X178197Y161842D01*
X178240Y161813D01*
X178279Y161779D01*
X178313Y161740D01*
X178342Y161697D01*
X178365Y161651D01*
X178381Y161602D01*
X178391Y161551D01*
X178394Y161500D01*
Y159000D01*
X178393Y158978D01*
X178392Y158956D01*
X178391Y158952D01*
X178391Y158949D01*
X178387Y158927D01*
X178383Y158906D01*
X178382Y158902D01*
X178381Y158898D01*
X178374Y158877D01*
X178367Y158856D01*
X178366Y158853D01*
X178365Y158849D01*
X178355Y158829D01*
X178346Y158810D01*
X178343Y158806D01*
X178342Y158803D01*
X178330Y158785D01*
X178318Y158766D01*
X178315Y158763D01*
X178313Y158760D01*
X178299Y158743D01*
X178285Y158727D01*
X178282Y158724D01*
X178279Y158721D01*
X178262Y158707D01*
X178246Y158692D01*
X176247Y157092D01*
X176235Y157084D01*
X176224Y157075D01*
X176214Y157069D01*
X176204Y157062D01*
X176192Y157056D01*
X176180Y157049D01*
X176169Y157044D01*
X176158Y157039D01*
X176145Y157034D01*
X176133Y157028D01*
X176121Y157025D01*
X176110Y157021D01*
X176096Y157018D01*
X176083Y157014D01*
X176071Y157012D01*
X176059Y157010D01*
X176046Y157009D01*
X176032Y157007D01*
X176020Y157007D01*
X176008Y157006D01*
X175994Y157006D01*
X175980Y157006D01*
X175968Y157007D01*
X175956Y157008D01*
X175943Y157010D01*
X175929Y157012D01*
X175917Y157015D01*
X175906Y157017D01*
X175892Y157021D01*
X175879Y157025D01*
X175868Y157029D01*
X175856Y157033D01*
X175844Y157038D01*
X175831Y157044D01*
X175821Y157049D01*
X175810Y157054D01*
X175798Y157062D01*
X175786Y157069D01*
X175776Y157076D01*
X175766Y157082D01*
X175756Y157091D01*
X175744Y157099D01*
X173744Y158799D01*
X173733Y158810D01*
X173721Y158821D01*
X173714Y158828D01*
X173707Y158835D01*
X173698Y158848D01*
X173687Y158860D01*
X173681Y158868D01*
X173675Y158876D01*
X173667Y158889D01*
X173658Y158903D01*
X173654Y158912D01*
X173649Y158920D01*
X173643Y158935D01*
X173635Y158949D01*
X173632Y158958D01*
X173628Y158967D01*
X173624Y158983D01*
X173619Y158998D01*
X173617Y159008D01*
X173614Y159017D01*
X173612Y159033D01*
X173609Y159048D01*
X173608Y159058D01*
X173607Y159068D01*
X173607Y159084D01*
X173606Y159100D01*
Y161500D01*
X173609Y161551D01*
X173619Y161602D01*
X173635Y161651D01*
X173658Y161697D01*
X173687Y161740D01*
X173721Y161779D01*
X173760Y161813D01*
X173803Y161842D01*
X173849Y161864D01*
X173898Y161881D01*
X173949Y161891D01*
X174000Y161895D01*
X178000D01*
X178051Y161891D01*
D02*
G37*
G36*
X174005Y158058D02*
X174009Y158058D01*
X174030Y158056D01*
X174051Y158055D01*
X174056Y158054D01*
X174061Y158054D01*
X174081Y158049D01*
X174102Y158045D01*
X174106Y158044D01*
X174111Y158043D01*
X174131Y158035D01*
X174151Y158028D01*
X174155Y158027D01*
X174159Y158025D01*
X174178Y158015D01*
X174197Y158006D01*
X174201Y158003D01*
X174205Y158001D01*
X174223Y157989D01*
X174240Y157977D01*
X174244Y157974D01*
X174247Y157971D01*
X176027Y156538D01*
X177759Y157876D01*
X177759Y157877D01*
X177760Y157877D01*
X177781Y157891D01*
X177802Y157905D01*
X177802Y157905D01*
X177803Y157906D01*
X177825Y157917D01*
X177848Y157928D01*
X177848Y157928D01*
X177849Y157929D01*
X177873Y157937D01*
X177897Y157945D01*
X177897Y157945D01*
X177898Y157945D01*
X177923Y157950D01*
X177947Y157955D01*
X177948Y157955D01*
X177948Y157955D01*
X177973Y157957D01*
X177999Y157958D01*
X177999Y157958D01*
X178000Y157958D01*
X178025Y157957D01*
X178050Y157955D01*
X178051Y157955D01*
X178051Y157955D01*
X178076Y157950D01*
X178101Y157945D01*
X178102Y157945D01*
X178102Y157945D01*
X178126Y157937D01*
X178150Y157929D01*
X178150Y157929D01*
X178151Y157929D01*
X178173Y157918D01*
X178196Y157906D01*
X178197Y157906D01*
X178197Y157906D01*
X178217Y157892D01*
X178239Y157878D01*
X178240Y157877D01*
X178240Y157877D01*
X178259Y157860D01*
X178278Y157844D01*
X178278Y157843D01*
X178279Y157843D01*
X178295Y157824D01*
X178312Y157805D01*
X178313Y157805D01*
X178313Y157804D01*
X178326Y157784D01*
X178341Y157762D01*
X178341Y157762D01*
X178342Y157761D01*
X178353Y157739D01*
X178364Y157716D01*
X178364Y157716D01*
X178365Y157715D01*
X178373Y157691D01*
X178381Y157667D01*
X178381Y157667D01*
X178381Y157666D01*
X178386Y157641D01*
X178391Y157617D01*
X178391Y157616D01*
X178391Y157615D01*
X178393Y157591D01*
X178394Y157565D01*
X178394Y157565D01*
X178394Y157564D01*
Y152736D01*
X178391Y152684D01*
X178381Y152634D01*
X178365Y152585D01*
X178342Y152539D01*
X178313Y152496D01*
X178279Y152457D01*
X178240Y152423D01*
X178197Y152394D01*
X178151Y152372D01*
X178102Y152355D01*
X178051Y152345D01*
X178000Y152341D01*
X174000D01*
X173949Y152345D01*
X173898Y152355D01*
X173849Y152372D01*
X173803Y152394D01*
X173760Y152423D01*
X173721Y152457D01*
X173687Y152496D01*
X173658Y152539D01*
X173635Y152585D01*
X173619Y152634D01*
X173609Y152684D01*
X173606Y152736D01*
Y157664D01*
X173606Y157669D01*
X173606Y157673D01*
X173607Y157694D01*
X173609Y157715D01*
X173610Y157720D01*
X173610Y157725D01*
X173615Y157745D01*
X173619Y157766D01*
X173620Y157771D01*
X173621Y157775D01*
X173629Y157795D01*
X173635Y157815D01*
X173637Y157819D01*
X173639Y157823D01*
X173649Y157842D01*
X173658Y157861D01*
X173661Y157865D01*
X173663Y157869D01*
X173675Y157887D01*
X173687Y157904D01*
X173690Y157908D01*
X173693Y157911D01*
X173707Y157927D01*
X173721Y157943D01*
X173724Y157946D01*
X173728Y157949D01*
X173744Y157963D01*
X173760Y157977D01*
X173764Y157980D01*
X173767Y157983D01*
X173785Y157994D01*
X173803Y158006D01*
X173807Y158008D01*
X173811Y158010D01*
X173830Y158019D01*
X173849Y158028D01*
X173853Y158030D01*
X173857Y158032D01*
X173878Y158038D01*
X173898Y158045D01*
X173902Y158046D01*
X173907Y158047D01*
X173928Y158051D01*
X173949Y158055D01*
X173953Y158055D01*
X173958Y158056D01*
X173979Y158057D01*
X174000Y158059D01*
X174005Y158058D01*
D02*
G37*
G36*
X276952Y154297D02*
X277004Y154287D01*
X277053Y154270D01*
X277100Y154247D01*
X277144Y154218D01*
X277183Y154183D01*
X277218Y154144D01*
X277247Y154100D01*
X277270Y154053D01*
X277287Y154004D01*
X277297Y153952D01*
X277301Y153900D01*
Y138100D01*
X277297Y138048D01*
X277287Y137996D01*
X277270Y137947D01*
X277247Y137900D01*
X277218Y137856D01*
X277183Y137817D01*
X277144Y137782D01*
X277100Y137753D01*
X277053Y137730D01*
X277004Y137713D01*
X276952Y137703D01*
X276900Y137699D01*
X260800D01*
X260748Y137703D01*
X260696Y137713D01*
X260647Y137730D01*
X260600Y137753D01*
X260556Y137782D01*
X260517Y137817D01*
X260482Y137856D01*
X260453Y137900D01*
X260430Y137947D01*
X260413Y137996D01*
X260403Y138048D01*
X260399Y138100D01*
Y153900D01*
X260403Y153952D01*
X260413Y154004D01*
X260430Y154053D01*
X260453Y154100D01*
X260482Y154144D01*
X260517Y154183D01*
X260556Y154218D01*
X260600Y154247D01*
X260647Y154270D01*
X260696Y154287D01*
X260748Y154297D01*
X260800Y154301D01*
X276900D01*
X276952Y154297D01*
D02*
G37*
D27*
X145000Y204437D02*
D03*
Y202468D02*
D03*
Y200500D02*
D03*
Y198531D02*
D03*
Y196563D02*
D03*
Y194595D02*
D03*
Y192626D02*
D03*
Y190657D02*
D03*
Y188689D02*
D03*
Y186721D02*
D03*
Y184752D02*
D03*
Y180815D02*
D03*
Y178847D02*
D03*
Y176878D02*
D03*
Y174909D02*
D03*
X190276D02*
D03*
Y176878D02*
D03*
Y178847D02*
D03*
Y180815D02*
D03*
Y182783D02*
D03*
Y184752D02*
D03*
Y186721D02*
D03*
Y188689D02*
D03*
Y190657D02*
D03*
Y192626D02*
D03*
Y194595D02*
D03*
Y196563D02*
D03*
Y198531D02*
D03*
Y200500D02*
D03*
Y202468D02*
D03*
Y204437D02*
D03*
X145000Y182783D02*
D03*
D28*
X152874Y167035D02*
D03*
X156811D02*
D03*
X158780D02*
D03*
X160748D02*
D03*
X162716D02*
D03*
X164685D02*
D03*
X166654D02*
D03*
X168622D02*
D03*
X170591D02*
D03*
X172559D02*
D03*
X174528D02*
D03*
X176496D02*
D03*
X178465D02*
D03*
X180433D02*
D03*
X182402D02*
D03*
Y212311D02*
D03*
X180433D02*
D03*
X178465D02*
D03*
X176496D02*
D03*
X174528D02*
D03*
X172559D02*
D03*
X170591D02*
D03*
X168622D02*
D03*
X166654D02*
D03*
X164685D02*
D03*
X162716D02*
D03*
X160748D02*
D03*
X158780D02*
D03*
X156811D02*
D03*
X152874D02*
D03*
X154842Y167035D02*
D03*
Y212311D02*
D03*
D29*
X209646Y182287D02*
D03*
Y187012D02*
D03*
Y185437D02*
D03*
Y179138D02*
D03*
Y183862D02*
D03*
X229355Y177563D02*
D03*
Y187012D02*
D03*
Y183862D02*
D03*
Y180713D02*
D03*
X209646D02*
D03*
Y175988D02*
D03*
Y177563D02*
D03*
X229355Y185437D02*
D03*
Y182287D02*
D03*
Y179138D02*
D03*
Y175988D02*
D03*
D31*
X130347Y191669D02*
D03*
X123653Y200331D02*
D03*
X130347D02*
D03*
X123653Y191669D02*
D03*
D35*
X213988Y189386D02*
D03*
X212413D02*
D03*
X220287D02*
D03*
X217138D02*
D03*
Y173614D02*
D03*
X226587D02*
D03*
X221862Y189386D02*
D03*
X223437D02*
D03*
X225012D02*
D03*
X212413Y173614D02*
D03*
X215563Y189386D02*
D03*
X218713D02*
D03*
X226587D02*
D03*
X225012Y173614D02*
D03*
X223437D02*
D03*
X221862D02*
D03*
X220287D02*
D03*
X218713D02*
D03*
X215563D02*
D03*
X213988D02*
D03*
D36*
X144799Y134665D02*
D03*
Y155335D02*
D03*
X132201Y134665D02*
D03*
Y155335D02*
D03*
D39*
X273000Y257200D02*
D03*
Y224500D02*
D03*
D41*
X243425Y283500D02*
D03*
X221575D02*
D03*
D45*
X216000Y160106D02*
D03*
Y165894D02*
D03*
X214500Y132394D02*
D03*
X137500Y193394D02*
D03*
X167000Y221106D02*
D03*
X220000Y132394D02*
D03*
X151000Y144394D02*
D03*
X142500Y209606D02*
D03*
X170000Y159894D02*
D03*
X209000Y132394D02*
D03*
X181500Y159894D02*
D03*
X137500Y198106D02*
D03*
X248000Y260394D02*
D03*
Y254606D02*
D03*
X232500Y160106D02*
D03*
Y165894D02*
D03*
X251000Y275106D02*
D03*
X262000D02*
D03*
X256500D02*
D03*
X212000Y290894D02*
D03*
X192500Y214394D02*
D03*
X227000Y160106D02*
D03*
X199500Y161106D02*
D03*
X167000Y226894D02*
D03*
X198500Y214394D02*
D03*
X148000Y218894D02*
D03*
X137500Y203894D02*
D03*
Y187606D02*
D03*
X109500Y184606D02*
D03*
X187500Y160606D02*
D03*
X170000Y154106D02*
D03*
X181500D02*
D03*
X151000Y138606D02*
D03*
X160500Y113713D02*
D03*
X136000Y182394D02*
D03*
X130500Y180394D02*
D03*
X138000Y113394D02*
D03*
X240000Y191394D02*
D03*
X239000Y179394D02*
D03*
X199500Y166894D02*
D03*
X205000Y161106D02*
D03*
Y166894D02*
D03*
X210500D02*
D03*
Y161106D02*
D03*
X221500Y165894D02*
D03*
Y160106D02*
D03*
X227000Y165894D02*
D03*
X256500Y280894D02*
D03*
X251000D02*
D03*
X262000D02*
D03*
X192500Y208606D02*
D03*
X198500D02*
D03*
X187500Y166394D02*
D03*
X148000Y213106D02*
D03*
X142500Y215394D02*
D03*
X160500Y119500D02*
D03*
X136000Y176606D02*
D03*
X130500Y174606D02*
D03*
X209000Y126606D02*
D03*
X214500D02*
D03*
X220000D02*
D03*
X138000Y107606D02*
D03*
X109500Y190394D02*
D03*
X239000Y173606D02*
D03*
X240000Y185606D02*
D03*
X212000Y285106D02*
D03*
D46*
X234516Y110618D02*
D03*
Y120382D02*
D03*
X241484D02*
D03*
Y110618D02*
D03*
X224484D02*
D03*
Y120382D02*
D03*
X217516D02*
D03*
Y110618D02*
D03*
D47*
X234516Y113925D02*
D03*
Y117075D02*
D03*
X241484D02*
D03*
Y113925D02*
D03*
X224484D02*
D03*
Y117075D02*
D03*
X217516D02*
D03*
Y113925D02*
D03*
D48*
X168370Y104500D02*
D03*
Y109500D02*
D03*
Y134500D02*
D03*
Y129500D02*
D03*
X189630Y104500D02*
D03*
Y109500D02*
D03*
Y119500D02*
D03*
X168370D02*
D03*
Y114500D02*
D03*
X189630Y129500D02*
D03*
X168370Y124500D02*
D03*
X189630Y114500D02*
D03*
Y124500D02*
D03*
Y134500D02*
D03*
D49*
X161500Y221000D02*
D03*
X176000Y160000D02*
D03*
D50*
X143500Y114150D02*
D03*
X116000Y184850D02*
D03*
X143500Y107850D02*
D03*
X116000Y191150D02*
D03*
X205500Y291150D02*
D03*
Y284850D02*
D03*
D51*
X197106Y202500D02*
D03*
X226106Y245000D02*
D03*
X259500Y105500D02*
D03*
X220606Y252500D02*
D03*
Y258500D02*
D03*
Y264500D02*
D03*
X202894Y202500D02*
D03*
X239106Y127500D02*
D03*
X235000Y214500D02*
D03*
X196106Y172000D02*
D03*
X206106Y119000D02*
D03*
Y112500D02*
D03*
Y106000D02*
D03*
X196606Y141500D02*
D03*
X152606Y160000D02*
D03*
X230106Y139500D02*
D03*
X235894D02*
D03*
X235000Y232000D02*
D03*
X259500Y124000D02*
D03*
X240787Y232000D02*
D03*
Y226500D02*
D03*
X235000D02*
D03*
X234894Y220000D02*
D03*
X240681D02*
D03*
X240787Y214500D02*
D03*
X265287Y105500D02*
D03*
X259500Y111000D02*
D03*
X265287D02*
D03*
Y118500D02*
D03*
X259500D02*
D03*
X265287Y124000D02*
D03*
X242394Y245000D02*
D03*
X235894Y145000D02*
D03*
X195606Y177500D02*
D03*
X158394Y160000D02*
D03*
X202394Y141500D02*
D03*
X196606Y134500D02*
D03*
X202394D02*
D03*
X244894Y127500D02*
D03*
X211894Y112500D02*
D03*
Y119000D02*
D03*
Y106000D02*
D03*
X239106Y133000D02*
D03*
X244894D02*
D03*
X230106Y145000D02*
D03*
X201894Y172000D02*
D03*
X201394Y177500D02*
D03*
X226394Y264500D02*
D03*
Y258500D02*
D03*
Y252500D02*
D03*
X236606Y245000D02*
D03*
X231894D02*
D03*
D52*
X104500Y208500D02*
D03*
D53*
X110000D02*
D03*
D54*
X242740Y263600D02*
D03*
X239000Y254400D02*
D03*
X235260Y263600D02*
D03*
X239000D02*
D03*
X235260Y254400D02*
D03*
X242740D02*
D03*
D55*
X219500Y181500D02*
D03*
D56*
X277700Y209500D02*
D03*
Y204500D02*
D03*
Y199500D02*
D03*
Y194500D02*
D03*
X255300D02*
D03*
Y199500D02*
D03*
Y204500D02*
D03*
Y209500D02*
D03*
X277700Y153500D02*
D03*
Y148500D02*
D03*
Y138500D02*
D03*
Y143500D02*
D03*
X277200Y181000D02*
D03*
Y176000D02*
D03*
Y171000D02*
D03*
Y166000D02*
D03*
X255300Y138500D02*
D03*
X254800Y171000D02*
D03*
Y176000D02*
D03*
Y181000D02*
D03*
X255300Y143500D02*
D03*
Y148500D02*
D03*
Y153500D02*
D03*
X254800Y166000D02*
D03*
D57*
X288000Y202000D02*
D03*
Y146000D02*
D03*
Y173250D02*
D03*
D58*
X161500Y226500D02*
D03*
X176000Y154500D02*
D03*
D59*
X145311Y245130D02*
D03*
D60*
X176807Y284500D02*
D03*
X133500D02*
D03*
D61*
X164996Y245130D02*
D03*
D62*
X117500Y248500D02*
D03*
Y238500D02*
D03*
X117000Y155000D02*
D03*
Y150000D02*
D03*
X117500Y228500D02*
D03*
X117000Y165000D02*
D03*
X117500Y243500D02*
D03*
X117000Y160000D02*
D03*
X112500Y238500D02*
D03*
Y228500D02*
D03*
Y243500D02*
D03*
X112000Y160000D02*
D03*
Y145000D02*
D03*
Y155000D02*
D03*
X112500Y248500D02*
D03*
X112000Y165000D02*
D03*
Y150000D02*
D03*
X117000Y145000D02*
D03*
X112500Y233500D02*
D03*
X117500D02*
D03*
D63*
X192500Y287496D02*
D03*
D64*
Y272929D02*
D03*
Y256000D02*
D03*
Y241433D02*
D03*
D65*
X241500Y158500D02*
D03*
X216500Y169763D02*
D03*
X222500Y169825D02*
D03*
X227500Y170000D02*
D03*
X217000Y165000D02*
D03*
X214500Y154500D02*
D03*
X227000Y155500D02*
D03*
X232000Y156000D02*
D03*
X222500Y157000D02*
D03*
X237000Y164500D02*
D03*
X234518Y172018D02*
D03*
X236000Y128500D02*
D03*
X239000Y156000D02*
D03*
X237000Y151500D02*
D03*
X218000Y235500D02*
D03*
X216000D02*
D03*
X214000D02*
D03*
X222000D02*
D03*
X220000D02*
D03*
X212000D02*
D03*
X216000Y233000D02*
D03*
X214000D02*
D03*
X212000D02*
D03*
X222000D02*
D03*
X220000D02*
D03*
X218000D02*
D03*
X216500Y193000D02*
D03*
X203000Y113000D02*
D03*
X197000Y112500D02*
D03*
X183500Y106000D02*
D03*
X198000D02*
D03*
X207500Y171000D02*
D03*
X205500Y178500D02*
D03*
X201500Y182500D02*
D03*
X195500Y186000D02*
D03*
X127000Y180500D02*
D03*
Y174500D02*
D03*
X202000Y208500D02*
D03*
X156500Y155000D02*
D03*
X152000Y155500D02*
D03*
X190500Y169000D02*
D03*
X180500Y208000D02*
D03*
X186000Y200500D02*
D03*
X182000Y228500D02*
D03*
X206000Y188500D02*
D03*
X194500Y190500D02*
D03*
X176500Y125000D02*
D03*
X181000Y112500D02*
D03*
X214500Y137000D02*
D03*
X179500Y172000D02*
D03*
X174500D02*
D03*
X143500Y117500D02*
D03*
X213500Y194500D02*
D03*
X195000D02*
D03*
X220000Y137000D02*
D03*
X174000Y128000D02*
D03*
X147000Y159500D02*
D03*
X149500Y192500D02*
D03*
X205500Y129000D02*
D03*
X197500Y192500D02*
D03*
X210500D02*
D03*
X235000Y184500D02*
D03*
X133000Y205000D02*
D03*
X149500Y204500D02*
D03*
X148000Y223500D02*
D03*
X142500Y218000D02*
D03*
X203000Y199000D02*
D03*
X244500Y186000D02*
D03*
X217000Y196500D02*
D03*
X221000Y197000D02*
D03*
X225000Y195500D02*
D03*
X223000Y194500D02*
D03*
X210000Y173500D02*
D03*
X247000Y114000D02*
D03*
X196000Y180500D02*
D03*
X246000Y223000D02*
D03*
X212000Y102500D02*
D03*
X202500Y144500D02*
D03*
X188500Y156000D02*
D03*
X191200Y276500D02*
D03*
X193500D02*
D03*
X191200Y280000D02*
D03*
X193500D02*
D03*
X191200Y283500D02*
D03*
X193500D02*
D03*
X224500Y184500D02*
D03*
Y182500D02*
D03*
Y180500D02*
D03*
Y178500D02*
D03*
X214500D02*
D03*
Y180500D02*
D03*
Y182500D02*
D03*
Y184500D02*
D03*
X199800Y290500D02*
D03*
X197500D02*
D03*
X199800Y287000D02*
D03*
X197500D02*
D03*
X199800Y283500D02*
D03*
X197500D02*
D03*
X199800Y278000D02*
D03*
X197500D02*
D03*
Y274500D02*
D03*
X199800D02*
D03*
X197500Y271000D02*
D03*
X199800D02*
D03*
X187500Y290500D02*
D03*
X185200D02*
D03*
X187500Y287000D02*
D03*
X185200D02*
D03*
X187500Y283500D02*
D03*
X185200D02*
D03*
X187500Y278000D02*
D03*
X185200D02*
D03*
Y274500D02*
D03*
X187500D02*
D03*
X185200Y271000D02*
D03*
X187500D02*
D03*
X171000Y151500D02*
D03*
X138000Y116500D02*
D03*
X135500Y155500D02*
D03*
X132000Y139000D02*
D03*
X109500Y181500D02*
D03*
X116000D02*
D03*
X140500Y189500D02*
D03*
X154000Y138500D02*
D03*
X198000Y219000D02*
D03*
X192500D02*
D03*
X113000Y213500D02*
D03*
X170000Y227500D02*
D03*
X157000Y217000D02*
D03*
X214500Y293000D02*
D03*
X164000Y119500D02*
D03*
X160500Y110500D02*
D03*
X176000Y149500D02*
D03*
X183500Y152500D02*
D03*
X193500Y171500D02*
D03*
X249000Y127500D02*
D03*
X253500Y129500D02*
D03*
X227500Y117000D02*
D03*
X240947Y177840D02*
D03*
X268000Y226000D02*
D03*
Y229500D02*
D03*
X265500Y226000D02*
D03*
Y229500D02*
D03*
X263000Y226000D02*
D03*
Y229500D02*
D03*
Y233000D02*
D03*
X268000D02*
D03*
X265500D02*
D03*
X283000Y226000D02*
D03*
Y229500D02*
D03*
Y233000D02*
D03*
X280500D02*
D03*
Y229500D02*
D03*
Y226000D02*
D03*
X278000D02*
D03*
Y229500D02*
D03*
Y233000D02*
D03*
X247000Y118500D02*
D03*
X232500Y213000D02*
D03*
X249000Y134500D02*
D03*
X237500Y147500D02*
D03*
X184000Y130500D02*
D03*
X238500Y197000D02*
D03*
X244000Y163000D02*
D03*
X257000Y103000D02*
D03*
X243500Y103500D02*
D03*
X194500Y144000D02*
D03*
X193500Y119500D02*
D03*
X202000Y119000D02*
D03*
X174000Y114500D02*
D03*
X199500Y109500D02*
D03*
X210000Y124000D02*
D03*
X229500Y114000D02*
D03*
X216500Y124500D02*
D03*
X232000Y110500D02*
D03*
X223000Y128500D02*
D03*
X222000Y230500D02*
D03*
X212000D02*
D03*
X216000D02*
D03*
X214000D02*
D03*
X220000D02*
D03*
X218000D02*
D03*
X285000Y243000D02*
D03*
Y245300D02*
D03*
Y247600D02*
D03*
X281500Y243000D02*
D03*
Y245300D02*
D03*
Y247600D02*
D03*
X278000Y243000D02*
D03*
Y245300D02*
D03*
Y247600D02*
D03*
X274500Y243000D02*
D03*
Y245300D02*
D03*
Y247600D02*
D03*
X271000Y243000D02*
D03*
Y245300D02*
D03*
Y247600D02*
D03*
X197500Y159000D02*
D03*
X267500Y247600D02*
D03*
Y245300D02*
D03*
Y243000D02*
D03*
X264000Y247600D02*
D03*
Y245300D02*
D03*
Y243000D02*
D03*
X247200Y143500D02*
D03*
X249500Y148500D02*
D03*
X247200D02*
D03*
X249500Y143500D02*
D03*
X251800D02*
D03*
X247200Y153500D02*
D03*
X249500D02*
D03*
X251800D02*
D03*
Y148500D02*
D03*
X246700Y171000D02*
D03*
X249000D02*
D03*
X251300Y181000D02*
D03*
X249000D02*
D03*
Y176000D02*
D03*
X251300D02*
D03*
Y171000D02*
D03*
X246700Y176000D02*
D03*
Y181000D02*
D03*
X247200Y209500D02*
D03*
Y204500D02*
D03*
Y199500D02*
D03*
X251800D02*
D03*
X249500D02*
D03*
X251800Y204500D02*
D03*
X249500D02*
D03*
Y209500D02*
D03*
X251800D02*
D03*
X283500Y196500D02*
D03*
X287500D02*
D03*
X291500D02*
D03*
Y193000D02*
D03*
X287500D02*
D03*
X283500D02*
D03*
Y207500D02*
D03*
X287500D02*
D03*
X291500D02*
D03*
Y211000D02*
D03*
X287500D02*
D03*
X283500D02*
D03*
Y167750D02*
D03*
X287500D02*
D03*
X291500D02*
D03*
Y164250D02*
D03*
X287500D02*
D03*
X283500D02*
D03*
Y178750D02*
D03*
X287500D02*
D03*
X291500D02*
D03*
Y182250D02*
D03*
X287500D02*
D03*
X283500D02*
D03*
Y155000D02*
D03*
X287500D02*
D03*
X291500D02*
D03*
Y151500D02*
D03*
X287500D02*
D03*
X283500D02*
D03*
Y137000D02*
D03*
X287500D02*
D03*
X291500D02*
D03*
Y140500D02*
D03*
X287500D02*
D03*
X283500D02*
D03*
X280500Y163000D02*
D03*
X281500Y190500D02*
D03*
X244500Y191000D02*
D03*
D66*
X243000Y268500D02*
D03*
X217000Y264500D02*
D03*
X216975Y258025D02*
D03*
X217000Y252500D02*
D03*
X262000Y271500D02*
D03*
X256500D02*
D03*
X251000D02*
D03*
X243500Y289500D02*
D03*
X244000Y276000D02*
D03*
X245000Y248500D02*
D03*
X206500Y221000D02*
D03*
X239000Y250000D02*
D03*
X230000Y264500D02*
D03*
Y252500D02*
D03*
Y258500D02*
D03*
D67*
X281000Y281000D02*
D03*
X115500D02*
D03*
X281000Y115500D02*
D03*
X115500D02*
D03*
M02*
