G04*
G04 #@! TF.GenerationSoftware,Altium Limited,Altium Designer,25.5.2 (35)*
G04*
G04 Layer_Physical_Order=2*
G04 Layer_Color=32768*
%FSLAX25Y25*%
%MOIN*%
G70*
G04*
G04 #@! TF.SameCoordinates,081B27B9-CED8-412B-AE00-E460060AFC18*
G04*
G04*
G04 #@! TF.FilePolarity,Negative*
G04*
G01*
G75*
%ADD80C,0.04000*%
%ADD81C,0.10693*%
%ADD82C,0.07937*%
%ADD83C,0.06800*%
%ADD84C,0.07071*%
%ADD85C,0.05200*%
%ADD86C,0.06000*%
%ADD87C,0.16600*%
D80*
X100000Y100000D02*
Y296500D01*
X296500D01*
Y100000D02*
Y296500D01*
X100000Y100000D02*
X296500D01*
D81*
X145311Y245130D02*
D03*
D82*
X176807Y284500D02*
D03*
X133500D02*
D03*
D83*
X117500Y248500D02*
D03*
Y238500D02*
D03*
X117000Y155000D02*
D03*
Y150000D02*
D03*
X117500Y228500D02*
D03*
X117000Y165000D02*
D03*
X117500Y243500D02*
D03*
X117000Y160000D02*
D03*
X112500Y248500D02*
D03*
X112000Y165000D02*
D03*
Y150000D02*
D03*
X117000Y145000D02*
D03*
X112500Y233500D02*
D03*
X117500D02*
D03*
D84*
X192500Y287496D02*
D03*
Y272929D02*
D03*
Y256000D02*
D03*
Y241433D02*
D03*
D85*
X241500Y158500D02*
D03*
X222500Y169825D02*
D03*
X227500Y170000D02*
D03*
X217000Y165000D02*
D03*
X232000Y156000D02*
D03*
X222500Y157000D02*
D03*
X237000Y164500D02*
D03*
X234518Y172018D02*
D03*
X239000Y156000D02*
D03*
X237000Y151500D02*
D03*
X197000Y112500D02*
D03*
X183500Y106000D02*
D03*
X207500Y171000D02*
D03*
X205500Y178500D02*
D03*
X201500Y182500D02*
D03*
X195500Y186000D02*
D03*
X127000Y174500D02*
D03*
X202000Y208500D02*
D03*
X156500Y155000D02*
D03*
X190500Y169000D02*
D03*
X180500Y208000D02*
D03*
X186000Y200500D02*
D03*
X182000Y228500D02*
D03*
X206000Y188500D02*
D03*
X194500Y190500D02*
D03*
X176500Y125000D02*
D03*
X181000Y112500D02*
D03*
X214500Y137000D02*
D03*
X179500Y172000D02*
D03*
X174500D02*
D03*
X143500Y117500D02*
D03*
X213500Y194500D02*
D03*
X195000D02*
D03*
X220000Y137000D02*
D03*
X174000Y128000D02*
D03*
X147000Y159500D02*
D03*
X149500Y192500D02*
D03*
X205500Y129000D02*
D03*
X197500Y192500D02*
D03*
X210500D02*
D03*
X235000Y184500D02*
D03*
X149500Y204500D02*
D03*
X142500Y218000D02*
D03*
X244500Y186000D02*
D03*
X217000Y196500D02*
D03*
X225000Y195500D02*
D03*
X223000Y194500D02*
D03*
X210000Y173500D02*
D03*
X247000Y114000D02*
D03*
X196000Y180500D02*
D03*
X246000Y223000D02*
D03*
X212000Y102500D02*
D03*
X202500Y144500D02*
D03*
X191200Y276500D02*
D03*
X193500D02*
D03*
X191200Y280000D02*
D03*
X193500D02*
D03*
X191200Y283500D02*
D03*
X193500D02*
D03*
X199800Y290500D02*
D03*
X197500D02*
D03*
X199800Y287000D02*
D03*
X197500D02*
D03*
X199800Y283500D02*
D03*
X197500D02*
D03*
X199800Y278000D02*
D03*
X197500D02*
D03*
Y274500D02*
D03*
X199800D02*
D03*
X197500Y271000D02*
D03*
X199800D02*
D03*
X187500Y290500D02*
D03*
X185200D02*
D03*
X187500Y287000D02*
D03*
X185200D02*
D03*
X187500Y283500D02*
D03*
X185200D02*
D03*
X187500Y278000D02*
D03*
X185200D02*
D03*
Y274500D02*
D03*
X187500D02*
D03*
X185200Y271000D02*
D03*
X187500D02*
D03*
X116000Y181500D02*
D03*
X113000Y213500D02*
D03*
X157000Y217000D02*
D03*
X164000Y119500D02*
D03*
X176000Y149500D02*
D03*
X249000Y127500D02*
D03*
X253500Y129500D02*
D03*
X227500Y117000D02*
D03*
X240947Y177840D02*
D03*
X247000Y118500D02*
D03*
X249000Y134500D02*
D03*
X237500Y147500D02*
D03*
X184000Y130500D02*
D03*
X238500Y197000D02*
D03*
X244000Y163000D02*
D03*
X174000Y114500D02*
D03*
X199500Y109500D02*
D03*
X210000Y124000D02*
D03*
X229500Y114000D02*
D03*
X216500Y124500D02*
D03*
X232000Y110500D02*
D03*
X223000Y128500D02*
D03*
X285000Y243000D02*
D03*
Y245300D02*
D03*
Y247600D02*
D03*
X281500Y243000D02*
D03*
Y245300D02*
D03*
Y247600D02*
D03*
X278000Y243000D02*
D03*
Y245300D02*
D03*
Y247600D02*
D03*
X274500Y243000D02*
D03*
Y245300D02*
D03*
Y247600D02*
D03*
X271000Y243000D02*
D03*
Y245300D02*
D03*
Y247600D02*
D03*
X267500D02*
D03*
Y245300D02*
D03*
Y243000D02*
D03*
X264000Y247600D02*
D03*
Y245300D02*
D03*
Y243000D02*
D03*
X247200Y143500D02*
D03*
X249500Y148500D02*
D03*
X247200D02*
D03*
X249500Y143500D02*
D03*
X251800D02*
D03*
X247200Y153500D02*
D03*
X249500D02*
D03*
X251800D02*
D03*
Y148500D02*
D03*
X246700Y171000D02*
D03*
X249000D02*
D03*
X251300Y181000D02*
D03*
X249000D02*
D03*
Y176000D02*
D03*
X251300D02*
D03*
Y171000D02*
D03*
X246700Y176000D02*
D03*
Y181000D02*
D03*
X247200Y209500D02*
D03*
Y204500D02*
D03*
Y199500D02*
D03*
X251800D02*
D03*
X249500D02*
D03*
X251800Y204500D02*
D03*
X249500D02*
D03*
Y209500D02*
D03*
X251800D02*
D03*
X283500Y196500D02*
D03*
X287500D02*
D03*
X291500D02*
D03*
Y193000D02*
D03*
X287500D02*
D03*
X283500D02*
D03*
Y207500D02*
D03*
X287500D02*
D03*
X291500D02*
D03*
Y211000D02*
D03*
X287500D02*
D03*
X283500D02*
D03*
Y167750D02*
D03*
X287500D02*
D03*
X291500D02*
D03*
Y164250D02*
D03*
X287500D02*
D03*
X283500D02*
D03*
Y178750D02*
D03*
X287500D02*
D03*
X291500D02*
D03*
Y182250D02*
D03*
X287500D02*
D03*
X283500D02*
D03*
Y155000D02*
D03*
X287500D02*
D03*
X291500D02*
D03*
Y151500D02*
D03*
X287500D02*
D03*
X283500D02*
D03*
Y137000D02*
D03*
X287500D02*
D03*
X291500D02*
D03*
Y140500D02*
D03*
X287500D02*
D03*
X283500D02*
D03*
X280500Y163000D02*
D03*
X281500Y190500D02*
D03*
X244500Y191000D02*
D03*
D86*
X243500Y289500D02*
D03*
X244000Y276000D02*
D03*
X245000Y248500D02*
D03*
X206500Y221000D02*
D03*
X239000Y250000D02*
D03*
X230000Y264500D02*
D03*
Y252500D02*
D03*
Y258500D02*
D03*
D87*
X281000Y281000D02*
D03*
X115500D02*
D03*
X281000Y115500D02*
D03*
X115500D02*
D03*
M02*
