G04*
G04 #@! TF.GenerationSoftware,Altium Limited,Altium Designer,25.5.2 (35)*
G04*
G04 Layer_Color=0*
%FSLAX25Y25*%
%MOIN*%
G70*
G04*
G04 #@! TF.SameCoordinates,BF0A912C-F189-4BED-A62E-BBCFC2C93B1E*
G04*
G04*
G04 #@! TF.FilePolarity,Positive*
G04*
G01*
G75*
%ADD11C,0.00600*%
%ADD94C,0.00197*%
G36*
X278900Y135800D02*
X280700D01*
Y156200D01*
X278900D01*
Y156850D01*
X254100D01*
Y156200D01*
X252300D01*
Y135800D01*
X254100D01*
Y135150D01*
X278900D01*
Y135800D01*
D02*
G37*
G36*
X278400Y163300D02*
X280200D01*
Y183700D01*
X278400D01*
Y184350D01*
X253600D01*
Y183700D01*
X251800D01*
Y163300D01*
X253600D01*
Y162650D01*
X278400D01*
Y163300D01*
D02*
G37*
G36*
X278900Y191800D02*
X280700D01*
Y212200D01*
X278900D01*
Y212850D01*
X254100D01*
Y212200D01*
X252300D01*
Y191800D01*
X254100D01*
Y191150D01*
X278900D01*
Y191800D01*
D02*
G37*
D11*
X254100Y191150D02*
X278900D01*
X254100D02*
Y191800D01*
Y212200D02*
Y212850D01*
X278900D01*
Y212200D02*
Y212850D01*
Y191150D02*
Y191800D01*
X280700D01*
X252300D02*
X254100D01*
X252300D02*
Y212200D01*
X254100D01*
X278900D02*
X280700D01*
Y191800D02*
Y212200D01*
X254100Y135150D02*
X278900D01*
X254100D02*
Y135800D01*
Y156200D02*
Y156850D01*
X278900D01*
Y156200D02*
Y156850D01*
Y135150D02*
Y135800D01*
X280700D01*
X252300D02*
X254100D01*
X252300D02*
Y156200D01*
X254100D01*
X278900D02*
X280700D01*
Y135800D02*
Y156200D01*
X253600Y162650D02*
X278400D01*
X253600D02*
Y163300D01*
Y183700D02*
Y184350D01*
X278400D01*
Y183700D02*
Y184350D01*
Y162650D02*
Y163300D01*
X280200D01*
X251800D02*
X253600D01*
X251800D02*
Y183700D01*
X253600D01*
X278400D02*
X280200D01*
Y163300D02*
Y183700D01*
D94*
X222740Y204169D02*
Y229090D01*
X210260Y204169D02*
Y229090D01*
X222740D01*
X210260Y204169D02*
X222740D01*
X233106Y103400D02*
X243106D01*
Y108600D01*
X233106Y103400D02*
Y108600D01*
X243106D01*
X233106Y126600D02*
X243106D01*
X233106Y121400D02*
Y126600D01*
X243106Y121400D02*
Y126600D01*
X233106Y121400D02*
X243106D01*
X233106Y114100D02*
X243106D01*
X233106Y108900D02*
Y114100D01*
X243106Y108900D02*
Y114100D01*
X233106Y108900D02*
X243106D01*
X233106Y115900D02*
X243106D01*
Y121100D01*
X233106Y115900D02*
Y121100D01*
X243106D01*
M02*
