G04*
G04 #@! TF.GenerationSoftware,Altium Limited,Altium Designer,25.5.2 (35)*
G04*
G04 Layer_Color=128*
%FSLAX25Y25*%
%MOIN*%
G70*
G04*
G04 #@! TF.SameCoordinates,3D69C69A-2BEB-43E9-B881-948C697E0A66*
G04*
G04*
G04 #@! TF.FilePolarity,Positive*
G04*
G01*
G75*
%ADD34R,0.03150X0.03937*%
%ADD42R,0.04000X0.01800*%
%ADD88R,0.10512X0.04213*%
G36*
X256100Y138100D02*
Y153900D01*
X272200D01*
Y138100D01*
X256100D01*
D02*
G37*
G36*
X255600Y165600D02*
Y181400D01*
X271700D01*
Y165600D01*
X255600D01*
D02*
G37*
G36*
X256100Y194100D02*
Y209900D01*
X272200D01*
Y194100D01*
X256100D01*
D02*
G37*
D34*
X241000Y106000D02*
D03*
Y124000D02*
D03*
X235213Y106000D02*
D03*
Y124000D02*
D03*
X241000Y111500D02*
D03*
X235213D02*
D03*
Y118500D02*
D03*
X241000D02*
D03*
D42*
X255300Y209500D02*
D03*
Y204500D02*
D03*
Y199500D02*
D03*
Y194500D02*
D03*
X277700D02*
D03*
Y199500D02*
D03*
Y204500D02*
D03*
Y209500D02*
D03*
X255300Y153500D02*
D03*
Y148500D02*
D03*
Y143500D02*
D03*
Y138500D02*
D03*
X277700D02*
D03*
Y143500D02*
D03*
Y148500D02*
D03*
Y153500D02*
D03*
X254800Y181000D02*
D03*
Y176000D02*
D03*
Y171000D02*
D03*
Y166000D02*
D03*
X277200D02*
D03*
Y171000D02*
D03*
Y176000D02*
D03*
Y181000D02*
D03*
D88*
X216500Y226000D02*
D03*
Y207260D02*
D03*
M02*
