G04*
G04 #@! TF.GenerationSoftware,Altium Limited,Altium Designer,25.5.2 (35)*
G04*
G04 Layer_Color=65535*
%FSLAX25Y25*%
%MOIN*%
G70*
G04*
G04 #@! TF.SameCoordinates,3D69C69A-2BEB-43E9-B881-948C697E0A66*
G04*
G04*
G04 #@! TF.FilePolarity,Positive*
G04*
G01*
G75*
%ADD10C,0.00787*%
%ADD11C,0.00600*%
%ADD12C,0.00394*%
%ADD13C,0.00984*%
%ADD14C,0.02000*%
%ADD15C,0.00630*%
%ADD16C,0.00500*%
%ADD17C,0.00591*%
%ADD18C,0.00900*%
%ADD19C,0.01500*%
%ADD20C,0.01000*%
%ADD21C,0.01100*%
%ADD22C,0.01200*%
%ADD23R,0.03150X0.00591*%
G36*
X159529Y163685D02*
X158029D01*
Y162685D01*
X159529D01*
Y163685D01*
D02*
G37*
G36*
X141650Y187470D02*
X140650D01*
Y185970D01*
X141650D01*
Y187470D01*
D02*
G37*
G36*
X161498Y215661D02*
X159998D01*
Y216661D01*
X161498D01*
Y215661D01*
D02*
G37*
G36*
X179215Y163685D02*
X177715D01*
Y162685D01*
X179215D01*
Y163685D01*
D02*
G37*
G36*
X193626Y189439D02*
X194626D01*
Y187939D01*
X193626D01*
Y189439D01*
D02*
G37*
G36*
X181183Y215661D02*
X179683D01*
Y216661D01*
X181183D01*
Y215661D01*
D02*
G37*
D10*
X238394Y110500D02*
G03*
X238394Y110500I-394J0D01*
G01*
X221394D02*
G03*
X221394Y110500I-394J0D01*
G01*
X183051Y293598D02*
X201949D01*
X183051Y235331D02*
Y293598D01*
Y235331D02*
X201949D01*
Y293598D01*
X217933Y291669D02*
Y296886D01*
Y270114D02*
Y275331D01*
Y270114D02*
X247067D01*
Y291669D02*
Y296886D01*
Y270114D02*
Y275331D01*
X217933Y296886D02*
X247067D01*
X135646Y136142D02*
X141354D01*
X147358Y139193D02*
Y150807D01*
X135646Y153858D02*
X141354D01*
X129642Y139193D02*
Y150807D01*
X119815Y189701D02*
Y202299D01*
X134185Y189701D02*
Y202299D01*
X165417Y137157D02*
X171323D01*
X172701Y102472D02*
Y136528D01*
Y102472D02*
X185299D01*
Y136528D01*
X172701D02*
X185299D01*
D11*
X140966Y204437D02*
G03*
X140966Y204437I-300J0D01*
G01*
X244035Y259714D02*
G03*
X244035Y258286I965J-714D01*
G01*
X147438Y169473D02*
X150967D01*
X187838D02*
Y173002D01*
X184309Y209873D02*
X187838D01*
X147438Y206344D02*
Y209873D01*
Y169473D02*
Y173002D01*
X184309Y169473D02*
X187838D01*
Y206344D02*
Y209873D01*
X147438D02*
X150967D01*
X278000Y259300D02*
X281000D01*
X279500Y257800D02*
Y260800D01*
X251850Y219700D02*
Y262000D01*
Y219700D02*
X268740D01*
X294150D02*
Y262000D01*
X277260D02*
X294150D01*
X251850D02*
X268740D01*
X277260Y219700D02*
X294150D01*
X278400Y211710D02*
Y212350D01*
X254600Y191650D02*
Y192290D01*
Y211710D02*
Y212350D01*
X278400D01*
Y191650D02*
Y192290D01*
X254600Y191650D02*
X278400D01*
X104150Y128500D02*
Y181500D01*
Y128500D02*
X124850D01*
Y181500D01*
X104150D02*
X124850D01*
X245000Y255550D02*
Y262450D01*
X233000Y255550D02*
Y262450D01*
X277900Y183210D02*
Y183850D01*
X254100Y163150D02*
Y163790D01*
Y183210D02*
Y183850D01*
X277900D01*
Y163150D02*
Y163790D01*
X254100Y163150D02*
X277900D01*
X104650Y212000D02*
Y265000D01*
Y212000D02*
X125350D01*
Y265000D01*
X104650D02*
X125350D01*
X278400Y155710D02*
Y156350D01*
X254600Y135650D02*
Y136290D01*
Y155710D02*
Y156350D01*
X278400D01*
Y135650D02*
Y136290D01*
X254600Y135650D02*
X278400D01*
D12*
X192500Y295764D02*
G03*
X192500Y295370I0J-197D01*
G01*
D02*
G03*
X192500Y295764I0J197D01*
G01*
D13*
X132693Y129449D02*
G03*
X132693Y129449I-492J0D01*
G01*
X208992Y172500D02*
G03*
X208992Y172500I-492J0D01*
G01*
X121992Y205000D02*
G03*
X121992Y205000I-492J0D01*
G01*
D14*
X109000Y178000D02*
G03*
X109000Y178000I-1500J0D01*
G01*
X109500Y261500D02*
G03*
X109500Y261500I-1500J0D01*
G01*
D15*
X215213Y162409D02*
Y163000D01*
X216787Y162409D02*
Y163000D01*
Y163591D01*
X215213Y163000D02*
Y163591D01*
X216787Y163000D02*
X217800D01*
X214200D02*
X215213D01*
X246200Y257500D02*
X247213D01*
X248787D02*
X249800D01*
X247213D02*
Y258090D01*
X248787Y257500D02*
Y258090D01*
Y256909D02*
Y257500D01*
X247213Y256909D02*
Y257500D01*
X230700Y163000D02*
X231713D01*
X233287D02*
X234300D01*
X231713D02*
Y163591D01*
X233287Y163000D02*
Y163591D01*
Y162409D02*
Y163000D01*
X231713Y162409D02*
Y163000D01*
X232600Y140900D02*
X233150Y141450D01*
X232600Y140900D02*
X233500Y140000D01*
X233000Y139500D02*
X233500Y140000D01*
X232850Y137550D02*
X233400Y138100D01*
X232500Y139000D02*
X233400Y138100D01*
X232500Y139000D02*
X233000Y139500D01*
X237494Y233400D02*
X238044Y233950D01*
X237494Y233400D02*
X238394Y232500D01*
X237894Y232000D02*
X238394Y232500D01*
X237744Y230050D02*
X238294Y230600D01*
X237394Y231500D02*
X238294Y230600D01*
X237394Y231500D02*
X237894Y232000D01*
X237744Y224550D02*
X238294Y225100D01*
X237394Y226000D02*
X238294Y225100D01*
X237394Y226000D02*
X237894Y226500D01*
X237494Y227900D02*
X238044Y228450D01*
X237494Y227900D02*
X238394Y227000D01*
X237894Y226500D02*
X238394Y227000D01*
X237387Y221400D02*
X237937Y221950D01*
X237387Y221400D02*
X238287Y220500D01*
X237787Y220000D02*
X238287Y220500D01*
X237637Y218050D02*
X238187Y218600D01*
X237287Y219500D02*
X238187Y218600D01*
X237287Y219500D02*
X237787Y220000D01*
X237744Y212550D02*
X238294Y213100D01*
X237394Y214000D02*
X238294Y213100D01*
X237394Y214000D02*
X237894Y214500D01*
X237494Y215900D02*
X238044Y216450D01*
X237494Y215900D02*
X238394Y215000D01*
X237894Y214500D02*
X238394Y215000D01*
X262244Y103550D02*
X262794Y104100D01*
X261894Y105000D02*
X262794Y104100D01*
X261894Y105000D02*
X262394Y105500D01*
X261994Y106900D02*
X262544Y107450D01*
X261994Y106900D02*
X262894Y106000D01*
X262394Y105500D02*
X262894Y106000D01*
X261994Y112400D02*
X262544Y112950D01*
X261994Y112400D02*
X262894Y111500D01*
X262394Y111000D02*
X262894Y111500D01*
X262244Y109050D02*
X262794Y109600D01*
X261894Y110500D02*
X262794Y109600D01*
X261894Y110500D02*
X262394Y111000D01*
X262244Y116550D02*
X262794Y117100D01*
X261894Y118000D02*
X262794Y117100D01*
X261894Y118000D02*
X262394Y118500D01*
X261994Y119900D02*
X262544Y120450D01*
X261994Y119900D02*
X262894Y119000D01*
X262394Y118500D02*
X262894Y119000D01*
X261994Y125400D02*
X262544Y125950D01*
X261994Y125400D02*
X262894Y124500D01*
X262394Y124000D02*
X262894Y124500D01*
X262244Y122050D02*
X262794Y122600D01*
X261894Y123500D02*
X262794Y122600D01*
X261894Y123500D02*
X262394Y124000D01*
X200900Y164400D02*
X201450Y163850D01*
X200000Y163500D02*
X200900Y164400D01*
X199500Y164000D02*
X200000Y163500D01*
X197550Y164150D02*
X198100Y163600D01*
X199000Y164500D01*
X199500Y164000D01*
X203050Y164150D02*
X203600Y163600D01*
X204500Y164500D01*
X205000Y164000D01*
X206400Y164400D02*
X206950Y163850D01*
X205500Y163500D02*
X206400Y164400D01*
X205000Y164000D02*
X205500Y163500D01*
X211900Y164400D02*
X212450Y163850D01*
X211000Y163500D02*
X211900Y164400D01*
X210500Y164000D02*
X211000Y163500D01*
X208550Y164150D02*
X209100Y163600D01*
X210000Y164500D01*
X210500Y164000D01*
X222287Y163000D02*
Y163591D01*
X220713Y163000D02*
Y163591D01*
Y162409D02*
Y163000D01*
X222287Y162409D02*
Y163000D01*
X219700D02*
X220713D01*
X222287D02*
X223300D01*
X227787D02*
Y163591D01*
X226213Y163000D02*
Y163591D01*
Y162409D02*
Y163000D01*
X227787Y162409D02*
Y163000D01*
X225200D02*
X226213D01*
X227787D02*
X228800D01*
X198909Y142287D02*
X199500D01*
X198909Y140713D02*
X199500D01*
X200091D01*
X199500Y142287D02*
X200091D01*
X199500Y139700D02*
Y140713D01*
Y142287D02*
Y143300D01*
X199100Y135900D02*
X199650Y136450D01*
X199100Y135900D02*
X200000Y135000D01*
X199500Y134500D02*
X200000Y135000D01*
X199350Y132550D02*
X199900Y133100D01*
X199000Y134000D02*
X199900Y133100D01*
X199000Y134000D02*
X199500Y134500D01*
X241850Y125550D02*
X242400Y126100D01*
X241500Y127000D02*
X242400Y126100D01*
X241500Y127000D02*
X242000Y127500D01*
X241600Y128900D02*
X242150Y129450D01*
X241600Y128900D02*
X242500Y128000D01*
X242000Y127500D02*
X242500Y128000D01*
X208410Y113287D02*
X209000D01*
X208410Y111713D02*
X209000D01*
X209591D01*
X209000Y113287D02*
X209591D01*
X209000Y110700D02*
Y111713D01*
Y113287D02*
Y114300D01*
X208410Y119787D02*
X209000D01*
X208410Y118213D02*
X209000D01*
X209591D01*
X209000Y119787D02*
X209591D01*
X209000Y117200D02*
Y118213D01*
Y119787D02*
Y120800D01*
X219213Y128909D02*
Y129500D01*
X220787Y128909D02*
Y129500D01*
Y130091D01*
X219213Y129500D02*
Y130091D01*
X220787Y129500D02*
X221800D01*
X218200D02*
X219213D01*
X213713Y128909D02*
Y129500D01*
X215287Y128909D02*
Y129500D01*
Y130091D01*
X213713Y129500D02*
Y130091D01*
X215287Y129500D02*
X216300D01*
X212700D02*
X213713D01*
X208213Y128909D02*
Y129500D01*
X209787Y128909D02*
Y129500D01*
Y130091D01*
X208213Y129500D02*
Y130091D01*
X209787Y129500D02*
X210800D01*
X207200D02*
X208213D01*
X159713Y116016D02*
Y116606D01*
X161287Y116016D02*
Y116606D01*
Y117197D01*
X159713Y116606D02*
Y117197D01*
X161287Y116606D02*
X162300D01*
X158700D02*
X159713D01*
X241600Y134400D02*
X242150Y134950D01*
X241600Y134400D02*
X242500Y133500D01*
X242000Y133000D02*
X242500Y133500D01*
X241850Y131050D02*
X242400Y131600D01*
X241500Y132500D02*
X242400Y131600D01*
X241500Y132500D02*
X242000Y133000D01*
X232850Y143050D02*
X233400Y143600D01*
X232500Y144500D02*
X233400Y143600D01*
X232500Y144500D02*
X233000Y145000D01*
X232600Y146400D02*
X233150Y146950D01*
X232600Y146400D02*
X233500Y145500D01*
X233000Y145000D02*
X233500Y145500D01*
X208410Y106787D02*
X209000D01*
X208410Y105213D02*
X209000D01*
X209591D01*
X209000Y106787D02*
X209591D01*
X209000Y104200D02*
Y105213D01*
Y106787D02*
Y107800D01*
X165050Y224150D02*
X165600Y223600D01*
X166500Y224500D01*
X167000Y224000D01*
X168400Y224400D02*
X168950Y223850D01*
X167500Y223500D02*
X168400Y224400D01*
X167000Y224000D02*
X167500Y223500D01*
X171400Y157400D02*
X171950Y156850D01*
X170500Y156500D02*
X171400Y157400D01*
X170000Y157000D02*
X170500Y156500D01*
X168050Y157150D02*
X168600Y156600D01*
X169500Y157500D01*
X170000Y157000D01*
X150213Y140909D02*
Y141500D01*
X151787Y140909D02*
Y141500D01*
Y142091D01*
X150213Y141500D02*
Y142091D01*
X151787Y141500D02*
X152800D01*
X149200D02*
X150213D01*
X143900Y212900D02*
X144450Y212350D01*
X143000Y212000D02*
X143900Y212900D01*
X142500Y212500D02*
X143000Y212000D01*
X140550Y212650D02*
X141100Y212100D01*
X142000Y213000D01*
X142500Y212500D01*
X136050Y110650D02*
X136600Y110100D01*
X137500Y111000D01*
X138000Y110500D01*
X139400Y110900D02*
X139950Y110350D01*
X138500Y110000D02*
X139400Y110900D01*
X138000Y110500D02*
X138500Y110000D01*
X110900Y187900D02*
X111450Y187350D01*
X110000Y187000D02*
X110900Y187900D01*
X109500Y187500D02*
X110000Y187000D01*
X107550Y187650D02*
X108100Y187100D01*
X109000Y188000D01*
X109500Y187500D01*
X198850Y170050D02*
X199400Y170600D01*
X198500Y171500D02*
X199400Y170600D01*
X198500Y171500D02*
X199000Y172000D01*
X198600Y173400D02*
X199150Y173950D01*
X198600Y173400D02*
X199500Y172500D01*
X199000Y172000D02*
X199500Y172500D01*
X198350Y175550D02*
X198900Y176100D01*
X198000Y177000D02*
X198900Y176100D01*
X198000Y177000D02*
X198500Y177500D01*
X198100Y178900D02*
X198650Y179450D01*
X198100Y178900D02*
X199000Y178000D01*
X198500Y177500D02*
X199000Y178000D01*
X239213Y187909D02*
Y188500D01*
X240787Y187909D02*
Y188500D01*
Y189091D01*
X239213Y188500D02*
Y189091D01*
X240787Y188500D02*
X241800D01*
X238200D02*
X239213D01*
X238213Y175909D02*
Y176500D01*
X239787Y175909D02*
Y176500D01*
Y177091D01*
X238213Y176500D02*
Y177091D01*
X239787Y176500D02*
X240800D01*
X237200D02*
X238213D01*
X131287Y177500D02*
Y178091D01*
X129713Y177500D02*
Y178091D01*
Y176909D02*
Y177500D01*
X131287Y176909D02*
Y177500D01*
X128700D02*
X129713D01*
X131287D02*
X132300D01*
X136787Y179500D02*
Y180091D01*
X135213Y179500D02*
Y180091D01*
Y178909D02*
Y179500D01*
X136787Y178909D02*
Y179500D01*
X134200D02*
X135213D01*
X136787D02*
X137800D01*
X154909Y160787D02*
X155500D01*
X154909Y159213D02*
X155500D01*
X156091D01*
X155500Y160787D02*
X156091D01*
X155500Y158200D02*
Y159213D01*
Y160787D02*
Y161800D01*
X148787Y216000D02*
Y216590D01*
X147213Y216000D02*
Y216590D01*
Y215409D02*
Y216000D01*
X148787Y215409D02*
Y216000D01*
X146200D02*
X147213D01*
X148787D02*
X149800D01*
X138287Y190500D02*
Y191091D01*
X136713Y190500D02*
Y191091D01*
Y189909D02*
Y190500D01*
X138287Y189909D02*
Y190500D01*
X135700D02*
X136713D01*
X138287D02*
X139300D01*
X136713Y200409D02*
Y201000D01*
X138287Y200409D02*
Y201000D01*
Y201591D01*
X136713Y201000D02*
Y201591D01*
X138287Y201000D02*
X139300D01*
X135700D02*
X136713D01*
X200000Y201713D02*
X200591D01*
X200000Y203287D02*
X200591D01*
X199409D02*
X200000D01*
X199409Y201713D02*
X200000D01*
Y203287D02*
Y204300D01*
Y200700D02*
Y201713D01*
X199287Y211500D02*
Y212090D01*
X197713Y211500D02*
Y212090D01*
Y210910D02*
Y211500D01*
X199287Y210910D02*
Y211500D01*
X196700D02*
X197713D01*
X199287D02*
X200300D01*
X186713Y162909D02*
Y163500D01*
X188287Y162909D02*
Y163500D01*
Y164091D01*
X186713Y163500D02*
Y164091D01*
X188287Y163500D02*
X189300D01*
X185700D02*
X186713D01*
X180713Y156409D02*
Y157000D01*
X182287Y156409D02*
Y157000D01*
Y157591D01*
X180713Y157000D02*
Y157591D01*
X182287Y157000D02*
X183300D01*
X179700D02*
X180713D01*
X193287Y211500D02*
Y212090D01*
X191713Y211500D02*
Y212090D01*
Y210910D02*
Y211500D01*
X193287Y210910D02*
Y211500D01*
X190700D02*
X191713D01*
X193287D02*
X194300D01*
X261213Y277410D02*
Y278000D01*
X262787Y277410D02*
Y278000D01*
Y278590D01*
X261213Y278000D02*
Y278590D01*
X262787Y278000D02*
X263800D01*
X260200D02*
X261213D01*
X255713Y277410D02*
Y278000D01*
X257287Y277410D02*
Y278000D01*
Y278590D01*
X255713Y278000D02*
Y278590D01*
X257287Y278000D02*
X258300D01*
X254700D02*
X255713D01*
X250213Y277410D02*
Y278000D01*
X251787Y277410D02*
Y278000D01*
Y278590D01*
X250213Y278000D02*
Y278590D01*
X251787Y278000D02*
X252800D01*
X249200D02*
X250213D01*
X239350Y243050D02*
X239900Y243600D01*
X239000Y244500D02*
X239900Y243600D01*
X239000Y244500D02*
X239500Y245000D01*
X239100Y246400D02*
X239650Y246950D01*
X239100Y246400D02*
X240000Y245500D01*
X239500Y245000D02*
X240000Y245500D01*
X228850Y243050D02*
X229400Y243600D01*
X228500Y244500D02*
X229400Y243600D01*
X228500Y244500D02*
X229000Y245000D01*
X228600Y246400D02*
X229150Y246950D01*
X228600Y246400D02*
X229500Y245500D01*
X229000Y245000D02*
X229500Y245500D01*
X222909Y265287D02*
X223500D01*
X222909Y263713D02*
X223500D01*
X224091D01*
X223500Y265287D02*
X224091D01*
X223500Y262700D02*
Y263713D01*
Y265287D02*
Y266300D01*
X222909Y259287D02*
X223500D01*
X222909Y257713D02*
X223500D01*
X224091D01*
X223500Y259287D02*
X224091D01*
X223500Y256700D02*
Y257713D01*
Y259287D02*
Y260300D01*
X222909Y253287D02*
X223500D01*
X222909Y251713D02*
X223500D01*
X224091D01*
X223500Y253287D02*
X224091D01*
X223500Y250700D02*
Y251713D01*
Y253287D02*
Y254300D01*
X210050Y288150D02*
X210600Y287600D01*
X211500Y288500D01*
X212000Y288000D01*
X213400Y288400D02*
X213950Y287850D01*
X212500Y287500D02*
X213400Y288400D01*
X212000Y288000D02*
X212500Y287500D01*
D16*
X143342Y236272D02*
X147280D01*
X145311Y234303D02*
Y238240D01*
X163028Y236272D02*
X166965D01*
X135665Y260681D02*
X174642D01*
X135665D02*
Y279579D01*
X128972D02*
X135665D01*
X128972D02*
Y289421D01*
X135665D01*
Y296114D01*
X174642D01*
Y289421D02*
Y296114D01*
Y289421D02*
X181335D01*
Y279579D02*
Y289421D01*
X174642Y279579D02*
X181335D01*
X174642Y260681D02*
Y279579D01*
X234850Y122819D02*
X241150D01*
X234850Y108181D02*
X241150D01*
X217850D02*
X224150D01*
X217850Y122819D02*
X224150D01*
D17*
X229343Y188587D02*
Y189374D01*
X228161D02*
X229343D01*
X209658Y188587D02*
Y189374D01*
X210839D01*
X229343Y173626D02*
Y174413D01*
X228161Y173626D02*
X229343D01*
X209658D02*
Y174413D01*
Y173626D02*
X210839D01*
D18*
X215001Y148501D02*
X214251Y147751D01*
Y146252D01*
X215001Y145502D01*
X218000D01*
X218749Y146252D01*
Y147751D01*
X218000Y148501D01*
X215001Y150001D02*
X214251Y150750D01*
Y152250D01*
X215001Y152999D01*
X215750D01*
X216500Y152250D01*
Y151500D01*
Y152250D01*
X217250Y152999D01*
X218000D01*
X218749Y152250D01*
Y150750D01*
X218000Y150001D01*
X218749Y156748D02*
X214251D01*
X216500Y154499D01*
Y157498D01*
X215377Y102751D02*
Y107249D01*
X217626D01*
X218376Y106500D01*
Y105000D01*
X217626Y104250D01*
X215377D01*
X216876D02*
X218376Y102751D01*
X219875D02*
X221375D01*
X220625D01*
Y107249D01*
X219875Y106500D01*
X223624D02*
X224374Y107249D01*
X225873D01*
X226623Y106500D01*
Y103500D01*
X225873Y102751D01*
X224374D01*
X223624Y103500D01*
Y106500D01*
X234251Y102251D02*
Y106749D01*
X236501D01*
X237250Y106000D01*
Y104500D01*
X236501Y103750D01*
X234251D01*
X235751D02*
X237250Y102251D01*
X238750Y103000D02*
X239499Y102251D01*
X240999D01*
X241749Y103000D01*
Y106000D01*
X240999Y106749D01*
X239499D01*
X238750Y106000D01*
Y105250D01*
X239499Y104500D01*
X241749D01*
X256501Y259200D02*
X255751Y259949D01*
X254252D01*
X253502Y259200D01*
Y256201D01*
X254252Y255451D01*
X255751D01*
X256501Y256201D01*
X258000Y259200D02*
X258750Y259949D01*
X260250D01*
X260999Y259200D01*
Y258450D01*
X260250Y257700D01*
X259500D01*
X260250D01*
X260999Y256950D01*
Y256201D01*
X260250Y255451D01*
X258750D01*
X258000Y256201D01*
X262499Y259200D02*
X263249Y259949D01*
X264748D01*
X265498Y259200D01*
Y258450D01*
X264748Y257700D01*
X263999D01*
X264748D01*
X265498Y256950D01*
Y256201D01*
X264748Y255451D01*
X263249D01*
X262499Y256201D01*
X153751Y219502D02*
X158249D01*
Y221751D01*
X157500Y222501D01*
X156750D01*
X156000Y221751D01*
Y219502D01*
Y221751D01*
X155250Y222501D01*
X154500D01*
X153751Y221751D01*
Y219502D01*
Y224001D02*
Y226999D01*
Y225500D01*
X158249D01*
Y231498D02*
Y228499D01*
X155250Y231498D01*
X154500D01*
X153751Y230748D01*
Y229249D01*
X154500Y228499D01*
X173751Y141252D02*
X178249D01*
Y143501D01*
X177499Y144251D01*
X176750D01*
X176000Y143501D01*
Y141252D01*
Y143501D01*
X175250Y144251D01*
X174501D01*
X173751Y143501D01*
Y141252D01*
Y145750D02*
Y148749D01*
Y147250D01*
X178249D01*
Y150249D02*
Y151748D01*
Y150999D01*
X173751D01*
X174501Y150249D01*
X123001Y209749D02*
Y208999D01*
X124501Y207500D01*
X126000Y208999D01*
Y209749D01*
X124501Y207500D02*
Y205251D01*
X127499D02*
X128999D01*
X128249D01*
Y209749D01*
X127499Y208999D01*
X184751Y258681D02*
X189249Y261680D01*
X184751D02*
X189249Y258681D01*
X184751Y266178D02*
Y263179D01*
X187000D01*
Y264679D01*
Y263179D01*
X189249D01*
Y267678D02*
Y269177D01*
Y268428D01*
X184751D01*
X185501Y267678D01*
X164389Y192922D02*
Y189174D01*
X165139Y188424D01*
X166638D01*
X167388Y189174D01*
Y192922D01*
X171137Y188424D02*
Y192922D01*
X168888Y190673D01*
X171887D01*
X245251Y268249D02*
Y264500D01*
X246001Y263751D01*
X247500D01*
X248250Y264500D01*
Y268249D01*
X249750Y267499D02*
X250500Y268249D01*
X251999D01*
X252749Y267499D01*
Y266750D01*
X251999Y266000D01*
X251249D01*
X251999D01*
X252749Y265250D01*
Y264500D01*
X251999Y263751D01*
X250500D01*
X249750Y264500D01*
X227251Y196249D02*
Y192500D01*
X228001Y191751D01*
X229501D01*
X230250Y192500D01*
Y196249D01*
X234749Y191751D02*
X231750D01*
X234749Y194750D01*
Y195500D01*
X233999Y196249D01*
X232500D01*
X231750Y195500D01*
X137001Y143751D02*
X136251Y143001D01*
Y141501D01*
X137001Y140752D01*
X137750D01*
X138500Y141501D01*
Y143001D01*
X139250Y143751D01*
X139999D01*
X140749Y143001D01*
Y141501D01*
X139999Y140752D01*
X136251Y145250D02*
X140749D01*
X139250Y146750D01*
X140749Y148249D01*
X136251D01*
X140749Y149749D02*
Y151248D01*
Y150499D01*
X136251D01*
X137001Y149749D01*
X175249Y219502D02*
X170751D01*
Y221751D01*
X171501Y222501D01*
X173000D01*
X173750Y221751D01*
Y219502D01*
Y221002D02*
X175249Y222501D01*
X171501Y224001D02*
X170751Y224750D01*
Y226250D01*
X171501Y226999D01*
X172250D01*
X173000Y226250D01*
Y225500D01*
Y226250D01*
X173750Y226999D01*
X174499D01*
X175249Y226250D01*
Y224750D01*
X174499Y224001D01*
X171501Y228499D02*
X170751Y229249D01*
Y230748D01*
X171501Y231498D01*
X172250D01*
X173000Y230748D01*
Y229999D01*
Y230748D01*
X173750Y231498D01*
X174499D01*
X175249Y230748D01*
Y229249D01*
X174499Y228499D01*
X172249Y139002D02*
X167751D01*
Y141251D01*
X168500Y142001D01*
X170000D01*
X170750Y141251D01*
Y139002D01*
Y140501D02*
X172249Y142001D01*
X168500Y143500D02*
X167751Y144250D01*
Y145750D01*
X168500Y146500D01*
X169250D01*
X170000Y145750D01*
Y145000D01*
Y145750D01*
X170750Y146500D01*
X171500D01*
X172249Y145750D01*
Y144250D01*
X171500Y143500D01*
X172249Y150998D02*
Y147999D01*
X169250Y150998D01*
X168500D01*
X167751Y150248D01*
Y148749D01*
X168500Y147999D01*
X144249Y219752D02*
X139751D01*
Y222001D01*
X140500Y222751D01*
X142000D01*
X142750Y222001D01*
Y219752D01*
Y221251D02*
X144249Y222751D01*
X140500Y224250D02*
X139751Y225000D01*
Y226500D01*
X140500Y227249D01*
X141250D01*
X142000Y226500D01*
Y225750D01*
Y226500D01*
X142750Y227249D01*
X143500D01*
X144249Y226500D01*
Y225000D01*
X143500Y224250D01*
X144249Y228749D02*
Y230248D01*
Y229499D01*
X139751D01*
X140500Y228749D01*
X134249Y105002D02*
X129751D01*
Y107251D01*
X130500Y108001D01*
X132000D01*
X132750Y107251D01*
Y105002D01*
Y106501D02*
X134249Y108001D01*
X130500Y109501D02*
X129751Y110250D01*
Y111750D01*
X130500Y112499D01*
X131250D01*
X132000Y111750D01*
Y111000D01*
Y111750D01*
X132750Y112499D01*
X133500D01*
X134249Y111750D01*
Y110250D01*
X133500Y109501D01*
X130500Y113999D02*
X129751Y114749D01*
Y116248D01*
X130500Y116998D01*
X133500D01*
X134249Y116248D01*
Y114749D01*
X133500Y113999D01*
X130500D01*
X110749Y193502D02*
X106251D01*
Y195751D01*
X107001Y196501D01*
X108500D01*
X109250Y195751D01*
Y193502D01*
Y195001D02*
X110749Y196501D01*
Y200999D02*
Y198001D01*
X107750Y200999D01*
X107001D01*
X106251Y200250D01*
Y198750D01*
X107001Y198001D01*
X110000Y202499D02*
X110749Y203249D01*
Y204748D01*
X110000Y205498D01*
X107001D01*
X106251Y204748D01*
Y203249D01*
X107001Y202499D01*
X107750D01*
X108500Y203249D01*
Y205498D01*
X211002Y242751D02*
Y247249D01*
X213251D01*
X214001Y246499D01*
Y245000D01*
X213251Y244250D01*
X211002D01*
X212502D02*
X214001Y242751D01*
X218499D02*
X215500D01*
X218499Y245750D01*
Y246499D01*
X217750Y247249D01*
X216250D01*
X215500Y246499D01*
X219999D02*
X220749Y247249D01*
X222248D01*
X222998Y246499D01*
Y245750D01*
X222248Y245000D01*
X222998Y244250D01*
Y243500D01*
X222248Y242751D01*
X220749D01*
X219999Y243500D01*
Y244250D01*
X220749Y245000D01*
X219999Y245750D01*
Y246499D01*
X220749Y245000D02*
X222248D01*
X232002Y236751D02*
Y241249D01*
X234251D01*
X235001Y240499D01*
Y239000D01*
X234251Y238250D01*
X232002D01*
X233502D02*
X235001Y236751D01*
X239499D02*
X236501D01*
X239499Y239750D01*
Y240499D01*
X238750Y241249D01*
X237250D01*
X236501Y240499D01*
X240999Y241249D02*
X243998D01*
Y240499D01*
X240999Y237501D01*
Y236751D01*
X214749Y270002D02*
X210251D01*
Y272251D01*
X211000Y273001D01*
X212500D01*
X213250Y272251D01*
Y270002D01*
Y271501D02*
X214749Y273001D01*
Y277500D02*
Y274500D01*
X211750Y277500D01*
X211000D01*
X210251Y276750D01*
Y275250D01*
X211000Y274500D01*
X210251Y281998D02*
X211000Y280499D01*
X212500Y278999D01*
X214000D01*
X214749Y279749D01*
Y281248D01*
X214000Y281998D01*
X213250D01*
X212500Y281248D01*
Y278999D01*
X196249Y156502D02*
X191751D01*
Y158751D01*
X192500Y159501D01*
X194000D01*
X194750Y158751D01*
Y156502D01*
Y158001D02*
X196249Y159501D01*
Y163999D02*
Y161001D01*
X193250Y163999D01*
X192500D01*
X191751Y163250D01*
Y161750D01*
X192500Y161001D01*
X191751Y168498D02*
Y165499D01*
X194000D01*
X193250Y166999D01*
Y167748D01*
X194000Y168498D01*
X195500D01*
X196249Y167748D01*
Y166249D01*
X195500Y165499D01*
X212749Y146502D02*
X208251D01*
Y148751D01*
X209000Y149501D01*
X210500D01*
X211250Y148751D01*
Y146502D01*
Y148002D02*
X212749Y149501D01*
Y153999D02*
Y151000D01*
X209750Y153999D01*
X209000D01*
X208251Y153250D01*
Y151750D01*
X209000Y151000D01*
X212749Y157748D02*
X208251D01*
X210500Y155499D01*
Y158498D01*
X207249Y146002D02*
X202751D01*
Y148251D01*
X203501Y149001D01*
X205000D01*
X205750Y148251D01*
Y146002D01*
Y147502D02*
X207249Y149001D01*
Y153499D02*
Y150501D01*
X204250Y153499D01*
X203501D01*
X202751Y152750D01*
Y151250D01*
X203501Y150501D01*
Y154999D02*
X202751Y155749D01*
Y157248D01*
X203501Y157998D01*
X204250D01*
X205000Y157248D01*
Y156499D01*
Y157248D01*
X205750Y157998D01*
X206500D01*
X207249Y157248D01*
Y155749D01*
X206500Y154999D01*
X201749Y146002D02*
X197251D01*
Y148251D01*
X198001Y149001D01*
X199500D01*
X200250Y148251D01*
Y146002D01*
Y147502D02*
X201749Y149001D01*
Y153499D02*
Y150501D01*
X198750Y153499D01*
X198001D01*
X197251Y152750D01*
Y151250D01*
X198001Y150501D01*
X201749Y157998D02*
Y154999D01*
X198750Y157998D01*
X198001D01*
X197251Y157248D01*
Y155749D01*
X198001Y154999D01*
X201749Y181502D02*
X197251D01*
Y183751D01*
X198001Y184501D01*
X199500D01*
X200250Y183751D01*
Y181502D01*
Y183001D02*
X201749Y184501D01*
Y188999D02*
Y186001D01*
X198750Y188999D01*
X198001D01*
X197251Y188250D01*
Y186750D01*
X198001Y186001D01*
Y190499D02*
X197251Y191249D01*
Y192748D01*
X198001Y193498D01*
X200999D01*
X201749Y192748D01*
Y191249D01*
X200999Y190499D01*
X198001D01*
X244771Y103251D02*
Y107749D01*
X247020D01*
X247769Y107000D01*
Y105500D01*
X247020Y104750D01*
X244771D01*
X246270D02*
X247769Y103251D01*
X249269D02*
X250769D01*
X250019D01*
Y107749D01*
X249269Y107000D01*
X253018Y104000D02*
X253768Y103251D01*
X255267D01*
X256017Y104000D01*
Y107000D01*
X255267Y107749D01*
X253768D01*
X253018Y107000D01*
Y106250D01*
X253768Y105500D01*
X256017D01*
X220771Y211751D02*
Y216249D01*
X223020D01*
X223769Y215499D01*
Y214000D01*
X223020Y213250D01*
X220771D01*
X222270D02*
X223769Y211751D01*
X225269D02*
X226769D01*
X226019D01*
Y216249D01*
X225269Y215499D01*
X229018Y216249D02*
X232017D01*
Y215499D01*
X229018Y212501D01*
Y211751D01*
X224877Y125251D02*
Y129749D01*
X227126D01*
X227876Y128999D01*
Y127500D01*
X227126Y126750D01*
X224877D01*
X226376D02*
X227876Y125251D01*
X229375D02*
X230875D01*
X230125D01*
Y129749D01*
X229375Y128999D01*
X236123Y129749D02*
X234624Y128999D01*
X233124Y127500D01*
Y126000D01*
X233874Y125251D01*
X235373D01*
X236123Y126000D01*
Y126750D01*
X235373Y127500D01*
X233124D01*
X244771Y109251D02*
Y113749D01*
X247020D01*
X247769Y112999D01*
Y111500D01*
X247020Y110750D01*
X244771D01*
X246270D02*
X247769Y109251D01*
X249269D02*
X250769D01*
X250019D01*
Y113749D01*
X249269Y112999D01*
X256017Y113749D02*
X253018D01*
Y111500D01*
X254517Y112250D01*
X255267D01*
X256017Y111500D01*
Y110001D01*
X255267Y109251D01*
X253768D01*
X253018Y110001D01*
X220771Y218251D02*
Y222749D01*
X223020D01*
X223769Y222000D01*
Y220500D01*
X223020Y219750D01*
X220771D01*
X222270D02*
X223769Y218251D01*
X225269D02*
X226769D01*
X226019D01*
Y222749D01*
X225269Y222000D01*
X229018D02*
X229768Y222749D01*
X231267D01*
X232017Y222000D01*
Y221250D01*
X231267Y220500D01*
X230517D01*
X231267D01*
X232017Y219750D01*
Y219001D01*
X231267Y218251D01*
X229768D01*
X229018Y219001D01*
X224877Y131251D02*
Y135749D01*
X227126D01*
X227876Y135000D01*
Y133500D01*
X227126Y132750D01*
X224877D01*
X226376D02*
X227876Y131251D01*
X229375D02*
X230875D01*
X230125D01*
Y135749D01*
X229375Y135000D01*
X236123Y131251D02*
X233124D01*
X236123Y134250D01*
Y135000D01*
X235373Y135749D01*
X233874D01*
X233124Y135000D01*
X194627Y126751D02*
Y131249D01*
X196876D01*
X197626Y130499D01*
Y129000D01*
X196876Y128250D01*
X194627D01*
X196126D02*
X197626Y126751D01*
X199125D02*
X200625D01*
X199875D01*
Y131249D01*
X199125Y130499D01*
X202874Y126751D02*
X204373D01*
X203624D01*
Y131249D01*
X202874Y130499D01*
X249145Y116251D02*
Y120749D01*
X251394D01*
X252144Y120000D01*
Y118500D01*
X251394Y117750D01*
X249145D01*
X250644D02*
X252144Y116251D01*
X253643Y120000D02*
X254393Y120749D01*
X255893D01*
X256643Y120000D01*
Y119250D01*
X255893Y118500D01*
X256643Y117750D01*
Y117000D01*
X255893Y116251D01*
X254393D01*
X253643Y117000D01*
Y117750D01*
X254393Y118500D01*
X253643Y119250D01*
Y120000D01*
X254393Y118500D02*
X255893D01*
X224645Y224251D02*
Y228749D01*
X226894D01*
X227644Y227999D01*
Y226500D01*
X226894Y225750D01*
X224645D01*
X226144D02*
X227644Y224251D01*
X232142Y228749D02*
X230643Y227999D01*
X229144Y226500D01*
Y225001D01*
X229893Y224251D01*
X231393D01*
X232142Y225001D01*
Y225750D01*
X231393Y226500D01*
X229144D01*
X238751Y136751D02*
Y141249D01*
X241001D01*
X241750Y140499D01*
Y139000D01*
X241001Y138250D01*
X238751D01*
X240251D02*
X241750Y136751D01*
X246249Y141249D02*
X243250D01*
Y139000D01*
X244749Y139750D01*
X245499D01*
X246249Y139000D01*
Y137501D01*
X245499Y136751D01*
X244000D01*
X243250Y137501D01*
X249145Y122251D02*
Y126749D01*
X251394D01*
X252144Y125999D01*
Y124500D01*
X251394Y123750D01*
X249145D01*
X250644D02*
X252144Y122251D01*
X255893D02*
Y126749D01*
X253643Y124500D01*
X256643D01*
X224645Y230251D02*
Y234749D01*
X226894D01*
X227644Y233999D01*
Y232500D01*
X226894Y231750D01*
X224645D01*
X226144D02*
X227644Y230251D01*
X232142D02*
X229144D01*
X232142Y233250D01*
Y233999D01*
X231393Y234749D01*
X229893D01*
X229144Y233999D01*
X239001Y142751D02*
Y147249D01*
X241250D01*
X242000Y146500D01*
Y145000D01*
X241250Y144250D01*
X239001D01*
X240500D02*
X242000Y142751D01*
X243499D02*
X244999D01*
X244249D01*
Y147249D01*
X243499Y146500D01*
X229501Y285749D02*
Y281251D01*
X232500D01*
X233999D02*
X235499D01*
X234749D01*
Y285749D01*
X233999Y284999D01*
X118750Y263249D02*
X117251D01*
X118000D01*
Y259501D01*
X117251Y258751D01*
X116501D01*
X115751Y259501D01*
X120250Y262499D02*
X121000Y263249D01*
X122499D01*
X123249Y262499D01*
Y261750D01*
X122499Y261000D01*
X121749D01*
X122499D01*
X123249Y260250D01*
Y259501D01*
X122499Y258751D01*
X121000D01*
X120250Y259501D01*
X153404Y284249D02*
X151904D01*
X152654D01*
Y280501D01*
X151904Y279751D01*
X151154D01*
X150405Y280501D01*
X157902Y279751D02*
X154903D01*
X157902Y282750D01*
Y283500D01*
X157153Y284249D01*
X155653D01*
X154903Y283500D01*
X122749Y176500D02*
Y177999D01*
Y177250D01*
X119000D01*
X118251Y177999D01*
Y178749D01*
X119000Y179499D01*
X118251Y175001D02*
Y173501D01*
Y174251D01*
X122749D01*
X122000Y175001D01*
X124001Y186999D02*
X123251Y187749D01*
X121752D01*
X121002Y186999D01*
Y184001D01*
X121752Y183251D01*
X123251D01*
X124001Y184001D01*
X125501Y186999D02*
X126250Y187749D01*
X127750D01*
X128499Y186999D01*
Y186250D01*
X127750Y185500D01*
X127000D01*
X127750D01*
X128499Y184750D01*
Y184001D01*
X127750Y183251D01*
X126250D01*
X125501Y184001D01*
X132998Y183251D02*
X129999D01*
X132998Y186250D01*
Y186999D01*
X132248Y187749D01*
X130749D01*
X129999Y186999D01*
X150001Y128251D02*
X149251Y127501D01*
Y126002D01*
X150001Y125252D01*
X152999D01*
X153749Y126002D01*
Y127501D01*
X152999Y128251D01*
X150001Y129750D02*
X149251Y130500D01*
Y132000D01*
X150001Y132749D01*
X150750D01*
X151500Y132000D01*
Y131250D01*
Y132000D01*
X152250Y132749D01*
X152999D01*
X153749Y132000D01*
Y130500D01*
X152999Y129750D01*
X153749Y134249D02*
Y135748D01*
Y134999D01*
X149251D01*
X150001Y134249D01*
X135001Y210001D02*
X134251Y209251D01*
Y207752D01*
X135001Y207002D01*
X137999D01*
X138749Y207752D01*
Y209251D01*
X137999Y210001D01*
X135001Y211501D02*
X134251Y212250D01*
Y213750D01*
X135001Y214499D01*
X135750D01*
X136500Y213750D01*
Y213000D01*
Y213750D01*
X137250Y214499D01*
X137999D01*
X138749Y213750D01*
Y212250D01*
X137999Y211501D01*
X135001Y215999D02*
X134251Y216749D01*
Y218248D01*
X135001Y218998D01*
X137999D01*
X138749Y218248D01*
Y216749D01*
X137999Y215999D01*
X135001D01*
X134501Y165001D02*
X133751Y164251D01*
Y162752D01*
X134501Y162002D01*
X137499D01*
X138249Y162752D01*
Y164251D01*
X137499Y165001D01*
X138249Y169500D02*
Y166500D01*
X135250Y169500D01*
X134501D01*
X133751Y168750D01*
Y167250D01*
X134501Y166500D01*
X137499Y170999D02*
X138249Y171749D01*
Y173248D01*
X137499Y173998D01*
X134501D01*
X133751Y173248D01*
Y171749D01*
X134501Y170999D01*
X135250D01*
X136000Y171749D01*
Y173998D01*
X128500Y163001D02*
X127751Y162251D01*
Y160752D01*
X128500Y160002D01*
X131500D01*
X132249Y160752D01*
Y162251D01*
X131500Y163001D01*
X132249Y167499D02*
Y164500D01*
X129250Y167499D01*
X128500D01*
X127751Y166750D01*
Y165250D01*
X128500Y164500D01*
Y168999D02*
X127751Y169749D01*
Y171248D01*
X128500Y171998D01*
X129250D01*
X130000Y171248D01*
X130750Y171998D01*
X131500D01*
X132249Y171248D01*
Y169749D01*
X131500Y168999D01*
X130750D01*
X130000Y169749D01*
X129250Y168999D01*
X128500D01*
X130000Y169749D02*
Y171248D01*
X196501Y220501D02*
X195751Y219751D01*
Y218252D01*
X196501Y217502D01*
X199499D01*
X200249Y218252D01*
Y219751D01*
X199499Y220501D01*
X200249Y224999D02*
Y222001D01*
X197250Y224999D01*
X196501D01*
X195751Y224250D01*
Y222750D01*
X196501Y222001D01*
X195751Y226499D02*
Y229498D01*
X196501D01*
X199499Y226499D01*
X200249D01*
X153501Y156000D02*
X152751Y156749D01*
X151252D01*
X150502Y156000D01*
Y153000D01*
X151252Y152251D01*
X152751D01*
X153501Y153000D01*
X158000Y152251D02*
X155000D01*
X158000Y155250D01*
Y156000D01*
X157250Y156749D01*
X155750D01*
X155000Y156000D01*
X162498Y156749D02*
X160999Y156000D01*
X159499Y154500D01*
Y153000D01*
X160249Y152251D01*
X161748D01*
X162498Y153000D01*
Y153750D01*
X161748Y154500D01*
X159499D01*
X186001Y148501D02*
X185251Y147751D01*
Y146252D01*
X186001Y145502D01*
X188999D01*
X189749Y146252D01*
Y147751D01*
X188999Y148501D01*
X189749Y152999D02*
Y150001D01*
X186750Y152999D01*
X186001D01*
X185251Y152250D01*
Y150750D01*
X186001Y150001D01*
X185251Y157498D02*
Y154499D01*
X187500D01*
X186750Y155999D01*
Y156748D01*
X187500Y157498D01*
X188999D01*
X189749Y156748D01*
Y155249D01*
X188999Y154499D01*
X146501Y225001D02*
X145751Y224251D01*
Y222752D01*
X146501Y222002D01*
X149499D01*
X150249Y222752D01*
Y224251D01*
X149499Y225001D01*
X150249Y229500D02*
Y226501D01*
X147250Y229500D01*
X146501D01*
X145751Y228750D01*
Y227250D01*
X146501Y226501D01*
X150249Y233248D02*
X145751D01*
X148000Y230999D01*
Y233998D01*
X190500Y220501D02*
X189751Y219751D01*
Y218252D01*
X190500Y217502D01*
X193500D01*
X194249Y218252D01*
Y219751D01*
X193500Y220501D01*
X194249Y224999D02*
Y222001D01*
X191250Y224999D01*
X190500D01*
X189751Y224250D01*
Y222750D01*
X190500Y222001D01*
Y226499D02*
X189751Y227249D01*
Y228748D01*
X190500Y229498D01*
X191250D01*
X192000Y228748D01*
Y227999D01*
Y228748D01*
X192750Y229498D01*
X193500D01*
X194249Y228748D01*
Y227249D01*
X193500Y226499D01*
X180000Y141501D02*
X179251Y140751D01*
Y139252D01*
X180000Y138502D01*
X183000D01*
X183749Y139252D01*
Y140751D01*
X183000Y141501D01*
X183749Y146000D02*
Y143000D01*
X180750Y146000D01*
X180000D01*
X179251Y145250D01*
Y143750D01*
X180000Y143000D01*
X183749Y150498D02*
Y147499D01*
X180750Y150498D01*
X180000D01*
X179251Y149748D01*
Y148249D01*
X180000Y147499D01*
X208751Y203500D02*
X208001Y204249D01*
X206502D01*
X205752Y203500D01*
Y200500D01*
X206502Y199751D01*
X208001D01*
X208751Y200500D01*
X213249Y199751D02*
X210250D01*
X213249Y202750D01*
Y203500D01*
X212499Y204249D01*
X211000D01*
X210250Y203500D01*
X214749Y199751D02*
X216248D01*
X215498D01*
Y204249D01*
X214749Y203500D01*
X261501Y286501D02*
X260751Y285751D01*
Y284252D01*
X261501Y283502D01*
X264499D01*
X265249Y284252D01*
Y285751D01*
X264499Y286501D01*
X265249Y291000D02*
Y288000D01*
X262250Y291000D01*
X261501D01*
X260751Y290250D01*
Y288750D01*
X261501Y288000D01*
Y292499D02*
X260751Y293249D01*
Y294748D01*
X261501Y295498D01*
X264499D01*
X265249Y294748D01*
Y293249D01*
X264499Y292499D01*
X261501D01*
X255501Y286876D02*
X254751Y286126D01*
Y284627D01*
X255501Y283877D01*
X258500D01*
X259249Y284627D01*
Y286126D01*
X258500Y286876D01*
X259249Y288375D02*
Y289875D01*
Y289125D01*
X254751D01*
X255501Y288375D01*
X258500Y292124D02*
X259249Y292874D01*
Y294373D01*
X258500Y295123D01*
X255501D01*
X254751Y294373D01*
Y292874D01*
X255501Y292124D01*
X256250D01*
X257000Y292874D01*
Y295123D01*
X249500Y286876D02*
X248751Y286126D01*
Y284627D01*
X249500Y283877D01*
X252500D01*
X253249Y284627D01*
Y286126D01*
X252500Y286876D01*
X253249Y288375D02*
Y289875D01*
Y289125D01*
X248751D01*
X249500Y288375D01*
Y292124D02*
X248751Y292874D01*
Y294373D01*
X249500Y295123D01*
X250250D01*
X251000Y294373D01*
X251750Y295123D01*
X252500D01*
X253249Y294373D01*
Y292874D01*
X252500Y292124D01*
X251750D01*
X251000Y292874D01*
X250250Y292124D01*
X249500D01*
X251000Y292874D02*
Y294373D01*
X206270Y266000D02*
X205520Y266749D01*
X204020D01*
X203271Y266000D01*
Y263000D01*
X204020Y262251D01*
X205520D01*
X206270Y263000D01*
X207769Y262251D02*
X209269D01*
X208519D01*
Y266749D01*
X207769Y266000D01*
X211518Y266749D02*
X214517D01*
Y266000D01*
X211518Y263000D01*
Y262251D01*
X206376Y259999D02*
X205626Y260749D01*
X204127D01*
X203377Y259999D01*
Y257000D01*
X204127Y256251D01*
X205626D01*
X206376Y257000D01*
X207875Y256251D02*
X209375D01*
X208625D01*
Y260749D01*
X207875Y259999D01*
X214623Y260749D02*
X213124Y259999D01*
X211624Y258500D01*
Y257000D01*
X212374Y256251D01*
X213873D01*
X214623Y257000D01*
Y257750D01*
X213873Y258500D01*
X211624D01*
X206376Y253999D02*
X205626Y254749D01*
X204127D01*
X203377Y253999D01*
Y251000D01*
X204127Y250251D01*
X205626D01*
X206376Y251000D01*
X207875Y250251D02*
X209375D01*
X208625D01*
Y254749D01*
X207875Y253999D01*
X214623Y254749D02*
X211624D01*
Y252500D01*
X213124Y253250D01*
X213873D01*
X214623Y252500D01*
Y251000D01*
X213873Y250251D01*
X212374D01*
X211624Y251000D01*
X246500Y243376D02*
X245751Y242626D01*
Y241127D01*
X246500Y240377D01*
X249500D01*
X250249Y241127D01*
Y242626D01*
X249500Y243376D01*
X250249Y244875D02*
Y246375D01*
Y245625D01*
X245751D01*
X246500Y244875D01*
X250249Y250873D02*
X245751D01*
X248000Y248624D01*
Y251623D01*
X238000Y196876D02*
X237251Y196126D01*
Y194627D01*
X238000Y193877D01*
X241000D01*
X241749Y194627D01*
Y196126D01*
X241000Y196876D01*
X241749Y198375D02*
Y199875D01*
Y199125D01*
X237251D01*
X238000Y198375D01*
Y202124D02*
X237251Y202874D01*
Y204373D01*
X238000Y205123D01*
X238750D01*
X239500Y204373D01*
Y203624D01*
Y204373D01*
X240250Y205123D01*
X241000D01*
X241749Y204373D01*
Y202874D01*
X241000Y202124D01*
X220001Y148876D02*
X219251Y148126D01*
Y146627D01*
X220001Y145877D01*
X223000D01*
X223749Y146627D01*
Y148126D01*
X223000Y148876D01*
X223749Y150375D02*
Y151875D01*
Y151125D01*
X219251D01*
X220001Y150375D01*
X223749Y157123D02*
Y154124D01*
X220750Y157123D01*
X220001D01*
X219251Y156373D01*
Y154874D01*
X220001Y154124D01*
X237501Y163626D02*
X236751Y162876D01*
Y161376D01*
X237501Y160627D01*
X240499D01*
X241249Y161376D01*
Y162876D01*
X240499Y163626D01*
X241249Y165125D02*
Y166625D01*
Y165875D01*
X236751D01*
X237501Y165125D01*
X241249Y168874D02*
Y170373D01*
Y169624D01*
X236751D01*
X237501Y168874D01*
X225500Y148876D02*
X224751Y148126D01*
Y146627D01*
X225500Y145877D01*
X228500D01*
X229249Y146627D01*
Y148126D01*
X228500Y148876D01*
X229249Y150375D02*
Y151875D01*
Y151125D01*
X224751D01*
X225500Y150375D01*
Y154124D02*
X224751Y154874D01*
Y156373D01*
X225500Y157123D01*
X228500D01*
X229249Y156373D01*
Y154874D01*
X228500Y154124D01*
X225500D01*
X231501Y152750D02*
X230751Y152000D01*
Y150501D01*
X231501Y149751D01*
X234500D01*
X235249Y150501D01*
Y152000D01*
X234500Y152750D01*
Y154250D02*
X235249Y154999D01*
Y156499D01*
X234500Y157249D01*
X231501D01*
X230751Y156499D01*
Y154999D01*
X231501Y154250D01*
X232250D01*
X233000Y154999D01*
Y157249D01*
X198750Y107500D02*
X198001Y108249D01*
X196501D01*
X195751Y107500D01*
Y104500D01*
X196501Y103751D01*
X198001D01*
X198750Y104500D01*
X200250Y107500D02*
X200999Y108249D01*
X202499D01*
X203249Y107500D01*
Y106750D01*
X202499Y106000D01*
X203249Y105250D01*
Y104500D01*
X202499Y103751D01*
X200999D01*
X200250Y104500D01*
Y105250D01*
X200999Y106000D01*
X200250Y106750D01*
Y107500D01*
X200999Y106000D02*
X202499D01*
X159001Y125356D02*
X158251Y124607D01*
Y123107D01*
X159001Y122357D01*
X161999D01*
X162749Y123107D01*
Y124607D01*
X161999Y125356D01*
X158251Y126856D02*
Y129855D01*
X159001D01*
X161999Y126856D01*
X162749D01*
X198750Y113999D02*
X198001Y114749D01*
X196501D01*
X195751Y113999D01*
Y111001D01*
X196501Y110251D01*
X198001D01*
X198750Y111001D01*
X203249Y114749D02*
X201749Y113999D01*
X200250Y112500D01*
Y111001D01*
X200999Y110251D01*
X202499D01*
X203249Y111001D01*
Y111750D01*
X202499Y112500D01*
X200250D01*
X198750Y121000D02*
X198001Y121749D01*
X196501D01*
X195751Y121000D01*
Y118000D01*
X196501Y117251D01*
X198001D01*
X198750Y118000D01*
X203249Y121749D02*
X200250D01*
Y119500D01*
X201749Y120250D01*
X202499D01*
X203249Y119500D01*
Y118000D01*
X202499Y117251D01*
X200999D01*
X200250Y118000D01*
X189250Y142999D02*
X188500Y143749D01*
X187001D01*
X186251Y142999D01*
Y140000D01*
X187001Y139251D01*
X188500D01*
X189250Y140000D01*
X192999Y139251D02*
Y143749D01*
X190750Y141500D01*
X193749D01*
X207000Y138644D02*
X206251Y137894D01*
Y136395D01*
X207000Y135645D01*
X209999D01*
X210749Y136395D01*
Y137894D01*
X209999Y138644D01*
X207000Y140144D02*
X206251Y140893D01*
Y142393D01*
X207000Y143142D01*
X207750D01*
X208500Y142393D01*
Y141643D01*
Y142393D01*
X209250Y143142D01*
X209999D01*
X210749Y142393D01*
Y140893D01*
X209999Y140144D01*
X213000Y138250D02*
X212251Y137501D01*
Y136001D01*
X213000Y135251D01*
X216000D01*
X216749Y136001D01*
Y137501D01*
X216000Y138250D01*
X216749Y142749D02*
Y139750D01*
X213750Y142749D01*
X213000D01*
X212251Y141999D01*
Y140499D01*
X213000Y139750D01*
X219001Y138500D02*
X218251Y137750D01*
Y136251D01*
X219001Y135501D01*
X222000D01*
X222749Y136251D01*
Y137750D01*
X222000Y138500D01*
X222749Y139999D02*
Y141499D01*
Y140749D01*
X218251D01*
X219001Y139999D01*
D19*
X130500Y121000D02*
Y126998D01*
X133499D01*
X134499Y125998D01*
Y123999D01*
X133499Y122999D01*
X130500D01*
X132499D02*
X134499Y121000D01*
X140497Y125998D02*
X139497Y126998D01*
X137498D01*
X136498Y125998D01*
Y124999D01*
X137498Y123999D01*
X139497D01*
X140497Y122999D01*
Y122000D01*
X139497Y121000D01*
X137498D01*
X136498Y122000D01*
X142496Y126998D02*
X146495D01*
X144495D01*
Y121000D01*
D20*
X174871Y134499D02*
Y129501D01*
X175871Y128501D01*
X177870D01*
X178870Y129501D01*
Y134499D01*
X180869Y128501D02*
X182869D01*
X181869D01*
Y134499D01*
X180869Y133499D01*
D21*
X151749Y102628D02*
X147251D01*
Y104877D01*
X148001Y105627D01*
X149500D01*
X150250Y104877D01*
Y102628D01*
X147251Y107126D02*
X151749D01*
Y109375D01*
X150999Y110125D01*
X150250D01*
X149500Y109375D01*
Y107126D01*
Y109375D01*
X148750Y110125D01*
X148001D01*
X147251Y109375D01*
Y107126D01*
X151749Y111625D02*
Y113124D01*
Y112374D01*
X147251D01*
X148001Y111625D01*
Y115373D02*
X147251Y116123D01*
Y117623D01*
X148001Y118372D01*
X150999D01*
X151749Y117623D01*
Y116123D01*
X150999Y115373D01*
X148001D01*
D22*
X113667Y195669D02*
X112751Y196585D01*
Y198418D01*
X113667Y199335D01*
X114584D01*
X115500Y198418D01*
Y197502D01*
Y198418D01*
X116416Y199335D01*
X117333D01*
X118249Y198418D01*
Y196585D01*
X117333Y195669D01*
X112751Y201167D02*
X116416D01*
X118249Y203000D01*
X116416Y204833D01*
X112751D01*
X113667Y206665D02*
X112751Y207582D01*
Y209415D01*
X113667Y210331D01*
X114584D01*
X115500Y209415D01*
Y208498D01*
Y209415D01*
X116416Y210331D01*
X117333D01*
X118249Y209415D01*
Y207582D01*
X117333Y206665D01*
X208249Y269002D02*
X203751D01*
Y271251D01*
X204501Y272001D01*
X206000D01*
X206750Y271251D01*
Y269002D01*
X203751Y273500D02*
X208249D01*
X206750Y275000D01*
X208249Y276500D01*
X203751D01*
X208249Y277999D02*
X203751D01*
Y280248D01*
X204501Y280998D01*
X206000D01*
X206750Y280248D01*
Y277999D01*
Y279499D02*
X208249Y280998D01*
D23*
X143500Y105193D02*
D03*
X116000Y193807D02*
D03*
X205500Y282193D02*
D03*
M02*
