G04*
G04 #@! TF.GenerationSoftware,Altium Limited,Altium Designer,25.5.2 (35)*
G04*
G04 Layer_Color=16711935*
%FSLAX25Y25*%
%MOIN*%
G70*
G04*
G04 #@! TF.SameCoordinates,081B27B9-CED8-412B-AE00-E460060AFC18*
G04*
G04*
G04 #@! TF.FilePolarity,Negative*
G04*
G01*
G75*
%ADD51R,0.03950X0.04737*%
%ADD56R,0.04800X0.02600*%
%ADD59R,0.10839X0.10839*%
%ADD60C,0.06737*%
%ADD61C,0.10839*%
%ADD62C,0.04600*%
%ADD63R,0.06064X0.06064*%
%ADD64C,0.06064*%
%ADD65C,0.02800*%
%ADD66C,0.03800*%
%ADD67C,0.24800*%
%ADD90R,0.11312X0.05013*%
G36*
X272252Y210297D02*
X272304Y210287D01*
X272353Y210270D01*
X272400Y210247D01*
X272444Y210218D01*
X272483Y210183D01*
X272518Y210144D01*
X272547Y210100D01*
X272570Y210053D01*
X272587Y210004D01*
X272597Y209952D01*
X272601Y209900D01*
Y194100D01*
X272597Y194048D01*
X272587Y193996D01*
X272570Y193947D01*
X272547Y193900D01*
X272518Y193856D01*
X272483Y193817D01*
X272444Y193782D01*
X272400Y193753D01*
X272353Y193730D01*
X272304Y193713D01*
X272252Y193703D01*
X272200Y193699D01*
X256100D01*
X256048Y193703D01*
X255996Y193713D01*
X255947Y193730D01*
X255900Y193753D01*
X255856Y193782D01*
X255817Y193817D01*
X255782Y193856D01*
X255753Y193900D01*
X255730Y193947D01*
X255713Y193996D01*
X255703Y194048D01*
X255699Y194100D01*
Y209900D01*
X255703Y209952D01*
X255713Y210004D01*
X255730Y210053D01*
X255753Y210100D01*
X255782Y210144D01*
X255817Y210183D01*
X255856Y210218D01*
X255900Y210247D01*
X255947Y210270D01*
X255996Y210287D01*
X256048Y210297D01*
X256100Y210301D01*
X272200D01*
X272252Y210297D01*
D02*
G37*
G36*
X271752Y181797D02*
X271804Y181787D01*
X271853Y181770D01*
X271900Y181747D01*
X271944Y181718D01*
X271983Y181683D01*
X272018Y181644D01*
X272047Y181600D01*
X272070Y181553D01*
X272087Y181504D01*
X272097Y181452D01*
X272101Y181400D01*
Y165600D01*
X272097Y165548D01*
X272087Y165496D01*
X272070Y165447D01*
X272047Y165400D01*
X272018Y165356D01*
X271983Y165317D01*
X271944Y165282D01*
X271900Y165253D01*
X271853Y165230D01*
X271804Y165213D01*
X271752Y165203D01*
X271700Y165199D01*
X255600D01*
X255548Y165203D01*
X255496Y165213D01*
X255447Y165230D01*
X255400Y165253D01*
X255356Y165282D01*
X255317Y165317D01*
X255282Y165356D01*
X255253Y165400D01*
X255230Y165447D01*
X255213Y165496D01*
X255203Y165548D01*
X255199Y165600D01*
Y181400D01*
X255203Y181452D01*
X255213Y181504D01*
X255230Y181553D01*
X255253Y181600D01*
X255282Y181644D01*
X255317Y181683D01*
X255356Y181718D01*
X255400Y181747D01*
X255447Y181770D01*
X255496Y181787D01*
X255548Y181797D01*
X255600Y181801D01*
X271700D01*
X271752Y181797D01*
D02*
G37*
G36*
X272252Y154297D02*
X272304Y154287D01*
X272353Y154270D01*
X272400Y154247D01*
X272444Y154218D01*
X272483Y154183D01*
X272518Y154144D01*
X272547Y154100D01*
X272570Y154053D01*
X272587Y154004D01*
X272597Y153952D01*
X272601Y153900D01*
Y138100D01*
X272597Y138048D01*
X272587Y137996D01*
X272570Y137947D01*
X272547Y137900D01*
X272518Y137856D01*
X272483Y137817D01*
X272444Y137782D01*
X272400Y137753D01*
X272353Y137730D01*
X272304Y137713D01*
X272252Y137703D01*
X272200Y137699D01*
X256100D01*
X256048Y137703D01*
X255996Y137713D01*
X255947Y137730D01*
X255900Y137753D01*
X255856Y137782D01*
X255817Y137817D01*
X255782Y137856D01*
X255753Y137900D01*
X255730Y137947D01*
X255713Y137996D01*
X255703Y138048D01*
X255699Y138100D01*
Y153900D01*
X255703Y153952D01*
X255713Y154004D01*
X255730Y154053D01*
X255753Y154100D01*
X255782Y154144D01*
X255817Y154183D01*
X255856Y154218D01*
X255900Y154247D01*
X255947Y154270D01*
X255996Y154287D01*
X256048Y154297D01*
X256100Y154301D01*
X272200D01*
X272252Y154297D01*
D02*
G37*
D51*
X241000Y106000D02*
D03*
Y124000D02*
D03*
X235213Y106000D02*
D03*
Y124000D02*
D03*
X241000Y111500D02*
D03*
X235213D02*
D03*
Y118500D02*
D03*
X241000D02*
D03*
D56*
X255300Y209500D02*
D03*
Y204500D02*
D03*
Y199500D02*
D03*
Y194500D02*
D03*
X277700D02*
D03*
Y199500D02*
D03*
Y204500D02*
D03*
Y209500D02*
D03*
X255300Y153500D02*
D03*
Y148500D02*
D03*
Y143500D02*
D03*
Y138500D02*
D03*
X277700D02*
D03*
Y143500D02*
D03*
Y148500D02*
D03*
Y153500D02*
D03*
X254800Y181000D02*
D03*
Y176000D02*
D03*
Y171000D02*
D03*
Y166000D02*
D03*
X277200D02*
D03*
Y171000D02*
D03*
Y176000D02*
D03*
Y181000D02*
D03*
D59*
X145311Y245130D02*
D03*
D60*
X176807Y284500D02*
D03*
X133500D02*
D03*
D61*
X164996Y245130D02*
D03*
D62*
X117500Y248500D02*
D03*
Y238500D02*
D03*
X117000Y155000D02*
D03*
Y150000D02*
D03*
X117500Y228500D02*
D03*
X117000Y165000D02*
D03*
X117500Y243500D02*
D03*
X117000Y160000D02*
D03*
X112500Y238500D02*
D03*
Y228500D02*
D03*
Y243500D02*
D03*
X112000Y160000D02*
D03*
Y145000D02*
D03*
Y155000D02*
D03*
X112500Y248500D02*
D03*
X112000Y165000D02*
D03*
Y150000D02*
D03*
X117000Y145000D02*
D03*
X112500Y233500D02*
D03*
X117500D02*
D03*
D63*
X192500Y287496D02*
D03*
D64*
Y272929D02*
D03*
Y256000D02*
D03*
Y241433D02*
D03*
D65*
X241500Y158500D02*
D03*
X216500Y169763D02*
D03*
X222500Y169825D02*
D03*
X227500Y170000D02*
D03*
X217000Y165000D02*
D03*
X214500Y154500D02*
D03*
X227000Y155500D02*
D03*
X232000Y156000D02*
D03*
X222500Y157000D02*
D03*
X237000Y164500D02*
D03*
X234518Y172018D02*
D03*
X236000Y128500D02*
D03*
X239000Y156000D02*
D03*
X237000Y151500D02*
D03*
X218000Y235500D02*
D03*
X216000D02*
D03*
X214000D02*
D03*
X222000D02*
D03*
X220000D02*
D03*
X212000D02*
D03*
X216000Y233000D02*
D03*
X214000D02*
D03*
X212000D02*
D03*
X222000D02*
D03*
X220000D02*
D03*
X218000D02*
D03*
X216500Y193000D02*
D03*
X203000Y113000D02*
D03*
X197000Y112500D02*
D03*
X183500Y106000D02*
D03*
X198000D02*
D03*
X207500Y171000D02*
D03*
X205500Y178500D02*
D03*
X201500Y182500D02*
D03*
X195500Y186000D02*
D03*
X127000Y180500D02*
D03*
Y174500D02*
D03*
X202000Y208500D02*
D03*
X156500Y155000D02*
D03*
X152000Y155500D02*
D03*
X190500Y169000D02*
D03*
X180500Y208000D02*
D03*
X186000Y200500D02*
D03*
X182000Y228500D02*
D03*
X206000Y188500D02*
D03*
X194500Y190500D02*
D03*
X176500Y125000D02*
D03*
X181000Y112500D02*
D03*
X214500Y137000D02*
D03*
X179500Y172000D02*
D03*
X174500D02*
D03*
X143500Y117500D02*
D03*
X213500Y194500D02*
D03*
X195000D02*
D03*
X220000Y137000D02*
D03*
X174000Y128000D02*
D03*
X147000Y159500D02*
D03*
X149500Y192500D02*
D03*
X205500Y129000D02*
D03*
X197500Y192500D02*
D03*
X210500D02*
D03*
X235000Y184500D02*
D03*
X133000Y205000D02*
D03*
X149500Y204500D02*
D03*
X148000Y223500D02*
D03*
X142500Y218000D02*
D03*
X203000Y199000D02*
D03*
X244500Y186000D02*
D03*
X217000Y196500D02*
D03*
X221000Y197000D02*
D03*
X225000Y195500D02*
D03*
X223000Y194500D02*
D03*
X210000Y173500D02*
D03*
X247000Y114000D02*
D03*
X196000Y180500D02*
D03*
X246000Y223000D02*
D03*
X212000Y102500D02*
D03*
X202500Y144500D02*
D03*
X188500Y156000D02*
D03*
X191200Y276500D02*
D03*
X193500D02*
D03*
X191200Y280000D02*
D03*
X193500D02*
D03*
X191200Y283500D02*
D03*
X193500D02*
D03*
X224500Y184500D02*
D03*
Y182500D02*
D03*
Y180500D02*
D03*
Y178500D02*
D03*
X214500D02*
D03*
Y180500D02*
D03*
Y182500D02*
D03*
Y184500D02*
D03*
X199800Y290500D02*
D03*
X197500D02*
D03*
X199800Y287000D02*
D03*
X197500D02*
D03*
X199800Y283500D02*
D03*
X197500D02*
D03*
X199800Y278000D02*
D03*
X197500D02*
D03*
Y274500D02*
D03*
X199800D02*
D03*
X197500Y271000D02*
D03*
X199800D02*
D03*
X187500Y290500D02*
D03*
X185200D02*
D03*
X187500Y287000D02*
D03*
X185200D02*
D03*
X187500Y283500D02*
D03*
X185200D02*
D03*
X187500Y278000D02*
D03*
X185200D02*
D03*
Y274500D02*
D03*
X187500D02*
D03*
X185200Y271000D02*
D03*
X187500D02*
D03*
X171000Y151500D02*
D03*
X138000Y116500D02*
D03*
X135500Y155500D02*
D03*
X132000Y139000D02*
D03*
X109500Y181500D02*
D03*
X116000D02*
D03*
X140500Y189500D02*
D03*
X154000Y138500D02*
D03*
X198000Y219000D02*
D03*
X192500D02*
D03*
X113000Y213500D02*
D03*
X170000Y227500D02*
D03*
X157000Y217000D02*
D03*
X214500Y293000D02*
D03*
X164000Y119500D02*
D03*
X160500Y110500D02*
D03*
X176000Y149500D02*
D03*
X183500Y152500D02*
D03*
X193500Y171500D02*
D03*
X249000Y127500D02*
D03*
X253500Y129500D02*
D03*
X227500Y117000D02*
D03*
X240947Y177840D02*
D03*
X268000Y226000D02*
D03*
Y229500D02*
D03*
X265500Y226000D02*
D03*
Y229500D02*
D03*
X263000Y226000D02*
D03*
Y229500D02*
D03*
Y233000D02*
D03*
X268000D02*
D03*
X265500D02*
D03*
X283000Y226000D02*
D03*
Y229500D02*
D03*
Y233000D02*
D03*
X280500D02*
D03*
Y229500D02*
D03*
Y226000D02*
D03*
X278000D02*
D03*
Y229500D02*
D03*
Y233000D02*
D03*
X247000Y118500D02*
D03*
X232500Y213000D02*
D03*
X249000Y134500D02*
D03*
X237500Y147500D02*
D03*
X184000Y130500D02*
D03*
X238500Y197000D02*
D03*
X244000Y163000D02*
D03*
X257000Y103000D02*
D03*
X243500Y103500D02*
D03*
X194500Y144000D02*
D03*
X193500Y119500D02*
D03*
X202000Y119000D02*
D03*
X174000Y114500D02*
D03*
X199500Y109500D02*
D03*
X210000Y124000D02*
D03*
X229500Y114000D02*
D03*
X216500Y124500D02*
D03*
X232000Y110500D02*
D03*
X223000Y128500D02*
D03*
X222000Y230500D02*
D03*
X212000D02*
D03*
X216000D02*
D03*
X214000D02*
D03*
X220000D02*
D03*
X218000D02*
D03*
X285000Y243000D02*
D03*
Y245300D02*
D03*
Y247600D02*
D03*
X281500Y243000D02*
D03*
Y245300D02*
D03*
Y247600D02*
D03*
X278000Y243000D02*
D03*
Y245300D02*
D03*
Y247600D02*
D03*
X274500Y243000D02*
D03*
Y245300D02*
D03*
Y247600D02*
D03*
X271000Y243000D02*
D03*
Y245300D02*
D03*
Y247600D02*
D03*
X197500Y159000D02*
D03*
X267500Y247600D02*
D03*
Y245300D02*
D03*
Y243000D02*
D03*
X264000Y247600D02*
D03*
Y245300D02*
D03*
Y243000D02*
D03*
X247200Y143500D02*
D03*
X249500Y148500D02*
D03*
X247200D02*
D03*
X249500Y143500D02*
D03*
X251800D02*
D03*
X247200Y153500D02*
D03*
X249500D02*
D03*
X251800D02*
D03*
Y148500D02*
D03*
X246700Y171000D02*
D03*
X249000D02*
D03*
X251300Y181000D02*
D03*
X249000D02*
D03*
Y176000D02*
D03*
X251300D02*
D03*
Y171000D02*
D03*
X246700Y176000D02*
D03*
Y181000D02*
D03*
X247200Y209500D02*
D03*
Y204500D02*
D03*
Y199500D02*
D03*
X251800D02*
D03*
X249500D02*
D03*
X251800Y204500D02*
D03*
X249500D02*
D03*
Y209500D02*
D03*
X251800D02*
D03*
X283500Y196500D02*
D03*
X287500D02*
D03*
X291500D02*
D03*
Y193000D02*
D03*
X287500D02*
D03*
X283500D02*
D03*
Y207500D02*
D03*
X287500D02*
D03*
X291500D02*
D03*
Y211000D02*
D03*
X287500D02*
D03*
X283500D02*
D03*
Y167750D02*
D03*
X287500D02*
D03*
X291500D02*
D03*
Y164250D02*
D03*
X287500D02*
D03*
X283500D02*
D03*
Y178750D02*
D03*
X287500D02*
D03*
X291500D02*
D03*
Y182250D02*
D03*
X287500D02*
D03*
X283500D02*
D03*
Y155000D02*
D03*
X287500D02*
D03*
X291500D02*
D03*
Y151500D02*
D03*
X287500D02*
D03*
X283500D02*
D03*
Y137000D02*
D03*
X287500D02*
D03*
X291500D02*
D03*
Y140500D02*
D03*
X287500D02*
D03*
X283500D02*
D03*
X280500Y163000D02*
D03*
X281500Y190500D02*
D03*
X244500Y191000D02*
D03*
D66*
X243000Y268500D02*
D03*
X217000Y264500D02*
D03*
X216975Y258025D02*
D03*
X217000Y252500D02*
D03*
X262000Y271500D02*
D03*
X256500D02*
D03*
X251000D02*
D03*
X243500Y289500D02*
D03*
X244000Y276000D02*
D03*
X245000Y248500D02*
D03*
X206500Y221000D02*
D03*
X239000Y250000D02*
D03*
X230000Y264500D02*
D03*
Y252500D02*
D03*
Y258500D02*
D03*
D67*
X281000Y281000D02*
D03*
X115500D02*
D03*
X281000Y115500D02*
D03*
X115500D02*
D03*
D90*
X216500Y226000D02*
D03*
Y207260D02*
D03*
M02*
