G04*
G04 #@! TF.GenerationSoftware,Altium Limited,Altium Designer,25.5.2 (35)*
G04*
G04 Layer_Physical_Order=3*
G04 Layer_Color=128*
%FSLAX25Y25*%
%MOIN*%
G70*
G04*
G04 #@! TF.SameCoordinates,3D69C69A-2BEB-43E9-B881-948C697E0A66*
G04*
G04*
G04 #@! TF.FilePolarity,Negative*
G04*
G01*
G75*
%ADD19C,0.01500*%
%ADD80C,0.04000*%
%ADD81C,0.10693*%
%ADD82C,0.07937*%
%ADD83C,0.06800*%
%ADD84C,0.07071*%
%ADD85C,0.05200*%
%ADD86C,0.06000*%
%ADD87C,0.16600*%
D19*
X245000Y220500D02*
G03*
X240000Y225500I-5000J0D01*
G01*
X245000Y100000D02*
Y220500D01*
X100000Y225500D02*
X240000D01*
D80*
X100000Y100000D02*
Y296500D01*
X296500D01*
Y100000D02*
Y296500D01*
X100000Y100000D02*
X296500D01*
D81*
X145311Y245130D02*
D03*
X164996D02*
D03*
D82*
X176807Y284500D02*
D03*
X133500D02*
D03*
D83*
X117500Y248500D02*
D03*
Y238500D02*
D03*
X117000Y155000D02*
D03*
Y150000D02*
D03*
X117500Y228500D02*
D03*
X117000Y165000D02*
D03*
X117500Y243500D02*
D03*
X117000Y160000D02*
D03*
X112500Y238500D02*
D03*
Y228500D02*
D03*
Y243500D02*
D03*
X112000Y160000D02*
D03*
Y145000D02*
D03*
Y155000D02*
D03*
X112500Y248500D02*
D03*
X112000Y150000D02*
D03*
X117000Y145000D02*
D03*
X112500Y233500D02*
D03*
X117500D02*
D03*
D84*
X192500Y256000D02*
D03*
Y241433D02*
D03*
D85*
X241500Y158500D02*
D03*
X216500Y169763D02*
D03*
X222500Y169825D02*
D03*
X227500Y170000D02*
D03*
X217000Y165000D02*
D03*
X214500Y154500D02*
D03*
X227000Y155500D02*
D03*
X232000Y156000D02*
D03*
X222500Y157000D02*
D03*
X237000Y164500D02*
D03*
X234518Y172018D02*
D03*
X236000Y128500D02*
D03*
X239000Y156000D02*
D03*
X237000Y151500D02*
D03*
X218000Y235500D02*
D03*
X216000D02*
D03*
X214000D02*
D03*
X222000D02*
D03*
X220000D02*
D03*
X212000D02*
D03*
X216000Y233000D02*
D03*
X214000D02*
D03*
X212000D02*
D03*
X222000D02*
D03*
X220000D02*
D03*
X218000D02*
D03*
X216500Y193000D02*
D03*
X203000Y113000D02*
D03*
X197000Y112500D02*
D03*
X183500Y106000D02*
D03*
X198000D02*
D03*
X207500Y171000D02*
D03*
X205500Y178500D02*
D03*
X195500Y186000D02*
D03*
X127000Y180500D02*
D03*
X152000Y155500D02*
D03*
X180500Y208000D02*
D03*
X186000Y200500D02*
D03*
X182000Y228500D02*
D03*
X206000Y188500D02*
D03*
X194500Y190500D02*
D03*
X176500Y125000D02*
D03*
X181000Y112500D02*
D03*
X214500Y137000D02*
D03*
X179500Y172000D02*
D03*
X174500D02*
D03*
X143500Y117500D02*
D03*
X213500Y194500D02*
D03*
X195000D02*
D03*
X220000Y137000D02*
D03*
X174000Y128000D02*
D03*
X147000Y159500D02*
D03*
X149500Y192500D02*
D03*
X205500Y129000D02*
D03*
X197500Y192500D02*
D03*
X210500D02*
D03*
X235000Y184500D02*
D03*
X133000Y205000D02*
D03*
X148000Y223500D02*
D03*
X203000Y199000D02*
D03*
X244500Y186000D02*
D03*
X217000Y196500D02*
D03*
X221000Y197000D02*
D03*
X225000Y195500D02*
D03*
X223000Y194500D02*
D03*
X247000Y114000D02*
D03*
X246000Y223000D02*
D03*
X212000Y102500D02*
D03*
X202500Y144500D02*
D03*
X188500Y156000D02*
D03*
X224500Y184500D02*
D03*
Y182500D02*
D03*
Y180500D02*
D03*
Y178500D02*
D03*
X214500D02*
D03*
Y180500D02*
D03*
Y182500D02*
D03*
Y184500D02*
D03*
X171000Y151500D02*
D03*
X138000Y116500D02*
D03*
X135500Y155500D02*
D03*
X132000Y139000D02*
D03*
X109500Y181500D02*
D03*
X140500Y189500D02*
D03*
X154000Y138500D02*
D03*
X198000Y219000D02*
D03*
X192500D02*
D03*
X170000Y227500D02*
D03*
X214500Y293000D02*
D03*
X160500Y110500D02*
D03*
X183500Y152500D02*
D03*
X193500Y171500D02*
D03*
X249000Y127500D02*
D03*
X227500Y117000D02*
D03*
X240947Y177840D02*
D03*
X268000Y226000D02*
D03*
Y229500D02*
D03*
X265500Y226000D02*
D03*
Y229500D02*
D03*
X263000Y226000D02*
D03*
Y229500D02*
D03*
Y233000D02*
D03*
X268000D02*
D03*
X265500D02*
D03*
X283000Y226000D02*
D03*
Y229500D02*
D03*
Y233000D02*
D03*
X280500D02*
D03*
Y229500D02*
D03*
Y226000D02*
D03*
X278000D02*
D03*
Y229500D02*
D03*
Y233000D02*
D03*
X247000Y118500D02*
D03*
X232500Y213000D02*
D03*
X249000Y134500D02*
D03*
X184000Y130500D02*
D03*
X238500Y197000D02*
D03*
X244000Y163000D02*
D03*
X257000Y103000D02*
D03*
X243500Y103500D02*
D03*
X194500Y144000D02*
D03*
X193500Y119500D02*
D03*
X202000Y119000D02*
D03*
X174000Y114500D02*
D03*
X199500Y109500D02*
D03*
X210000Y124000D02*
D03*
X229500Y114000D02*
D03*
X216500Y124500D02*
D03*
X232000Y110500D02*
D03*
X223000Y128500D02*
D03*
X222000Y230500D02*
D03*
X212000D02*
D03*
X216000D02*
D03*
X214000D02*
D03*
X220000D02*
D03*
X218000D02*
D03*
X197500Y159000D02*
D03*
X246700Y171000D02*
D03*
Y176000D02*
D03*
Y181000D02*
D03*
X283500Y196500D02*
D03*
X287500D02*
D03*
X291500D02*
D03*
Y193000D02*
D03*
X287500D02*
D03*
X283500D02*
D03*
Y207500D02*
D03*
X287500D02*
D03*
X291500D02*
D03*
Y211000D02*
D03*
X287500D02*
D03*
X283500D02*
D03*
Y167750D02*
D03*
X287500D02*
D03*
X291500D02*
D03*
Y164250D02*
D03*
X287500D02*
D03*
X283500D02*
D03*
Y178750D02*
D03*
X287500D02*
D03*
X291500D02*
D03*
Y182250D02*
D03*
X287500D02*
D03*
X283500D02*
D03*
Y155000D02*
D03*
X287500D02*
D03*
X291500D02*
D03*
Y151500D02*
D03*
X287500D02*
D03*
X283500D02*
D03*
Y137000D02*
D03*
X287500D02*
D03*
X291500D02*
D03*
Y140500D02*
D03*
X287500D02*
D03*
X283500D02*
D03*
X280500Y163000D02*
D03*
X281500Y190500D02*
D03*
X244500Y191000D02*
D03*
D86*
X243000Y268500D02*
D03*
X217000Y264500D02*
D03*
X216975Y258025D02*
D03*
X217000Y252500D02*
D03*
X262000Y271500D02*
D03*
X256500D02*
D03*
X251000D02*
D03*
X243500Y289500D02*
D03*
X244000Y276000D02*
D03*
X245000Y248500D02*
D03*
D87*
X281000Y281000D02*
D03*
X115500D02*
D03*
X281000Y115500D02*
D03*
X115500D02*
D03*
M02*
