G04*
G04 #@! TF.GenerationSoftware,Altium Limited,Altium Designer,25.5.2 (35)*
G04*
G04 Layer_Color=16711935*
%FSLAX25Y25*%
%MOIN*%
G70*
G04*
G04 #@! TF.SameCoordinates,3D69C69A-2BEB-43E9-B881-948C697E0A66*
G04*
G04*
G04 #@! TF.FilePolarity,Positive*
G04*
G01*
G75*
%ADD10C,0.00787*%
%ADD16C,0.00500*%
%ADD17C,0.00591*%
%ADD92C,0.00000*%
%ADD93C,0.00100*%
D10*
X238394Y110500D02*
G03*
X238394Y110500I-394J0D01*
G01*
X221394D02*
G03*
X221394Y110500I-394J0D01*
G01*
X217933Y270114D02*
Y296886D01*
Y270114D02*
X247067D01*
Y296886D01*
X217933D02*
X247067D01*
X129642Y136142D02*
X147358D01*
Y153858D01*
X129642D02*
X147358D01*
X129642Y136142D02*
Y153858D01*
X121882Y202496D02*
X132118D01*
X121882Y189504D02*
Y202496D01*
Y189504D02*
X132118D01*
Y202496D01*
D16*
X243007Y261277D02*
G03*
X243007Y260105I0J-586D01*
G01*
D02*
G03*
X243007Y261277I0J586D01*
G01*
X218008Y159457D02*
Y166543D01*
X213992Y159457D02*
Y166543D01*
X218008D01*
X213992Y159457D02*
X218008D01*
X143342Y236272D02*
X147280D01*
X145311Y234303D02*
Y238240D01*
X163028Y236272D02*
X166965D01*
X135665Y260681D02*
X174642D01*
X135665D02*
Y279579D01*
X128972D02*
X135665D01*
X128972D02*
Y289421D01*
X135665D01*
Y296114D01*
X174642D01*
Y289421D02*
Y296114D01*
Y289421D02*
X181335D01*
Y279579D02*
Y289421D01*
X174642Y279579D02*
X181335D01*
X174642Y260681D02*
Y279579D01*
X234850Y109201D02*
X241150D01*
Y121799D01*
X234850D02*
X241150D01*
X234850Y109201D02*
Y121799D01*
X217850Y109201D02*
Y121799D01*
X224150D01*
Y109201D02*
Y121799D01*
X217850Y109201D02*
X224150D01*
X245992Y253957D02*
X250008D01*
X245992Y261043D02*
X250008D01*
X245992Y253957D02*
Y261043D01*
X250008Y253957D02*
Y261043D01*
X103563Y210508D02*
X110650D01*
X103563Y206492D02*
X110650D01*
X103563D02*
Y210508D01*
X110650Y206492D02*
Y210508D01*
X230492Y159457D02*
X234508D01*
X230492Y166543D02*
X234508D01*
X230492Y159457D02*
Y166543D01*
X234508Y159457D02*
Y166543D01*
X236543Y137492D02*
Y141508D01*
X229457Y137492D02*
Y141508D01*
Y137492D02*
X236543D01*
X229457Y141508D02*
X236543D01*
X241437Y229992D02*
Y234008D01*
X234350Y229992D02*
Y234008D01*
Y229992D02*
X241437D01*
X234350Y234008D02*
X241437D01*
X234350Y224492D02*
Y228508D01*
X241437Y224492D02*
Y228508D01*
X234350D02*
X241437D01*
X234350Y224492D02*
X241437D01*
X241331Y217992D02*
Y222008D01*
X234244Y217992D02*
Y222008D01*
Y217992D02*
X241331D01*
X234244Y222008D02*
X241331D01*
X234350Y212492D02*
Y216508D01*
X241437Y212492D02*
Y216508D01*
X234350D02*
X241437D01*
X234350Y212492D02*
X241437D01*
X258850Y103492D02*
Y107508D01*
X265937Y103492D02*
Y107508D01*
X258850D02*
X265937D01*
X258850Y103492D02*
X265937D01*
Y108992D02*
Y113008D01*
X258850Y108992D02*
Y113008D01*
Y108992D02*
X265937D01*
X258850Y113008D02*
X265937D01*
X258850Y116492D02*
Y120508D01*
X265937Y116492D02*
Y120508D01*
X258850D02*
X265937D01*
X258850Y116492D02*
X265937D01*
Y121992D02*
Y126008D01*
X258850Y121992D02*
Y126008D01*
Y121992D02*
X265937D01*
X258850Y126008D02*
X265937D01*
X197492Y160457D02*
X201508D01*
X197492Y167543D02*
X201508D01*
X197492Y160457D02*
Y167543D01*
X201508Y160457D02*
Y167543D01*
X202992D02*
X207008D01*
X202992Y160457D02*
X207008D01*
Y167543D01*
X202992Y160457D02*
Y167543D01*
X208492Y160457D02*
X212508D01*
X208492Y167543D02*
X212508D01*
X208492Y160457D02*
Y167543D01*
X212508Y160457D02*
Y167543D01*
X219492Y159457D02*
Y166543D01*
X223508Y159457D02*
Y166543D01*
X219492Y159457D02*
X223508D01*
X219492Y166543D02*
X223508D01*
X224992Y159457D02*
Y166543D01*
X229008Y159457D02*
Y166543D01*
X224992Y159457D02*
X229008D01*
X224992Y166543D02*
X229008D01*
X195957Y139492D02*
X203043D01*
X195957Y143508D02*
X203043D01*
Y139492D02*
Y143508D01*
X195957Y139492D02*
Y143508D01*
X203043Y132492D02*
Y136508D01*
X195957Y132492D02*
Y136508D01*
Y132492D02*
X203043D01*
X195957Y136508D02*
X203043D01*
X238457Y125492D02*
Y129508D01*
X245543Y125492D02*
Y129508D01*
X238457D02*
X245543D01*
X238457Y125492D02*
X245543D01*
X205457Y110492D02*
X212543D01*
X205457Y114508D02*
X212543D01*
Y110492D02*
Y114508D01*
X205457Y110492D02*
Y114508D01*
Y116992D02*
X212543D01*
X205457Y121008D02*
X212543D01*
Y116992D02*
Y121008D01*
X205457Y116992D02*
Y121008D01*
X222008Y125957D02*
Y133043D01*
X217992Y125957D02*
Y133043D01*
X222008D01*
X217992Y125957D02*
X222008D01*
X216508D02*
Y133043D01*
X212492Y125957D02*
Y133043D01*
X216508D01*
X212492Y125957D02*
X216508D01*
X211008D02*
Y133043D01*
X206992Y125957D02*
Y133043D01*
X211008D01*
X206992Y125957D02*
X211008D01*
X162508Y113063D02*
Y120150D01*
X158492Y113063D02*
Y120150D01*
X162508D01*
X158492Y113063D02*
X162508D01*
X245543Y130992D02*
Y135008D01*
X238457Y130992D02*
Y135008D01*
Y130992D02*
X245543D01*
X238457Y135008D02*
X245543D01*
X229457Y142992D02*
Y147008D01*
X236543Y142992D02*
Y147008D01*
X229457D02*
X236543D01*
X229457Y142992D02*
X236543D01*
X205457Y103992D02*
X212543D01*
X205457Y108008D02*
X212543D01*
Y103992D02*
Y108008D01*
X205457Y103992D02*
Y108008D01*
X164992Y227543D02*
X169008D01*
X164992Y220457D02*
X169008D01*
Y227543D01*
X164992Y220457D02*
Y227543D01*
X167992Y153457D02*
X172008D01*
X167992Y160543D02*
X172008D01*
X167992Y153457D02*
Y160543D01*
X172008Y153457D02*
Y160543D01*
X153008Y137957D02*
Y145043D01*
X148992Y137957D02*
Y145043D01*
X153008D01*
X148992Y137957D02*
X153008D01*
X140492Y208957D02*
X144508D01*
X140492Y216043D02*
X144508D01*
X140492Y208957D02*
Y216043D01*
X144508Y208957D02*
Y216043D01*
X135992Y114043D02*
X140008D01*
X135992Y106957D02*
X140008D01*
Y114043D01*
X135992Y106957D02*
Y114043D01*
X107492Y183957D02*
X111508D01*
X107492Y191043D02*
X111508D01*
X107492Y183957D02*
Y191043D01*
X111508Y183957D02*
Y191043D01*
X195457Y169992D02*
Y174008D01*
X202543Y169992D02*
Y174008D01*
X195457D02*
X202543D01*
X195457Y169992D02*
X202543D01*
X194957Y175492D02*
Y179508D01*
X202043Y175492D02*
Y179508D01*
X194957D02*
X202043D01*
X194957Y175492D02*
X202043D01*
X242008Y184957D02*
Y192043D01*
X237992Y184957D02*
Y192043D01*
X242008D01*
X237992Y184957D02*
X242008D01*
X241008Y172957D02*
Y180043D01*
X236992Y172957D02*
Y180043D01*
X241008D01*
X236992Y172957D02*
X241008D01*
X173992Y153563D02*
Y160650D01*
X178008Y153563D02*
Y160650D01*
X173992Y153563D02*
X178008D01*
X173992Y160650D02*
X178008D01*
X163508Y220350D02*
Y227437D01*
X159492Y220350D02*
Y227437D01*
X163508D01*
X159492Y220350D02*
X163508D01*
X128492Y173957D02*
Y181043D01*
X132508Y173957D02*
Y181043D01*
X128492Y173957D02*
X132508D01*
X128492Y181043D02*
X132508D01*
X133992Y175957D02*
Y183043D01*
X138008Y175957D02*
Y183043D01*
X133992Y175957D02*
X138008D01*
X133992Y183043D02*
X138008D01*
X151957Y157992D02*
X159043D01*
X151957Y162008D02*
X159043D01*
Y157992D02*
Y162008D01*
X151957Y157992D02*
Y162008D01*
X145992Y212457D02*
Y219543D01*
X150008Y212457D02*
Y219543D01*
X145992Y212457D02*
X150008D01*
X145992Y219543D02*
X150008D01*
X135492Y186957D02*
Y194043D01*
X139508Y186957D02*
Y194043D01*
X135492Y186957D02*
X139508D01*
X135492Y194043D02*
X139508D01*
Y197457D02*
Y204543D01*
X135492Y197457D02*
Y204543D01*
X139508D01*
X135492Y197457D02*
X139508D01*
X196457Y204508D02*
X203543D01*
X196457Y200492D02*
X203543D01*
X196457D02*
Y204508D01*
X203543Y200492D02*
Y204508D01*
X196492Y207957D02*
Y215043D01*
X200508Y207957D02*
Y215043D01*
X196492Y207957D02*
X200508D01*
X196492Y215043D02*
X200508D01*
X189508Y159957D02*
Y167043D01*
X185492Y159957D02*
Y167043D01*
X189508D01*
X185492Y159957D02*
X189508D01*
X183508Y153457D02*
Y160543D01*
X179492Y153457D02*
Y160543D01*
X183508D01*
X179492Y153457D02*
X183508D01*
X190492Y207957D02*
Y215043D01*
X194508Y207957D02*
Y215043D01*
X190492Y207957D02*
X194508D01*
X190492Y215043D02*
X194508D01*
X264008Y274457D02*
Y281543D01*
X259992Y274457D02*
Y281543D01*
X264008D01*
X259992Y274457D02*
X264008D01*
X258508D02*
Y281543D01*
X254492Y274457D02*
Y281543D01*
X258508D01*
X254492Y274457D02*
X258508D01*
X253008D02*
Y281543D01*
X248992Y274457D02*
Y281543D01*
X253008D01*
X248992Y274457D02*
X253008D01*
X235957Y242992D02*
Y247008D01*
X243043Y242992D02*
Y247008D01*
X235957D02*
X243043D01*
X235957Y242992D02*
X243043D01*
X225457D02*
Y247008D01*
X232543Y242992D02*
Y247008D01*
X225457D02*
X232543D01*
X225457Y242992D02*
X232543D01*
X236106Y254584D02*
Y255471D01*
X234531Y253368D02*
X236106D01*
Y254099D02*
Y254463D01*
X234531Y253368D02*
Y254099D01*
X236106Y254463D02*
Y254584D01*
Y253368D02*
Y254099D01*
X234531Y254463D02*
Y254584D01*
Y255471D01*
Y254099D02*
Y254463D01*
X236106Y255471D02*
Y255871D01*
X234531Y255471D02*
Y255871D01*
X239846Y254584D02*
Y255471D01*
X238272Y253368D02*
X239846D01*
Y254099D02*
Y254463D01*
X238272Y253368D02*
Y254099D01*
X239846Y254463D02*
Y254584D01*
Y253368D02*
Y254099D01*
X238272Y254463D02*
Y254584D01*
Y255471D01*
Y254099D02*
Y254463D01*
X239846Y255471D02*
Y255871D01*
X238272Y255471D02*
Y255871D01*
X243587Y254584D02*
Y255471D01*
X242012Y253368D02*
X243587D01*
Y254099D02*
Y254463D01*
X242012Y253368D02*
Y254099D01*
X243587Y254463D02*
Y254584D01*
Y253368D02*
Y254099D01*
X242012Y254463D02*
Y254584D01*
Y255471D01*
Y254099D02*
Y254463D01*
X243587Y255471D02*
Y255871D01*
X242012Y255471D02*
Y255871D01*
X234531Y262555D02*
Y263442D01*
Y264658D02*
X236106D01*
X234531Y263563D02*
Y263926D01*
X236106D02*
Y264658D01*
X234531Y263442D02*
Y263563D01*
Y263926D02*
Y264658D01*
X236106Y263442D02*
Y263563D01*
Y262555D02*
Y263442D01*
Y263563D02*
Y263926D01*
X234531Y262155D02*
Y262555D01*
X236106Y262155D02*
Y262555D01*
X238272D02*
Y263442D01*
Y264658D02*
X239846D01*
X238272Y263563D02*
Y263926D01*
X239846D02*
Y264658D01*
X238272Y263442D02*
Y263563D01*
Y263926D02*
Y264658D01*
X239846Y263442D02*
Y263563D01*
Y262555D02*
Y263442D01*
Y263563D02*
Y263926D01*
X238272Y262155D02*
Y262555D01*
X239846Y262155D02*
Y262555D01*
X242012D02*
Y263442D01*
Y264658D02*
X243587D01*
X242012Y263563D02*
Y263926D01*
X243587D02*
Y264658D01*
X242012Y263442D02*
Y263563D01*
Y263926D02*
Y264658D01*
X243587Y263442D02*
Y263563D01*
Y262555D02*
Y263442D01*
Y263563D02*
Y263926D01*
X242012Y262155D02*
Y262555D01*
X243587Y262155D02*
Y262555D01*
X233506Y262261D02*
X233521D01*
X244905Y261953D02*
Y261968D01*
X233213Y261953D02*
Y261968D01*
X244597Y255765D02*
X244612D01*
X244905Y256058D02*
Y256073D01*
X233213Y256058D02*
Y256073D01*
X233506Y255765D02*
X233521D01*
X243587Y262261D02*
X244597D01*
X239846D02*
X242012D01*
X236106D02*
X238272D01*
X233521D02*
X234531D01*
X244905Y256073D02*
Y261953D01*
X244597Y262261D02*
X244612D01*
X233213Y256073D02*
Y261953D01*
X243587Y255765D02*
X244597D01*
X239846D02*
X242012D01*
X236106D02*
X238272D01*
X233521D02*
X234531D01*
X219957Y262492D02*
X227043D01*
X219957Y266508D02*
X227043D01*
Y262492D02*
Y266508D01*
X219957Y262492D02*
Y266508D01*
Y256492D02*
X227043D01*
X219957Y260508D02*
X227043D01*
Y256492D02*
Y260508D01*
X219957Y256492D02*
Y260508D01*
Y250492D02*
X227043D01*
X219957Y254508D02*
X227043D01*
Y250492D02*
Y254508D01*
X219957Y250492D02*
Y254508D01*
X209992Y291543D02*
X214008D01*
X209992Y284457D02*
X214008D01*
Y291543D01*
X209992Y284457D02*
Y291543D01*
D17*
X209658Y173626D02*
Y189374D01*
X229343D01*
Y173626D02*
Y189374D01*
X209658Y173626D02*
X229343D01*
D92*
X150150Y204437D02*
G03*
X150150Y204437I-300J0D01*
G01*
D93*
X265300Y211850D02*
G03*
X267700Y211850I1200J0D01*
G01*
X264800Y183350D02*
G03*
X267200Y183350I1200J0D01*
G01*
X265300Y155850D02*
G03*
X267700Y155850I1200J0D01*
G01*
X147938Y204373D02*
X152938Y209373D01*
X147938Y169973D02*
X187338D01*
Y209373D01*
X147938D02*
X187338D01*
X147938Y169973D02*
Y209373D01*
X279500Y257800D02*
Y260800D01*
X278000Y259300D02*
X281000D01*
X283325Y261500D02*
X293650Y251175D01*
X252350D02*
X262675Y261500D01*
X252350Y220200D02*
Y261500D01*
Y220200D02*
X293650D01*
Y261500D01*
X252350D02*
X293650D01*
X255100Y192150D02*
Y211850D01*
X277900D01*
Y192150D02*
Y211850D01*
X255100Y192150D02*
X277900D01*
X104650Y129000D02*
Y181000D01*
Y129000D02*
X124350D01*
Y181000D01*
X104650D02*
X124350D01*
X254600Y163650D02*
Y183350D01*
X277400D01*
Y163650D02*
Y183350D01*
X254600Y163650D02*
X277400D01*
X105150Y212500D02*
Y264500D01*
Y212500D02*
X124850D01*
Y264500D01*
X105150D02*
X124850D01*
X255100Y136150D02*
Y155850D01*
X277900D01*
Y136150D02*
Y155850D01*
X255100Y136150D02*
X277900D01*
M02*
