G04*
G04 #@! TF.GenerationSoftware,Altium Limited,Altium Designer,25.5.2 (35)*
G04*
G04 Layer_Physical_Order=4*
G04 Layer_Color=16711680*
%FSLAX25Y25*%
%MOIN*%
G70*
G04*
G04 #@! TF.SameCoordinates,3D69C69A-2BEB-43E9-B881-948C697E0A66*
G04*
G04*
G04 #@! TF.FilePolarity,Positive*
G04*
G01*
G75*
%ADD14C,0.02000*%
%ADD19C,0.01500*%
%ADD22C,0.01200*%
%ADD34R,0.03150X0.03937*%
%ADD42R,0.04000X0.01800*%
%ADD62C,0.04600*%
%ADD68C,0.00800*%
%ADD71R,0.00500X0.00500*%
%ADD72R,0.10039X0.10039*%
%ADD73C,0.05937*%
%ADD74C,0.10039*%
%ADD75R,0.05264X0.05264*%
%ADD76C,0.05264*%
%ADD77C,0.02000*%
%ADD78C,0.03000*%
%ADD79C,0.24000*%
%ADD88R,0.10512X0.04213*%
%ADD89C,0.03000*%
G36*
X194896Y263250D02*
X196079Y262760D01*
X197143Y262049D01*
X198049Y261143D01*
X198760Y260079D01*
X199250Y258896D01*
X199500Y257640D01*
Y257000D01*
Y242500D01*
Y241860D01*
X199250Y240604D01*
X198760Y239421D01*
X198049Y238356D01*
X197143Y237451D01*
X196079Y236740D01*
X194896Y236250D01*
X193640Y236000D01*
X142409D01*
X141250Y236231D01*
X140158Y236683D01*
X139175Y237339D01*
X138339Y238175D01*
X137683Y239158D01*
X137231Y240250D01*
X137000Y241409D01*
Y242000D01*
Y253500D01*
Y254485D01*
X137384Y256417D01*
X138138Y258237D01*
X139233Y259875D01*
X140625Y261267D01*
X142263Y262362D01*
X144083Y263116D01*
X146015Y263500D01*
X193640D01*
X194896Y263250D01*
D02*
G37*
G36*
X223133Y238195D02*
X223695Y237633D01*
X224000Y236898D01*
Y236500D01*
Y225000D01*
Y224557D01*
X223827Y223687D01*
X223488Y222868D01*
X222995Y222131D01*
X222369Y221505D01*
X221632Y221012D01*
X220813Y220673D01*
X219943Y220500D01*
X213106D01*
X212333Y220654D01*
X211605Y220955D01*
X210950Y221393D01*
X210393Y221950D01*
X209955Y222605D01*
X209654Y223333D01*
X209500Y224106D01*
Y224500D01*
Y236000D01*
Y236497D01*
X209881Y237416D01*
X210584Y238119D01*
X211503Y238500D01*
X222398D01*
X223133Y238195D01*
D02*
G37*
G36*
X292313Y215077D02*
X293131Y214738D01*
X293869Y214245D01*
X293987Y214127D01*
Y190368D01*
X293658Y190148D01*
X293021Y189884D01*
X292345Y189750D01*
X283052D01*
X282834Y190077D01*
X282894Y190223D01*
Y190777D01*
X282681Y191289D01*
X282290Y191682D01*
X282080Y191768D01*
Y192030D01*
X282018Y192339D01*
X281843Y192602D01*
X281843Y192602D01*
X280094Y194351D01*
Y195794D01*
X275306D01*
X275000Y196005D01*
Y211644D01*
X275154Y212417D01*
X275455Y213145D01*
X275893Y213800D01*
X276450Y214357D01*
X277105Y214795D01*
X277833Y215096D01*
X278606Y215250D01*
X291443D01*
X292313Y215077D01*
D02*
G37*
G36*
X269042Y218231D02*
X270316Y217703D01*
X271462Y216937D01*
X272437Y215962D01*
X273203Y214816D01*
X273731Y213542D01*
X274000Y212189D01*
Y211500D01*
Y141000D01*
Y140261D01*
X273712Y138812D01*
X273146Y137447D01*
X272326Y136219D01*
X271281Y135174D01*
X270053Y134354D01*
X268688Y133788D01*
X267239Y133500D01*
X250485D01*
X250257Y133894D01*
X250394Y134223D01*
Y134777D01*
X250182Y135290D01*
X249790Y135681D01*
X249277Y135894D01*
X248723D01*
X248211Y135681D01*
X247818Y135290D01*
X247606Y134777D01*
Y134301D01*
X247407Y134102D01*
X247266Y134016D01*
X245763Y134638D01*
X244125Y135732D01*
X242733Y137125D01*
X241638Y138763D01*
X240884Y140583D01*
X240500Y142515D01*
Y143500D01*
Y157012D01*
X240504Y157017D01*
X240728Y157183D01*
X240894Y157229D01*
X240956Y157187D01*
X241093Y157160D01*
X241223Y157106D01*
X241363D01*
X241500Y157079D01*
X241637Y157106D01*
X241777D01*
X241907Y157160D01*
X242044Y157187D01*
X242160Y157265D01*
X242289Y157318D01*
X242389Y157418D01*
X242505Y157495D01*
X242583Y157612D01*
X242682Y157711D01*
X242735Y157840D01*
X242813Y157956D01*
X242840Y158094D01*
X242894Y158223D01*
Y158363D01*
X242921Y158500D01*
X242894Y158637D01*
Y158777D01*
X242840Y158906D01*
X242813Y159044D01*
X242735Y159160D01*
X242682Y159290D01*
X242583Y159388D01*
X242505Y159505D01*
X240500Y161510D01*
Y171091D01*
X240864Y171242D01*
X243191Y168915D01*
Y164162D01*
X242818Y163789D01*
X242606Y163277D01*
Y162723D01*
X242818Y162211D01*
X243211Y161819D01*
X243723Y161606D01*
X244277D01*
X244790Y161819D01*
X245181Y162211D01*
X245394Y162723D01*
Y163277D01*
X245181Y163789D01*
X244809Y164162D01*
Y169250D01*
X244748Y169560D01*
X244572Y169822D01*
X244572Y169822D01*
X240500Y173894D01*
Y176333D01*
X240670Y176447D01*
X241224D01*
X241736Y176659D01*
X242128Y177051D01*
X242341Y177563D01*
Y177801D01*
X244992Y180453D01*
X245456Y180360D01*
X245518Y180210D01*
X245911Y179818D01*
X246423Y179606D01*
X246977D01*
X247490Y179818D01*
X247850Y180179D01*
X248211Y179818D01*
X248723Y179606D01*
X249277D01*
X249790Y179818D01*
X250150Y180179D01*
X250511Y179818D01*
X251023Y179606D01*
X251577D01*
X252090Y179818D01*
X252482Y180210D01*
X252694Y180723D01*
Y181277D01*
X252482Y181790D01*
X252090Y182182D01*
X251577Y182394D01*
X251023D01*
X250511Y182182D01*
X250150Y181821D01*
X249790Y182182D01*
X249277Y182394D01*
X248723D01*
X248211Y182182D01*
X247850Y181821D01*
X247490Y182182D01*
X246977Y182394D01*
X246423D01*
X245911Y182182D01*
X245907Y182178D01*
X245513Y182341D01*
Y185042D01*
X245682Y185211D01*
X245894Y185723D01*
Y186277D01*
X245682Y186790D01*
X245289Y187181D01*
X244777Y187394D01*
X244223D01*
X243710Y187181D01*
X243319Y186790D01*
X243106Y186277D01*
Y185723D01*
X243319Y185211D01*
X243487Y185042D01*
Y181813D01*
X241027Y179353D01*
X240585Y179406D01*
X240496Y179588D01*
X240452Y180480D01*
X240069Y182403D01*
X239319Y184214D01*
X238230Y185844D01*
X236844Y187230D01*
X235214Y188319D01*
X233403Y189069D01*
X231480Y189452D01*
X230500Y189500D01*
X219231D01*
Y194811D01*
X219231Y194811D01*
X219170Y195121D01*
X218994Y195383D01*
X218994Y195383D01*
X218324Y196054D01*
X218394Y196223D01*
Y196777D01*
X218181Y197290D01*
X217790Y197681D01*
X217277Y197894D01*
X216723D01*
X216211Y197681D01*
X215819Y197290D01*
X215606Y196777D01*
Y196223D01*
X215819Y195711D01*
X216211Y195318D01*
X216723Y195106D01*
X216982D01*
X217384Y194704D01*
X217359Y194579D01*
X216910Y194339D01*
X216777Y194394D01*
X216223D01*
X215710Y194182D01*
X215318Y193790D01*
X215106Y193277D01*
Y192723D01*
X215318Y192210D01*
X215710Y191818D01*
X216223Y191606D01*
X216777D01*
X217219Y191789D01*
X217613Y191628D01*
Y189500D01*
X214515D01*
X212583Y189884D01*
X210763Y190638D01*
X210652Y190713D01*
X210771Y191106D01*
X210777D01*
X211290Y191319D01*
X211682Y191710D01*
X211894Y192223D01*
Y192777D01*
X211682Y193289D01*
X211674Y193297D01*
X211837Y193691D01*
X212338D01*
X212710Y193318D01*
X213223Y193106D01*
X213777D01*
X214289Y193318D01*
X214682Y193710D01*
X214894Y194223D01*
Y194777D01*
X214682Y195290D01*
X214289Y195682D01*
X213777Y195894D01*
X213223D01*
X212710Y195682D01*
X212338Y195309D01*
X206412D01*
X205884Y196583D01*
X205500Y198515D01*
Y199500D01*
Y208500D01*
Y209485D01*
X205884Y211417D01*
X206638Y213237D01*
X207733Y214875D01*
X209125Y216267D01*
X210763Y217362D01*
X212583Y218116D01*
X214515Y218500D01*
X267689D01*
X269042Y218231D01*
D02*
G37*
G36*
X291813Y186077D02*
X292632Y185738D01*
X293369Y185245D01*
X293987Y184627D01*
Y161787D01*
X293731Y161531D01*
X293158Y161148D01*
X292521Y160884D01*
X291845Y160750D01*
X278106D01*
X277333Y160904D01*
X276605Y161205D01*
X275950Y161643D01*
X275393Y162200D01*
X274955Y162855D01*
X274654Y163583D01*
X274500Y164356D01*
Y164495D01*
X274806Y164706D01*
X274876Y164706D01*
X278449D01*
X279342Y163813D01*
X279318Y163789D01*
X279106Y163277D01*
Y162723D01*
X279318Y162211D01*
X279711Y161819D01*
X280223Y161606D01*
X280777D01*
X281290Y161819D01*
X281681Y162211D01*
X281894Y162723D01*
Y163277D01*
X281681Y163789D01*
X281290Y164181D01*
X281028Y164290D01*
X281018Y164339D01*
X280843Y164602D01*
X280843Y164602D01*
X279594Y165851D01*
Y167294D01*
X274894D01*
X274806Y167294D01*
X274500Y167505D01*
Y182644D01*
X274654Y183417D01*
X274955Y184145D01*
X275393Y184800D01*
X275950Y185357D01*
X276605Y185795D01*
X277333Y186096D01*
X278106Y186250D01*
X290943D01*
X291813Y186077D01*
D02*
G37*
G36*
X292313Y159077D02*
X293131Y158738D01*
X293869Y158245D01*
X293987Y158127D01*
Y134368D01*
X293658Y134148D01*
X293021Y133885D01*
X292345Y133750D01*
X278606D01*
X277833Y133904D01*
X277105Y134205D01*
X276450Y134643D01*
X275893Y135200D01*
X275753Y135409D01*
X276774Y136429D01*
X276949Y136692D01*
X277011Y137002D01*
X277311Y137206D01*
X280094D01*
Y139794D01*
X275306D01*
X275000Y140005D01*
Y155644D01*
X275154Y156417D01*
X275455Y157145D01*
X275893Y157800D01*
X276450Y158357D01*
X277105Y158795D01*
X277833Y159096D01*
X278606Y159250D01*
X291443D01*
X292313Y159077D01*
D02*
G37*
%LPC*%
G36*
X165709Y250543D02*
X164283D01*
X162907Y250174D01*
X161672Y249462D01*
X160664Y248454D01*
X159952Y247219D01*
X159583Y245843D01*
Y244417D01*
X159952Y243040D01*
X160664Y241806D01*
X161672Y240798D01*
X162907Y240085D01*
X164283Y239717D01*
X165709D01*
X167086Y240085D01*
X168320Y240798D01*
X169328Y241806D01*
X170041Y243040D01*
X170409Y244417D01*
Y245843D01*
X170041Y247219D01*
X169328Y248454D01*
X168320Y249462D01*
X167086Y250174D01*
X165709Y250543D01*
D02*
G37*
G36*
X232777Y214394D02*
X232223D01*
X231711Y214181D01*
X231318Y213790D01*
X231106Y213277D01*
Y212723D01*
X231318Y212210D01*
X231711Y211819D01*
X232223Y211606D01*
X232777D01*
X233290Y211819D01*
X233682Y212210D01*
X233894Y212723D01*
Y213277D01*
X233682Y213790D01*
X233290Y214181D01*
X232777Y214394D01*
D02*
G37*
G36*
X252077Y210894D02*
X251523D01*
X251010Y210682D01*
X250650Y210321D01*
X250290Y210682D01*
X249777Y210894D01*
X249223D01*
X248710Y210682D01*
X248350Y210321D01*
X247990Y210682D01*
X247477Y210894D01*
X246923D01*
X246410Y210682D01*
X246019Y210290D01*
X245806Y209777D01*
Y209223D01*
X246019Y208711D01*
X246410Y208318D01*
X246923Y208106D01*
X247477D01*
X247990Y208318D01*
X248350Y208679D01*
X248710Y208318D01*
X249223Y208106D01*
X249777D01*
X250290Y208318D01*
X250650Y208679D01*
X251010Y208318D01*
X251523Y208106D01*
X252077D01*
X252590Y208318D01*
X252981Y208711D01*
X253194Y209223D01*
Y209777D01*
X252981Y210290D01*
X252590Y210682D01*
X252077Y210894D01*
D02*
G37*
G36*
Y205894D02*
X251523D01*
X251010Y205681D01*
X250650Y205321D01*
X250290Y205681D01*
X249777Y205894D01*
X249223D01*
X248710Y205681D01*
X248350Y205321D01*
X247990Y205681D01*
X247477Y205894D01*
X246923D01*
X246410Y205681D01*
X246019Y205290D01*
X245806Y204777D01*
Y204223D01*
X246019Y203711D01*
X246410Y203319D01*
X246923Y203106D01*
X247477D01*
X247990Y203319D01*
X248350Y203679D01*
X248710Y203319D01*
X249223Y203106D01*
X249777D01*
X250290Y203319D01*
X250650Y203679D01*
X251010Y203319D01*
X251523Y203106D01*
X252077D01*
X252590Y203319D01*
X252981Y203711D01*
X253194Y204223D01*
Y204777D01*
X252981Y205290D01*
X252590Y205681D01*
X252077Y205894D01*
D02*
G37*
G36*
Y200894D02*
X251523D01*
X251010Y200681D01*
X250650Y200321D01*
X250290Y200681D01*
X249777Y200894D01*
X249223D01*
X248710Y200681D01*
X248350Y200321D01*
X247990Y200681D01*
X247477Y200894D01*
X246923D01*
X246410Y200681D01*
X246019Y200290D01*
X245806Y199777D01*
Y199223D01*
X246019Y198711D01*
X246410Y198319D01*
X246923Y198106D01*
X247477D01*
X247990Y198319D01*
X248350Y198679D01*
X248710Y198319D01*
X249223Y198106D01*
X249777D01*
X250290Y198319D01*
X250650Y198679D01*
X251010Y198319D01*
X251523Y198106D01*
X252077D01*
X252590Y198319D01*
X252981Y198711D01*
X253194Y199223D01*
Y199777D01*
X252981Y200290D01*
X252590Y200681D01*
X252077Y200894D01*
D02*
G37*
G36*
X221277Y198394D02*
X220723D01*
X220211Y198181D01*
X219818Y197790D01*
X219606Y197277D01*
Y196723D01*
X219818Y196211D01*
X220211Y195818D01*
X220723Y195606D01*
X221277D01*
X221790Y195818D01*
X222182Y196211D01*
X222394Y196723D01*
Y197277D01*
X222182Y197790D01*
X221790Y198181D01*
X221277Y198394D01*
D02*
G37*
G36*
X238777D02*
X238223D01*
X237710Y198181D01*
X237318Y197790D01*
X237106Y197277D01*
Y196723D01*
X237318Y196211D01*
X237710Y195818D01*
X238223Y195606D01*
X238777D01*
X239289Y195818D01*
X239662Y196191D01*
X240665D01*
X243691Y193165D01*
Y192162D01*
X243319Y191789D01*
X243106Y191277D01*
Y190723D01*
X243319Y190210D01*
X243710Y189819D01*
X244223Y189606D01*
X244777D01*
X245289Y189819D01*
X245682Y190210D01*
X245894Y190723D01*
Y191277D01*
X245682Y191789D01*
X245309Y192162D01*
Y193500D01*
X245309Y193500D01*
X245248Y193810D01*
X245072Y194072D01*
X245072Y194072D01*
X241572Y197572D01*
X241310Y197748D01*
X241000Y197809D01*
X241000Y197809D01*
X239662D01*
X239289Y198181D01*
X238777Y198394D01*
D02*
G37*
G36*
X251577Y177394D02*
X251023D01*
X250511Y177181D01*
X250150Y176821D01*
X249790Y177181D01*
X249277Y177394D01*
X248723D01*
X248211Y177181D01*
X247850Y176821D01*
X247490Y177181D01*
X246977Y177394D01*
X246423D01*
X245911Y177181D01*
X245518Y176789D01*
X245306Y176277D01*
Y175723D01*
X245518Y175210D01*
X245911Y174819D01*
X246423Y174606D01*
X246977D01*
X247490Y174819D01*
X247850Y175179D01*
X248211Y174819D01*
X248723Y174606D01*
X249277D01*
X249790Y174819D01*
X250150Y175179D01*
X250511Y174819D01*
X251023Y174606D01*
X251577D01*
X252090Y174819D01*
X252482Y175210D01*
X252694Y175723D01*
Y176277D01*
X252482Y176789D01*
X252090Y177181D01*
X251577Y177394D01*
D02*
G37*
G36*
Y172394D02*
X251023D01*
X250511Y172181D01*
X250150Y171821D01*
X249790Y172181D01*
X249277Y172394D01*
X248723D01*
X248211Y172181D01*
X247850Y171821D01*
X247490Y172181D01*
X246977Y172394D01*
X246423D01*
X245911Y172181D01*
X245518Y171790D01*
X245306Y171277D01*
Y170723D01*
X245518Y170211D01*
X245911Y169818D01*
X246423Y169606D01*
X246977D01*
X247490Y169818D01*
X247850Y170179D01*
X248211Y169818D01*
X248723Y169606D01*
X249277D01*
X249790Y169818D01*
X250150Y170179D01*
X250511Y169818D01*
X251023Y169606D01*
X251577D01*
X252090Y169818D01*
X252482Y170211D01*
X252694Y170723D01*
Y171277D01*
X252482Y171790D01*
X252090Y172181D01*
X251577Y172394D01*
D02*
G37*
G36*
X252077Y154894D02*
X251523D01*
X251010Y154682D01*
X250650Y154321D01*
X250290Y154682D01*
X249777Y154894D01*
X249223D01*
X248710Y154682D01*
X248350Y154321D01*
X247990Y154682D01*
X247477Y154894D01*
X246923D01*
X246410Y154682D01*
X246019Y154289D01*
X245806Y153777D01*
Y153223D01*
X246019Y152710D01*
X246410Y152319D01*
X246923Y152106D01*
X247477D01*
X247990Y152319D01*
X248350Y152679D01*
X248710Y152319D01*
X249223Y152106D01*
X249777D01*
X250290Y152319D01*
X250650Y152679D01*
X251010Y152319D01*
X251523Y152106D01*
X252077D01*
X252590Y152319D01*
X252981Y152710D01*
X253194Y153223D01*
Y153777D01*
X252981Y154289D01*
X252590Y154682D01*
X252077Y154894D01*
D02*
G37*
G36*
Y149894D02*
X251523D01*
X251010Y149681D01*
X250650Y149321D01*
X250290Y149681D01*
X249777Y149894D01*
X249223D01*
X248710Y149681D01*
X248350Y149321D01*
X247990Y149681D01*
X247477Y149894D01*
X246923D01*
X246410Y149681D01*
X246019Y149290D01*
X245806Y148777D01*
Y148223D01*
X246019Y147711D01*
X246410Y147318D01*
X246923Y147106D01*
X247477D01*
X247990Y147318D01*
X248350Y147679D01*
X248710Y147318D01*
X249223Y147106D01*
X249777D01*
X250290Y147318D01*
X250650Y147679D01*
X251010Y147318D01*
X251523Y147106D01*
X252077D01*
X252590Y147318D01*
X252981Y147711D01*
X253194Y148223D01*
Y148777D01*
X252981Y149290D01*
X252590Y149681D01*
X252077Y149894D01*
D02*
G37*
G36*
Y144894D02*
X251523D01*
X251010Y144682D01*
X250650Y144321D01*
X250290Y144682D01*
X249777Y144894D01*
X249223D01*
X248710Y144682D01*
X248350Y144321D01*
X247990Y144682D01*
X247477Y144894D01*
X246923D01*
X246410Y144682D01*
X246019Y144290D01*
X245806Y143777D01*
Y143223D01*
X246019Y142710D01*
X246410Y142318D01*
X246923Y142106D01*
X247477D01*
X247990Y142318D01*
X248350Y142679D01*
X248710Y142318D01*
X249223Y142106D01*
X249777D01*
X250290Y142318D01*
X250650Y142679D01*
X251010Y142318D01*
X251523Y142106D01*
X252077D01*
X252590Y142318D01*
X252981Y142710D01*
X253194Y143223D01*
Y143777D01*
X252981Y144290D01*
X252590Y144682D01*
X252077Y144894D01*
D02*
G37*
%LPD*%
D14*
X237000Y163000D02*
X241500Y158500D01*
X237000Y163000D02*
Y164500D01*
X160000Y134000D02*
Y157500D01*
X143500Y117500D02*
X160000Y134000D01*
Y157500D02*
X174500Y172000D01*
X149500Y162000D02*
Y192500D01*
X147000Y159500D02*
X149500Y162000D01*
X241575Y112469D02*
X245468D01*
X247000Y114000D01*
X241000Y111500D02*
Y111894D01*
X241575Y112469D01*
X241000Y111894D02*
Y118500D01*
Y106000D02*
X243500Y103500D01*
X235213Y106000D02*
Y111500D01*
Y118500D02*
Y124000D01*
D19*
X197000Y112500D02*
X199750Y115250D01*
Y123385D01*
X198371Y108500D02*
X199371Y109500D01*
X180000Y108500D02*
X198371D01*
X174000Y114500D02*
X180000Y108500D01*
X199371Y109500D02*
X199500D01*
X187000Y102500D02*
X212000D01*
X183500Y106000D02*
X187000Y102500D01*
X180952Y112548D02*
Y114048D01*
X176500Y118500D02*
Y125000D01*
X180952Y112548D02*
X181000Y112500D01*
X176500Y118500D02*
X180952Y114048D01*
X208500Y137000D02*
X214500D01*
X196889Y125389D02*
X208500Y137000D01*
X196889Y119707D02*
Y125389D01*
X189682Y112500D02*
X196889Y119707D01*
X181000Y112500D02*
X189682D01*
X217654Y139250D02*
X219904Y137000D01*
X205750Y139250D02*
X217654D01*
X219904Y137000D02*
X220000D01*
X194500Y128000D02*
X205750Y139250D01*
X174000Y128000D02*
X194500D01*
X205365Y129000D02*
X205500D01*
X199750Y123385D02*
X205365Y129000D01*
X230500Y128500D02*
X232000Y127000D01*
Y110500D02*
Y127000D01*
X223000Y128500D02*
X230500D01*
X228500Y124500D02*
X229750Y123250D01*
Y116068D02*
Y123250D01*
X216500Y124500D02*
X228500D01*
X227500Y117000D02*
Y120500D01*
X226000Y122000D02*
X227500Y120500D01*
X215818Y122000D02*
X226000D01*
X229596Y114096D02*
Y115914D01*
X229500Y114000D02*
X229596Y114096D01*
Y115914D02*
X229750Y116068D01*
X213818Y124000D02*
X215818Y122000D01*
X210000Y124000D02*
X213818D01*
D22*
X237000Y151716D02*
X238847Y153563D01*
X237000Y151500D02*
Y151716D01*
X238847Y155847D02*
X239000Y156000D01*
X238847Y153563D02*
Y155847D01*
X184000Y202500D02*
Y226500D01*
X182000Y228500D02*
X184000Y226500D01*
Y202500D02*
X186000Y200500D01*
X240947Y177840D02*
X244500Y181394D01*
Y186000D01*
X246000Y223000D02*
X288000D01*
X295000Y216000D01*
X241000Y124000D02*
X245500D01*
X249000Y127500D01*
X293000Y130500D02*
X295000Y132500D01*
Y216000D01*
X247000Y118500D02*
X259000Y130500D01*
X293000D01*
D34*
X241000Y106000D02*
D03*
Y124000D02*
D03*
X235213Y106000D02*
D03*
Y124000D02*
D03*
X241000Y111500D02*
D03*
X235213D02*
D03*
Y118500D02*
D03*
X241000D02*
D03*
D42*
X255300Y209500D02*
D03*
Y204500D02*
D03*
Y199500D02*
D03*
Y194500D02*
D03*
X277700D02*
D03*
Y199500D02*
D03*
Y204500D02*
D03*
Y209500D02*
D03*
X255300Y153500D02*
D03*
Y148500D02*
D03*
Y143500D02*
D03*
Y138500D02*
D03*
X277700D02*
D03*
Y143500D02*
D03*
Y148500D02*
D03*
Y153500D02*
D03*
X254800Y181000D02*
D03*
Y176000D02*
D03*
Y171000D02*
D03*
Y166000D02*
D03*
X277200D02*
D03*
Y171000D02*
D03*
Y176000D02*
D03*
Y181000D02*
D03*
D62*
X117500Y248500D02*
D03*
Y238500D02*
D03*
X117000Y155000D02*
D03*
Y150000D02*
D03*
X117500Y228500D02*
D03*
X117000Y165000D02*
D03*
X117500Y243500D02*
D03*
X117000Y160000D02*
D03*
X112500Y238500D02*
D03*
Y228500D02*
D03*
Y243500D02*
D03*
X112000Y160000D02*
D03*
Y145000D02*
D03*
Y155000D02*
D03*
X112500Y248500D02*
D03*
X112000Y165000D02*
D03*
Y150000D02*
D03*
X117000Y145000D02*
D03*
X112500Y233500D02*
D03*
X117500D02*
D03*
D68*
X214500Y154500D02*
Y167763D01*
X216500Y169763D01*
X222500Y157000D02*
Y169825D01*
X227500Y166868D02*
Y170000D01*
X226000Y165368D02*
X227500Y166868D01*
X217000Y165000D02*
X218786Y163214D01*
Y154714D02*
Y163214D01*
X226000Y162000D02*
Y165368D01*
X206000Y163000D02*
X218422Y175422D01*
X226000Y162000D02*
X232000Y156000D01*
X234400Y169818D02*
Y171900D01*
X234000Y169418D02*
X234400Y169818D01*
X234000Y144500D02*
Y169418D01*
X234400Y171900D02*
X234518Y172018D01*
X218786Y154714D02*
X244000Y129500D01*
X253500D01*
X200385Y155885D02*
Y163885D01*
X207500Y171000D01*
X201077Y178500D02*
X205500D01*
X195978Y177500D02*
X200077D01*
X201077Y178500D01*
X180500Y201000D02*
Y208000D01*
Y201000D02*
X195500Y186000D01*
X197230Y187770D02*
X201088D01*
X194500Y190500D02*
X197230Y187770D01*
X195338Y178140D02*
X195978Y177500D01*
X201817Y188500D02*
X206000D01*
X201088Y187770D02*
X201817Y188500D01*
X179500Y172000D02*
X185640Y178140D01*
X195338D01*
X195000Y194500D02*
X213500D01*
X197500Y192500D02*
X210500D01*
X235000Y178250D02*
Y184500D01*
X238500Y197000D02*
X241000D01*
X244500Y191000D02*
Y193500D01*
X241000Y197000D02*
X244500Y193500D01*
X218422Y175422D02*
Y194811D01*
X217000Y196233D02*
X218422Y194811D01*
X217000Y196233D02*
Y196500D01*
X206000Y148000D02*
Y163000D01*
X202500Y144500D02*
X206000Y148000D01*
X271182Y131982D02*
X276202Y137002D01*
X246518Y131982D02*
X271182D01*
X234000Y144500D02*
X246518Y131982D01*
X184000Y130500D02*
Y139500D01*
X200385Y155885D01*
X244000Y163000D02*
Y169250D01*
Y272541D02*
Y276000D01*
Y272541D02*
X245400Y271141D01*
Y249225D02*
Y271141D01*
X245000Y248825D02*
X245400Y249225D01*
X245000Y248500D02*
Y248825D01*
X278300Y166000D02*
X280270Y164030D01*
Y163230D02*
X280500Y163000D01*
X280270Y163230D02*
Y164030D01*
X277200Y166000D02*
X278300D01*
X276202Y138000D02*
X276701Y138500D01*
X277700D01*
X276202Y137002D02*
Y138000D01*
X235000Y178250D02*
X244000Y169250D01*
X281270Y190730D02*
Y192030D01*
Y190730D02*
X281500Y190500D01*
X278800Y194500D02*
X281270Y192030D01*
X277700Y194500D02*
X278800D01*
D71*
X261500Y207000D02*
D03*
Y151000D02*
D03*
X261000Y178500D02*
D03*
D72*
X145311Y245130D02*
D03*
D73*
X176807Y284500D02*
D03*
X133500D02*
D03*
D74*
X164996Y245130D02*
D03*
D75*
X192500Y287496D02*
D03*
D76*
Y272929D02*
D03*
Y256000D02*
D03*
Y241433D02*
D03*
D77*
X241500Y158500D02*
D03*
X216500Y169763D02*
D03*
X222500Y169825D02*
D03*
X227500Y170000D02*
D03*
X217000Y165000D02*
D03*
X214500Y154500D02*
D03*
X227000Y155500D02*
D03*
X232000Y156000D02*
D03*
X222500Y157000D02*
D03*
X237000Y164500D02*
D03*
X234518Y172018D02*
D03*
X236000Y128500D02*
D03*
X239000Y156000D02*
D03*
X237000Y151500D02*
D03*
X218000Y235500D02*
D03*
X216000D02*
D03*
X214000D02*
D03*
X222000D02*
D03*
X220000D02*
D03*
X212000D02*
D03*
X216000Y233000D02*
D03*
X214000D02*
D03*
X212000D02*
D03*
X222000D02*
D03*
X220000D02*
D03*
X218000D02*
D03*
X216500Y193000D02*
D03*
X203000Y113000D02*
D03*
X197000Y112500D02*
D03*
X183500Y106000D02*
D03*
X198000D02*
D03*
X207500Y171000D02*
D03*
X205500Y178500D02*
D03*
X201500Y182500D02*
D03*
X195500Y186000D02*
D03*
X127000Y180500D02*
D03*
Y174500D02*
D03*
X202000Y208500D02*
D03*
X156500Y155000D02*
D03*
X152000Y155500D02*
D03*
X190500Y169000D02*
D03*
X180500Y208000D02*
D03*
X186000Y200500D02*
D03*
X182000Y228500D02*
D03*
X206000Y188500D02*
D03*
X194500Y190500D02*
D03*
X176500Y125000D02*
D03*
X181000Y112500D02*
D03*
X214500Y137000D02*
D03*
X179500Y172000D02*
D03*
X174500D02*
D03*
X143500Y117500D02*
D03*
X213500Y194500D02*
D03*
X195000D02*
D03*
X220000Y137000D02*
D03*
X174000Y128000D02*
D03*
X147000Y159500D02*
D03*
X149500Y192500D02*
D03*
X205500Y129000D02*
D03*
X197500Y192500D02*
D03*
X210500D02*
D03*
X235000Y184500D02*
D03*
X133000Y205000D02*
D03*
X149500Y204500D02*
D03*
X148000Y223500D02*
D03*
X142500Y218000D02*
D03*
X203000Y199000D02*
D03*
X244500Y186000D02*
D03*
X217000Y196500D02*
D03*
X221000Y197000D02*
D03*
X225000Y195500D02*
D03*
X223000Y194500D02*
D03*
X210000Y173500D02*
D03*
X247000Y114000D02*
D03*
X196000Y180500D02*
D03*
X246000Y223000D02*
D03*
X212000Y102500D02*
D03*
X202500Y144500D02*
D03*
X188500Y156000D02*
D03*
X191200Y276500D02*
D03*
X193500D02*
D03*
X191200Y280000D02*
D03*
X193500D02*
D03*
X191200Y283500D02*
D03*
X193500D02*
D03*
X224500Y184500D02*
D03*
Y182500D02*
D03*
Y180500D02*
D03*
Y178500D02*
D03*
X214500D02*
D03*
Y180500D02*
D03*
Y182500D02*
D03*
Y184500D02*
D03*
X199800Y290500D02*
D03*
X197500D02*
D03*
X199800Y287000D02*
D03*
X197500D02*
D03*
X199800Y283500D02*
D03*
X197500D02*
D03*
X199800Y278000D02*
D03*
X197500D02*
D03*
Y274500D02*
D03*
X199800D02*
D03*
X197500Y271000D02*
D03*
X199800D02*
D03*
X187500Y290500D02*
D03*
X185200D02*
D03*
X187500Y287000D02*
D03*
X185200D02*
D03*
X187500Y283500D02*
D03*
X185200D02*
D03*
X187500Y278000D02*
D03*
X185200D02*
D03*
Y274500D02*
D03*
X187500D02*
D03*
X185200Y271000D02*
D03*
X187500D02*
D03*
X171000Y151500D02*
D03*
X138000Y116500D02*
D03*
X135500Y155500D02*
D03*
X132000Y139000D02*
D03*
X109500Y181500D02*
D03*
X116000D02*
D03*
X140500Y189500D02*
D03*
X154000Y138500D02*
D03*
X198000Y219000D02*
D03*
X192500D02*
D03*
X113000Y213500D02*
D03*
X170000Y227500D02*
D03*
X157000Y217000D02*
D03*
X214500Y293000D02*
D03*
X164000Y119500D02*
D03*
X160500Y110500D02*
D03*
X176000Y149500D02*
D03*
X183500Y152500D02*
D03*
X193500Y171500D02*
D03*
X249000Y127500D02*
D03*
X253500Y129500D02*
D03*
X227500Y117000D02*
D03*
X240947Y177840D02*
D03*
X268000Y226000D02*
D03*
Y229500D02*
D03*
X265500Y226000D02*
D03*
Y229500D02*
D03*
X263000Y226000D02*
D03*
Y229500D02*
D03*
Y233000D02*
D03*
X268000D02*
D03*
X265500D02*
D03*
X283000Y226000D02*
D03*
Y229500D02*
D03*
Y233000D02*
D03*
X280500D02*
D03*
Y229500D02*
D03*
Y226000D02*
D03*
X278000D02*
D03*
Y229500D02*
D03*
Y233000D02*
D03*
X247000Y118500D02*
D03*
X232500Y213000D02*
D03*
X249000Y134500D02*
D03*
X237500Y147500D02*
D03*
X184000Y130500D02*
D03*
X238500Y197000D02*
D03*
X244000Y163000D02*
D03*
X257000Y103000D02*
D03*
X243500Y103500D02*
D03*
X194500Y144000D02*
D03*
X193500Y119500D02*
D03*
X202000Y119000D02*
D03*
X174000Y114500D02*
D03*
X199500Y109500D02*
D03*
X210000Y124000D02*
D03*
X229500Y114000D02*
D03*
X216500Y124500D02*
D03*
X232000Y110500D02*
D03*
X223000Y128500D02*
D03*
X222000Y230500D02*
D03*
X212000D02*
D03*
X216000D02*
D03*
X214000D02*
D03*
X220000D02*
D03*
X218000D02*
D03*
X285000Y243000D02*
D03*
Y245300D02*
D03*
Y247600D02*
D03*
X281500Y243000D02*
D03*
Y245300D02*
D03*
Y247600D02*
D03*
X278000Y243000D02*
D03*
Y245300D02*
D03*
Y247600D02*
D03*
X274500Y243000D02*
D03*
Y245300D02*
D03*
Y247600D02*
D03*
X271000Y243000D02*
D03*
Y245300D02*
D03*
Y247600D02*
D03*
X197500Y159000D02*
D03*
X267500Y247600D02*
D03*
Y245300D02*
D03*
Y243000D02*
D03*
X264000Y247600D02*
D03*
Y245300D02*
D03*
Y243000D02*
D03*
X247200Y143500D02*
D03*
X249500Y148500D02*
D03*
X247200D02*
D03*
X249500Y143500D02*
D03*
X251800D02*
D03*
X247200Y153500D02*
D03*
X249500D02*
D03*
X251800D02*
D03*
Y148500D02*
D03*
X246700Y171000D02*
D03*
X249000D02*
D03*
X251300Y181000D02*
D03*
X249000D02*
D03*
Y176000D02*
D03*
X251300D02*
D03*
Y171000D02*
D03*
X246700Y176000D02*
D03*
Y181000D02*
D03*
X247200Y209500D02*
D03*
Y204500D02*
D03*
Y199500D02*
D03*
X251800D02*
D03*
X249500D02*
D03*
X251800Y204500D02*
D03*
X249500D02*
D03*
Y209500D02*
D03*
X251800D02*
D03*
X283500Y196500D02*
D03*
X287500D02*
D03*
X291500D02*
D03*
Y193000D02*
D03*
X287500D02*
D03*
X283500D02*
D03*
Y207500D02*
D03*
X287500D02*
D03*
X291500D02*
D03*
Y211000D02*
D03*
X287500D02*
D03*
X283500D02*
D03*
Y167750D02*
D03*
X287500D02*
D03*
X291500D02*
D03*
Y164250D02*
D03*
X287500D02*
D03*
X283500D02*
D03*
Y178750D02*
D03*
X287500D02*
D03*
X291500D02*
D03*
Y182250D02*
D03*
X287500D02*
D03*
X283500D02*
D03*
Y155000D02*
D03*
X287500D02*
D03*
X291500D02*
D03*
Y151500D02*
D03*
X287500D02*
D03*
X283500D02*
D03*
Y137000D02*
D03*
X287500D02*
D03*
X291500D02*
D03*
Y140500D02*
D03*
X287500D02*
D03*
X283500D02*
D03*
X280500Y163000D02*
D03*
X281500Y190500D02*
D03*
X244500Y191000D02*
D03*
D78*
X243000Y268500D02*
D03*
X217000Y264500D02*
D03*
X216975Y258025D02*
D03*
X217000Y252500D02*
D03*
X262000Y271500D02*
D03*
X256500D02*
D03*
X251000D02*
D03*
X243500Y289500D02*
D03*
X244000Y276000D02*
D03*
X245000Y248500D02*
D03*
X206500Y221000D02*
D03*
X239000Y250000D02*
D03*
X230000Y264500D02*
D03*
Y252500D02*
D03*
Y258500D02*
D03*
D79*
X281000Y281000D02*
D03*
X115500D02*
D03*
X281000Y115500D02*
D03*
X115500D02*
D03*
D88*
X216500Y226000D02*
D03*
Y207260D02*
D03*
D89*
X206500Y221000D02*
Y265500D01*
X230500Y289500D02*
X243500D01*
X206500Y265500D02*
X230500Y289500D01*
M02*
