M48
;Layer_Color=9474304
;FILE_FORMAT=2:5
INCH,LZ
;TYPE=PLATED
T01F00S00C0.01200
T02F00S00C0.02000
T03F00S00C0.02800
T04F00S00C0.03071
T05F00S00C0.03937
T06F00S00C0.06693
T07F00S00C0.12600
%
T01
X0138Y01165
X01435Y01175
X0154Y01385
X0152Y01555
X01355
X0132Y0139
X01565Y0155
X0171Y01515
X0176Y01495
X01835Y01525
X01885Y0156
X01945Y0144
X02025Y01445
X02055Y0129
X021Y0124
X02165Y01245
X0223Y01285
X022Y0137
X02145
Y01545
X0227Y01555
X0232Y0156
X0239
X0237Y01515
X02375Y01475
X02472Y01485
X02495
X02518
Y01435
X02495
X02472
Y01535
X02495
X02518
X0249Y01345
Y01275
X02535Y01295
X0247Y01185
Y0114
X02435Y01035
X0257Y0103
X0232Y01105
X02295Y0114
X02275Y0117
X0236Y01285
X0202Y0119
X0203Y0113
X0197Y01125
X01995Y01095
X0198Y0106
X01835
X0181Y01125
X0174Y01145
X01765Y0125
X0174Y0128
X0184Y01305
X01935Y01195
X0164
X01605Y01105
X0212Y01025
X02835Y0137
Y01405
X02875
Y0137
X02915
Y01405
Y01515
Y0155
X02875
Y01515
X02835
Y0155
Y016425
Y016775
X02875
Y016425
X02915
Y016775
Y017875
Y018225
X02875
Y017875
X02835
Y018225
X02815Y01905
X02835Y0193
Y01965
X02875
Y0193
X02915
Y01965
Y02075
Y0211
X02875
Y02075
X02835
Y0211
X0283Y0226
X02805
X0278
Y02295
X02805
X0283
Y0233
X02805
X0278
X0268
X02655
X0263
Y02295
X02655
X0268
Y0226
X02655
X0263
X0264Y0243
Y02453
Y02476
X02675
Y02453
Y0243
X0271
Y02453
Y02476
X02745
Y02453
Y0243
X0278
Y02453
Y02476
X02815
Y02453
Y0243
X0285
Y02453
Y02476
X0246Y0223
X02472Y02095
X02495
X02518
Y02045
X02495
X02472
Y01995
X02495
X02518
X02385Y0197
X02445Y0191
Y0186
X02467Y0181
X0249
X02513
Y0176
X0249
X02467
Y0171
X0249
X02513
X0244Y0163
X02415Y01585
X0237Y01645
X0234518Y0172018
X02275Y017
X02225Y0169825
X02165Y0169763
X0217Y0165
X02225Y0157
X02245Y01785
Y01805
Y01825
Y01845
X02145
Y01825
Y01805
Y01785
X02055
X02015Y01825
X0196Y01805
X01955Y0186
X01945Y01905
X0195Y01945
X01975Y01925
X0203Y0199
X0202Y02085
X0198Y0219
X01925
X0182Y02285
X017Y02275
X0157Y0217
X01805Y0208
X0186Y02005
X0206Y01885
X02105Y01925
X02135Y01945
X02165Y0193
X0217Y01965
X0221Y0197
X0223Y01945
X0225Y01955
X0235Y01845
X0240947Y017784
X021Y01735
X02075Y0171
X01935Y01715
X01905Y0169
X01795Y0172
X01745
X01975Y0159
X0212Y02305
X0214
X0216
X0218
X022
X0222
Y0233
X022
X0218
X0216
X0214
X0212
Y02355
X0214
X0216
X0218
X022
X0222
X02325Y0213
X01998Y0271
X01975
Y02745
X01998
Y0278
X01975
X01935Y02765
X01912
Y028
X01935
Y02835
X01912
X01875
X01852
Y0287
X01875
Y02905
X01852
X01975
X01998
Y0287
X01975
Y02835
X01998
X01875Y0278
X01852
Y02745
X01875
Y0271
X01852
X02145Y0293
X02805Y0163
X0147Y01595
X0127Y01745
Y01805
X0116Y01815
X01095
X0113Y02135
X0133Y0205
X01495Y02045
Y01925
X01405Y01895
X01425Y0218
X0148Y02235
T02
X02065Y0221
X0217Y02525
X0216975Y0258025
X0217Y02645
X023
Y02585
Y02525
X0239Y025
X0245Y02485
X0243Y02685
X0244Y0276
X0251Y02715
X02565
X0262
X02435Y02895
T03
X0112Y0145
Y015
X0117
Y0155
X0112
X0117Y0145
Y016
Y0165
X0112
Y016
X01125Y02285
X01175
Y02335
Y02385
Y02435
Y02485
X01125
Y02435
Y02385
Y02335
T04
X01925Y0241433
Y0256
Y0272929
Y0287496
T05
X0176807Y02845
X01335
T06
X0164996Y024513
X0145311
T07
X01155Y01155
X0281
Y0281
X01155
M30
