G04*
G04 #@! TF.GenerationSoftware,Altium Limited,Altium Designer,25.5.2 (35)*
G04*
G04 Layer_Color=8388736*
%FSLAX25Y25*%
%MOIN*%
G70*
G04*
G04 #@! TF.SameCoordinates,3D69C69A-2BEB-43E9-B881-948C697E0A66*
G04*
G04*
G04 #@! TF.FilePolarity,Positive*
G04*
G01*
G75*
%ADD16C,0.00500*%
%ADD93C,0.00100*%
D16*
X221697Y206591D02*
Y226669D01*
X211303Y206591D02*
Y226669D01*
Y206591D02*
X221697D01*
X211303Y226669D02*
X221697D01*
X241650Y103992D02*
Y108008D01*
X234563Y103992D02*
Y108008D01*
X241650D01*
X234563Y103992D02*
X241650D01*
X234563Y121992D02*
Y126008D01*
X241650Y121992D02*
Y126008D01*
X234563Y121992D02*
X241650D01*
X234563Y126008D02*
X241650D01*
X234563Y109492D02*
Y113508D01*
X241650Y109492D02*
Y113508D01*
X234563Y109492D02*
X241650D01*
X234563Y113508D02*
X241650D01*
Y116492D02*
Y120508D01*
X234563Y116492D02*
Y120508D01*
X241650D01*
X234563Y116492D02*
X241650D01*
D93*
X265300Y211850D02*
G03*
X267700Y211850I1200J0D01*
G01*
X265300Y155850D02*
G03*
X267700Y155850I1200J0D01*
G01*
X264800Y183350D02*
G03*
X267200Y183350I1200J0D01*
G01*
X277900Y192150D02*
Y211850D01*
X255100D02*
X277900D01*
X255100Y192150D02*
Y211850D01*
Y192150D02*
X277900D01*
Y136150D02*
Y155850D01*
X255100D02*
X277900D01*
X255100Y136150D02*
Y155850D01*
Y136150D02*
X277900D01*
X277400Y163650D02*
Y183350D01*
X254600D02*
X277400D01*
X254600Y163650D02*
Y183350D01*
Y163650D02*
X277400D01*
M02*
